<svg xmlns="http://www.w3.org/2000/svg" xmlns:xlink="http://www.w3.org/1999/xlink" viewBox="0 0 435.4 435.4"><defs><style>.a{opacity:0.84;fill:url(#a);}.b{fill:#231f20;}.c{opacity:0.15;}.d{fill:#fff;}</style><linearGradient id="a" x1="3.47" y1="217.72" x2="431.97" y2="217.72" gradientTransform="translate(14.7 -13.8) rotate(3.7)" gradientUnits="userSpaceOnUse"><stop offset="0.17" stop-color="#ee1e3a"/><stop offset="0.5" stop-color="#662d91"/><stop offset="0.86" stop-color="#6482c1"/></linearGradient></defs><title>Typo-Logo</title><rect class="a" x="16.2" y="16.2" width="403" height="403.03" transform="translate(-13.8 14.7) rotate(-3.7)"/><path class="b" d="M412.4,435.4,0,412.4,23,0,435.4,23ZM10.5,403,403,424.9,424.9,32.5,32.5,10.5Z"/><g class="c"><path class="d" d="M382.7,360.3H295l-24.3-28.8a115.1,115.1,0,0,1-40.5,25.9,130.4,130.4,0,0,1-47.2,9.2q-24.3,0-43.9-7.4a98.1,98.1,0,0,1-33.3-20.5,88.7,88.7,0,0,1-21.1-31.3,104.6,104.6,0,0,1-7.4-39.8q0-19.3,7.2-34A101.5,101.5,0,0,1,102.1,208a131.9,131.9,0,0,1,22.5-18.9q11.9-7.9,21.4-13.3-2.7-3.1-7.4-9.2a87.4,87.4,0,0,1-9-14.6,146.8,146.8,0,0,1-7.7-18.4,62.3,62.3,0,0,1-3.4-20.2q0-10.3,3.8-23.9a67.6,67.6,0,0,1,14-25.4Q146.5,52.1,164,43.7t44.5-8.3q19.8,0,35.5,6.5a79,79,0,0,1,26.5,17.5,76.6,76.6,0,0,1,22.1,53.8q0,27.5-15.1,47.3a140.6,140.6,0,0,1-37.1,33.8l33.3,39.6a48.6,48.6,0,0,0,2.7-7,56.2,56.2,0,0,0,2-9l1.4-9.2a52.8,52.8,0,0,0,.7-7.6h64.3a122,122,0,0,1-2.7,16,200.3,200.3,0,0,1-6.3,21.8,236.9,236.9,0,0,1-9.7,23.6,138.2,138.2,0,0,1-12.4,21.4Zm-80.6-76.5a185.6,185.6,0,0,0,30.2-72.9H290.9a75.9,75.9,0,0,1-2.2,8.5q-1.8,5.9-4,12.4a114.3,114.3,0,0,1-5,12.2q-2.7,5.6-4.5,7.4l-49.5-60.3a231.5,231.5,0,0,0,22.5-14.2,99.9,99.9,0,0,0,18-16.4A68.1,68.1,0,0,0,278.1,140a75.2,75.2,0,0,0,4.3-26.3q0-16.2-5.8-28.8a63.1,63.1,0,0,0-16-21.4A72.5,72.5,0,0,0,237.1,50a84.6,84.6,0,0,0-28.6-4.7q-24.8,0-40.3,7.9T144,71.8a60.7,60.7,0,0,0-11.9,22.5q-3.2,11.7-3.1,19.4a57.8,57.8,0,0,0,2.9,18,93.3,93.3,0,0,0,7.6,17.3,182.2,182.2,0,0,0,10.4,16.2q5.6,7.9,11,14.2-9.5,4.5-22.1,11.7a138.9,138.9,0,0,0-24.1,17.6,92,92,0,0,0-19.4,25q-7.9,14.6-7.9,34a100.7,100.7,0,0,0,5.6,33.3,80.2,80.2,0,0,0,17.1,28.6q11.5,12.4,29.5,19.8t43.2,7.4a114.7,114.7,0,0,0,48.6-10.6,122.8,122.8,0,0,0,40-29.5l28.3,33.8h61.2Zm-56.7,0-8.1,9a71.1,71.1,0,0,1-12.1,10.3,78.5,78.5,0,0,1-16.7,8.5,60.3,60.3,0,0,1-21.6,3.6q-21.6,0-36-13.5t-14.4-35.1a38.3,38.3,0,0,1,4.5-18.9,60.6,60.6,0,0,1,11.7-14.9,90.3,90.3,0,0,1,16-11.9l17.3-10.1Zm-62.6-59.9L169.6,232a63.4,63.4,0,0,0-11.5,9,42.9,42.9,0,0,0-8.1,11.3,31.8,31.8,0,0,0-3.1,14.4q0,17.1,10.8,27.9T187,305.4q14.4,0,25.4-6.3A84.9,84.9,0,0,0,232,283.8Zm19.4-61.2q-4.5-5.4-9.7-11.2a128.4,128.4,0,0,1-9.7-12.4,81.3,81.3,0,0,1-7.6-13.7,36.6,36.6,0,0,1-3.1-14.9q0-15.7,10.1-24.7t24.5-9A35.9,35.9,0,0,1,223,80.2a31.1,31.1,0,0,1,10.8,8.5,36.3,36.3,0,0,1,6.1,11.7,43.2,43.2,0,0,1,2,12.8,36.1,36.1,0,0,1-4.5,18.2,58.9,58.9,0,0,1-11,14,91.1,91.1,0,0,1-13.3,10.4Zm2.3-12.2A137.2,137.2,0,0,0,223,135.5q8.5-8.3,8.5-22.3,0-11.7-6.3-19.1t-18.5-7.4A25.1,25.1,0,0,0,189.7,93q-7.2,6.3-7.2,17.1t7,20Q196.4,140.2,204.5,150.6Z"/></g><path class="b" d="M138.2,61.3v2.9H121.1v72.1h-3.3V64.2H100.5V61.3Z"/><path class="b" d="M174.3,136.3H171v-30l-22.8-45h3.6l21.1,41.5,20.7-41.5h3l-22.3,45Z"/><path class="b" d="M212,61.3h3.3A24.4,24.4,0,0,1,233,68.4a22.8,22.8,0,0,1,7.3,16.9,22,22,0,0,1-7.5,16.7q-7.6,7-16.7,7h-.8v27.3H212Zm3.3,44.9h.8A21.3,21.3,0,0,0,237,85.3a20.2,20.2,0,0,0-6.4-14.8,20.1,20.1,0,0,0-14.6-6.3h-.8Z"/><path class="b" d="M265.5,125.9q-11.3-11.7-11.3-27.4t11.5-27.1a38.9,38.9,0,0,1,55.1,0,37.1,37.1,0,0,1,11.4,27.1,38.1,38.1,0,0,1-11.3,27.4q-11.3,11.7-27,11.6h-1.5Q276.8,137.6,265.5,125.9Zm63.4-27.1a34.7,34.7,0,0,0-10.5-25.3,35.4,35.4,0,0,0-50.5,0,35.8,35.8,0,0,0,0,50.6,35.3,35.3,0,0,0,50.4,0A34.8,34.8,0,0,0,328.8,98.7Z"/><path class="b" d="M135.3,215.7v-2.9h28.1v27.1a36.6,36.6,0,0,1-19.8,5.5h-1.1a36.4,36.4,0,0,1-19.2-5.4,39.7,39.7,0,0,1-14.1-14.4,38.9,38.9,0,0,1,33.9-57.9,39.7,39.7,0,0,1,20.3,5.6v3.7a35.4,35.4,0,0,0-20.3-6.4,35.9,35.9,0,0,0-35.7,35.9,34.8,34.8,0,0,0,10.5,25.4,34.2,34.2,0,0,0,25.2,10.6,39.4,39.4,0,0,0,17-4.2V215.7Z"/><path class="b" d="M178.4,169.3h4.3a23.7,23.7,0,0,1,17.1,7.1,22.7,22.7,0,0,1,7.4,16.8,22.3,22.3,0,0,1-7.5,16.8q-7.5,7.1-16.1,7.1h-.7l25.8,27.2h-4.3l-22.7-23.8v23.8h-3.2Zm3.2,44.9h1.8a19.6,19.6,0,0,0,14.3-6.2,21.2,21.2,0,0,0-14.8-35.8h-1.3Z"/><path class="b" d="M254,167.5l37.5,76.8H288l-14.2-28.6H233.7l-14,28.6h-3.1Zm-.3,6.9L235,212.8h37.6Z"/><path class="b" d="M303.9,169.3h3.3a24.4,24.4,0,0,1,17.7,7.1,22.8,22.8,0,0,1,7.3,16.9,22,22,0,0,1-7.5,16.7q-7.6,7-16.7,7h-.8v27.3h-3.3Zm3.3,44.9h.8a21,21,0,0,0,0-42h-.8Z"/><path class="b" d="M163.3,277.3h3.3v75h-3.3V323.7H111.9v28.6h-3.3v-75h3.3v43.5h51.4Z"/><path class="b" d="M189.1,277.3h3.3v75h-3.3Z"/><path class="b" d="M251.4,353.4h-1.1a36.4,36.4,0,0,1-19.2-5.4,39.7,39.7,0,0,1-14.1-14.4,38.9,38.9,0,0,1,33.9-57.8,39.7,39.7,0,0,1,20.3,5.6v3.7a35.4,35.4,0,0,0-20.3-6.4,35.9,35.9,0,0,0-35.7,35.8,34.8,34.8,0,0,0,10.5,25.3,34.2,34.2,0,0,0,25.2,10.6,35.4,35.4,0,0,0,20.3-6.4v3.7A37.1,37.1,0,0,1,251.4,353.4Z"/><path class="b" d="M315.7,281.3a16.7,16.7,0,0,0-8.9-2.4,12.2,12.2,0,0,0-8.3,3.1,10.6,10.6,0,0,0-3.5,8.3v.5q0,6.3,7,11.5a71.7,71.7,0,0,0,6.8,4.3l7.5,4.6a55.4,55.4,0,0,1,6.8,5.2,21.9,21.9,0,0,1,5,6.8,19.8,19.8,0,0,1,2,8.8v1q0,9.5-6.5,15.1a23.5,23.5,0,0,1-15.9,5.6q-12.5,0-19.4-10.3V338a22.5,22.5,0,0,0,7.7,9.3,21.3,21.3,0,0,0,12.5,3.5,19.1,19.1,0,0,0,13-4.8,16.1,16.1,0,0,0,5.5-12.8v-.6a16.9,16.9,0,0,0-2.6-9.1,22.7,22.7,0,0,0-6.5-6.8l-8.5-5.5-8.5-5.4a22.5,22.5,0,0,1-6.5-6.3,14.4,14.4,0,0,1-2.6-8.3v-.7q0-7,4.5-10.7a16.9,16.9,0,0,1,11.1-3.7,17.7,17.7,0,0,1,14.6,6.8v5.1A17.3,17.3,0,0,0,315.7,281.3Z"/><path class="b" d="M109.1,381v-4H114v4h1.7v3.1H114v6a2.2,2.2,0,0,0,.1.9.8.8,0,0,0,.8.3h.8v3.2h-2.4a7.4,7.4,0,0,1-3.1-.4q-1-.6-1-2.7v-7.4h-1.5V381Z"/><path class="b" d="M120.8,394.5,117,381h5l1.2,8.2h0l1.1-8.2h4.9l-3.5,13.4a8.1,8.1,0,0,1-1.5,3.5,4.9,4.9,0,0,1-3.6,1l-2.3-.2v-3.1h1.3A1,1,0,0,0,120.8,394.5Z"/><path class="b" d="M131.3,398.9V381h4.8v1.5h.1a2.5,2.5,0,0,1,2.8-1.9,3.6,3.6,0,0,1,3.7,2.5,15.9,15.9,0,0,1,.5,4.9,12.5,12.5,0,0,1-.7,4.9,3.3,3.3,0,0,1-3.2,2,3.5,3.5,0,0,1-1.9-.5,2.7,2.7,0,0,1-1.2-1.4v6Zm7-11.2a17.6,17.6,0,0,0-.1-2.1q-.2-1.4-1-1.4t-1,1.4a17.6,17.6,0,0,0-.1,2.1,17.3,17.3,0,0,0,.1,2.1q.2,1.4,1,1.4t1-1.4A17.3,17.3,0,0,0,138.3,387.7Z"/><path class="b" d="M151.4,380.6q3.6,0,5,2.1a13.6,13.6,0,0,1,0,10q-1.3,2.1-5,2.1t-5-2.1a13.6,13.6,0,0,1,0-10Q147.7,380.6,151.4,380.6Zm-1.1,7.1q0,1.9,0,2.3t1,1.7,1-1.7,0-2.3q0-2,0-2.3t-1-1.7-1,1.7T150.3,387.7Z"/><path class="b" d="M166.8,382.6V381h4.6v13q0,5.2-6,5.2-3.4,0-4.6-1.4a4,4,0,0,1-.9-2.5h4.4a1.1,1.1,0,0,0,.2.8,1,1,0,0,0,.8.3q1.2,0,1.2-1.2v-2.7h-.1a3,3,0,0,1-3.1,1.7q-3.9,0-3.9-6.6a12.6,12.6,0,0,1,.6-4.6,3.5,3.5,0,0,1,3.6-2.3,2.9,2.9,0,0,1,2.9,2Zm-.2,5.1a17.3,17.3,0,0,0-.1-2.1q-.2-1.4-1-1.4t-1,1.4a17.3,17.3,0,0,0-.1,2.1,10,10,0,0,0,.1,1.8q.2,1.1,1,1.1t1-1.1A10.3,10.3,0,0,0,166.7,387.7Z"/><path class="b" d="M174.3,394.5V381H179v2h0a4,4,0,0,1,1.2-1.7,2.6,2.6,0,0,1,1.7-.7h.8v4.4h-1.5a1.9,1.9,0,0,0-1.6.6,3.2,3.2,0,0,0-.4,1.9v7Z"/><path class="b" d="M195.6,384.5v8a4.6,4.6,0,0,0,.4,2h-4.5a4.1,4.1,0,0,1-.2-1.4h0a3.1,3.1,0,0,1-3.2,1.8q-3.7,0-3.7-4a3.7,3.7,0,0,1,3.2-4.2l2.3-.5a2.2,2.2,0,0,0,1.1-.5,1.3,1.3,0,0,0,.3-.9q0-1-.9-1t-1.2,1.5h-4.2a4.3,4.3,0,0,1,1.3-3.4,6.3,6.3,0,0,1,4.1-1.1q3,0,4.3,1.2A3.6,3.6,0,0,1,195.6,384.5Zm-4.4,5.4v-2l-1.2.5q-.9.4-.9,1.7t1,1.3T191.2,389.9Z"/><path class="b" d="M198.7,398.9V381h4.8v1.5h.1a2.5,2.5,0,0,1,2.8-1.9,3.6,3.6,0,0,1,3.7,2.5,15.9,15.9,0,0,1,.5,4.9,12.5,12.5,0,0,1-.7,4.9,3.3,3.3,0,0,1-3.2,2,3.5,3.5,0,0,1-1.9-.5,2.7,2.7,0,0,1-1.2-1.4v6Zm7-11.2a17.6,17.6,0,0,0-.1-2.1q-.2-1.4-1-1.4t-1,1.4a17.6,17.6,0,0,0-.1,2.1,17.3,17.3,0,0,0,.1,2.1q.2,1.4,1,1.4t1-1.4A17.3,17.3,0,0,0,205.7,387.7Z"/><path class="b" d="M220,394.5v-9q0-1.3-1-1.3t-1,1.3v9h-4.9V376.6H218v5.9h.1a3.6,3.6,0,0,1,3.4-1.9,3.3,3.3,0,0,1,2.3.8,3.4,3.4,0,0,1,1,2.6v10.5Z"/><path class="b" d="M227.8,379.9v-3.4h4.9v3.4Zm0,14.6V381h4.9v13.5Z"/><path class="b" d="M242.3,386.3v-.6q0-1.9-1.1-1.9t-1.1,1.6,0,2.3a17.1,17.1,0,0,0,.2,3.2.9.9,0,0,0,.9.8q.9,0,1.1-1.2a13,13,0,0,0,.1-1.8h4.4q0,3.2-1.2,4.6t-4.4,1.5q-3.7,0-5-2.1a13.6,13.6,0,0,1,0-10q1.3-2.1,5-2.1t4.5,1.3,1.1,4.4Z"/><path class="b" d="M248.7,390.1H253a10.2,10.2,0,0,0,.3,1.3,1.1,1.1,0,0,0,1,.5q1,0,1-1a.9.9,0,0,0-.3-.8l-1.6-.7a12.8,12.8,0,0,1-3.4-1.6,3.3,3.3,0,0,1-1.1-2.7q0-4.5,5.3-4.5,3.5,0,4.7,1.6a4.2,4.2,0,0,1,.7,2.6h-4.1a1.8,1.8,0,0,0-.2-1,1.1,1.1,0,0,0-.9-.3q-1,0-1,.9t.7.8l2.9,1.1a5.5,5.5,0,0,1,2,1.1,3.9,3.9,0,0,1,1,2.9,4,4,0,0,1-1.7,3.5,6.7,6.7,0,0,1-3.9,1,6.8,6.8,0,0,1-4.1-.9Q248.8,392.8,248.7,390.1Z"/><path class="b" d="M282,390.7v3.8H270.1a9.8,9.8,0,0,1,2.4-6.5l3-3.1a5.8,5.8,0,0,0,1.4-1.9,5.2,5.2,0,0,0,.1-1.5q0-1.5-1-1.5t-1,1.8v1.1h-4.7q0-3.2,1.3-4.6t4.5-1.4q3.5,0,5,1.6a4.9,4.9,0,0,1,1,3.3,6.8,6.8,0,0,1-2,5.2l-1.9,1.8a15.7,15.7,0,0,0-1.9,2.1Z"/><path class="b" d="M284.4,385.8q0-2.7.1-3.8a7,7,0,0,1,1.2-3.5q1.4-1.7,4.8-1.7t4.8,1.8a7,7,0,0,1,1.2,3.5q.1,1.1.1,3.8t-.1,3.8a7,7,0,0,1-1.2,3.5q-1.4,1.7-4.8,1.8t-4.8-1.7a6.9,6.9,0,0,1-1.2-3.5Q284.4,388.5,284.4,385.8Zm7.3,0a39,39,0,0,0-.2-5,1,1,0,0,0-2,0,71.6,71.6,0,0,0,0,10,1,1,0,0,0,2,0A39,39,0,0,0,291.7,385.8Z"/><path class="b" d="M308.1,376.8v17.7h-5V382.7h-3.4v-3.1h.7a5.1,5.1,0,0,0,2.6-.6,2.9,2.9,0,0,0,1.5-2.1Z"/><path class="b" d="M313.8,381.5q0-4.7,5.7-4.7t5.7,4.7a4.2,4.2,0,0,1-.6,2.3,3.1,3.1,0,0,1-1.7,1.3h0a4.2,4.2,0,0,1,1.7.9,4.6,4.6,0,0,1,1.1,3.4,5.3,5.3,0,0,1-1.4,4.1q-1.4,1.3-4.7,1.3t-4.7-1.3a5.3,5.3,0,0,1-1.4-4.1,4.6,4.6,0,0,1,1.1-3.4,4.2,4.2,0,0,1,1.7-.9h0a3.1,3.1,0,0,1-1.7-1.3A4.2,4.2,0,0,1,313.8,381.5Zm6.9,7.7a6.9,6.9,0,0,0-.1-1.8,1.1,1.1,0,0,0-2.1,0,6.9,6.9,0,0,0-.1,1.8,6.6,6.6,0,0,0,.1,1.8,1.1,1.1,0,0,0,2.1,0A6.6,6.6,0,0,0,320.7,389.2Zm-.1-7.3a5,5,0,0,0-.1-1.4,1,1,0,0,0-1.8,0,7.6,7.6,0,0,0,0,2.8,1,1,0,0,0,1.8,0A5,5,0,0,0,320.6,381.9Z"/></svg>