<?xml version="1.0" encoding="utf-8"?>
<!-- Generator: Adobe Illustrator 18.1.1, SVG Export Plug-In . SVG Version: 6.00 Build 0)  -->
<!DOCTYPE svg PUBLIC "-//W3C//DTD SVG 1.1//EN" "http://www.w3.org/Graphics/SVG/1.1/DTD/svg11.dtd">
<svg version="1.1" id="Calque_1" xmlns="http://www.w3.org/2000/svg" xmlns:xlink="http://www.w3.org/1999/xlink" x="0px" y="0px"
	 width="1000px" height="1000px" viewBox="-11 -450 1000 1000" enable-background="new -11 -450 1000 1000" xml:space="preserve">
<g>
	<path fill="#FFFFFF" d="M822.684,8.637c-5.86,0-9.995,4.63-9.995,11.24c0,6.61,4.135,11.24,9.995,11.24
		c5.874,0,10.009-4.63,10.009-11.24C832.693,13.267,828.558,8.637,822.684,8.637z"/>
	<polygon fill="#FFFFFF" points="242.715,13.029 257.921,13.029 250.32,-8.373 	"/>
	<path fill="#FFFFFF" d="M528.494,8.637c-5.871,0-9.999,4.63-9.999,11.24c0,6.61,4.129,11.24,9.999,11.24
		c5.866,0,9.998-4.63,9.998-11.24C538.492,13.267,534.36,8.637,528.494,8.637z"/>
	<path fill="#FFFFFF" d="M177.391,8.637c-5.867,0-10.002,4.63-10.002,11.24c0,6.61,4.135,11.24,10.002,11.24
		c5.867,0,9.995-4.63,9.995-11.24C187.385,13.267,183.258,8.637,177.391,8.637z"/>
	<path fill="#FFFFFF" d="M19-48.784V68.784h940V-48.784H19z M785.271-15.634c3.219,0,5.947,2.642,5.947,5.944
		c0,3.3-2.891,5.942-6.11,5.942c-3.213,0-5.939-2.642-5.939-5.942C779.168-12.992,782.051-15.634,785.271-15.634z M491.077-15.634
		c3.219,0,5.942,2.642,5.942,5.944c0,3.3-2.889,5.942-6.107,5.942c-3.219,0-5.942-2.642-5.942-5.942
		C484.97-12.992,487.859-15.634,491.077-15.634z M100.242,37.961H79.356V29.71h6.276l-3.055-8.928H62.25l-3.055,8.928h6.604v8.251
		H44.913v-8.329h4.708L63.158-8.127h-5.942v-8.25h30.726v8.25h-5.946l13.54,37.759h4.706V37.961z M151.037,36.473
		c-2.479,1.238-5.37,2.148-8.672,2.148c-4.375,0-7.921-1.487-9.738-4.946c-0.827-1.488-1.238-3.386-1.238-5.699V9.381h-7.018V1.795
		h7.018v-7.597l8.912-3.881V1.795h10.983v7.586h-10.983V26.24c0,1.158,0.165,1.901,0.58,2.643c0.658,1.16,1.982,1.739,3.799,1.739
		c2.311,0,4.955-0.912,7.102-1.903L151.037,36.473z M177.391,38.621c-11.98,0-19.24-8.664-19.24-18.744
		c0-9.917,7.427-18.742,19.24-18.742c11.977,0,19.24,8.66,19.24,18.742C196.631,29.793,189.203,38.621,177.391,38.621z
		 M278.148,37.961h-20.885V29.71h6.274l-3.054-8.928h-20.323l-3.061,8.928h6.605v8.251h-20.883v-8.329h4.705l13.54-37.759h-5.943
		v-8.25h30.724v8.25h-5.943l13.541,37.759h4.705V37.961z M324.239,38.951c-10.743,0-19.405-6.022-19.405-12.629
		c0-3.881,2.315-6.442,5.692-6.442c3.631,0,5.946,2.726,5.946,5.372c0,1.32-0.25,2.312-0.744,3.302
		c1.982,1.403,5.037,2.313,8.593,2.313c5.953,0,9.752-2.642,9.752-7.353c0-4.462-4.544-6.612-9.999-8.508
		c-10.08-3.635-17.176-6.858-17.176-16.938c0-8.671,7.013-15.437,18.001-15.437c10.16,0,18.001,5.198,18.001,11.717
		c0,3.884-2.393,6.118-5.532,6.118c-3.791,0-5.941-2.81-5.941-5.538c0-1.319,0.249-1.901,0.582-2.562
		c-1.488-0.906-3.806-1.652-7.193-1.652c-5.373,0-8.51,2.729-8.51,6.696c0,4.459,4.543,6.439,9.995,8.427
		c9.752,3.467,17.092,6.856,17.092,16.932C343.395,33.096,335.396,38.951,324.239,38.951z M376.845,36.473
		c-2.476,1.238-5.37,2.148-8.672,2.148c-4.373,0-7.921-1.487-9.738-4.946c-0.824-1.488-1.239-3.386-1.239-5.699V9.381h-7.02V1.795
		h7.02v-7.597l8.913-3.881V1.795h10.983v7.586h-10.983V26.24c0,1.158,0.165,1.901,0.576,2.643c0.662,1.16,1.982,1.739,3.799,1.739
		c2.312,0,4.959-0.912,7.105-1.903L376.845,36.473z M426.571,37.961h-14.033v-5.774c-3.473,3.383-7.357,6.434-12.648,6.434
		c-4.379,0-7.591-1.812-9.409-4.783c-1.152-1.899-1.817-4.376-1.817-7.266V9.381h-5.366V1.795h14.36v22.546
		c0,1.566,0.251,2.726,0.744,3.721c0.827,1.568,2.318,2.396,4.463,2.396c3.14,0,6.447-1.82,9.341-4.217V9.381h-5.619V1.795h14.609
		v28.743h5.374V37.961z M475.38,37.961h-14.36v-3.957c-2.643,2.555-6.033,4.618-10.661,4.618c-9.587,0-16.764-7.671-16.764-18.581
		c0-10.491,7.591-18.906,17.34-18.906c4.628,0,8.018,1.731,10.085,3.467v-19.504h-5.457v-7.585h14.452v53.025h5.365V37.961z
		 M501.723,37.961h-19.89v-7.423h5.53V9.381h-5.53V1.795h14.525v28.743h5.365V37.961z M528.494,38.621
		c-11.981,0-19.241-8.664-19.241-18.744c0-9.917,7.424-18.742,19.241-18.742c11.977,0,19.238,8.66,19.238,18.742
		C547.731,29.793,540.305,38.621,528.494,38.621z M595.555,38.951c-10.739,0-19.404-6.022-19.404-12.629
		c0-3.881,2.313-6.442,5.695-6.442c3.632,0,5.942,2.726,5.942,5.372c0,1.32-0.251,2.312-0.744,3.302
		c1.982,1.403,5.041,2.313,8.596,2.313c5.949,0,9.749-2.642,9.749-7.353c0-4.462-4.544-6.612-9.999-8.508
		c-10.077-3.635-17.172-6.858-17.172-16.938c0-8.671,7.013-15.437,17.998-15.437c10.163,0,18.001,5.198,18.001,11.717
		c0,3.884-2.394,6.118-5.528,6.118c-3.796,0-5.941-2.81-5.941-5.538c0-1.319,0.246-1.901,0.579-2.562
		c-1.488-0.906-3.803-1.652-7.191-1.652c-5.377,0-8.514,2.729-8.514,6.696c0,4.459,4.544,6.439,10,8.427
		c9.752,3.467,17.092,6.856,17.092,16.932C614.715,33.096,606.711,38.951,595.555,38.951z M642.304,38.621
		c-11.977,0-19.241-8.664-19.241-18.744c0-9.917,7.428-18.742,19.241-18.742c11.98,0,19.239,8.66,19.239,18.742
		C661.543,29.793,654.119,38.621,642.304,38.621z M688.554,37.961h-19.978v-7.423h5.617v-45.44h-5.617v-7.585h14.606v53.025h5.373
		V37.961z M736.627,37.961h-14.031v-5.774c-3.477,3.383-7.362,6.434-12.649,6.434c-4.379,0-7.591-1.812-9.408-4.783
		c-1.154-1.899-1.818-4.376-1.818-7.266V9.381h-5.365V1.795h14.36v22.546c0,1.566,0.249,2.726,0.743,3.721
		c0.824,1.568,2.318,2.396,4.465,2.396c3.14,0,6.445-1.82,9.342-4.217V9.381h-5.629V1.795h14.618v28.743h5.373V37.961z
		 M768.258,36.473c-2.483,1.238-5.374,2.148-8.679,2.148c-4.372,0-7.92-1.487-9.732-4.946c-0.83-1.488-1.236-3.386-1.236-5.699
		V9.381h-7.026V1.795h7.026v-7.597l8.908-3.881V1.795h10.982v7.586h-10.982V26.24c0,1.158,0.163,1.901,0.579,2.643
		c0.657,1.16,1.982,1.739,3.8,1.739c2.31,0,4.949-0.912,7.096-1.903L768.258,36.473z M795.926,37.961h-19.899v-7.423h5.537V9.381
		h-5.537V1.795h14.533v28.743h5.366V37.961z M822.684,38.621c-11.977,0-19.233-8.664-19.233-18.744
		c0-9.917,7.42-18.742,19.233-18.742c11.984,0,19.241,8.66,19.241,18.742C841.925,29.793,834.502,38.621,822.684,38.621z
		 M892.636,37.961h-19.318v-7.423h4.959V15.415c0-1.488-0.244-2.807-0.738-3.719c-0.828-1.568-2.317-2.394-4.463-2.394
		c-3.14,0-6.447,1.818-9.344,4.214v17.022h4.958v7.423h-19.32v-7.423h5.374V9.381h-5.374V1.795h14.033V7.57
		c3.469-3.384,7.354-6.436,12.641-6.436c4.3,0,7.434,1.731,9.33,4.618c1.238,1.983,1.896,4.459,1.896,7.435v17.351h5.366V37.961z
		 M914.701,38.704c-5.537,0-11.485-1.98-13.873-4.372c-1.488-1.481-2.061-2.969-2.061-4.87c0-2.643,1.976-4.874,4.78-4.874
		c2.477,0,4.873,1.652,4.873,4.794c0,0.493-0.084,0.99-0.165,1.487c1.647,0.659,3.964,1.155,6.526,1.155
		c3.64,0,6.616-1.239,6.616-3.883c0-1.818-1.574-2.891-7.111-4.379c-9.993-2.643-14.203-5.041-14.203-11.237
		c0-5.62,4.622-11.472,14.782-11.472c4.387,0,9.66,1.648,12.135,4.121c1.325,1.322,1.983,2.888,1.983,4.622
		c0,2.896-1.818,4.878-4.459,4.878c-2.885,0-4.865-1.736-4.865-4.462c0-0.579,0-1.073,0.163-1.566
		c-1.488-0.584-3.305-0.912-5.122-0.912c-4.049,0-6.031,1.817-6.031,3.716c0,2.068,2.06,3.14,7.597,4.628
		c8.673,2.315,13.709,4.462,13.709,10.986C929.977,34.665,922.879,38.704,914.701,38.704z"/>
	<path fill="#FFFFFF" d="M442.839,19.963c0,6.935,4.297,10.905,9.587,10.905c3.384,0,6.114-1.487,8.594-3.634V11.696
		c-2.397-1.649-5.209-2.808-8.594-2.808C447.382,8.888,442.839,12.772,442.839,19.963z"/>
	<path fill="#FFFFFF" d="M642.304,8.637c-5.863,0-9.999,4.63-9.999,11.24c0,6.61,4.136,11.24,9.999,11.24
		c5.865,0,9.996-4.63,9.996-11.24C652.301,13.267,648.169,8.637,642.304,8.637z"/>
	<polygon fill="#FFFFFF" points="64.811,13.029 80.015,13.029 72.413,-8.373 	"/>
</g>
</svg>
