<?xml version="1.0" encoding="utf-8"?>
<!-- Generator: Adobe Illustrator 21.0.0, SVG Export Plug-In . SVG Version: 6.00 Build 0)  -->
<svg version="1.1" id="Layer_1" xmlns="http://www.w3.org/2000/svg" xmlns:xlink="http://www.w3.org/1999/xlink" x="0px" y="0px"
	 width="1000px" height="1000px" viewBox="0 0 1000 1000" style="enable-background:new 0 0 1000 1000;" xml:space="preserve">
<style type="text/css">
	.st0{fill:#FFFFFF;}
</style>
<path class="st0" d="M119.8,661.1l-12.7,34.8c0,0.7-0.3,0.7-1,0.7h-5.5c-0.7,0-0.7-0.3-0.7-1l33.5-91.7c0.3-1,0.6-1.6,0.6-4.2
	c0-0.3,0.3-0.7,0.7-0.7h8.5c0.6,0,0.6,0,1,0.7l35.1,95.9c0,0.7,0,1-0.7,1h-5.9c-0.3,0-0.6,0-1-0.7l-12.7-34.8
	C159.2,661.1,119.8,661.1,119.8,661.1z M157.2,654.6c-3.3-9.4-14.6-40.3-17.6-49.8c-2.6,9.1-10.7,30.9-17.6,49.8H157.2z M186.2,662
	c0-21.8,16.3-36.7,38.4-36.7c5.9,0,8.8,0.3,12,1.3v-34.8c0-0.7,0-0.7,0.6-0.7h5.5c0.6,0,0.6,0,0.6,0.7v100.5c0,0.3,0,0.7-0.6,1
	c-7.2,3.6-14.3,5.2-21.8,5.2C201.8,697.8,186.2,685.8,186.2,662z M236.6,633.4c-2.9-1.3-7.2-2-12.4-2c-20.2,0-30.9,14-30.9,30.2
	c0,22.1,14.3,29.9,28.3,29.9c4.6,0,10.7-0.7,14.6-2.6v-55.6H236.6z M322.8,661.4c0,21.8-13,36.4-31.5,36.4
	c-22.4,0-32.2-19.2-32.2-36.4c0-20.8,13-36.4,32.2-36.4C309.8,625,322.8,639.6,322.8,661.4z M265.9,661.1c0,16.3,9.1,30.2,25.7,30.2
	c11.4,0,24.1-8.8,24.1-29.9c0-15-7.2-30.2-25-30.2C275.9,631.5,265.9,643.5,265.9,661.1z M344.2,590.8c0.3,0,0.6,0,0.6,0.7v37.4
	c5.2-2.3,11.1-3.6,17.9-3.6c19.5,0,32.2,14,32.2,33.8c0,25.7-18.9,39-38.4,39c-7.2,0-12.4-1-18.2-2.9c-0.3,0-0.6-0.7-0.6-1.3V591.5
	c0-0.3,0.3-0.7,1-0.7L344.2,590.8L344.2,590.8z M362.4,631.5c-7.5,0-12.7,1.3-17.2,3.6v55.3c3.6,1,7.2,1.6,12.4,1.6
	c16.3,0,30.9-11.1,30.9-32.2C388.5,643.2,378.7,631.5,362.4,631.5L362.4,631.5z M413.5,660.4c-0.6,17.6,8.8,30.9,26.7,30.9
	c6.2,0,12.7-1,18.2-4.2c0.3-0.3,0.6,0,0.6,0.3v4.9c0,0.7,0,1-0.6,1c-4.6,2.6-10.7,4.6-19.5,4.6c-23.7,0-32.8-18.2-32.8-36.1
	c0-20.5,11.7-36.7,30.6-36.7c20.2,0,27,16.6,27,27.6c0,3.3,0,4.9-0.3,6.2c0,0.3-0.3,1-1,1c-2.3,0.3-9.4,0.3-15,0.3h-33.8V660.4z
	 M446,654.6c8.8,0,10.4,0,10.7-0.3v-2c0-6.5-3.9-21.1-20.5-21.1c-14,0-21.5,11.4-23.1,23.4L446,654.6L446,654.6z M532.8,605.8h-33.2
	c-0.3,0-0.6,0-0.6-1l1.3-4.9c0-0.3,0.3-0.7,1-0.7h70.6c0.7,0,0.7,0,1,0.7l0.7,4.9c0,0.7,0,1-0.7,1H540v89.8c0,0.7-0.3,1-1,1h-5.2
	c-0.7,0-1,0-1-1L532.8,605.8L532.8,605.8z M572.5,626.3c0.3,0,0.3,0,0.7,0.7c14.6,36.7,21.5,54.3,23.4,60.2
	c4.6-12,11.7-30.6,23.1-60.2c0-0.3,0.3-0.7,1-0.7h5.5c0.7,0,0.7,0.3,0.7,1c-11.1,31.2-25.4,66.7-41.3,102.1c0,0.3-0.7,0.7-1.3,0.7
	l-5.9,0.7c-0.7,0-0.7-0.3-0.3-1c4.6-9.1,10.4-22.4,15.3-34.1v-1.6c-3.3-7.8-18.2-44.2-27.3-67c0-0.3,0-0.7,0.3-0.7L572.5,626.3
	L572.5,626.3z M696.1,658.8c0,26.3-20.5,39.3-40.3,39.3c-4.9,0-7.5-0.3-10.1-1v32.2c0,0.3,0,0.7-0.7,1c-1.3,0-5.5,0.7-5.9,0.7
	s-0.7,0-0.7-0.7v-94.6c0-1,0-2.6-0.3-4.2c0,0,0-0.3,0.3-0.7c3.3-1.6,12.7-5.5,24.7-5.5C682.8,625,696.1,638.3,696.1,658.8
	L696.1,658.8z M645.7,634.4v55.9c3.3,1,6.8,1,10.7,1c16.6,0,32.5-10.7,32.5-32.2c0-16.6-9.8-28-26.7-28
	C656.1,631.5,650.2,632.4,645.7,634.4z M714,660.4c-0.7,17.6,8.8,30.9,26.7,30.9c6.2,0,12.7-1,18.2-4.2c0.3-0.3,0.7,0,0.7,0.3v4.9
	c0,0.7,0,1-0.7,1c-4.6,2.6-10.7,4.6-19.5,4.6c-23.7,0-32.8-18.2-32.8-36.1c0-20.5,11.7-36.7,30.6-36.7c20.2,0,27,16.6,27,27.6
	c0,3.3,0,4.9-0.3,6.2c0,0.3-0.3,1-1,1c-2.3,0.3-9.4,0.3-15,0.3H714L714,660.4z M746.5,654.6c8.8,0,10.4,0,10.7-0.3v-2
	c0-6.5-3.9-21.1-20.5-21.1c-14,0-21.5,11.4-23.1,23.4L746.5,654.6L746.5,654.6z M785.9,695.9c0,0.7,0,0.7-0.7,0.7h-5.9
	c-0.3,0-0.7,0-0.7-0.7V591.5c0-0.3,0.3-0.7,0.7-0.7h5.9c0.3,0,0.7,0,0.7,0.7V695.9z M787.2,659.1c6.2-5.9,29.6-28,33.8-32.2
	c0.3-0.3,0.7-0.7,1.3-0.7h6.8c0.7,0,0.7,0.7,0.3,1c-3.9,4.2-28.9,26.7-34.1,31.5v0.3c10.1,9.8,27.3,25.7,39,36.4c0.3,0.3,0,1-0.3,1
	h-7.8c-0.7,0-1,0-1.3-0.7c-9.4-8.8-29.9-27.6-37.7-35.1C786.5,660.1,786.5,659.8,787.2,659.1L787.2,659.1z M841.8,603.5
	c0-2.9,2-5.2,4.6-5.2c2.9,0,4.9,2.3,4.9,5.2c0,2.6-2,4.9-4.9,4.9C843.4,608,841.8,606.1,841.8,603.5z M843.1,627.2
	c0-0.7,0.3-1,0.7-1h5.5c0.3,0,0.7,0,0.7,0.7v68.6c0,0.7,0,0.7-0.7,0.7h-5.2c-0.7,0-1,0-1-1L843.1,627.2L843.1,627.2z M899.3,694.6
	c0,0.3,0,0.7-0.7,1c-2.9,1.6-6.8,2.3-9.8,2.3c-9.4,0-15-4.6-15-17.9v-47.2h-10.7c-0.7,0-1-0.3-1-1v-4.6c0-0.7,0-1,1-1H874
	c0-5.9,0.7-16.6,1.3-19.5c0-0.3,0.3-0.7,0.7-1l5.5-1c0.3,0,1,0,1,0.3c-0.7,5.5-1,14-1,21.1H898c0.7,0,1,0.3,1,1v4.6
	c0,0.7-0.3,0.7-1,1h-16.6v47.5c0,6.8,2.9,11.4,9.8,11.4c2.3,0,4.9-0.3,8.1-1.6c0.3,0,0.7,0,0.7,0.3v4.2L899.3,694.6z"/>
<path class="st0" d="M367,249v259.2h265.7V249H367z M378,260.1h243.3v237.1H378V260.1z"/>
<path class="st0" d="M447,335.5h-30.6c-1,0-1.3-0.3-1-1.3l2.3-15.3c0.3-1,0.6-1.3,1.3-1.3h76.4c1,0,1.3,0.3,1.6,1.3l1.3,15.3
	c0.3,1-0.3,1.3-1.3,1.3h-30.6v102.1c0,1-0.3,1.3-1.3,1.3h-16.9c-1,0-1.3-0.3-1.3-1.3C447,437.6,447,335.5,447,335.5z M530.2,388.2
	l28-37.7c0.7-1,1-1.3,2-1.3h18.5c1,0,1.3,0.7,0.7,1.6c-4.2,5.5-24.4,30.6-30.9,38.4c-0.3,0.3-0.3,0.6,0,1l35.4,47.2
	c0.3,0.6,0.3,1.3-1,1.3h-21.5c-1,0-1.3-0.3-2-1c-5.9-8.1-21.5-29.6-29.3-40.6v40.3c0,1-0.3,1.3-1.3,1.3h-17.2
	c-1.3,0-1.3-0.3-1.3-1.3V318.6c0-0.6,0.3-1,1.3-1h17.2c0.7,0,1.3,0.3,1.3,1.3V388.2L530.2,388.2z"/>
</svg>
