<?xml version="1.0" encoding="utf-8"?>
<!-- Generator: Adobe Illustrator 19.2.0, SVG Export Plug-In . SVG Version: 6.00 Build 0)  -->
<svg version="1.1" id="Layer_1" xmlns="http://www.w3.org/2000/svg" xmlns:xlink="http://www.w3.org/1999/xlink" x="0px" y="0px"
	 width="1000px" height="1000px" viewBox="0 0 1000 1000" style="enable-background:new 0 0 1000 1000;" xml:space="preserve">
<style type="text/css">
	.st0{fill:#FFFFFF;}
</style>
<path class="st0" d="M97.133,472.941c0,0,18.147-0.327,18.069-39.865c-0.086-43.367-39.978-42.238-39.978-42.238H20v175.045h30.267
	h6.097h24.958c0,0,37.349-1.687,37.155-53.981C118.341,475.225,97.133,472.941,97.133,472.941z M64.608,424.719
	c0,0,12.423,0.669,12.423,15.359c0,15.132-12.197,16.487-12.197,16.487h-8.382l0.026-31.846H64.608z M66.303,531.1h-9.911
	l0.032-39.977h9.879c0,0,15.245,1.18,15.245,19.425C81.549,531.259,66.303,531.1,66.303,531.1z M450.128,391.851h66.63v34.106
	h-28.911v30.718h28.685v32.299h-28.685v77.924h-37.719V391.851z M571.45,390.045c-45.625,0-47.205,41.333-47.205,41.333v39.527
	v9.034v51.272c0,0,1.349,39.3,48.786,38.624c44.263-0.633,46.527-38.849,46.527-38.849V430.25
	C619.558,430.25,617.527,390.045,571.45,390.045z M580.484,523.531c0,0-0.225,10.841-8.807,10.841
	c-10.176,0-9.713-10.841-9.713-10.841v-43.592v-9.034v-35.911c0,0,0.452-9.036,9.486-9.036c8.583,0,9.034,9.036,9.034,9.036V523.531
	z M722.406,434.654c-0.082-43.367-39.3-42.915-39.3-42.915h-55.225v175.045h36.365l0.062-77.472h13.038c0,0,3.144-0.199,3.953,0.903
	c0.832,1.131,1.015,2.371,1.015,2.825v73.744h37.269v-77.132c0,0-0.563-4.97-3.841-8.696c-3.643-4.139-9.599-3.952-9.599-3.952
	S722.485,475.321,722.406,434.654z M676.556,454.756h-12.22l0.023-29.137h8.131c0,0,12.186-0.231,12.421,14.455
	C685.138,454.077,676.556,454.756,676.556,454.756z M822.705,530.985c0,0,1.815,38.848-44.722,38.848
	c-49.238,0-48.786-39.075-48.786-39.075l-0.227-138.907h37.72v131.68c0,0,0.227,11.068,9.712,11.068
	c8.584,0,8.809-11.068,8.809-11.068v-131.68h37.494V530.985z M941.828,566.896V462.548l-20.101,104.349h-33.881l-20.102-104.349
	v104.349h-36.138V391.851h54.885c0,0,18.52,78.15,18.52,78.601c0,0.452,16.263-78.601,16.263-78.601h58.499L980,566.896H941.828z
	 M172.305,390.157c-45.624,0-47.205,41.333-47.205,41.333v39.527v9.034v51.272c0,0,1.351,39.3,48.786,38.624
	c44.265-0.633,46.528-38.849,46.528-38.849V430.362C220.414,430.362,218.382,390.157,172.305,390.157z M181.339,523.645
	c0,0-0.226,10.84-8.807,10.84c-10.176,0-9.713-10.84-9.713-10.84v-43.594v-9.034v-35.911c0,0,0.452-9.036,9.486-9.036
	c8.583,0,9.034,9.036,9.034,9.036V523.645z M275.783,390.157c-45.624,0-47.205,41.333-47.205,41.333v39.527v9.034v51.272
	c0,0,1.351,39.3,48.786,38.624c44.266-0.633,46.529-38.849,46.529-38.849V430.362C323.892,430.362,321.86,390.157,275.783,390.157z
	 M284.817,523.645c0,0-0.226,10.84-8.808,10.84c-10.175,0-9.712-10.84-9.712-10.84v-43.594v-9.034v-35.911
	c0,0,0.451-9.036,9.486-9.036c8.583,0,9.034,9.036,9.034,9.036V523.645z M408.469,465.987l35.225,100.91h-41.898l-30.831-86.282
	v86.282h-38.397V391.851h38.848v64.598l30.04-64.598h41.559L408.469,465.987z"/>
</svg>
