<?xml version="1.0" encoding="utf-8"?>
<!-- Generator: Adobe Illustrator 21.0.0, SVG Export Plug-In . SVG Version: 6.00 Build 0)  -->
<svg version="1.1" id="Layer_1" xmlns="http://www.w3.org/2000/svg" xmlns:xlink="http://www.w3.org/1999/xlink" x="0px" y="0px"
	 width="1000px" height="1000px" viewBox="0 0 1000 1000" style="enable-background:new 0 0 1000 1000;" xml:space="preserve">
<style type="text/css">
	.st0{fill:#FFFFFF;}
</style>
<path class="st0" d="M440.6,486.5c0,183,49.7,238.8,104.9,245.7v17.6c-160,0-295.5-89.6-295.5-263.3
	c0-184.4,166.2-260.3,295.5-260.3v18.3C488,257.6,440.6,303.6,440.6,486.5z M729.9,422.2h-19.1c-23-66.6-60.5-147.7-128.5-177.6
	v-18.4c46.7,0,118.6,19.1,147.7,29.8L729.9,422.2L729.9,422.2z M729.9,537h-19.1c-26.1,73.5-57.4,162.3-128.5,195.2v17.6
	c46.7,0,112.5-16.1,147.7-32.9L729.9,537L729.9,537z"/>
</svg>
