<?xml version="1.0" encoding="utf-8"?>
<!-- Generator: Adobe Illustrator 21.0.0, SVG Export Plug-In . SVG Version: 6.00 Build 0)  -->
<svg version="1.1" id="Layer_1" xmlns="http://www.w3.org/2000/svg" xmlns:xlink="http://www.w3.org/1999/xlink" x="0px" y="0px"
	 width="1000px" height="1000px" viewBox="0 0 1000 1000" style="enable-background:new 0 0 1000 1000;" xml:space="preserve">
<style type="text/css">
	.st0{fill:#FFFFFF;}
</style>
<g>
	<path class="st0" d="M605.676,261.892h-63.198v225.856h51.802v-78.739h11.396c35.225,0,66.306-11.396,66.306-73.559
		S640.901,261.892,605.676,261.892z M600.495,361.351h-7.252v-53.874h7.252c11.396,0,20.721,5.18,20.721,26.937
		S611.892,361.351,600.495,361.351z"/>
	<polygon class="st0" points="140.495,593.423 99.054,593.423 99.054,506.396 47.252,506.396 47.252,732.252 99.054,732.252 
		99.054,640.045 140.495,640.045 140.495,732.252 192.297,732.252 192.297,506.396 140.495,506.396 	"/>
	<polygon class="st0" points="210.946,732.252 340.45,732.252 340.45,685.631 262.748,685.631 262.748,640.045 324.91,640.045 
		324.91,593.423 262.748,593.423 262.748,551.982 340.45,551.982 340.45,506.396 210.946,506.396 	"/>
	<rect x="611.892" y="506.396" class="st0" width="51.802" height="225.856"/>
	<polygon class="st0" points="682.342,551.982 721.712,551.982 721.712,732.252 772.477,732.252 772.477,551.982 811.847,551.982 
		811.847,506.396 682.342,506.396 	"/>
	<polygon class="st0" points="830.495,551.982 868.829,551.982 868.829,732.252 920.631,732.252 920.631,551.982 960,551.982 
		960,506.396 830.495,506.396 	"/>
	<polygon class="st0" points="682.342,487.748 811.847,487.748 811.847,441.126 734.144,441.126 734.144,395.541 796.306,395.541 
		796.306,348.919 734.144,348.919 734.144,307.477 811.847,307.477 811.847,260.856 682.342,260.856 	"/>
	<path class="st0" d="M281.396,489.82c56.982,0,75.631-27.973,75.631-111.892v-8.288c0-83.919-18.649-111.892-75.631-111.892
		c-56.982,0-75.631,27.973-75.631,111.892v8.288C205.766,461.847,224.414,489.82,281.396,489.82z M257.568,366.532
		c0-51.802,5.18-63.198,22.793-63.198h2.072c17.613,0,22.793,11.396,22.793,63.198v15.541c0,51.802-5.18,63.198-22.793,63.198
		h-2.072c-17.613,0-22.793-11.396-22.793-63.198V366.532z"/>
	<path class="st0" d="M121.847,445.27h-4.144c-13.468,0-24.865-11.396-24.865-63.198v-15.541c0-51.802,11.396-63.198,24.865-63.198
		h2.072c13.468,0,20.721,8.288,20.721,45.586h50.766v-14.505c0-58.018-22.793-75.631-72.523-75.631
		C64.865,258.784,40,286.757,40,370.676v7.252h2.072c0,83.919,24.865,111.892,78.739,111.892c49.73,0,72.523-18.649,72.523-75.631
		v-6.216h-50.766C141.531,435.946,134.279,445.27,121.847,445.27z"/>
	<path class="st0" d="M444.054,489.82c56.982,0,75.631-27.973,75.631-111.892v-8.288c0-83.919-18.649-111.892-75.631-111.892
		s-75.631,27.973-75.631,111.892v8.288C368.423,461.847,387.072,489.82,444.054,489.82z M420.225,366.532
		c0-51.802,5.18-63.198,22.793-63.198h2.072c17.613,0,22.793,11.396,22.793,63.198v15.541c0,51.802-5.18,63.198-22.793,63.198
		h-2.072c-17.613,0-22.793-11.396-22.793-63.198V366.532z"/>
	<path class="st0" d="M960,334.414c0-61.126-31.081-73.559-66.306-73.559h-63.198v226.892h51.802c0,0,0-78.739,0-78.739h9.324
		l13.469,78.739H960l-23.829-91.171C947.568,388.288,960,371.712,960,334.414z M889.549,361.351h-7.252v-53.874h7.252
		c11.396,0,20.721,5.18,20.721,26.937S900.946,361.351,889.549,361.351z"/>
	<polygon class="st0" points="529.009,669.054 526.937,669.054 504.144,506.396 474.099,506.396 444.054,506.396 421.261,669.054 
		420.225,669.054 406.757,506.396 352.883,506.396 383.964,732.252 451.306,732.252 474.099,577.883 475.135,577.883 
		496.892,732.252 565.27,732.252 595.315,506.396 541.441,506.396 	"/>
</g>
</svg>
