<?xml version="1.0" encoding="utf-8"?>
<!-- Generator: Adobe Illustrator 19.2.0, SVG Export Plug-In . SVG Version: 6.00 Build 0)  -->
<!DOCTYPE svg PUBLIC "-//W3C//DTD SVG 1.1//EN" "http://www.w3.org/Graphics/SVG/1.1/DTD/svg11.dtd">
<svg version="1.1" id="Layer_1" xmlns="http://www.w3.org/2000/svg" xmlns:xlink="http://www.w3.org/1999/xlink" x="0px" y="0px"
	 width="1000px" height="1000px" viewBox="0 0 1000 1000" style="enable-background:new 0 0 1000 1000;" xml:space="preserve">
<style type="text/css">
	.st0{fill:#FFFFFF;}
</style>
<g>
	<path class="st0" d="M156.152,301.837c5.546,0,10.537,1.109,15.251,5.269c3.05,2.773,4.437,8.042,4.714,15.251l1.109,0.555
		l3.05,0.277c0-10.537,1.109-19.688,2.773-24.679l-3.882-1.109l-0.555,0.277c-0.277,1.664-1.386,3.328-3.605,3.328
		c-0.832,0-2.773-0.277-4.159-1.109c-4.991-1.941-9.705-2.773-16.638-2.773c-21.906,0-37.712,16.915-37.712,39.931
		c0,21.906,14.974,36.88,37.712,36.88c7.21,0,13.588-1.386,17.747-3.328c1.941-0.832,3.328-1.109,4.437-1.109
		c1.109,0,1.941,0.832,2.773,4.437l0.555,0.277l4.437-1.386c-2.218-7.764-2.773-16.36-2.496-26.066l-3.605,0.277l-0.832,0.832
		c0,4.437-1.109,11.646-4.991,15.251c-4.159,4.437-9.428,5.546-15.529,5.546c-14.419,0-24.402-12.756-24.402-32.721
		C132.582,317.643,141.178,301.837,156.152,301.837z"/>
	<path class="st0" d="M247.938,325.962c0-14.419,0-19.965,0.832-21.629c0.555-1.109,3.605-1.386,6.101-1.386
		c12.756,0,16.36,6.932,16.36,14.419c0,6.378-2.773,11.092-8.042,13.865c-2.496,1.109-6.378,1.941-15.251,1.941V325.962z
		 M241.005,299.619c-6.378,0-10.815,0-16.638-0.555l-0.277,0.277l-0.277,3.05l0.277,0.277c5.546,0.277,8.042,1.109,9.151,3.05
		c1.386,2.218,1.386,9.705,1.386,20.243v18.856c0,15.529-0.277,18.856-2.218,21.075c-1.109,1.386-3.605,2.218-9.428,2.496
		l-0.277,0.277l0.277,3.605l0.277,0.277c4.991-0.277,13.865-0.555,17.747-0.555c7.21,0,13.865,0.277,18.579,0.555l0.277-0.277
		l0.277-3.605l-0.277-0.277c-5.546-0.277-9.151-0.555-10.26-2.773c-1.109-1.941-1.664-9.428-1.664-20.243v-8.042
		c7.21,0,8.319,0.277,11.092,1.386c1.387,0.555,3.05,2.773,5.269,6.1c3.605,5.269,8.596,18.856,11.092,22.738
		c2.218,3.605,4.714,4.714,9.428,4.714c4.991,0,11.924-0.277,14.142-0.832l0.555-0.277l0.555-2.773l-0.555-0.277
		c-1.941,0-3.328-0.277-5.269-0.832c-3.882-1.664-5.269-4.159-8.874-12.478c-2.773-5.269-6.101-10.815-8.596-13.31
		c-3.605-4.159-7.764-5.546-12.201-5.823v-0.832c11.092-1.109,21.629-6.378,21.629-18.302c0-12.756-10.537-17.747-23.57-17.747
		C259.029,298.787,245.442,299.619,241.005,299.619z"/>
	<path class="st0" d="M344.991,371.993h29.671c8.874,0,15.529,0.555,21.352,1.386l1.109-1.664l2.773-23.848l-4.437-0.555
		c-1.941,5.269-5.546,11.924-7.764,14.697c-3.605,4.714-6.378,6.1-14.697,6.1c-9.705,0-14.419-0.277-17.192-3.605
		c-1.387-1.941-2.218-7.764-2.218-17.747v-10.537h8.596c9.428,0,11.092,6.378,12.478,14.697l4.714-1.109
		c-0.277-3.605-0.555-9.428-0.555-13.588c0-3.05,0.555-10.537,1.386-16.36l-4.714-0.277c-2.218,9.983-5.269,11.924-11.646,11.924
		h-10.26V320.97c0-8.596,0.277-13.865,1.387-15.529c1.386-1.941,5.546-2.218,12.201-2.218c9.983,0,12.201,1.664,14.419,4.437
		c3.328,4.437,6.101,10.537,7.21,15.251l4.437-1.109l-1.664-22.461l-0.555-0.555c-4.437,0.555-10.26,0.555-16.36,0.555h-23.848
		c-6.655,0-15.251-0.277-21.075-0.555l-0.277,0.277l-0.277,3.328l0.277,0.277c5.546,0,8.042,0.832,9.151,2.773
		C340,307.66,340,314.87,340,325.407v18.856c0,15.529-0.277,18.856-2.218,21.075c-1.109,1.386-3.605,2.218-9.428,2.496l-0.277,0.277
		l0.277,3.605l0.277,0.277C333.9,372.27,340.832,371.993,344.991,371.993z"/>
	<path class="st0" d="M458.96,341.49c2.773-8.319,7.21-19.411,11.092-28.007h1.109c3.605,9.705,7.487,20.243,9.983,28.007
		l-0.277,0.555h-21.352L458.96,341.49z M457.296,347.314l24.679-0.555l0.555,0.277c3.05,8.042,4.714,13.588,4.714,16.915
		c0,3.05-3.05,4.159-10.26,4.437l-0.277,0.555l0.277,3.605c7.21-0.277,14.419-0.555,19.688-0.555s10.815,0.277,13.865,0.555
		l0.277-3.882l-0.277-0.277c-4.437-0.277-6.101-1.941-7.764-4.437c-2.773-4.159-9.705-26.62-19.688-52.964
		c-2.218-5.546-3.05-10.537-3.328-14.974l-2.218-1.109c-5.269,7.21-9.983,8.596-13.588,8.596l-0.555,1.386
		c1.386,1.386,1.941,2.773,1.941,4.437c0,1.664-0.277,2.496-1.109,4.437c-8.319,21.075-16.083,41.594-19.688,48.804
		c-1.387,3.328-4.991,5.269-10.815,5.823l-0.277,0.277l0.555,3.882c5.546-0.555,9.428-0.555,13.31-0.555
		c6.655,0,12.478,0.277,17.747,0.555l0.277-3.328l-0.277-0.277c-8.874-0.277-11.924-3.328-11.924-6.378
		c0-3.05,1.386-8.873,3.605-14.697L457.296,347.314z"/>
	<path class="st0" d="M584.853,345.65v-41.317l0.555-0.832h3.05c6.932,0,9.705,1.386,13.033,4.991
		c1.941,2.773,5.546,9.705,8.596,16.36l1.109,0.277l2.496-1.109l-1.386-24.125l-1.109-1.664c-2.773,0.555-8.873,1.664-17.747,1.664
		h-30.225c-8.874,0-14.697-1.109-17.192-1.664l-1.109,1.664l-1.941,24.402l3.05,1.109l0.555-0.555
		c3.05-6.932,6.378-13.865,8.596-16.638c3.328-3.605,6.101-4.714,13.587-4.714h1.941l0.555,0.832v40.485
		c0,15.529-0.832,18.856-2.218,21.075c-1.386,1.664-3.882,2.218-11.092,2.496l-0.555,0.555l0.277,3.05l0.555,0.555
		c6.655-0.277,13.865-0.555,18.024-0.555c6.655,0,12.478,0.277,22.184,0.555l0.277-0.555l0.277-3.328l-0.555-0.555
		c-6.932,0-9.983-0.555-11.092-2.773C585.685,363.674,584.853,356.464,584.853,345.65z"/>
	<path class="st0" d="M671.092,327.348c0-15.806,1.109-19.411,3.05-21.352c1.386-1.387,3.605-2.496,10.26-2.773h0.277l-0.277-3.328
		l-0.277-0.277c-6.101,0.277-13.033,0.277-16.915,0.277c-6.932,0-15.251,0-21.906-0.555l-0.277,0.277l-0.277,3.328h0.277
		c6.101,0.277,8.874,1.109,9.983,3.05c1.109,1.941,2.218,9.705,2.218,20.243v18.856c0,15.529-1.109,18.856-3.05,21.075
		c-1.109,1.664-3.605,2.218-9.983,2.496l-0.277,0.277l0.277,3.605l0.277,0.277c5.823-0.277,13.033-0.555,16.915-0.555
		c6.932,0,13.31,0.277,21.906,0.555l0.277-0.277l0.277-3.605l-0.277-0.277c-6.378,0-9.151-0.555-10.26-2.773
		c-1.386-1.941-2.218-9.428-2.218-19.965V327.348L671.092,327.348z"/>
	<path class="st0" d="M748.735,324.021c-3.05-9.705-3.882-13.033-3.882-16.083c0-3.05,1.941-4.437,10.26-4.991l0.555-0.277
		l-0.555-3.605c-8.596,0.277-14.697,0.555-20.52,0.555c-4.991,0-9.151,0-15.251-0.277l-0.277,3.328l0.555,0.277
		c3.605,0.555,5.823,1.941,7.21,4.714c2.496,4.437,7.764,21.075,20.52,52.132c1.941,4.714,4.714,11.924,5.269,14.419l1.941,1.109
		c2.218-1.109,5.269-1.941,7.487-2.218c0.555-2.218,1.664-5.546,2.496-7.487c5.546-12.201,11.646-26.898,16.083-38.267
		c3.05-8.042,5.546-14.419,8.042-18.024c1.664-3.05,3.328-4.991,8.319-6.101l0.277-0.277l-0.277-3.605
		c-3.328,0.277-7.487,0.277-11.369,0.277c-6.932,0-12.756-0.277-18.579-0.555l-0.277,3.605l0.277,0.277
		c8.874,1.109,11.092,3.882,11.092,6.378c0,3.05-0.832,7.21-3.328,15.251c-2.496,8.596-8.319,23.57-12.756,33.83h-0.832
		C757.886,349.532,752.34,333.726,748.735,324.021z"/>
	<path class="st0" d="M842.184,371.993h29.671c8.874,0,15.529,0.555,21.352,1.386l1.109-1.664l2.773-23.848l-4.437-0.555
		c-1.941,5.269-5.546,11.924-7.764,14.697c-3.605,4.714-6.378,6.1-14.697,6.1c-9.705,0-14.419-0.277-17.192-3.605
		c-1.386-1.941-2.218-7.764-2.218-17.747v-10.537h8.596c9.428,0,11.092,6.378,12.478,14.697l4.714-1.109
		c-0.277-3.605-0.555-9.428-0.555-13.588c0-3.05,0.555-10.537,1.386-16.36l-4.714-0.277c-2.218,9.983-5.269,11.924-11.646,11.924
		h-10.26V320.97c0-8.596,0.277-13.865,1.386-15.529c1.386-1.941,5.546-2.218,12.201-2.218c9.983,0,12.201,1.664,14.419,4.437
		c3.328,4.437,6.101,10.537,7.21,15.251l4.437-1.109l-1.664-22.461l-0.832-0.555c-4.437,0.555-10.26,0.555-16.36,0.555H847.73
		c-6.655,0-15.251-0.277-21.075-0.555l-0.277,0.277l-0.277,3.328l0.277,0.277c5.546,0,8.042,0.832,9.151,2.773
		c1.386,2.218,1.386,9.428,1.386,19.965v18.856c0,15.529-0.277,18.856-2.218,21.075c-1.109,1.386-3.605,2.218-9.428,2.496
		l-0.277,0.277l0.277,3.605l0.277,0.277C831.092,372.27,838.024,371.993,842.184,371.993z"/>
	<path class="st0" d="M50.78,497.608c-3.05,1.386-10.26,1.941-14.142,1.941c-4.159,0-10.537-1.386-10.537-5.269
		c0-3.05,3.328-4.714,8.596-4.714c7.21,0,15.251,4.714,16.36,6.101C52.166,497.054,52.166,497.054,50.78,497.608z M62.704,470.988
		c16.915,0,30.503-12.201,30.503-31.334c0-6.101-3.05-15.529-14.419-15.529c-6.101,0-13.033,3.882-13.033,12.201
		c0,4.991,2.773,8.042,7.21,8.042c5.546,0,6.655-4.437,6.655-8.874c0-2.218,0.277-3.328,1.941-3.328
		c4.159,0,5.546,4.159,5.546,8.042c0,9.151-6.101,22.184-19.411,22.184c-10.26,0-14.697-8.596-14.697-19.411
		c0-17.47,11.369-42.704,32.444-42.704c17.747,0,22.461,17.192,22.461,32.166c0,31.057-20.52,52.132-42.704,59.341
		c-8.042-6.101-19.411-11.646-28.839-11.646S20,485.684,20,492.617c0,8.042,7.487,11.646,16.638,11.646
		c6.378,0,14.974-1.109,21.075-3.05c8.596,5.269,38.544,36.326,62.114,36.326c19.688,0,31.057-10.26,31.057-18.579
		c0-4.159-2.773-9.705-9.705-9.705c-4.437,0-7.764,4.714-7.764,8.042c0,2.773,1.109,3.882,3.605,6.101
		c1.941,1.941,1.109,7.487-5.546,7.487c-10.537,0-35.217-16.36-59.341-33.83v-0.555c19.688-6.101,51.854-24.125,51.854-61.837
		c0-16.638-7.21-39.931-38.267-39.931s-46.863,29.671-46.863,50.468C38.301,464.333,50.503,470.988,62.704,470.988z"/>
	<path class="st0" d="M205.511,427.175l0.555,0.277c4.714,0.277,9.428,1.109,11.369,3.05c1.109,1.109,2.773,4.437,3.05,8.042
		c0.277,4.159,1.109,11.924,1.109,19.133v8.042c0,16.083-6.655,26.898-20.52,26.898c-13.033,0-22.184-7.764-22.184-27.175v-16.638
		c0-11.092,0.555-16.36,2.496-18.579c1.664-1.941,4.159-2.496,9.428-2.496l0.555-0.555l-0.277-2.773l-0.277-0.277
		c-4.714,0.555-13.588,0.555-18.024,0.555c-6.932,0-12.201,0-17.192-0.555l-0.277,0.277l-0.277,3.328h0.277
		c5.269,0.277,7.764,1.386,8.596,3.05c0.832,1.941,0.832,7.764,0.832,18.302v17.47c0,21.352,7.764,33.553,32.166,33.553
		c19.965,0,31.057-11.369,31.057-34.385v-9.983c0-18.856,0.277-23.293,1.941-24.957c1.386-1.664,3.882-2.773,6.655-3.328
		l0.555-0.277v-3.328c-2.773,0.555-9.705,0.555-14.142,0.555c-6.655,0-10.26,0-17.192-0.555v3.328H205.511z"/>
	<path class="st0" d="M288.146,466.551c2.773-8.319,7.21-19.411,11.092-28.007h1.109c3.605,9.705,7.487,20.243,9.983,28.007
		l-0.277,0.555h-21.629L288.146,466.551z M286.482,472.097l24.679-0.555l0.555,0.277c3.05,8.042,4.714,13.588,4.714,16.915
		c0,3.05-3.05,4.159-10.26,4.437l-0.277,0.555l0.277,3.605c7.21-0.277,14.419-0.555,19.688-0.555s10.815,0.277,13.865,0.555
		l0.277-3.882l-0.277-0.277c-4.437-0.277-6.101-1.941-7.764-4.437c-2.773-4.159-9.705-26.62-19.688-52.964
		c-2.218-5.546-3.05-10.537-3.328-14.974l-2.218-1.109c-5.269,7.21-9.983,8.596-13.588,8.596l-0.555,1.386
		c1.387,1.387,1.941,2.773,1.941,4.437s-0.277,2.496-1.109,4.437c-8.319,21.075-16.083,41.594-19.688,48.804
		c-1.386,3.328-4.991,5.269-10.815,5.823l-0.277,0.277l0.555,3.882c5.546-0.555,9.428-0.555,13.31-0.555
		c6.655,0,12.478,0.277,17.747,0.555l0.277-3.328l-0.277-0.277c-8.874-0.277-11.924-3.328-11.924-6.378
		c0-3.05,1.387-8.874,3.605-14.697L286.482,472.097z"/>
	<path class="st0" d="M397.955,450.745c0-14.419,0-19.965,0.832-21.629c0.555-1.109,3.605-1.386,6.101-1.386
		c12.756,0,16.36,6.932,16.36,14.419c0,6.378-2.773,11.092-8.042,13.865c-2.496,1.109-6.378,1.941-15.251,1.941V450.745z
		 M390.745,424.402c-6.378,0-10.815,0-16.638-0.555l-0.277,0.277l-0.277,3.05l0.277,0.277c5.546,0.277,8.042,1.109,9.151,3.05
		c1.386,2.218,1.386,9.705,1.386,20.243v18.856c0,15.529-0.277,18.856-2.218,21.075c-1.109,1.387-3.605,2.218-9.428,2.496
		l-0.277,0.277l0.277,3.605l0.277,0.277c4.991-0.277,13.865-0.555,17.747-0.555c7.21,0,13.865,0.277,18.579,0.555l0.277-0.277
		l0.277-3.605l-0.277-0.277c-5.546-0.277-9.151-0.555-10.26-2.773c-1.109-1.941-1.664-9.428-1.664-20.243v-8.042
		c7.21,0,8.319,0.277,11.092,1.387c1.387,0.555,3.05,2.773,5.269,6.101c3.605,5.269,8.596,18.856,11.092,22.738
		c2.218,3.605,4.714,4.714,9.428,4.714c4.991,0,11.924-0.277,14.142-0.832l0.555-0.277l0.555-2.773l-0.555-0.277
		c-1.941,0-3.328-0.277-5.269-0.832c-3.882-1.664-5.269-4.159-8.874-12.478c-2.773-5.269-6.101-10.815-8.596-13.31
		c-3.605-4.159-7.764-5.546-12.201-5.823v-0.832c11.092-1.109,21.629-6.378,21.629-18.302c0-12.756-10.537-17.747-23.57-17.747
		C408.77,423.57,395.182,424.402,390.745,424.402z"/>
	<path class="st0" d="M523.57,470.433v-41.317l0.555-0.832h3.05c6.932,0,9.705,1.386,13.033,4.991
		c1.941,2.773,5.546,9.705,8.596,16.36l1.109,0.277l2.496-1.109l-1.386-24.125l-1.109-1.664c-2.773,0.555-8.873,1.664-17.747,1.664
		h-30.225c-8.874,0-14.697-1.109-17.192-1.664l-1.109,1.664l-1.941,24.402l3.05,1.109l0.555-0.555
		c3.05-6.932,6.378-13.865,8.596-16.638c3.328-3.605,6.101-4.714,13.588-4.714h1.941l0.555,0.832v40.485
		c0,15.529-0.832,18.856-2.218,21.075c-1.387,1.664-3.882,2.218-11.092,2.496l-0.555,0.555l0.277,3.05l0.555,0.555
		c6.655-0.277,13.865-0.555,18.024-0.555c6.655,0,12.478,0.277,22.184,0.555l0.277-0.555l0.277-3.328l-0.555-0.555
		c-6.932,0-9.983-0.555-11.092-2.773C524.402,488.735,523.57,480.971,523.57,470.433z"/>
	<path class="st0" d="M599.272,497.054h29.671c8.874,0,15.529,0.555,21.352,1.386l1.109-1.664l2.773-23.848l-4.437-0.555
		c-1.941,5.269-5.546,11.924-7.764,14.697c-3.605,4.714-6.378,6.101-14.697,6.101c-9.705,0-14.419-0.277-17.192-3.605
		c-1.386-1.941-2.218-7.764-2.218-17.747v-10.537h8.596c9.428,0,11.092,6.378,12.478,14.697l4.714-1.109
		c-0.277-3.605-0.555-9.428-0.555-13.588c0-3.05,0.555-10.537,1.386-16.36l-4.714-0.277c-2.218,9.983-5.269,11.924-11.646,11.924
		h-10.26v-10.537c0-8.596,0.277-13.865,1.386-15.529c1.386-1.941,5.546-2.218,12.201-2.218c9.983,0,12.201,1.664,14.419,4.437
		c3.328,4.437,6.101,10.537,7.21,15.251l4.437-1.109l-1.664-22.461l-0.832-0.555c-4.437,0.555-10.26,0.555-16.36,0.555h-23.848
		c-6.655,0-15.251-0.277-21.075-0.555l-0.277,0.277l-0.277,3.328l0.277,0.277c5.546,0,8.042,0.832,9.151,2.773
		c1.386,2.218,1.386,9.428,1.386,19.965v18.856c0,15.529-0.277,18.856-2.218,21.075c-1.109,1.387-3.605,2.218-9.428,2.496
		l-0.277,0.277l0.277,3.605l0.277,0.277C588.18,497.054,595.113,497.054,599.272,497.054z"/>
	<path class="st0" d="M718.787,450.745c0-14.419,0-19.965,0.832-21.629c0.555-1.109,3.605-1.386,6.101-1.386
		c12.756,0,16.36,6.932,16.36,14.419c0,6.378-2.773,11.092-8.042,13.865c-2.496,1.109-6.378,1.941-15.251,1.941V450.745z
		 M711.577,424.402c-6.378,0-10.815,0-16.638-0.555l-0.277,0.277l-0.277,3.05l0.277,0.277c5.546,0.277,8.042,1.109,9.151,3.05
		c1.387,2.218,1.387,9.705,1.387,20.243v18.856c0,15.529-0.277,18.856-2.218,21.075c-1.109,1.387-3.605,2.218-9.428,2.496
		l-0.277,0.277l0.277,3.605l0.277,0.277c4.991-0.277,13.865-0.555,17.747-0.555c7.21,0,13.865,0.277,18.579,0.555l0.277-0.277
		l0.277-3.605l-0.277-0.277c-5.546-0.277-9.151-0.555-10.26-2.773c-1.109-1.941-1.664-9.428-1.664-20.243v-8.042
		c7.21,0,8.319,0.277,11.092,1.387c1.386,0.555,3.05,2.773,5.269,6.101c3.605,5.269,8.596,18.856,11.092,22.738
		c2.218,3.605,4.714,4.714,9.428,4.714c4.991,0,11.924-0.277,14.142-0.832l0.555-0.277l0.555-2.773l-0.277-0.277
		c-1.941,0-3.328-0.277-5.269-0.832c-3.882-1.664-5.269-4.159-8.874-12.478c-2.773-5.269-6.101-10.815-8.596-13.31
		c-3.605-4.159-7.764-5.546-12.201-5.823v-0.832c11.092-1.109,21.629-6.378,21.629-18.302c0-12.756-10.537-17.747-23.57-17.747
		C729.602,423.57,716.014,424.402,711.577,424.402z"/>
	<path class="st0" d="M834.697,451.854c0-15.806,1.386-19.411,3.05-21.352c1.109-1.664,4.437-2.496,11.092-2.773h0.277l-0.277-3.328
		l-0.277-0.277c-6.378,0.277-13.588,0.277-17.192,0.277c-6.655,0-15.251,0-21.075-0.555l-0.277,0.277l-0.277,3.05l0.277,0.277
		c5.546,0.277,8.042,1.109,9.151,3.05c1.109,2.218,1.386,9.705,1.386,20.243v18.856c0,15.529-0.277,18.856-2.218,21.075
		c-1.386,1.386-3.605,2.218-9.428,2.496l-0.277,0.277l0.277,3.605l0.277,0.277c4.991-0.277,11.924-0.555,16.083-0.555h29.948
		c9.151,0,14.974,0.555,18.579,1.386l2.218-1.664l2.773-28.561l-3.882-0.832l-0.832,0.277c-2.218,9.428-6.101,16.36-8.042,19.133
		c-3.05,4.159-6.101,5.823-13.865,5.823c-9.151,0-11.369-1.109-14.419-4.159c-1.941-1.941-3.05-5.269-3.05-21.352L834.697,451.854
		L834.697,451.854z"/>
	<path class="st0" d="M933.414,474.87c0,10.26-0.555,13.587-1.941,15.806c-1.109,1.664-3.882,2.218-10.26,2.496l-0.277,0.277
		l0.277,3.605l0.277,0.277c5.823-0.277,13.033-0.555,17.192-0.555c6.932,0,13.033,0.277,19.965,0.555l0.277-0.277l0.277-3.605
		l-0.277-0.277c-6.101,0-9.151-0.555-10.26-2.773c-1.109-1.941-1.109-8.874-1.109-15.806v-10.26c0-1.664,0.555-2.496,1.386-3.605
		c4.714-6.101,11.924-16.083,14.974-21.075c2.773-4.437,5.269-7.764,7.487-9.428c2.773-1.941,6.101-2.496,8.319-2.496l0.277-0.277
		l-0.277-3.605c-4.714,0.555-9.983,0.555-14.419,0.555c-6.655,0-11.646-0.277-16.361-0.555l-0.277,3.605l0.277,0.277
		c7.764,0.277,11.092,1.941,11.092,4.991c0,2.218-0.832,4.991-4.159,10.26c-1.941,3.05-6.378,9.428-10.26,14.142
		c-11.092-11.924-16.915-23.016-16.915-26.066c0-1.941,3.05-3.328,9.705-3.328l0.277-0.277l-0.277-3.605
		c-6.378,0.555-13.865,0.555-17.747,0.555c-6.655,0-12.201-0.277-17.747-0.555l-0.277,3.605l0.277,0.277
		c4.714,0,8.042,2.218,10.26,5.823c4.437,6.932,12.478,18.856,18.856,27.73c1.109,1.386,1.386,2.496,1.386,3.605L933.414,474.87
		L933.414,474.87z"/>
</g>
<g>
	<path class="st0" d="M149.775,625.165c1.109-4.159,5.546-13.033,9.428-13.033c1.664,0,1.664,1.664,1.664,2.773
		c0,2.218-0.555,3.882-1.664,5.269C157.539,622.392,152.825,624.887,149.775,625.165L149.775,625.165z M148.943,627.66
		c6.655-1.386,12.756-4.159,14.974-6.101c1.109-1.109,2.218-3.328,2.218-5.546c0-4.714-2.773-6.378-5.546-6.378
		c-3.882,0-7.21,2.218-10.26,5.269c-4.159,4.159-8.319,13.31-8.319,20.52c0,3.882,1.386,9.151,7.764,9.151
		c7.21,0,10.815-6.655,12.478-10.26v-0.277l-1.386-0.832h-0.277c-1.664,3.328-4.159,7.764-8.596,7.764
		c-3.605,0-4.159-3.05-4.159-5.823C147.834,632.652,148.388,629.324,148.943,627.66z M130.918,588.839
		c0-0.832-0.832-2.218-1.386-1.941c-2.773,0.277-7.764,1.109-12.201,1.941v0.277l0.277,1.386c4.159,0,5.546,0.277,5.546,2.218
		c0,2.218-5.269,16.638-16.915,50.468l0.555,0.832l4.991-0.832l0.555-0.555c3.882-15.529,14.419-28.284,18.302-28.284
		c1.664,0,2.218,1.386,2.218,3.605c0,8.596-4.437,20.797-7.21,20.797c-0.832,0-1.664-0.277-2.496-2.218
		c-0.555-1.109-0.832-1.109-1.664-1.109c-1.664,0-3.05,1.941-3.05,4.159c0,2.496,1.386,4.437,3.882,4.437
		c1.941,0,3.882-1.664,6.101-4.159c4.159-4.437,10.815-14.419,10.815-22.738c0-2.773-0.832-7.487-5.546-7.487
		c-5.823,0-12.478,8.873-14.974,13.865l-0.555-0.277C122.877,609.913,128.977,592.721,130.918,588.839z M79.341,612.132
		c0,1.386-1.386,1.664-2.218,1.664c-2.218,0-4.159-2.218-4.159-4.991c0-7.764,7.21-9.428,11.924-9.428
		c2.218,0,4.991,0.277,7.21,0.832l0.277,0.277l-6.378,24.402c-2.773,10.26-3.882,14.142-4.991,15.251
		c-0.832,0.832-2.773,1.386-5.269,1.386l-0.277,0.277v1.941v0.277c3.328-0.277,7.21-0.555,9.705-0.555
		c3.605,0,8.042,0.277,11.924,0.555l0.277-0.277l0.277-1.941l-0.277-0.277c-4.714-0.277-7.21-0.832-7.21-3.605
		c0-1.941,0.555-4.159,2.496-12.478l6.101-24.125l0.277-0.277c2.773,0.832,6.655,1.664,9.705,1.664c5.546,0,9.428-4.437,9.428-8.042
		c0-2.496-1.386-4.159-3.605-4.159c-1.941,0-3.05,1.386-3.05,3.05c0,1.109,0.832,1.941,1.664,2.496
		c0.832,0.555,1.664,1.109,1.664,1.664c0,1.109-0.832,1.664-2.496,1.664c-5.269,0-14.142-5.269-26.343-5.269
		c-11.924,0-16.915,6.932-16.915,13.31c0,2.773,1.109,8.874,8.596,8.874c3.328,0,6.655-2.496,6.655-6.378
		c0-1.386-0.832-4.159-3.882-4.159c-1.664,0-3.328,1.386-3.328,3.605c0,1.386,0.832,2.218,1.664,2.496
		C79.064,611.577,79.341,611.854,79.341,612.132z"/>
	<path class="st0" d="M273.172,602.704c-0.555,2.496-1.664,6.378-2.773,9.705l-5.546,0.277l-0.277,0.277l-0.555,2.496l0.277,0.277
		l5.269-0.277v0.277c-1.386,4.159-4.159,12.478-7.21,21.906c-0.832,2.218-0.832,3.328-0.832,4.437s1.386,2.773,3.05,2.773
		c4.714,0,11.924-7.21,14.974-10.815v-0.555l-1.386-1.664h-0.277c-1.941,2.773-6.932,7.21-8.319,7.21
		c-0.555,0-1.109-0.277-1.109-1.109c0-2.218,3.05-11.646,7.21-23.293l8.042-0.277l0.277-0.277l0.832-2.496l-0.277-0.277
		l-7.764,0.555l-0.277-0.277c1.109-3.328,3.05-8.042,4.437-11.369l-0.832-0.555C278.718,600.763,275.667,601.872,273.172,602.704z
		 M246.274,627.938c2.218,3.05,3.605,6.101,3.605,9.428c0,2.496-1.386,4.437-3.605,4.437s-4.159-1.664-5.269-4.714
		c-0.555-1.664-1.109-2.496-2.496-2.496c-1.664,0-3.05,2.218-3.05,3.882c0,1.386,0.555,2.496,1.386,3.605
		c1.109,1.109,3.605,2.496,6.655,2.496c5.546,0,11.369-6.378,11.369-11.646c0-1.941-0.832-4.159-2.496-6.932l-2.773-3.882
		c-1.941-3.05-2.496-3.882-2.496-5.823c0-1.664,1.109-4.437,3.328-4.437c1.664,0,2.773,1.386,3.328,3.05
		c0.555,1.664,0.832,2.218,1.941,2.218c1.664,0,3.328-1.664,3.328-3.605c0-2.496-3.328-4.159-7.21-4.159
		c-4.437,0-9.705,5.823-9.705,9.983c0,2.218,0.277,3.605,2.218,6.378L246.274,627.938z M219.931,625.165
		c1.109-4.159,5.546-13.033,9.428-13.033c1.664,0,1.664,1.664,1.664,2.773c0,2.218-0.555,3.882-1.664,5.269
		C227.972,622.392,222.981,624.887,219.931,625.165L219.931,625.165z M219.376,627.66c6.655-1.386,12.756-4.159,14.974-6.101
		c1.109-1.109,2.218-3.328,2.218-5.546c0-4.714-2.773-6.378-5.546-6.378c-3.882,0-7.21,2.218-10.26,5.269
		c-4.159,4.159-8.319,13.31-8.319,20.52c0,3.882,1.386,9.151,7.764,9.151c7.21,0,10.815-6.655,12.478-10.26v-0.277l-1.386-0.832
		h-0.277c-1.664,3.328-4.159,7.764-8.596,7.764c-3.605,0-4.159-3.05-4.159-5.823C218.267,632.652,218.822,629.324,219.376,627.66z
		 M185.546,636.811c0-8.874,11.369-22.738,16.083-22.738c1.664,0,1.941,1.109,1.941,2.218c0,8.874-8.319,24.679-13.865,24.679
		C186.655,640.971,185.546,638.475,185.546,636.811z M204.125,588.284c0.277-0.832-0.555-1.664-1.386-1.664
		c-2.773,0.277-8.596,1.386-13.033,1.941v0.277l0.277,1.664c4.437,0,5.546,0.277,5.546,2.218c0,2.218-4.714,12.756-16.36,45.199
		l0.277,1.386c1.664,2.496,4.714,4.714,8.042,5.269c2.218,0,4.714-0.832,7.21-2.496c6.101-3.882,15.529-16.638,15.529-26.898
		c0-2.218-1.109-5.546-4.437-5.546c-5.269,0-10.537,4.714-14.419,9.705l-0.277-0.277
		C194.974,608.804,201.352,592.998,204.125,588.284z"/>
	<path class="st0" d="M341.664,604.367c1.664-6.101,3.328-9.983,5.546-12.201c1.387-1.386,2.773-1.941,4.159-1.941
		s1.664,0.555,1.664,2.773c0,2.218,0.555,4.159,3.05,4.159c3.05,0,4.159-2.218,4.159-4.437c0-3.605-3.05-5.546-7.764-5.546
		c-3.05,0-6.378,0.832-9.705,3.605c-4.437,3.605-6.101,8.319-7.487,12.756l-2.218,7.764l-7.21,0.277l-0.832,2.773l0.277,0.277
		l6.932-0.555v0.277l-0.832,2.773c-1.386,4.714-4.991,18.302-8.042,28.839c-1.664,6.101-3.05,9.983-4.991,12.478
		c-1.387,1.664-2.773,2.218-4.159,2.218s-1.941-0.555-1.941-2.773c0-2.218-0.277-3.605-2.218-3.605
		c-2.773,0-4.437,2.496-4.437,4.437c0,4.159,3.605,5.269,6.378,5.269c3.328,0,6.378-1.109,9.705-4.159
		c2.773-2.773,6.101-7.764,7.764-12.478c2.496-7.487,6.101-21.352,8.042-28.284l1.109-4.714l9.428-0.277l0.832-2.496l-0.277-0.277
		l-8.874,0.555l-0.277-0.277L341.664,604.367z M313.657,612.132c2.218,0,2.218,2.496,2.218,4.159
		c0,11.092-9.151,24.957-13.588,24.957c-2.218,0-2.773-1.664-2.773-3.882C299.515,629.601,307.279,612.132,313.657,612.132z
		 M311.439,609.636c-7.21,0-16.638,11.924-16.638,24.125c0,7.764,5.269,10.815,9.428,10.815c6.378,0,16.083-10.537,16.083-24.125
		c0-4.437-0.832-6.932-2.773-8.873C315.875,610.191,314.211,609.636,311.439,609.636z"/>
	<path class="st0" d="M428.18,602.704c-0.555,2.496-1.664,6.378-2.773,9.705l-5.546,0.277l-0.277,0.277l-0.555,2.496l0.277,0.277
		l5.269-0.277v0.277c-1.386,4.159-4.159,12.478-7.21,21.906c-0.832,2.218-0.832,3.328-0.832,4.437s1.386,2.773,3.05,2.773
		c4.714,0,11.924-7.21,14.974-10.815v-0.555l-1.386-1.664h-0.277c-1.941,2.773-6.932,7.21-8.319,7.21
		c-0.555,0-1.109-0.277-1.109-1.109c0-2.218,3.05-11.646,7.21-23.293l8.042-0.277l0.277-0.277l0.832-2.496l-0.277-0.277
		l-7.764,0.555l-0.277-0.277c1.109-3.328,3.05-8.042,4.437-11.369l-0.832-0.555C433.449,600.763,430.676,601.872,428.18,602.704z
		 M415.147,620.451c1.109-0.832,2.496-4.991,2.496-7.21c0-1.664-0.277-3.605-2.218-3.605c-4.714,0-10.26,8.596-13.31,14.419
		l-0.277-0.277c1.664-4.991,3.328-10.26,3.328-11.646c0-1.664-0.832-2.496-1.941-2.496c-2.773,0-7.21,1.664-13.033,7.764v0.277
		l1.109,1.664h0.277c1.941-1.941,4.714-4.159,6.101-4.159c0.832,0,1.109,0.832,1.109,1.664c0,1.664-2.496,11.092-8.319,26.898
		l0.555,0.832l5.269-1.109l0.555-0.832c1.109-4.714,2.773-10.26,4.714-14.419c4.714-7.764,8.319-11.924,10.26-11.924
		c1.386,0,2.218,1.386,2.496,3.882L415.147,620.451L415.147,620.451L415.147,620.451z M380.763,611.854
		c-0.832-1.109-2.218-2.218-4.159-2.218c-4.437,0-10.26,4.159-15.251,11.369c-4.159,6.378-6.378,12.478-6.378,16.36
		c0,3.05,0.832,6.655,5.269,6.655c5.269,0,11.092-8.042,13.587-12.201l0.277,0.277c-1.941,4.991-2.496,8.596-2.496,9.428
		c0,1.664,1.109,2.496,2.773,2.496c2.773,0,9.151-4.991,12.756-11.646v-0.277l-1.386-1.387h-0.277
		c-1.941,3.328-6.101,7.764-7.21,7.764c-0.555,0-0.555-0.277-0.555-0.832c0-2.218,3.328-12.478,8.596-26.066
		c-0.277-0.832-2.218-1.664-3.328-1.664l-1.664,1.664h-0.555V611.854z M361.629,635.702c0-2.773,1.664-9.705,5.269-15.251
		c3.328-5.269,7.21-8.319,9.151-8.319c1.664,0,2.773,1.109,2.773,3.05c0,6.378-11.092,24.402-15.251,24.402
		C361.906,639.584,361.629,637.643,361.629,635.702z"/>
	<path class="st0" d="M464.229,614.905c1.109-0.832,2.773-1.109,4.159-1.109s2.773,0.277,2.773,1.664s-1.109,1.941-2.496,1.941
		C467.002,617.4,465.061,616.291,464.229,614.905z M486.135,628.215c0,1.664-1.664,2.496-3.05,2.496
		c-3.882,0-5.546-2.773-5.546-6.378c0-4.437,3.328-6.932,7.21-6.932c6.378,0,9.705,4.159,9.705,8.874
		c0,10.815-10.815,13.033-17.747,13.033c-11.092,0-19.133-4.159-19.133-13.31c0-4.437,2.218-8.042,4.714-9.705
		c1.664,1.941,4.437,3.328,6.932,3.328c2.496,0,4.714-0.832,4.714-4.159c0-2.773-2.773-3.605-5.546-3.605
		c-1.386,0-3.882,0.555-5.269,1.387c-0.555-1.109-1.109-2.773-1.109-4.714c0-4.159,2.773-8.596,7.764-8.596
		c4.437,0,7.21,2.773,7.21,6.378c0,1.109-0.277,2.773-1.109,4.159c0,0.555,0.555,0.832,1.109,0.832
		c2.496-0.832,4.991-3.328,4.991-7.21c0-6.101-5.269-8.874-10.537-8.874c-9.428,0-13.033,6.932-13.033,12.478
		c0,2.773,0.832,5.269,2.218,6.932v0.277c-3.882,2.218-9.151,7.21-9.151,14.419c0,13.31,12.756,16.36,22.184,16.36
		c14.974,0,24.125-7.21,24.125-18.024c0-3.605-1.664-6.932-4.159-8.596v-0.277c7.764,1.386,14.419-3.05,14.419-10.26
		c0-4.159-2.773-8.042-8.042-8.042c-2.773,0-6.101,1.386-6.101,4.991c0,1.664,0.832,3.328,3.328,3.328
		c1.941,0,2.773-1.386,2.773-2.773c0-1.109,0.555-2.496,1.664-2.496c2.496,0,3.882,1.941,3.882,4.437
		c0,4.991-3.605,6.101-6.932,6.101c-3.328,0-8.319-1.664-11.646-1.664c-7.764,0-12.201,5.823-12.201,12.201
		c0,4.159,2.773,8.874,8.596,8.874c3.882,0,6.932-2.496,6.932-6.378c0-2.773-1.387-5.269-4.437-5.269
		c-2.218,0-3.605,0.832-3.605,3.05c0,1.664,1.664,2.496,2.773,2.496C485.858,626.828,486.135,627.106,486.135,628.215z"/>
	<path class="st0" d="M648.631,617.4L648.631,617.4l0.832,1.664h0.277c1.941-1.664,4.437-3.882,6.101-3.882
		c0.555,0,1.109,0.277,1.109,1.386c0,2.773-4.159,15.529-8.596,27.452l0.555,0.555l4.991-1.109l0.832-0.832
		c4.159-16.638,15.251-27.175,17.747-27.175c0.555,0,1.386,0.277,1.386,0.832c0,2.496-6.932,19.411-8.319,23.016
		c-0.832,1.664-1.109,2.218-1.109,3.05c0,1.386,1.386,2.218,2.773,2.218c4.714,0,12.478-7.21,14.697-9.983v-0.277l-1.109-1.664
		h-0.555c-1.941,2.218-6.378,6.655-8.042,6.655c-0.277,0-0.555-0.277-0.555-0.555c0-0.832,5.546-14.697,6.932-18.024
		s2.218-6.101,2.218-7.764c0-1.664-0.832-2.773-3.605-2.773c-5.546,0-12.756,8.596-16.638,14.419l-0.277-0.277
		c1.664-4.437,3.328-9.705,3.328-11.924c0-1.664-1.109-2.218-2.773-2.218C657.227,609.636,651.958,614.073,648.631,617.4z
		 M625.061,645.407c-8.596,2.773-13.31,5.269-13.31,10.26c0,6.655,10.26,8.873,15.806,8.873c7.764,0,20.243-2.496,20.243-13.033
		c0-4.159-4.991-7.21-14.142-9.428c-7.487-1.664-8.873-3.328-8.873-5.269c0-1.664,1.386-3.882,4.437-4.437
		c3.605,0,7.21-1.386,9.428-3.05c2.218-1.941,4.714-6.101,4.714-10.815c0-1.664-0.277-3.882-1.109-4.714v-0.555
		c0.832-0.555,1.941-1.109,2.773-1.109c1.664,0,2.496,1.386,3.05,2.496l1.386-0.277c0.555-1.109,1.109-3.328,1.109-4.714
		c0-0.832-0.555-2.218-1.941-2.218c-2.218,0-4.714,1.941-6.932,4.159c-0.555,0.555-0.832,0.277-1.664-0.277
		c-1.109-0.832-2.773-1.941-5.823-1.941c-10.26,0-13.588,9.705-13.588,14.142c0,3.882,1.386,6.655,4.437,8.042
		c0.555,0.277,0.555,0.832-0.277,1.386c-3.328,1.664-5.546,3.605-5.546,6.378C618.96,642.357,622.288,644.021,625.061,645.407
		L625.061,645.407z M629.775,646.517c7.764,1.941,11.369,5.269,11.369,7.764c0,4.437-2.496,7.21-10.26,7.21
		c-4.714,0-12.478-2.496-12.478-6.655c0-4.714,3.605-6.655,7.764-8.042C627.002,646.517,628.388,646.517,629.775,646.517z
		 M634.212,611.577c2.496,0,3.328,2.773,3.328,5.269c0,4.437-2.496,13.588-7.487,13.588c-3.328,0-3.605-3.328-3.605-5.546
		C626.17,620.451,629.498,611.577,634.212,611.577z M610.919,609.636c-4.437,0-9.705,4.437-12.478,7.764v0.277l1.109,1.664h0.277
		c1.664-1.941,4.437-4.159,5.823-4.159c0.555,0,0.832,0.277,0.832,1.109c0,1.941-3.882,11.924-8.042,22.184
		c-0.555,1.386-0.832,2.773-0.832,3.605c0,1.387,0.832,2.496,2.773,2.496c5.269,0,12.201-8.042,13.865-10.26v-0.832l-1.386-1.386
		h-0.277c-1.386,2.218-5.546,6.378-7.21,6.378c-0.555,0-0.832-0.277-0.832-0.555c0-1.664,5.269-14.697,6.655-18.024
		c1.386-3.328,2.496-6.378,2.496-7.764C613.969,610.745,613.414,609.636,610.919,609.636z M610.641,594.662
		c0,3.328,2.218,3.882,3.605,3.882c2.773,0,4.714-2.773,4.714-5.546c0-2.773-1.664-3.882-3.605-3.882
		C613.137,589.116,610.641,591.889,610.641,594.662z M582.634,627.938c2.218,3.05,3.605,6.101,3.605,9.428
		c0,2.496-1.386,4.437-3.605,4.437s-4.159-1.664-5.269-4.714c-0.555-1.664-1.109-2.496-2.496-2.496c-1.664,0-3.05,2.218-3.05,3.882
		c0,1.386,0.555,2.496,1.387,3.605c1.109,1.109,3.605,2.496,6.655,2.496c5.546,0,11.369-6.378,11.369-11.646
		c0-1.941-0.832-4.159-2.496-6.932l-2.773-3.882c-1.941-3.05-2.496-3.882-2.496-5.823c0-1.664,1.109-4.437,3.328-4.437
		c1.664,0,2.773,1.386,3.328,3.05c0.555,1.664,0.832,2.218,1.941,2.218c1.664,0,3.328-1.664,3.328-3.605
		c0-2.496-3.328-4.159-7.21-4.159c-4.437,0-9.705,5.823-9.705,9.983c0,2.218,0.277,3.605,2.218,6.378L582.634,627.938z
		 M556.569,625.165c1.109-4.159,5.546-13.033,9.428-13.033c1.664,0,1.664,1.664,1.664,2.773c0,2.218-0.555,3.882-1.664,5.269
		C564.333,622.392,559.619,624.887,556.569,625.165L556.569,625.165z M555.737,627.66c6.655-1.386,12.756-4.159,14.974-6.101
		c1.109-1.109,2.218-3.328,2.218-5.546c0-4.714-2.773-6.378-5.546-6.378c-3.882,0-7.21,2.218-10.26,5.269
		c-4.159,4.159-8.319,13.31-8.319,20.52c0,3.882,1.386,9.151,7.764,9.151c7.21,0,10.815-6.655,12.478-10.26v-0.277l-1.386-0.832
		h-0.277c-1.664,3.328-4.159,7.764-8.596,7.764c-3.605,0-4.159-3.05-4.159-5.823C554.628,632.652,555.182,629.324,555.737,627.66z
		 M539.376,588.839L539.376,588.839v1.664c4.714,0,6.101,0.277,6.101,2.218c0,1.386-2.218,6.378-6.932,19.688h-0.277
		c-0.555-1.941-1.664-2.773-3.605-2.773c-3.605,0-9.705,4.159-14.419,11.646c-4.159,6.378-6.378,12.201-6.378,16.638
		c0,2.773,0.832,6.378,5.269,6.378c5.269,0,11.092-7.764,13.588-12.201l0.277,0.277c-1.664,4.714-2.496,8.319-2.496,9.428
		c0,1.664,1.386,2.496,3.05,2.496c2.773,0,8.874-5.269,12.478-11.646v-0.277l-1.386-1.387h-0.277
		c-1.941,3.328-6.378,7.764-7.21,7.764c-0.555,0-0.555-0.277-0.555-0.832c0-2.218,3.05-12.478,8.042-26.066
		c5.546-14.697,7.21-19.411,9.705-23.293c0.277-0.832-0.277-1.664-1.109-1.664C549.636,587.175,543.536,588.007,539.376,588.839z
		 M520.52,635.702c0-2.773,1.941-9.705,5.269-15.251c3.328-5.269,6.378-8.042,8.596-8.042c2.218,0,2.773,1.664,2.773,4.159
		c0,5.546-10.537,23.293-14.974,23.293C520.797,639.584,520.52,637.366,520.52,635.702z"/>
	<path class="st0" d="M695.217,640.139c0-3.605-1.941-5.823-4.714-5.823c-3.05,0-4.714,2.496-4.714,4.714
		c0,2.773,1.941,3.882,3.605,3.882c0.832,0,1.109,0.277,1.109,1.386c0,3.605-4.159,8.319-9.983,9.705v0.555l1.109,1.386
		C688.839,654.835,695.217,647.903,695.217,640.139z"/>
	<path class="st0" d="M920.381,665.095c3.328,0,6.101-1.386,8.874-3.882c3.328-2.773,9.151-10.26,12.478-15.529
		c4.437-5.823,13.31-21.906,13.31-31.612c0-2.773-0.832-4.991-3.328-4.991c-2.218,0-4.437,2.218-4.437,4.714
		c0,1.109,0.555,2.496,1.664,3.605c0.832,0.832,0.832,1.664,0.832,3.05c0,4.714-3.882,14.142-7.764,20.797
		c0.277-1.941,0.277-3.882,0.277-5.546c0-6.655-0.555-18.302-3.328-23.293c-0.832-1.386-2.218-2.773-4.159-2.773
		c-3.605,0-7.764,5.269-9.151,8.319v0.277l1.664,1.109h0.277c0.832-1.941,2.496-4.714,3.882-4.714c0.832,0,1.664,0.277,2.218,1.941
		c2.218,4.159,3.328,15.251,3.328,21.352c0,3.05,0,6.655-0.555,9.428c-1.386,3.05-6.932,9.705-9.983,11.646
		c-1.386,0.832-2.218,1.386-3.605,1.386c-0.832,0-1.664-0.555-1.664-1.941c0-1.941-0.555-3.605-2.773-3.605
		c-3.328,0-4.991,2.773-4.991,4.991C913.726,663.432,916.499,665.095,920.381,665.095z M913.449,638.198
		c0-1.386,1.386-6.378,4.159-13.31c4.714-13.033,11.924-32.166,13.588-35.771c0.277-0.832-0.832-2.218-1.386-1.941
		c-2.773,0.277-8.596,1.109-13.033,1.941v0.277l0.277,1.386c4.437,0,5.823,0.277,5.823,2.218c0,2.218-4.159,11.646-15.806,45.477
		c-0.555,1.386-0.832,2.496-0.832,3.328c0,1.109,1.664,2.496,3.328,2.496c4.714,0,11.369-7.21,14.419-10.815v0l-0.832-1.664h-0.277
		c-1.941,2.773-7.21,7.21-8.042,7.21C913.726,639.029,913.449,638.752,913.449,638.198z M907.071,620.451
		c1.109-0.832,2.496-4.991,2.496-7.21c0-1.664-0.277-3.605-2.218-3.605c-4.714,0-10.26,8.596-13.31,14.419l-0.277-0.277
		c1.664-4.991,3.328-10.26,3.328-11.646c0-1.664-0.832-2.496-1.941-2.496c-2.773,0-7.21,1.664-13.033,7.764v0.277l1.109,1.664h0.277
		c1.941-1.941,4.714-4.159,6.101-4.159c0.832,0,1.109,0.832,1.109,1.664c0,1.664-2.496,11.092-8.319,26.898l0.555,0.832l5.269-1.109
		l0.555-0.832c1.109-4.714,2.773-10.26,4.714-14.419c4.714-7.764,8.319-11.924,10.26-11.924c1.386,0,2.218,1.386,2.496,3.882
		L907.071,620.451L907.071,620.451L907.071,620.451z M863.813,625.165c1.109-4.159,5.546-13.033,9.428-13.033
		c1.664,0,1.664,1.664,1.664,2.773c0,2.218-0.555,3.882-1.664,5.269C871.577,622.392,866.863,624.887,863.813,625.165
		L863.813,625.165z M862.981,627.66c6.655-1.386,12.756-4.159,14.974-6.101c1.109-1.109,2.218-3.328,2.218-5.546
		c0-4.714-2.773-6.378-5.546-6.378c-3.882,0-7.21,2.218-10.26,5.269c-4.159,4.159-8.319,13.31-8.319,20.52
		c0,3.882,1.386,9.151,7.764,9.151c7.21,0,10.815-6.655,12.478-10.26v-0.277l-1.387-0.832h-0.277
		c-1.664,3.328-4.159,7.764-8.596,7.764c-3.605,0-4.159-3.05-4.159-5.823C861.872,632.652,862.427,629.324,862.981,627.66z
		 M846.621,602.704c-0.555,2.496-1.664,6.378-2.773,9.705l-5.546,0.277l-0.277,0.277l-0.555,2.496l0.277,0.277l5.269-0.277v0.277
		c-1.386,4.159-4.159,12.478-7.21,21.906c-0.832,2.218-0.832,3.328-0.832,4.437s1.386,2.773,3.05,2.773
		c4.714,0,11.924-7.21,14.974-10.815v-0.555l-1.386-1.664h-0.277c-1.941,2.773-6.932,7.21-8.319,7.21
		c-0.555,0-1.109-0.277-1.109-1.109c0-2.218,3.05-11.646,7.21-23.293l8.042-0.277l0.277-0.277l0.832-2.496l-0.277-0.277
		l-7.764,0.555l-0.277-0.277c1.109-3.328,3.05-8.042,4.437-11.369l-0.832-0.555C852.167,600.763,849.116,601.872,846.621,602.704z
		 M833.588,620.451c1.109-0.832,2.496-4.991,2.496-7.21c0-1.664-0.277-3.605-2.218-3.605c-4.714,0-10.26,8.596-13.31,14.419
		l-0.277-0.277c1.664-4.991,3.328-10.26,3.328-11.646c0-1.664-0.832-2.496-1.941-2.496c-2.773,0-7.21,1.664-13.033,7.764v0.277
		l1.109,1.664h0.277c1.941-1.941,4.714-4.159,6.101-4.159c0.832,0,1.109,0.832,1.109,1.664c0,1.664-2.496,11.092-8.319,26.898
		l0.555,0.832l5.269-1.109l0.555-0.832c1.109-4.714,2.773-10.26,4.714-14.419c4.714-7.764,8.319-11.924,10.26-11.924
		c1.386,0,2.218,1.386,2.496,3.882L833.588,620.451L833.588,620.451L833.588,620.451z M799.203,611.854
		c-0.832-1.109-2.218-2.218-4.159-2.218c-4.437,0-10.26,4.159-15.251,11.369c-4.159,6.378-6.378,12.478-6.378,16.36
		c0,3.05,0.832,6.655,5.269,6.655c5.269,0,11.092-8.042,13.587-12.201l0.277,0.277c-1.941,4.991-2.496,8.596-2.496,9.428
		c0,1.664,1.109,2.496,2.773,2.496c2.773,0,9.151-4.991,12.756-11.646v-0.277l-1.386-1.387h-0.277
		c-1.941,3.328-6.101,7.764-7.21,7.764c-0.555,0-0.555-0.277-0.555-0.832c0-2.218,3.328-12.478,8.596-26.066
		c-0.277-0.832-2.218-1.664-3.328-1.664l-1.664,1.664h-0.555V611.854z M780.07,635.702c0-2.773,1.664-9.705,5.269-15.251
		c3.328-5.269,7.21-8.319,9.151-8.319c1.664,0,2.773,1.109,2.773,3.05c0,6.378-11.092,24.402-15.251,24.402
		C780.347,639.584,780.07,637.643,780.07,635.702z M761.768,637.92c0-1.941,3.05-11.646,9.428-27.73l-0.555-0.555l-5.269,1.109
		l-0.832,0.832c-4.991,18.302-15.251,27.175-18.024,27.175c-0.555,0-0.832-0.277-0.832-1.109c0-2.496,5.823-16.36,8.319-22.184
		c0.277-0.832,0.832-2.773,0.832-3.328c0-1.664-0.832-2.496-1.941-2.496c-4.714,0-9.983,3.882-13.31,7.764v0.277l0.832,1.386h0.277
		c1.664-2.218,4.437-4.159,5.823-4.159c0.555,0,0.832,0.277,0.832,1.386c0,1.386-4.714,12.756-6.378,17.47
		c-1.386,3.605-1.941,5.823-1.941,7.21c0,1.387,0.832,3.05,2.773,3.05c6.101,0,13.033-8.319,16.083-13.31l0.277,0.277
		c-1.941,4.714-3.328,9.428-3.328,10.815c0,1.664,1.386,2.218,2.773,2.218c4.714,0,11.369-6.378,13.865-9.705v-0.832l-1.109-1.386
		h-0.277c-1.386,2.218-6.378,6.655-8.042,6.655C761.768,638.752,761.491,638.475,761.768,637.92z M722.392,637.643
		c-2.496,7.21-6.101,21.075-8.042,23.016c-1.109,1.109-3.882,1.664-5.546,1.664l-0.277,0.277l0.277,1.664l0.277,0.277
		c4.159-0.555,8.874-0.832,12.201-0.832c1.664,0,5.823,0.277,7.764,0.277l0.277-0.277l0.277-1.664l-0.277-0.277
		c-4.991,0-6.655-0.555-6.655-2.496c0-1.109,0.277-3.328,3.605-15.251c2.773-9.705,7.764-25.789,11.092-33.276l-1.386-1.109
		c-1.941,0.832-4.159,2.496-4.437,2.773c-0.277-1.386-2.496-2.773-5.269-2.773c-9.428,0-19.688,14.142-19.688,26.343
		c0,5.269,3.05,8.042,6.101,8.042c3.328,0,7.21-3.05,9.705-6.655V637.643z M712.409,635.702c0-9.151,8.042-23.57,13.31-23.57
		c2.218,0,2.773,2.496,2.773,5.823c0,5.546-8.042,22.184-13.31,22.184C712.964,640.139,712.409,638.752,712.409,635.702z"/>
</g>
</svg>
