<?xml version="1.0" encoding="utf-8"?>
<!-- Generator: Adobe Illustrator 19.2.0, SVG Export Plug-In . SVG Version: 6.00 Build 0)  -->
<!DOCTYPE svg PUBLIC "-//W3C//DTD SVG 1.1//EN" "http://www.w3.org/Graphics/SVG/1.1/DTD/svg11.dtd">
<svg version="1.1" id="Layer_1" xmlns="http://www.w3.org/2000/svg" xmlns:xlink="http://www.w3.org/1999/xlink" x="0px" y="0px"
	 width="1000px" height="1000px" viewBox="0 0 1000 1000" style="enable-background:new 0 0 1000 1000;" xml:space="preserve">
<style type="text/css">
	.st0{fill:#FFFFFF;}
</style>
<path class="st0" d="M844.114,906.412c0,0.491-4.415,6.377-4.905,6.377h-12.263c-0.491,0-4.905-5.886-4.905-6.377v-30.904
	c0-0.491,4.415-6.377,4.905-6.377h12.263c0.491,0,4.905,5.886,4.905,6.377V906.412z M841.17,863.245h-16.188
	c-0.981,0-1.472,0.491-1.962,0.981c-2.453,2.943-7.849,9.32-7.849,9.811v34.338c0,0.491,4.905,6.868,7.849,9.811
	c0.491,0.491,1.472,0.981,1.962,0.981h15.207c0.981,0,1.472-0.491,1.962-0.981c2.453-2.943,7.849-9.32,7.849-9.811v-34.338
	C850,873.546,843.623,865.207,841.17,863.245 M784.758,919.166L784.758,919.166c1.962,0,2.943-1.472,2.943-2.943v-50.035
	c0-1.472-1.472-2.943-2.943-2.943l0,0c-1.472,0-2.943,1.472-2.943,2.943v50.035C781.815,917.694,783.287,919.166,784.758,919.166z
	 M722.95,919.166h21.584c0.981,0,1.472-0.491,1.962-0.981c2.453-2.943,7.849-9.32,7.849-9.811v-34.338
	c0-0.491-4.905-6.867-7.849-9.811c-0.491-0.491-1.472-0.981-1.962-0.981H722.95c-1.472,0-2.943,1.472-2.943,2.943v50.035
	C720.007,917.694,721.479,919.166,722.95,919.166z M726.384,910.336v-38.262c0-1.472,1.472-2.943,2.943-2.943h14.226
	c0.491,0,4.905,5.886,4.905,6.377v30.904c0,0.491-4.415,6.377-4.905,6.377h-14.226C727.365,913.28,726.384,911.808,726.384,910.336z
	 M689.594,863.245L689.594,863.245c-1.962,0-2.943,1.472-2.943,2.943v40.224c0,0.491-5.396,6.377-5.886,6.377h-11.773
	c-0.491,0-5.886-5.886-5.886-6.377v-40.224c0-1.472-1.472-2.943-2.943-2.943l0,0c-1.472,0-2.943,1.472-2.943,2.943v42.186
	c0,0.491,5.886,7.358,8.83,9.811c0.491,0.491,1.472,0.981,1.962,0.981h14.226c0.981,0,1.472-0.491,1.962-0.981
	c2.943-2.943,8.83-9.811,8.83-9.811v-42.186C692.537,864.716,691.065,863.245,689.594,863.245z M615.522,872.074v44.149
	c0,1.472,1.472,2.943,2.943,2.943l0,0c1.472,0,2.943-1.472,2.943-2.943v-44.149c0-1.472,1.472-2.943,2.943-2.943h8.83
	c1.472,0,2.943-1.472,2.943-2.943l0,0c0-1.472-1.472-2.943-2.943-2.943h-29.432c-1.472,0-2.943,1.472-2.943,2.943l0,0
	c0,1.472,1.472,2.943,2.943,2.943h8.83C614.05,869.131,615.522,870.112,615.522,872.074z M577.751,901.507v4.905
	c0,0.491-4.415,6.867-4.905,6.867h-12.263c-0.491,0-6.377-5.886-6.377-6.867v-3.924c0-1.472-1.472-2.943-2.943-2.943l0,0
	c-1.472,0-2.943,1.472-2.943,2.943v5.886c0,0.491,6.377,6.868,9.811,9.811c0.491,0.491,0.981,0.491,1.962,0.491h14.226
	c0.981,0,1.472-0.491,1.962-0.981c2.453-2.943,7.849-9.32,7.849-9.811v-11.282c0-0.981-0.491-1.472-8.339-5.396l-13.735-6.867
	c-6.377-3.434-6.868-3.434-6.868-4.415v-4.415c0-0.491,4.415-6.868,4.905-6.868h11.282c0.491,0,6.868,5.886,6.868,6.868v5.396h2.943
	c1.472,0,2.943-1.472,2.943-2.943v-3.924c0-0.491-6.868-7.358-9.811-9.811c-0.491-0.491-0.981-0.491-1.962-0.491H559.11
	c-0.981,0-1.472,0.491-1.962,0.981c-2.453,2.943-7.849,9.32-7.849,9.811v10.301c0,0.981,0.491,1.472,8.83,5.396l14.226,6.867
	C577.26,899.544,577.751,899.544,577.751,901.507 M478.171,919.166h6.868v-55.922h-5.886v45.13l-22.074-45.13h-8.339v55.922h5.886
	v-48.073L478.171,919.166z M398.213,889.734h11.282v-5.886h-11.282V868.64h23.055v-5.396h-28.942v55.922h32.376v-5.886h-25.999
	v-23.546H398.213z M330.028,919.166h25.508c1.962-1.962,8.83-10.301,8.83-10.792v-34.338c0-0.491-6.377-8.83-8.83-10.792h-25.508
	V919.166z M335.915,913.28v-44.149h17.169c0.491,0,4.905,5.886,4.905,6.377v30.904c0,0.491-4.415,6.377-4.905,6.377h-17.169V913.28z
	 M275.578,869.131h14.226c0.981,0,3.924,3.924,3.924,4.415v6.867c0,0.491-4.415,6.377-4.905,6.377h-13.735v-17.659H275.578z
	 M300.105,882.376v-10.792c0-0.491-4.905-6.867-7.849-8.83h-23.055v55.922h5.886v-26.98h12.754c0.491,0,10.301,15.697,10.301,16.678
	l0.491,10.301h6.377l-0.981-12.263c0-0.491-8.339-12.754-10.792-16.678C296.671,886.79,300.105,882.866,300.105,882.376
	 M225.543,872.565l8.339,24.527h-16.188L225.543,872.565z M203.959,919.166h5.886l5.396-16.678h20.112l5.396,16.678h5.886
	l-18.641-55.922h-4.905L203.959,919.166z M150,919.166h25.508c1.962-1.962,8.83-10.301,8.83-10.792v-34.338
	c0-0.491-6.377-8.83-8.83-10.792H150C150,863.245,150,919.166,150,919.166z M155.886,913.28v-44.149h17.169
	c0.491,0,4.905,5.886,4.905,6.377v30.904c0,0.491-4.415,6.377-4.905,6.377h-17.169V913.28z"/>
<g>
	<path class="st0" d="M760.477,195.13L507.849,82.305c-4.415-1.962-11.282-1.962-15.697,0L239.523,195.13
		c-4.415,1.962-7.849,7.358-7.849,12.263v482.2c0,4.905,3.434,10.301,7.849,12.264l252.628,112.824
		c4.415,1.962,11.282,1.962,15.697,0l252.628-112.824c4.415-1.962,7.849-7.358,7.849-12.264v-482.2
		C768.325,202.488,764.891,197.092,760.477,195.13z M746.503,679.538c0,2.538-1.639,4.871-4.004,5.722L503.211,792.154
		c-0.836,0.42-1.896,0.591-2.965,0.591c-1.158,0-2.327-0.201-3.232-0.504l-0.226-0.088L257.501,685.26
		c-2.364-0.851-4.004-3.183-4.004-5.722V216.959c0-2.54,1.641-4.873,4.006-5.724l239.29-106.405c1.74-0.873,4.451-0.669,6.193-0.085
		l0.22,0.085l239.291,106.405c2.365,0.851,4.006,3.184,4.006,5.724V679.538z"/>
	<path class="st0" d="M740.814,215.86l-0.222-0.087L501.33,109.381c-0.972-0.295-2.125-0.235-2.45-0.097L259.3,215.822l-0.114,0.038
		c-0.424,0.141-0.769,0.635-0.769,1.099v462.579c0,0.407,0.309,0.946,0.769,1.098l0.227,0.089L498.67,787.607
		c0.971,0.293,2.124,0.235,2.447,0.096l239.581-107.028l0.115-0.039c0.46-0.153,0.769-0.692,0.769-1.098V216.959
		C741.583,216.494,741.238,216.001,740.814,215.86z M695.48,465.417c-21.584,86.335-102.032,116.748-150.105,116.748
		c-41.157,0-73.031-15.117-99.813-31.412c-22.738,20.876-49.332,28.959-77.763,28.959c-47.582,0-69.657-17.659-69.657-42.186
		c0-26.98,25.508-35.809,52.488-35.809c27.386,0,52.205,14.999,77.981,31.268c13.31-25.89,22.642-59.524,30.428-88.661
		c20.603-76.034,42.677-120.673,113.315-138.332l1.962,3.434c-46.601,10.301-55.431,60.336-74.071,135.389
		c-12.135,47.853-29.401,80.42-50.15,101.549c24.205,14.519,50.006,26.972,80.073,26.972c51.507,0,101.542-29.432,123.616-129.502
		c21.584-95.655-30.904-169.236-140.785-169.236c-33.847,0-132.936,10.301-132.936,71.128c0,20.112,12.264,37.281,35.809,37.281
		c16.188,0,33.847-17.659,18.641-37.281l1.962-1.472c22.565,18.64,1.472,68.185-42.677,68.185
		c-30.413,0-50.035-21.584-50.035-48.073c0-66.223,93.203-95.655,172.179-95.655C632.2,268.711,724.912,348.669,695.48,465.417z"/>
	<path class="st0" d="M333.462,539.979c0,17.659,12.754,35.319,44.149,35.319c20.443,0,35.953-15.199,48.219-37.116
		c-22.284-14.573-41.226-27.145-59.992-27.145C346.216,511.037,333.462,524.772,333.462,539.979z"/>
</g>
</svg>
