<?xml version="1.0" encoding="utf-8"?>
<!-- Generator: Adobe Illustrator 21.0.0, SVG Export Plug-In . SVG Version: 6.00 Build 0)  -->
<svg version="1.1" id="Layer_1" xmlns="http://www.w3.org/2000/svg" xmlns:xlink="http://www.w3.org/1999/xlink" x="0px" y="0px"
	 width="1000px" height="1000px" viewBox="0 0 1000 1000" style="enable-background:new 0 0 1000 1000;" xml:space="preserve">
<style type="text/css">
	.st0{fill:#FFFFFF;}
</style>
<path class="st0" d="M84.479,411.881l-0.181-20.173c-0.179-12.066-2.521-16.931-17.83-13.328l-0.36-1.261l51.512-13.869v119.415
	c0,12.066,1.08,18.91,15.669,16.029l0.179,1.261c-14.768,4.502-25.215,6.844-32.6,6.844c-13.328,0-16.57-7.025-16.029-19.632
	C76.553,499.956,67.549,506.8,55.662,506.8C36.57,506.8,20,489.509,20,463.932c0-28.637,20.532-54.214,51.872-54.214
	C76.374,409.718,80.697,410.62,84.479,411.881z M84.298,431.513c0-14.589-0.72-20.353-11.167-20.353
	c-12.607,0-17.83,14.048-17.83,47.368c0,8.825,0,39.265,14.408,39.265c6.124,0,10.087-5.583,14.589-12.428V431.513z
	 M134.193,505.538v-1.261c14.048,0,15.669-3.601,15.669-22.873v-43.228c0-12.066-2.521-16.931-17.832-13.328l-0.36-1.261
	l51.512-13.869v71.685c0,19.272,1.621,22.873,15.669,22.873v1.261H134.193z M185.884,382.522c0,10.807-8.644,19.632-19.451,19.632
	c-10.626,0-19.451-8.825-19.451-19.632c0-10.626,8.825-19.272,19.451-19.272C177.24,363.25,185.884,371.715,185.884,382.522z
	 M206.057,468.076h1.259c4.144,30.437,30.439,37.281,43.047,37.281c11.527,0,19.813-5.583,19.813-12.607
	c0-19.632-64.119-17.47-64.119-52.952c0-22.153,25.215-30.079,43.946-30.079c7.926,0,15.85,1.442,22.155,3.422l11.887-3.241
	l1.801,31.699h-1.261c-2.161-21.793-22.153-30.437-35.302-30.437c-10.447,0-17.47,5.583-17.47,12.426
	c0,20.534,62.858,15.13,62.858,50.613c0,19.451-19.091,32.6-44.308,32.6c-8.465,0-19.091-1.442-28.997-3.782l-13.33,3.422
	L206.057,468.076z M305.478,468.076h1.259c4.144,30.437,30.439,37.281,43.047,37.281c11.527,0,19.813-5.583,19.813-12.607
	c0-19.632-64.119-17.47-64.119-52.952c0-22.153,25.215-30.079,43.946-30.079c7.926,0,15.85,1.442,22.155,3.422l11.887-3.241
	l1.8,31.699h-1.261c-2.161-21.793-22.153-30.437-35.302-30.437c-10.447,0-17.47,5.583-17.47,12.426
	c0,20.534,62.858,15.13,62.858,50.613c0,19.451-19.091,32.6-44.308,32.6c-8.465,0-19.091-1.442-28.997-3.782l-13.33,3.422
	L305.478,468.076z M436.96,447.903c0,18.912,9.906,37.462,33.32,37.462c14.229,0,23.955-6.844,30.26-17.289l1.08,0.539
	c-8.465,21.433-24.676,38.184-50.432,38.184c-29.357,0-48.09-20.173-48.09-48.991s24.857-48.09,54.214-48.09
	c29.719,0,46.109,15.311,40.345,38.184H436.96z M436.96,446.102h28.818c2.883-11.167,3.062-34.941-11.346-34.941
	C441.643,411.161,437.141,433.495,436.96,446.102z M561.958,409.718c16.029,0,39.804,5.403,39.804,25.036
	c0,11.527-8.284,16.752-16.931,16.752c-8.103,0-15.488-4.864-16.029-15.13c3.963-1.8,6.305-6.124,6.305-10.986
	c0-7.566-5.764-14.229-14.05-14.229c-15.128,0-19.451,21.433-19.451,34.4c0,25.396,16.57,39.084,34.4,39.084
	c9.006,0,20.534-3.422,27.017-13.328l1.08,0.541c-8.825,19.272-24.314,34.941-48.989,34.941c-25.756,0-46.29-18.371-46.29-47.01
	C508.824,430.252,530.798,409.718,561.958,409.718z M607.708,410.98h3.782c14.768,0,25.396-3.062,32.96-9.367
	c5.403-6.844,8.465-16.029,8.465-26.655h1.801v36.022h19.813v1.801h-19.813v62.5c0,7.023,0.181,19.632,10.087,19.632
	c4.862,0,9.006-2.523,13.149-5.585l0.72,0.901c-9.906,8.465-22.334,16.57-37.824,16.57c-12.426,0-19.451-11.348-19.451-25.396
	V412.78h-13.688V410.98z M677.591,505.538v-1.261c14.048,0,15.669-3.601,15.669-22.873v-43.228c0-12.066-2.521-16.931-17.832-13.328
	l-0.36-1.261l51.512-13.869v71.685c0,19.272,1.621,22.873,15.671,22.873v1.261H677.591z M729.282,382.522
	c0,10.807-8.644,19.632-19.451,19.632c-10.626,0-19.453-8.825-19.453-19.632c0-10.626,8.827-19.272,19.453-19.272
	C720.638,363.25,729.282,371.715,729.282,382.522z M848.695,458.349c0,27.917-22.875,48.45-52.413,48.45
	c-29.357,0-52.232-20.534-52.232-48.45c0-28.098,22.875-48.631,52.232-48.631C825.82,409.718,848.695,430.252,848.695,458.349z
	 M812.133,458.349c0-20.534,0-47.189-15.85-47.189c-15.669,0-15.669,26.655-15.669,47.189c0,21.073,0,47.008,15.669,47.008
	C812.133,505.357,812.133,479.422,812.133,458.349z M921.284,505.538v-1.261c9.546,0,9.727-4.862,9.727-19.272v-44.127
	c0-7.383-0.901-17.11-11.348-17.11c-4.323,0-10.447,2.342-15.85,7.025v54.212c0,11.348,0.181,19.272,9.906,19.272v1.261h-58.895
	v-1.261c14.048,0,15.669-3.601,15.669-22.873v-43.228c0-12.066-2.521-16.931-17.832-13.328l-0.36-1.261l51.872-13.869l-0.539,19.453
	c17.83-14.589,28.818-19.453,39.804-19.453c14.589,0,20.894,8.105,20.894,26.476v45.209c0,19.272,1.621,22.873,15.669,22.873v1.261
	H921.284z M210.291,564.267c4.233,0,7.507,1.076,9.826,3.23c2.319,2.152,3.48,5.003,3.48,8.552c0,3.587-1.161,6.451-3.48,8.595
	c-2.319,2.144-5.594,3.215-9.826,3.215h-9.205v13.974l4.517,0.36v2.44h-12.335v-2.44l4.517-0.36v-34.739l-4.517-0.36v-2.468h4.517
	H210.291z M201.087,585.032h9.205c3.327,0,5.826-0.846,7.497-2.537c1.675-1.691,2.512-3.821,2.512-6.39
	c0-2.587-0.834-4.737-2.496-6.446c-1.665-1.709-4.171-2.565-7.514-2.565h-9.205V585.032z M236.545,574.637l0.415,4.99v0.36
	c0.85-1.848,2.012-3.294,3.48-4.339c1.469-1.043,3.212-1.565,5.227-1.565c0.425,0,0.834,0.033,1.233,0.096
	c0.396,0.065,0.726,0.134,0.985,0.208l-0.445,3.106l-2.466-0.167c-2.09,0-3.804,0.587-5.142,1.76
	c-1.341,1.174-2.296,2.787-2.872,4.838v17.911l4.521,0.36v2.44h-12.339v-2.44l4.521-0.36v-24.37l-4.521-0.361v-2.466h4.521H236.545z
	 M251.628,589.191c0-4.418,1.21-8.04,3.631-10.868c2.424-2.828,5.63-4.241,9.62-4.241c4.014,0,7.229,1.413,9.65,4.241
	c2.421,2.828,3.631,6.451,3.631,10.868v0.916c0,4.436-1.204,8.063-3.618,10.881c-2.411,2.818-5.613,4.228-9.607,4.228
	c-4.027,0-7.252-1.41-9.676-4.228c-2.421-2.818-3.631-6.446-3.631-10.881V589.191z M254.955,590.107c0,3.474,0.88,6.395,2.633,8.76
	c1.757,2.367,4.207,3.549,7.347,3.549c3.088,0,5.509-1.183,7.265-3.549c1.757-2.365,2.633-5.286,2.633-8.76v-0.916
	c0-3.418-0.883-6.321-2.646-8.706c-1.766-2.383-4.2-3.575-7.308-3.575c-3.104,0-5.535,1.192-7.291,3.575
	c-1.753,2.385-2.633,5.288-2.633,8.706V590.107z M304.417,600.31c-0.998,1.57-2.283,2.782-3.853,3.631
	c-1.573,0.851-3.422,1.276-5.545,1.276c-3.588,0-6.392-1.34-8.417-4.02c-2.025-2.679-3.036-6.256-3.036-10.729v-0.582
	c0-4.787,1.011-8.618,3.036-11.491c2.025-2.875,4.848-4.311,8.472-4.311c2.087,0,3.899,0.438,5.433,1.317s2.81,2.129,3.824,3.757
	v-14.944l-4.517-0.36v-2.468h4.517h3.327v40.451l4.521,0.36v2.44h-7.484L304.417,600.31z M286.924,590.467
	c0,3.623,0.723,6.506,2.175,8.65c1.452,2.144,3.637,3.216,6.559,3.216c2.123,0,3.902-0.481,5.335-1.441
	c1.433-0.962,2.545-2.283,3.34-3.965v-14.197c-0.739-1.699-1.806-3.086-3.202-4.158c-1.393-1.071-3.199-1.608-5.42-1.608
	c-2.918,0-5.113,1.196-6.581,3.59c-1.472,2.393-2.205,5.504-2.205,9.329V590.467z M339.32,599.7
	c-0.942,1.755-2.231,3.114-3.866,4.076c-1.636,0.96-3.562,1.441-5.78,1.441c-3.16,0-5.633-1.071-7.416-3.216
	c-1.786-2.144-2.676-5.471-2.676-9.982v-14.555l-3.716-0.361v-2.466h3.716h3.297v17.438c0,3.66,0.625,6.284,1.871,7.874
	c1.25,1.59,3.019,2.385,5.309,2.385c2.515,0,4.514-0.554,6.002-1.663c1.488-1.109,2.538-2.643,3.147-4.602v-18.603l-4.269-0.361
	v-2.466h4.269h3.327v27.198l4.02,0.36v2.44h-6.928L339.32,599.7z M364.246,602.416c2.198,0,4.141-0.628,5.823-1.886
	c1.681-1.256,2.522-3.003,2.522-5.24h2.937l0.056,0.167c0.095,2.772-1.011,5.093-3.31,6.959c-2.303,1.866-4.979,2.8-8.027,2.8
	c-4.066,0-7.219-1.4-9.453-4.2c-2.237-2.8-3.356-6.4-3.356-10.799v-1.165c0-4.362,1.119-7.947,3.356-10.757
	c2.234-2.808,5.378-4.213,9.424-4.213c2.313,0,4.429,0.433,6.349,1.302c1.923,0.87,3.484,2.053,4.688,3.549l0.137,6.544h-2.826
	l-0.527-5.324c-0.89-0.998-1.992-1.788-3.314-2.37c-1.322-0.582-2.823-0.873-4.508-0.873c-3.215,0-5.594,1.15-7.138,3.451
	c-1.544,2.301-2.316,5.199-2.316,8.691v1.165c0,3.549,0.769,6.47,2.303,8.762C358.6,601.27,360.991,602.416,364.246,602.416z
	 M394.994,605.216c-3.772,0-6.895-1.382-9.372-4.144c-2.476-2.764-3.713-6.281-3.713-10.549v-1.526c0-4.287,1.233-7.846,3.7-10.674
	c2.466-2.828,5.446-4.241,8.94-4.241c3.68,0,6.572,1.165,8.678,3.494c2.107,2.327,3.163,5.433,3.163,9.314v2.828h-21.184v0.805
	c0,3.364,0.903,6.187,2.702,8.469c1.802,2.283,4.164,3.425,7.085,3.425c2.051,0,3.808-0.286,5.266-0.86
	c1.462-0.572,2.708-1.395,3.745-2.466l1.413,2.273c-1.129,1.183-2.551,2.121-4.269,2.813
	C399.43,604.87,397.379,605.216,394.994,605.216z M394.549,576.91c-2.437,0-4.495,0.937-6.166,2.813
	c-1.675,1.876-2.65,4.228-2.928,7.056l0.056,0.139h17.579v-0.831c0-2.607-0.769-4.787-2.303-6.544
	C399.253,577.788,397.176,576.91,394.549,576.91z M433.171,600.31c-0.998,1.57-2.283,2.782-3.853,3.631
	c-1.573,0.851-3.422,1.276-5.545,1.276c-3.588,0-6.392-1.34-8.417-4.02c-2.025-2.679-3.036-6.256-3.036-10.729v-0.582
	c0-4.787,1.011-8.618,3.036-11.491c2.025-2.875,4.848-4.311,8.472-4.311c2.087,0,3.899,0.438,5.433,1.317s2.81,2.129,3.824,3.757
	v-14.944l-4.517-0.36v-2.468h4.517h3.327v40.451l4.521,0.36v2.44h-7.484L433.171,600.31z M415.677,590.467
	c0,3.623,0.723,6.506,2.175,8.65c1.452,2.144,3.637,3.216,6.559,3.216c2.123,0,3.902-0.481,5.335-1.441
	c1.433-0.962,2.545-2.283,3.34-3.965v-14.197c-0.739-1.699-1.806-3.086-3.202-4.158c-1.393-1.071-3.199-1.608-5.42-1.608
	c-2.918,0-5.113,1.196-6.581,3.59c-1.472,2.393-2.205,5.504-2.205,9.329V590.467z M475.421,564.267c4.197,0,7.465,0.883,9.803,2.648
	c2.336,1.765,3.507,4.423,3.507,7.97c0,2.071-0.589,3.873-1.76,5.407c-1.174,1.534-2.771,2.597-4.782,3.188
	c2.457,0.443,4.452,1.6,5.986,3.466c1.534,1.868,2.303,4.02,2.303,6.46c0,3.603-1.171,6.377-3.507,8.317
	c-2.339,1.941-5.469,2.911-9.385,2.911h-18.465v-2.44l4.517-0.36v-34.739l-4.517-0.36v-2.468h4.517H475.421z M466.939,582.371h9.287
	c2.921,0,5.181-0.641,6.781-1.927c1.596-1.284,2.398-3.175,2.398-5.67c0-2.55-0.85-4.467-2.551-5.752
	c-1.701-1.284-4.177-1.927-7.432-1.927h-8.482V582.371z M466.939,585.171v16.663h10.647c2.973,0,5.312-0.734,7.013-2.205
	c1.701-1.469,2.551-3.525,2.551-6.168c0-2.422-0.772-4.409-2.316-5.962c-1.544-1.552-3.785-2.329-6.722-2.329H466.939z
	 M525.273,577.103l-3.049,0.25l-12.116,32.078c-0.779,2.033-1.786,3.76-3.022,5.183c-1.24,1.425-3.049,2.136-5.433,2.136
	c-0.389,0-0.86-0.042-1.416-0.126c-0.553-0.082-0.962-0.17-1.22-0.263l0.389-2.772c0.222,0.038,0.579,0.078,1.066,0.126
	c0.491,0.046,0.837,0.069,1.04,0.069c1.462,0,2.617-0.509,3.467-1.524c0.85-1.017,1.596-2.339,2.244-3.965l1.554-4.02
	l-10.647-26.921l-3.049-0.25v-2.466h10.314v2.466l-3.579,0.278l7.321,19.129l1.053,3.605h0.167l8.207-22.734l-3.66-0.278v-2.466
	h10.369V577.103z M570.103,564.267v2.468l-4.521,0.36v26.089c0,3.678-1.096,6.603-3.284,8.775c-2.192,2.172-5.024,3.258-8.498,3.258
	c-3.788,0-6.784-0.98-8.982-2.939c-2.201-1.959-3.255-4.823-3.16-8.595l0.056-0.165h3.104c0,2.919,0.775,5.132,2.329,6.639
	c1.55,1.508,3.772,2.26,6.653,2.26c2.457,0,4.481-0.836,6.071-2.509c1.59-1.673,2.385-3.914,2.385-6.724v-26.089l-4.517-0.36v-2.468
	h7.844H570.103z M574.234,602.194l4.517-0.36v-34.739l-4.517-0.36v-2.468h12.335v2.468l-4.517,0.36v15.747h5.518l13.585-15.886
	l-3.883-0.221v-2.468h11.285v2.468l-3.549,0.332l-14.445,17.051l15.58,17.744l3.634,0.332v2.44h-11.508v-2.44l3.827-0.221
	l-14.501-16.331h-5.544v16.192l4.517,0.36v2.44h-12.335V602.194z M643.572,564.267c4.936,0,9.012,1.645,12.227,4.935
	c3.216,3.291,4.825,7.514,4.825,12.671v5.185c0,5.175-1.609,9.398-4.825,12.671c-3.215,3.271-7.291,4.907-12.227,4.907h-16.244
	v-2.44l4.517-0.36v-34.739l-4.517-0.36v-2.468h4.517H643.572z M635.146,567.095v34.739h8.426c3.994,0,7.278-1.395,9.859-4.187
	c2.578-2.79,3.866-6.321,3.866-10.59v-5.268c0-4.213-1.295-7.716-3.883-10.507c-2.587-2.792-5.868-4.187-9.843-4.187H635.146z
	 M680.114,605.216c-3.772,0-6.896-1.382-9.372-4.144c-2.476-2.764-3.713-6.281-3.713-10.549v-1.526c0-4.287,1.233-7.846,3.7-10.674
	s5.446-4.241,8.94-4.241c3.68,0,6.572,1.165,8.678,3.494c2.107,2.327,3.163,5.433,3.163,9.314v2.828h-21.184v0.805
	c0,3.364,0.903,6.187,2.702,8.469c1.802,2.283,4.164,3.425,7.085,3.425c2.051,0,3.808-0.286,5.266-0.86
	c1.462-0.572,2.708-1.395,3.745-2.466l1.413,2.273c-1.129,1.183-2.551,2.121-4.269,2.813
	C684.549,604.87,682.498,605.216,680.114,605.216z M679.669,576.91c-2.437,0-4.495,0.937-6.166,2.813
	c-1.675,1.876-2.65,4.228-2.928,7.056l0.056,0.139h17.579v-0.831c0-2.607-0.769-4.787-2.303-6.544
	C684.372,577.788,682.295,576.91,679.669,576.91z M719.206,583.895h-2.718l-0.389-4.241c-0.831-0.868-1.881-1.544-3.147-2.025
	c-1.266-0.479-2.722-0.72-4.367-0.72c-2.421,0-4.236,0.522-5.446,1.565c-1.21,1.045-1.815,2.27-1.815,3.675
	c0,1.385,0.52,2.532,1.567,3.436c1.043,0.906,3.127,1.701,6.251,2.385c3.566,0.795,6.238,1.881,8.011,3.258
	c1.776,1.377,2.663,3.248,2.663,5.615c0,2.494-1.011,4.514-3.036,6.058c-2.025,1.542-4.701,2.314-8.027,2.314
	c-2.218,0-4.236-0.309-6.058-0.929c-1.819-0.618-3.395-1.492-4.727-2.62v-6.043h2.689l0.471,4.269
	c0.89,0.888,2.012,1.531,3.369,1.927c1.357,0.399,2.777,0.597,4.256,0.597c2.404,0,4.298-0.527,5.685-1.58
	c1.384-1.053,2.077-2.329,2.077-3.827c0-1.403-0.576-2.633-1.73-3.687c-1.158-1.053-3.242-1.914-6.254-2.579
	c-3.566-0.775-6.215-1.806-7.942-3.091c-1.727-1.284-2.591-3.081-2.591-5.392c0-2.291,0.968-4.228,2.911-5.808
	c1.94-1.58,4.498-2.37,7.677-2.37c2.201,0,4.21,0.337,6.032,1.011c1.819,0.675,3.304,1.586,4.449,2.731L719.206,583.895z
	 M725.637,602.194l4.521-0.36v-24.37l-4.521-0.361v-2.466h7.818v27.198l4.521,0.36v2.44h-12.339V602.194z M733.455,566.042h-3.297
	v-4.658h3.297V566.042z M743.687,589.885c0-4.787,1.021-8.618,3.062-11.491c2.041-2.875,4.874-4.311,8.498-4.311
	c2.126,0,3.968,0.466,5.531,1.4c1.56,0.932,2.849,2.25,3.866,3.95l0.389-4.795h2.8v29.61c0,3.862-1.043,6.912-3.134,9.149
	c-2.09,2.236-4.998,3.354-8.734,3.354c-1.443,0-2.98-0.177-4.615-0.527c-1.636-0.352-3.065-0.833-4.282-1.443l0.886-2.8
	c1.201,0.572,2.463,1.016,3.785,1.331c1.322,0.314,2.712,0.471,4.171,0.471c2.846,0,4.992-0.841,6.434-2.524
	c1.439-1.681,2.162-4.02,2.162-7.013v-3.799c-1.017,1.536-2.303,2.713-3.853,3.536c-1.554,0.821-3.376,1.233-5.463,1.233
	c-3.605,0-6.424-1.34-8.456-4.02c-2.035-2.679-3.049-6.256-3.049-10.729V589.885z M747.014,590.467c0,3.605,0.733,6.483,2.201,8.636
	c1.472,2.154,3.667,3.23,6.585,3.23c2.162,0,3.961-0.489,5.394-1.469c1.433-0.98,2.535-2.329,3.314-4.048v-13.919
	c-0.739-1.755-1.802-3.183-3.189-4.284c-1.387-1.099-3.206-1.649-5.463-1.649c-2.921,0-5.123,1.201-6.611,3.603
	c-1.488,2.403-2.231,5.509-2.231,9.316V590.467z M774.766,602.194l4.517-0.36v-24.37l-4.517-0.361v-2.466h7.458l0.304,5.239
	c0.962-1.847,2.26-3.274,3.896-4.282s3.572-1.511,5.806-1.511c3.255,0,5.731,0.993,7.432,2.98c1.701,1.987,2.551,5.088,2.551,9.301
	v15.471l4.517,0.36v2.44h-12.365v-2.44l4.517-0.36v-15.443c0-3.438-0.641-5.868-1.927-7.291c-1.282-1.423-3.108-2.134-5.476-2.134
	c-2.326,0-4.226,0.613-5.695,1.843c-1.469,1.23-2.529,2.861-3.176,4.894v18.132l4.521,0.36v2.44h-12.365V602.194z"/>
</svg>
