<?xml version="1.0" encoding="utf-8"?>
<!-- Generator: Adobe Illustrator 21.0.0, SVG Export Plug-In . SVG Version: 6.00 Build 0)  -->
<svg version="1.1" id="Layer_1" xmlns="http://www.w3.org/2000/svg" xmlns:xlink="http://www.w3.org/1999/xlink" x="0px" y="0px"
	 width="1000px" height="1000px" viewBox="0 0 1000 1000" style="enable-background:new 0 0 1000 1000;" xml:space="preserve">
<style type="text/css">
	.st0{opacity:0.6;fill:#FFFFFF;}
	.st1{fill:#FFFFFF;}
</style>
<path class="st0" d="M200,795v-98.182l0,0h223.637l0,0V795l0,0H200L200,795z"/>
<path class="st0" d="M576.364,293.182V195l0,0H800l0,0v98.182l0,0H576.364L576.364,293.182z"/>
<path class="st0" d="M576.364,795v-98.182l0,0H800l0,0V795l0,0H576.364L576.364,795z"/>
<path class="st0" d="M200,293.182V195l0,0h98.182l0,0v98.182l0,0H200L200,293.182z"/>
<path class="st0" d="M701.818,669.545v-98.182l0,0H800l0,0v98.182l0,0H701.818L701.818,669.545L701.818,669.545z"/>
<path class="st1" d="M200,669.545V320.455l0,0h98.182l0,0v349.091l0,0H200L200,669.545L200,669.545z"/>
<path class="st1" d="M325.455,669.545V195l0,0h98.182l0,0v474.545l0,0H325.455L325.455,669.545L325.455,669.545z"/>
<path class="st1" d="M450.909,795V320.455l0,0h98.182l0,0V795l0,0H450.909L450.909,795z"/>
<path class="st1" d="M450.909,293.182V195l0,0h98.182l0,0v98.182l0,0H450.909L450.909,293.182z"/>
<path class="st1" d="M576.364,669.545V320.455l0,0h98.182l0,0v349.091l0,0H576.364L576.364,669.545L576.364,669.545z"/>
<path class="st1" d="M701.818,544.091V320.455l0,0H800l0,0v223.636l0,0H701.818L701.818,544.091z"/>
</svg>
