<?xml version="1.0" encoding="utf-8"?>
<!-- Generator: Adobe Illustrator 21.0.0, SVG Export Plug-In . SVG Version: 6.00 Build 0)  -->
<svg version="1.1" id="Layer_1" xmlns="http://www.w3.org/2000/svg" xmlns:xlink="http://www.w3.org/1999/xlink" x="0px" y="0px"
	 width="1000px" height="1000px" viewBox="0 0 1000 1000" style="enable-background:new 0 0 1000 1000;" xml:space="preserve">
<style type="text/css">
	.st0{opacity:0.5;fill:#FFFFFF;}
	.st1{fill:#FFFFFF;}
</style>
<path class="st0" d="M233.28,467.334c-0.514-0.204-1.112-0.367-1.75-0.51c0.225-0.103,0.585-0.033,1.121,0.259
	c0.253,0.138,0.429,0.167,0.637,0.242C233.284,467.326,233.283,467.332,233.28,467.334z M234.537,467.334v-1.257h-0.754
	c0,0.665-0.168,1.079-0.495,1.248C233.84,467.523,234.292,467.579,234.537,467.334z M278.552,509.085
	c0.334-0.334,0.837-0.503,1.509-0.503c0.837-1.006,1.423-2.137,1.76-3.396c0.334-1.257,0.837-2.554,1.509-3.897h0.503
	c0.334-1.844,1.007-3.184,2.011-4.026v-3.52h0.252v-2.767c-0.338,0-0.503-0.082-0.503-0.251c0-0.165,0.082-0.334,0.251-0.503
	c-0.672,0-1.218-0.208-1.634-0.63c-0.421-0.416-0.88-0.711-1.383-0.88v-3.27c-0.169-0.334-0.252-0.669-0.252-1.006l-4.527,0.503
	v-0.754h-2.011v-0.756c-0.169,0-0.252-0.082-0.252-0.251c0-0.166-0.169-0.253-0.503-0.253h-2.011l-0.252-0.754l-5.28,0.252
	l-0.503,0.501h-0.252c-0.338,0-0.546-0.082-0.628-0.251c-0.087-0.165-0.295-0.251-0.629-0.251c-0.169,0-0.338,0.085-0.503,0.251
	c-0.169,0.169-0.42,0.251-0.754,0.251c-0.169,0-0.421-0.164-0.755-0.501l-0.754-0.756l-0.754-0.251v-0.756h-1.259v0.252h-2.011
	c0-0.165-0.213-0.46-0.629-0.88c-0.421-0.418-0.715-0.629-0.88-0.629h-0.253c-0.169,0-0.251,0.252-0.251,0.754h-6.287
	c-0.339,0.672-0.798,1.051-1.383,1.133c-0.59,0.087-1.219,0.211-1.887,0.377v-0.251h-9.306v-0.503h-3.019v0.251
	c0,0.169-0.169,0.253-0.503,0.253l-6.287,0.251v-0.754c-0.338,0-0.715-0.039-1.133-0.126c-0.419-0.082-0.796-0.126-1.131-0.126
	v0.252h-4.276c0,0.338-0.087,0.503-0.251,0.503c-0.169,0-0.252,0.085-0.252,0.251c-0.169,0-0.251-0.251-0.251-0.754h-1.259
	c0.334-0.669,1.172-1.006,2.516-1.006v-1.257h0.754c-0.338-0.334-0.463-0.629-0.377-0.88c0.084-0.252,0.292-0.379,0.63-0.379h1.006
	v-0.754c0.503,0.338,0.836,0.212,1.006-0.377c0.164-0.585,0.416-0.88,0.754-0.88v-1.259l-0.253-0.251
	c0.166-0.503,0.587-0.669,1.259-0.503h1.257c0-2.848,1.006-4.861,3.017-6.036c0-0.281,0.1-0.435,0.263-0.51
	c-0.405-0.09-0.813-0.179-1.267-0.245c-1.175-0.165-1.762,0-1.762,0.503c-0.501,0-0.754,0.085-0.754,0.251h-0.219
	c0.032-0.049,0.059-0.07,0.093-0.126c0.253-0.416,0.543-0.459,0.88-0.124c-0.169-1.006,0.253-1.675,1.259-2.013v-1.257
	c0.334,0.169,0.628,0.126,0.88-0.126c0.251-0.251,0.459-0.461,0.628-0.63h1.762c0-0.333,0.04-0.542,0.125-0.628
	c0.084-0.084,0.126-0.291,0.126-0.629c0.334-0.334,0.629-0.628,0.88-0.88c0.252-0.251,0.542-0.46,0.88-0.629
	c0.503,0,0.838-0.164,1.006-0.503h2.013c0-0.333,0.334-0.88,1.007-1.634c0.667-0.754,1.005-1.296,1.005-1.634
	c0-0.166-0.043-0.418-0.125-0.756c-0.087-0.334-0.295-0.503-0.63-0.503c-0.672,0-0.967,0.087-0.88,0.252
	c0.082,0.169-0.043,0.251-0.377,0.251l-0.755-0.754l0.503-2.012c0.334-0.335,0.46-0.712,0.377-1.131
	c-0.085-0.418,0.041-0.711,0.379-0.88c0.334,0.169,0.793,0.085,1.383-0.252c0.585-0.334,1.046-0.669,1.383-1.007
	c0-0.334,0.124-0.711,0.377-1.131c0.251-0.418,0.377-0.795,0.377-1.133c0.334-0.165,0.668-0.416,1.006-0.754
	c0.669-0.669,1.006-1.088,1.006-1.257c-0.338-0.166-0.59-0.418-0.756-0.756c-0.338-0.334-0.503-0.669-0.503-1.006
	c-0.169,1.344-0.377,2.139-0.627,2.39c-0.253,0.252-0.546,0.798-0.88,1.635c-0.338,0.338-0.59,0.628-0.756,0.88
	c-0.169,0.251-0.42,0.377-0.754,0.377c-0.503-0.503-1.093-0.754-1.76-0.754v-2.767c0.334-0.334,0.585-0.838,0.754-1.509
	c0.166-0.669,0.585-0.837,1.257-0.503c0.334-0.669,0.542-1.172,0.629-1.51c0.082-0.334,0.461-0.416,1.133-0.251
	c1.005-1.007,1.926-1.675,2.767-2.013c0.333-0.334,0.585-0.793,0.754-1.383c0.165-0.585,0.669-0.88,1.509-0.88v-1.76h0.754
	c0.334,0,0.503,0.085,0.503,0.251c0,0.169,0.165,0.252,0.503,0.252c0-0.669,0.039-0.964,0.126-0.88
	c0.082,0.085,0.125-0.041,0.125-0.379c0-0.164-0.042-0.377-0.125-0.628c-0.087-0.253-0.126-0.542-0.126-0.88
	c0-0.334,0.126-0.629,0.377-0.88c0.252-0.252,0.377-0.461,0.377-0.629h1.259c0-0.503,0.164-0.92,0.501-1.257
	c0.334-0.334,0.503-0.587,0.503-0.756c0-0.334-0.043-0.585-0.125-0.754c-0.087-0.166-0.126-0.334-0.126-0.503
	c0-0.669,0.543-1.133,1.634-1.383c1.09-0.252,1.718-0.377,1.886-0.377c0.334-0.334,0.669-0.668,1.006-1.006
	c0.334-0.334,0.919-0.503,1.76-0.503c-0.169-0.503-0.251-0.919-0.251-1.257v-0.756h0.251c0.334-1.005,0.837-1.8,1.509-2.388
	c0.669-0.587,0.837-1.383,0.503-2.39c0.165,0,0.334-0.084,0.503-0.253c0-0.165,0.082-0.334,0.251-0.503
	c0.334,0.338,0.503,0.756,0.503,1.259h0.755l-0.252-1.259c0-0.333,0.165-0.503,0.503-0.503c0.334,0,1.172-0.082,2.516-0.25
	c1.339,0,2.137,0,2.388,0c0.252,0,0.379,0.087,0.379,0.25c0,0.34-0.087,0.503-0.252,0.503v0.756l1.259-0.253
	c0.164,0.169,0.333,0.253,0.502,0.253c0.165,0,0.252,0.169,0.252,0.503h2.263v0.754h3.773v0.251h2.766
	c0,0.34,0.208,0.63,0.628,0.882c0.418,0.251,0.461,0.546,0.127,0.88c0.334-0.334,0.503-0.919,0.503-1.762
	c0.334,0,0.669-0.251,1.006-0.754h0.754c0,0.338,0.292,0.629,0.88,0.88c0.586,0.252,0.711,0.798,0.378,1.635
	c0.333-0.334,0.501-0.668,0.501-1.006c0-0.334,0.083-0.669,0.252-1.006h1.257l-0.251,1.51c0.334,0,0.459-0.039,0.377-0.126
	c-0.087-0.082,0.039-0.126,0.377-0.126c0.503,0,0.919-0.164,1.257-0.503c0.165-0.332,0.334-0.503,0.503-0.503
	c0.166,0,0.253-0.082,0.253-0.251h1.257c0.334,0.338,0.669,0.59,1.007,0.754c0.334,0.169,0.503,0.421,0.503,0.756h1.257
	c0-0.334,0.082-0.503,0.252-0.503c0.164,0,0.333,0.087,0.501,0.251c0.503,0,0.921,0.338,1.259,1.006h0.251l0.503-0.503v0.252
	c0.165,0,0.585,0.169,1.257,0.503c0.669,0.338,1.341,0.501,2.012,0.501h1.761v2.013h1.259c0.333-0.503,0.585-0.754,0.754-0.754
	c0.165,0,0.503,0,1.006,0c0.836,0,1.339,0.251,1.508,0.754h-0.251v1.006c0.165,0.169,0.334,0.295,0.503,0.377
	c0.165,0.087,0.251,0.464,0.251,1.133c0.503-0.334,0.795-0.334,0.88,0c0.084,0.338,0.292,0.588,0.63,0.754h0.503l0.251-0.251h3.27
	c0,0.169,0.084,0.251,0.252,0.251h0.251c0.165-0.165,0.252-0.585,0.252-1.257c0.334,0,0.503,0.169,0.503,0.503h2.011v-0.756h0.756
	c0.836,1.344,1.591,2.1,2.263,2.263v0.503c0.667,0,1.088,0.169,1.257,0.503c-0.169,0.169,0,0.464,0.503,0.88
	c0.503,0.421,0.92,0.629,1.257,0.629c0.166,0,0.377-0.082,0.63-0.251c0.251-0.166,0.542-0.252,0.88-0.252
	c0.669,0,1.257,0.295,1.76,0.88c0.503,0.59,1.088,0.967,1.76,1.133c0.334-0.166,0.587-0.253,0.756-0.253h0.503v3.019
	c1.508-0.334,2.429,0.251,2.767,1.76h0.503c0-0.669,0.125-0.964,0.377-0.88c0.251,0.087,0.459-0.039,0.628-0.377h5.031
	c0,0.338,0.251,0.503,0.754,0.503c0.503,0,0.919,0.085,1.257,0.251l1.006,2.013c0.503,0,0.962,0.125,1.383,0.377
	c0.416,0.251,0.793,0.377,1.132,0.377c0.164,0,0.251-0.039,0.251-0.126c0-0.082,0.082-0.125,0.25-0.125h0.253
	c0.334,0,0.754,0.212,1.257,0.627c0.503,0.422,0.92,0.629,1.257,0.629c0.166,0,0.503-0.208,1.007-0.629
	c0.503-0.416,0.919-0.793,1.259-1.131h2.514l2.013,1.76c0.503-0.837,1.006-1.172,1.509-1.006c-0.339-0.669-0.339-1.046,0-1.133
	c0.333-0.082,0.585-0.208,0.754-0.377h2.013c0.333-0.334,0.628-0.628,0.88-0.88c0.251-0.251,0.459-0.459,0.628-0.628
	c0.334,0,0.587-0.084,0.755-0.252c0.164-0.166,0.333-0.251,0.503-0.251c0-0.503,0.164-1.006,0.501-1.509
	c0.334,0,0.503-0.082,0.503-0.253c0-0.163,0.252-0.25,0.756-0.25c0.165,0,0.334,0.126,0.503,0.377
	c0.164,0.252,0.334,0.377,0.503,0.377c0.501,0,0.962-0.377,1.383-1.131c0.416-0.756,0.962-1.046,1.634-0.88h0.754
	c0,0.338,0.126,0.754,0.379,1.257c0.25,0.503,0.542,0.754,0.88,0.754c0.503,0,0.919-0.333,1.257-1.005
	c0.334-0.669,0.837-1.006,1.509-1.006v-2.264h1.257v-2.516c0.165-0.165,0.251-0.585,0.251-1.257
	c-0.169-0.334-0.211-0.587-0.124-0.755c0.082-0.164,0.039-0.416-0.126-0.754c-0.338-0.334-0.464-0.629-0.377-0.88
	c0.082-0.252-0.126-0.461-0.63-0.629v-3.27l0.503-0.503c0.334-1.005,0.503-1.591,0.503-1.76v-0.503h0.754
	c0.334-0.333,0.669-0.585,1.006-0.754c0.334-0.166,0.503-0.585,0.503-1.257c0-0.334-0.087-0.543-0.251-0.629
	c-0.169-0.082-0.252-0.377-0.252-0.88l0.503-0.503v-2.516c-0.338-0.164-0.42-0.333-0.251-0.502c0.164-0.165,0.082-0.418-0.252-0.756
	c-0.169,0-0.251-0.082-0.251-0.251v-0.503c0-0.503,0.251-1.006,0.754-1.509c0-0.334-0.126-0.585-0.377-0.754
	c-0.253-0.165-0.377-0.416-0.377-0.756c-0.338,0-0.629-0.082-0.88-0.251c-0.252-0.166-0.464-0.253-0.629-0.253
	c-0.338,0-0.754,0.171-1.257,0.503v-0.503h-2.516v-1.257c0.334,0,0.503-0.082,0.503-0.251c-0.337,0-0.503-0.208-0.503-0.629
	c0-0.416,0-0.793,0-1.131c-1.509,0-2.264-0.334-2.264-1.006c-0.841,0-1.301-0.166-1.383-0.503c-0.087-0.334-0.464-0.503-1.132-0.503
	c-0.338,0-0.501-0.166-0.501-0.503l-0.252-0.251l-0.754-0.252v-0.503l-4.527-1.51c-0.339-0.503-0.672-0.836-1.006-1.005
	c-0.338-0.165-0.756-0.418-1.259-0.756v-0.251c-1.344-0.668-2.514-1.298-3.52-1.887c-1.006-0.585-2.181-1.045-3.52-1.383v-0.756
	c-0.672,0-1.847-0.332-3.522-1.005c-0.672-0.334-1.426-0.668-2.263-1.006c-0.338,0-0.588,0.126-0.754,0.377
	c-0.169,0.251-0.503,0.295-1.007,0.126h-0.754v-1.259h-3.27c0-0.667-0.169-0.919-0.503-0.754c-0.338,0.169-0.672,0.169-1.006,0
	v-0.503h-1.257c-0.672-0.334-1.383-0.668-2.139-1.006c-0.754-0.333-1.383-0.667-1.886-1.005c-0.169,0-0.464,0.043-0.88,0.124
	c-0.42,0.087-0.797-0.208-1.131-0.88h-2.264c0-0.334-0.169-0.416-0.503-0.251c-0.338,0.169-0.756,0.085-1.259-0.253l0.503-0.754
	c-0.338,0-0.715,0.043-1.131,0.126c-0.421,0.086-0.799-0.126-1.133-0.629c-0.337,0-0.714,0.043-1.131,0.126
	c-0.421,0.085-0.717-0.039-0.88-0.377h-2.516v-0.503l-2.766-0.252v-0.503h-2.516v-0.251v-0.252h-3.017
	c-0.338-0.164-0.421-0.251-0.251-0.251c-0.053,0-0.118,0-0.252,0l-2.012-0.503v-0.252h-4.778v-1.005h-2.013h-0.754v-0.253h-3.27
	c-0.338-0.334-0.63-0.503-0.88-0.503c-0.253,0-0.464-0.082-0.629-0.251c0.334-0.837,0.208-1.383-0.377-1.635
	c-0.59-0.251-1.049-0.542-1.383-0.88v-2.263c-0.169,0-0.253-0.165-0.253-0.503v-3.27c-0.337-0.164-0.501-0.459-0.501-0.88
	c0-0.416,0-0.793,0-1.131c-0.672,0-0.882-0.208-0.629-0.63c0.251-0.416,0.208-0.711-0.126-0.88l-0.754-2.767
	c-0.503-0.669-0.756-1.341-0.756-2.013c-0.672-0.667-1.005-1.17-1.005-1.508c-0.841-0.837-1.597-1.636-2.265-2.39
	c-0.672-0.756-1.257-1.636-1.76-2.642c-0.503-0.164-0.754-0.501-0.754-1.005c0-0.503,0-1.09,0-1.762
	c-0.503-0.667-0.925-1.383-1.257-2.137c-0.339-0.754-0.841-1.465-1.509-2.137l0.503,1.257v2.767c0,0.169,0.039,0.251,0.126,0.251
	c0.082,0,0.125,0.087,0.125,0.253v0.251c0,0.169-0.125,0.421-0.377,0.756c-0.251,0.338-0.464,0.588-0.63,0.754h-1.76
	c0-0.334-0.169-0.669-0.503-1.007c-0.338-0.334-0.503-0.754-0.503-1.257c-0.672,0-1.092-0.165-1.257-0.503h-3.27
	c-0.338,0.338-0.588,0.503-0.754,0.503v1.51c1.341,0,2.68,0.503,4.024,1.508c-0.338,0-0.628,0.087-0.88,0.253
	c-0.25,0.169-0.546,0.251-0.88,0.251h-1.51c0.335,0.338,0.335,0.756,0,1.259c-0.338,0.503-0.588,0.754-0.754,0.754
	c-0.338,0-0.59-0.165-0.754-0.503c0.164-0.837,0-1.549-0.503-2.137c-0.503-0.587-1.007-1.215-1.51-1.887
	c0-0.503-0.169-0.837-0.503-1.006c-0.169,0-0.252-0.082-0.252-0.251c-0.169,0-0.251-0.041-0.251-0.126
	c0-0.084-0.087-0.127-0.251-0.127c-0.339,0.338-0.59,0.503-0.755,0.503l-0.251-0.251c-0.169,0-0.338-0.041-0.503-0.126
	c-0.169-0.084-0.337-0.127-0.503-0.127c0,0.338-0.421,0.754-1.257,1.257v2.263l-1.259,3.019h-0.251c0,0.338-0.253,0.88-0.754,1.634
	c-0.503,0.756-0.925,1.133-1.259,1.133c-0.337,0-0.546-0.082-0.628-0.253c-0.087-0.164-0.295-0.251-0.629-0.251
	c-1.006,0-1.634,0.63-1.887,1.887c-0.25,1.257-0.546,2.224-0.88,2.893c-0.338,0.338-0.672,0.628-1.006,0.88
	c-0.338,0.251-0.42,0.797-0.251,1.634c-1.007,0.672-1.847,1.428-2.516,2.264c-0.672,0.841-1.426,1.678-2.263,2.516
	c-0.338,0.338-0.503,0.589-0.503,0.754c-0.169,0.338-0.59,0.377-1.257,0.126c-0.672-0.251-1.257-0.377-1.76-0.377
	c-0.339,0-0.547-0.165-0.629-0.503c-0.087-0.334-0.295-0.503-0.63-0.503c-0.672,0-1.175,0.337-1.508,1.006v-1.006h-2.516
	l-1.509,1.006c-0.338,0-0.628-0.083-0.88-0.252c-0.251-0.164-0.546-0.251-0.88-0.251h-0.251l-0.503,0.503l-3.522,0.251h-3.52v-1.257
	h-3.27v1.257c-0.338-0.165-0.59-0.125-0.754,0.126c-0.169,0.251-0.503,0.377-1.006,0.377c-0.169,0-0.503-0.251-1.007-0.754v-1.006
	h-1.257l0.251,1.257c-0.169,0.338-0.42,0.503-0.754,0.503l-1.257,2.012h-1.51c0,0.338-0.043,0.464-0.126,0.377
	c-0.087-0.082-0.295-0.126-0.629-0.126h-0.754v-0.251c-0.338-0.334-0.754-0.542-1.257-0.629c-0.503-0.082-0.924-0.29-1.257-0.628
	h-0.756c0.334,0.672,0.334,1.005,0,1.005c-0.338,0-0.588,0.169-0.754,0.503h-2.516c0.166,0,0-0.251-0.503-0.754
	c-0.169-0.166-0.251-0.334-0.251-0.503l-0.754,1.76c-0.339,0-0.756,0.087-1.259,0.253c-0.503,0.169-0.923,0.503-1.257,1.005
	c-2.182-0.333-3.439-0.501-3.773-0.501c-0.338,0-0.672,0-1.006,0c0.334-0.334,0.503-0.587,0.503-0.756
	c-0.169,0-0.503,0.253-1.007,0.756l-0.503,0.501h-1.005v-1.005h0.754c0.165,0,0.25-0.084,0.25-0.253h-3.771
	c-0.169,0.169-0.59,0.253-1.259,0.253v1.005h-0.754c-0.169,0.17-0.251,0.503-0.251,1.006c-0.503,0-0.925,0.169-1.259,0.503
	l-0.503-0.503c-0.169,0-0.377,0.087-0.628,0.252c-0.253,0.169-0.717,0.251-1.383,0.251v1.51h-0.756c0-0.334-0.085-0.629-0.251-0.88
	c-0.169-0.252-0.252-0.46-0.252-0.629c-1.174,0-1.76-0.416-1.76-1.257v-0.503c0-0.503,0.083-0.754,0.252-0.754
	c-0.169-0.334-0.421-0.165-0.756,0.503c-0.169,0.338-0.42,0.754-0.754,1.257l-1.257-0.755c0.333,0.842,0.251,1.132-0.252,0.882
	c-0.503-0.253-0.923-0.21-1.257,0.124h-2.767c-0.338,0.338-0.63,0.503-0.88,0.503c-0.253,0-0.546,0-0.88,0
	c-0.672,0.169-1.133,0.464-1.383,0.88c-0.253,0.421-0.548,0.629-0.88,0.629c-0.672,0-1.093-0.252-1.259-0.754
	c0,0.338-0.169,0.589-0.503,0.754c-0.169-0.165-0.251-0.334-0.251-0.503c0-0.165-0.169-0.251-0.503-0.251
	c-0.169,0-0.337,0.086-0.503,0.251c-0.338,0.338-0.841,0.503-1.509,0.503c-0.503,0.503-0.923,0.754-1.257,0.754
	c0,0.338-0.087,0.503-0.251,0.503c-0.338,0-0.503,0.087-0.503,0.253c0-0.054,0-0.118,0-0.253l-0.252-0.503v1.762h-3.27
	c-0.503,0.338-1.092,0.588-1.76,0.754c-1.006,0.503-1.76,0.754-2.263,0.754c-0.338,0-0.629-0.039-0.88-0.124
	c-0.251-0.084-0.464-0.126-0.629-0.126v-1.006c-0.338,0-0.672,0.212-1.005,0.629c-0.34,0.42-0.756,0.546-1.259,0.377
	c0,0.503-0.086,0.841-0.251,1.006h-1.259v-0.756h-2.011c0,0.503-0.087,0.925-0.252,1.259l-1.76-0.756v-0.503
	c-0.503,0.338-1.007,0.59-1.51,0.756c-0.501,0.169-0.923,0.503-1.257,1.005h-2.263c-0.338,0.503-1.344,0.756-3.017,0.756
	l-3.019,1.51v0.501h-1.76l-7.796,2.767c-0.338,0.672-0.63,0.882-0.88,0.63c-0.253-0.251-0.547-0.208-0.88,0.126
	c-0.169,0.338-0.464,0.42-0.88,0.251c-0.421-0.164-0.798-0.082-1.133,0.252c-0.503,0.169-1.006,0.251-1.509,0.251
	c-0.672,0.338-1.218,0.629-1.634,0.88c-0.421,0.252-0.967,0.377-1.636,0.377c0,0.672-0.211,1.301-0.628,1.886
	c-0.421,0.59-1.051,0.716-1.886,0.379c-0.169,0-0.252,0.086-0.252,0.251c0,0.169-0.169,0.251-0.503,0.251
	c-0.169,0-0.251-0.125-0.251-0.377c0-0.251-0.169-0.377-0.503-0.377c-0.169,0.169-0.464,0.421-0.88,0.754
	c-0.421,0.339-0.798,0.503-1.133,0.503v1.006c0.334,0.338,0.503,0.672,0.503,1.007c0,0.169-0.169,0.252-0.503,0.252h-1.005
	c-0.339-0.166-0.672-0.252-1.006-0.252c-0.503,0-0.841,0.252-1.006,0.754c0-0.333-0.087-0.501-0.252-0.501
	c-0.169,0-0.251-0.084-0.251-0.252h-2.516c0,0.338-0.125,0.464-0.377,0.377c-0.251-0.082-0.464,0.044-0.628,0.377
	c0-0.164-0.087-0.333-0.253-0.501h-0.251c-0.338,0.67-0.672,1.173-1.007,1.508c-0.337,0.338-0.924,0.672-1.76,1.007v0.252h-0.503
	h-2.264c-0.672,1.005-1.552,1.721-2.642,2.137c-1.092,0.42-2.224,0.967-3.394,1.634c-0.338,0.169-0.59,0.379-0.756,0.629
	c-0.169,0.251-0.589,0.295-1.257,0.126l-2.516,1.257c-0.338,0-0.628,0.169-0.88,0.503c-0.251,0.338-0.628,0.503-1.131,0.503v1.257
	c-0.503,0-0.841,0.169-1.006,0.503h-2.013c-0.338,0.169-0.754,0.251-1.257,0.251c-0.338,1.344-1.049,2.265-2.137,2.768
	c-1.093,0.501-2.139,0.923-3.144,1.257c0,0.503-0.171,1.049-0.503,1.634c-0.34,0.59-0.841,0.717-1.51,0.377
	c0,0.672-0.377,1.051-1.133,1.133c-0.754,0.087-1.131,0.546-1.131,1.383c-0.672,0-1.093,0.043-1.259,0.126
	c-0.169,0.085-0.42,0.124-0.754,0.124c-0.338,0-0.503-0.039-0.503-0.124c0-0.083-0.086-0.126-0.251-0.126
	c-0.338,0.338-0.716,0.629-1.132,0.88c-0.42,0.252-0.715,0.213-0.88-0.126c-0.672,0.841-1.383,1.428-2.137,1.762
	c-0.756,0.338-1.552,0.841-2.39,1.508c0.165,0.503,0.334,0.756,0.503,0.756h0.25c0,0.338-0.377,0.672-1.131,1.005
	c-0.756,0.339-1.302,0.503-1.636,0.503c-0.169,0.339-0.295,0.547-0.377,0.629c-0.087,0.087-0.464,0.126-1.131,0.126
	c-0.34,0.337-0.59,0.754-0.756,1.257c-0.169,0.503-0.589,0.672-1.257,0.503c-0.338,0.672-0.798,1.133-1.383,1.383
	c-0.59,0.25-1.218,0.546-1.886,0.88l-0.252-0.251c-0.501,0.338-0.841,0.797-1.005,1.383c-0.169,0.589-0.59,0.797-1.259,0.628
	c-0.169,0.169-0.419,0.253-0.754,0.253c-0.169,1.006-0.59,1.678-1.257,2.011c-0.672,0.338-1.428,0.59-2.264,0.756
	c-0.339,0.841-0.798,1.508-1.383,2.011c-0.59,0.503-1.051,0.924-1.383,1.259c-0.34,0.841-0.88,1.552-1.636,2.137
	c-0.754,0.59-1.552,1.133-2.39,1.634c-0.503,0.843-0.754,1.596-0.754,2.265h-0.754c-0.503,0.672-0.967,1.383-1.383,2.137
	c-0.421,0.754-1.051,1.218-1.887,1.384v1.006h-1.509c0,0.503-0.213,0.88-0.63,1.131c-0.419,0.252-0.796,0.464-1.131,0.629
	c-0.169,1.51-0.672,2.601-1.51,3.27c-0.841,0.672-1.426,1.595-1.76,2.767c-1.847,1.175-3.019,2.514-3.522,4.023h-1.257
	c0,0.841-0.169,1.428-0.503,1.76c-0.338,0.34-0.503,0.672-0.503,1.006c0,0.503,0.039,0.841,0.126,1.007
	c0.082,0.169,0.126,0.421,0.126,0.754c0,0.171-0.044,0.421-0.126,0.756c-0.087,0.338-0.126,0.589-0.126,0.754
	c-0.503-0.165-0.841-0.039-1.006,0.377c-0.169,0.421-0.42,0.798-0.754,1.133h-0.754l-0.252,5.03
	c-0.338,0.169-0.628,0.338-0.88,0.503c-0.251,0.169-0.546,0.251-0.88,0.251v0.756l0.503,0.503c0,0.169-0.087,0.377-0.251,0.628
	c-0.17,0.253-0.252,0.547-0.252,0.88h-0.754c-0.338,0.672-0.547,1.133-0.629,1.383c-0.087,0.253-0.126,0.63-0.126,1.133h-0.503
	l-0.25,3.017c0.503,0,0.754,0.171,0.754,0.503v0.252c0,0.338-0.338,0.754-1.005,1.257c-0.672,0.503-1.175,0.924-1.509,1.257
	c0,0.339-0.044,0.548-0.126,0.629c-0.087,0.087-0.126,0.295-0.126,0.63l0.503,0.503c0,0.169-0.085,0.25-0.25,0.25
	c0,0.169-0.044,0.295-0.126,0.377c-0.087,0.087-0.126,0.213-0.126,0.377v0.503c0,0.169,0.039,0.338,0.126,0.503
	c0.082,0.169,0.126,0.421,0.126,0.756c0,0.502-0.253,0.841-0.756,1.005c0,0.672,0.252,1.093,0.756,1.259
	c-0.503,0-0.756,0.251-0.756,0.754c0,0.338,0.083,0.629,0.252,0.88c0.165,0.252,0.251,0.546,0.251,0.88
	c0,0.169-0.085,0.338-0.251,0.503c-0.169,0.169-0.252,0.338-0.252,0.503c0,0.338,0.083,0.754,0.252,1.257
	c0.165,0.503,0.251,0.924,0.251,1.259l1.51,0.754l-0.503,1.257c0.837,0.169,1.257,0.59,1.257,1.259c0,0.169-0.043,0.293-0.124,0.377
	c-0.087,0.085-0.044,0.295,0.124,0.628v3.019h0.503v3.017c0.334,0,0.461,0.213,0.379,0.629c-0.087,0.42,0.039,0.798,0.377,1.133
	v-1.762h0.754c0.334,0.338,1.006,1.22,2.013,2.642c1.006,1.426,1.673,2.137,2.011,2.137c0.334,0,0.542-0.039,0.629-0.126
	c0.082-0.082,0.292-0.125,0.63-0.125c0.667,0.338,1.257,0.672,1.76,1.005c1.006,0.672,1.591,1.007,1.76,1.007
	c0.334,0,0.63-0.082,0.88-0.251c0.253-0.165,0.461-0.252,0.63-0.252c0-0.667,0.165-1.088,0.503-1.257
	c0.334-0.165,0.585-0.165,0.754,0c0.334,0,0.542,0.087,0.629,0.251c0.082,0.171,0.29,0.253,0.628,0.253
	c0.334-0.838,0.837-1.257,1.51-1.257c0.334,0,0.629,0.125,0.88,0.377c0.252,0.251,0.542,0.377,0.88,0.377
	c0.334,0,0.837-0.416,1.51-1.257l0.503-1.76c-0.672,0-0.967-0.252-0.88-0.756c0.082-0.503-0.044-0.919-0.377-1.257l0.503-6.79
	v-0.252l0.251,0.252l0.503-3.019c0.166,0,0.251-0.251,0.251-0.754c0-0.166-0.043-0.334-0.125-0.503
	c-0.087-0.165-0.126-0.416-0.126-0.756c0-0.836,0.459-1.591,1.383-2.263c0.919-0.667,1.383-1.17,1.383-1.508
	c0-0.334-0.126-0.542-0.377-0.629c-0.252-0.082-0.295-0.292-0.126-0.629c0-0.334-0.043-0.416-0.126-0.251
	c-0.085,0.169-0.043,0.087,0.126-0.253h0.754c0-0.503,0.334-1.257,1.006-2.263h0.756c0.163-0.334,0.416-0.628,0.754-0.88
	c0.334-0.251,0.585-0.542,0.754-0.88v-2.767c0.334,0,0.669-0.251,1.006-0.754c0.334-0.503,0.669-0.669,1.006-0.503
	c0.334-0.837,0.92-1.467,1.76-1.886c0.837-0.416,1.423-1.046,1.76-1.886h1.006v-1.007h-1.257c0.165-0.334,0.334-0.585,0.503-0.754
	c0.165-0.165,0.25-0.416,0.25-0.756c0.669,0.34,1.259,0.379,1.76,0.126c0.503-0.251,1.09-0.542,1.762-0.88v-2.516
	c0.667-0.164,1.339-0.836,2.011-2.011h0.503c0.669,0.672,1.088,1.007,1.257,1.007c0.334-0.503,0.587-1.046,0.756-1.636
	c0.165-0.585,0.585-1.131,1.257-1.634c0.166-0.334,0.253-0.919,0.253-1.76c0.503-0.165,0.754-0.669,0.754-1.51l1.76-1.257
	c0-0.165-0.087-0.334-0.251-0.503c-0.169-0.165-0.087-0.252,0.251-0.252h1.51c0,0.338,0.251,0.503,0.754,0.503
	c0.334,0,0.63-0.082,0.88-0.251c0.253-0.165,0.543-0.252,0.88-0.252c0.166-0.838,0.669-1.341,1.51-1.51
	c0.837-0.164,1.088-0.836,0.756-2.011c1.339,0,2.176-0.127,2.514-0.377c0.334-0.252,0.754-0.379,1.257-0.379
	c0.165,0,0.252,0.044,0.252,0.126c0,0.087,0.166,0.126,0.503,0.126v-0.756l-0.503-0.502v-0.252v-0.503h0.754
	c0,0.338,0.334,0.503,1.006,0.503c0.503,0,1.007-0.208,1.51-0.629c0.503-0.416,0.92-0.793,1.257-1.131
	c0.503,0.338,1.046,0.295,1.636-0.126c0.585-0.416,1.044-0.711,1.383-0.88c0.333-0.334,0.754-0.503,1.257-0.503v-1.257
	c0.837,0.338,1.465,0.087,1.886-0.754c0.416-0.837,1.046-1.09,1.886-0.755c0-0.838,0.251-1.674,0.754-2.515
	c0.334,0.338,0.585,0.377,0.754,0.125c0.165-0.251,0.418-0.542,0.756-0.88h1.257c0.669-0.165,1.172-0.919,1.51-2.263h0.754
	l2.013-2.011h2.011c0-0.334,0.084-0.503,0.253-0.503h0.503c0.503-0.837,1.17-1.259,2.011-1.259c0-0.164,0.166-0.416,0.503-0.754
	c0.837,0,1.549-0.334,2.139-1.006c0.585-0.669,1.383-1.006,2.39-1.006c0.164-0.667,0.542-1.088,1.131-1.257
	c0.585-0.165,1.133-0.416,1.636-0.754h2.767c0.332-0.837,1.257-1.259,2.766-1.259c0-0.503,0.251-0.754,0.754-0.754
	c0.334-0.669,0.629-1.088,0.88-1.257c0.252-0.166,0.461-0.503,0.629-1.006c1.006,0,1.634-0.126,1.886-0.377
	c0.251-0.253,0.88-0.377,1.887-0.377c0.164-0.669,0.416-1.006,0.754-1.006c0.334,0,0.585,0,0.754,0c0-0.334,0.083-0.503,0.252-0.503
	c0.165,0,0.334,0.085,0.503,0.251c0.667-0.503,1.591-0.754,2.767-0.754c0-0.669,0.334-1.006,1.006-1.006
	c0.333,0,0.711-0.126,1.131-0.377c0.416-0.253,0.793-0.377,1.133-0.377c0.333-0.166,0.667-0.334,1.004-0.503
	c0.335-0.166,0.838-0.253,1.51-0.253l2.013-1.508c0,0.169,0.082,0.251,0.251,0.251c0.334-0.165,0.587-0.334,0.755-0.503
	c0.164-0.166,0.333-0.251,0.503-0.251c0,0.338,0.082,0.503,0.251,0.503h0.25c0.166-0.503,0.503-0.921,1.007-1.259
	c0.503-0.334,1.09-0.334,1.76,0c1.006-1.339,2.39-2.05,4.152-2.137c1.76-0.082,3.394-0.461,4.904-1.133l2.013,0.503
	c-0.17-0.503-0.339-0.754-0.503-0.754c-0.169,0-0.252-0.166-0.252-0.503c0-0.334,0.165-0.503,0.503-0.503h0.754
	c0,0.338,0.084,0.503,0.253,0.503c0.166,0,0.251,0.087,0.251,0.251h0.756v-0.251h2.263v-0.754c0.669,0,1.131-0.208,1.383-0.629
	c0.251-0.416,0.459-0.793,0.628-1.133c1.341,0,2.265-0.251,2.768-0.754h3.017v0.503h0.251l0.503-0.503h2.263v-1.007h4.026v-0.251
	l0.503-0.252h3.27c0.163-0.333,0.459-0.503,0.88-0.503c0.416,0,0.711,0,0.88,0c0-0.501,0.416-0.754,1.257-0.754
	c0.334,0,0.543,0.087,0.63,0.252c0.082,0.169,0.29,0.251,0.628,0.251c0.503,0,0.756-0.166,0.756-0.503h2.767
	c0,0.338,0.082,0.59,0.251,0.754c0,0.34,0.039,0.548,0.126,0.63c0.082,0.087,0.126,0.212,0.126,0.377h2.011
	c0-1.17,0.418-1.76,1.259-1.76v-0.754h-0.252c-0.169,0-0.251-0.253-0.251-0.756h3.52c0,0.169,0.126,0.421,0.377,0.756
	c0.252,0.338,0.542,0.503,0.88,0.503c0.334,0,0.503-0.165,0.503-0.503h3.27c0.165-0.669,0.503-0.964,1.006-0.88
	c0.503,0.086,0.92-0.039,1.257-0.379v0.756h4.026c0.333-0.503,0.92-0.795,1.76-0.88c0.837-0.084,1.423-0.292,1.76-0.63h3.27
	c0.334,0.338,0.754,0.295,1.257-0.126c0.503-0.416,0.837-0.542,1.006-0.377v1.006c0.334,0,0.503,0.251,0.503,0.754
	c0.503-0.503,0.919-0.754,1.257-0.754h0.503v0.754c0.165-0.503,0.416-0.754,0.754-0.754c0.166,0.337,0.334,0.251,0.503-0.251
	c0.166-0.503,0.334-0.587,0.503-0.253c0.334-0.334,0.416-0.165,0.253,0.503c-0.169,0.672-0.087,1.006,0.251,1.006
	c0-0.503,0.039-0.756,0.126-0.756c0.082,0,0.29,0.169,0.629,0.503c0.501-0.503,0.92-0.754,1.257-0.754
	c0.334,0,0.754,0.251,1.257,0.754c-0.338,0-0.672,0.126-1.006,0.379c-0.338,0.251-0.672,0.211-1.007-0.126
	c-0.337,0.503-0.419,0.967-0.25,1.383c0.165,0.42,0,0.798-0.503,1.131c-0.503,0-0.754,0.169-0.754,0.503
	c0,0.338-0.169,0.841-0.503,1.509h-0.503c-0.338,1.51-1.006,3.062-2.013,4.653c-1.006,1.595-1.76,3.231-2.263,4.904
	c-0.672,0.338-1.257,1.093-1.76,2.263c-0.503,1.175-0.841,2.434-1.006,3.773c-0.169,0-0.295,0.044-0.377,0.126
	c-0.087,0.087-0.212,0.126-0.377,0.126h-0.252c-0.169,0.338-0.251,0.754-0.251,1.257h-0.503c-0.338,0.338-0.503,0.754-0.503,1.257
	c0,0.503-0.337,0.925-1.006,1.259c-0.338,0.841-0.672,1.595-1.007,2.263c-0.338,0.672-0.841,1.092-1.508,1.257
	c0,0.337-0.044,0.629-0.126,0.88c-0.087,0.251-0.126,0.546-0.126,0.88l-4.024,7.546h-0.503c-0.338,1.344-0.841,2.264-1.51,2.767
	c0,0.503-0.169,0.923-0.503,1.257l-1.257,2.263c-0.169,0.338-0.25,0.756-0.25,1.257h-0.503c-0.338,1.344-0.841,2.477-1.509,3.396
	c-0.672,0.924-1.344,1.805-2.013,2.64c0,0.34-0.043,0.798-0.125,1.383c-0.087,0.59-0.464,0.882-1.132,0.882
	c-0.169,0.841-0.672,1.803-1.51,2.891c-0.841,1.093-1.426,2.139-1.76,3.144c-0.338,0.339-0.464,0.59-0.377,0.756
	c0.082,0.169-0.043,0.338-0.377,0.503c0,0.503-0.087,0.923-0.253,1.257c0,0.503-0.169,0.923-0.503,1.257h-0.754
	c0,0.503-0.043,1.006-0.127,1.509c-0.085,0.503-0.295,0.924-0.628,1.257c-0.339,0.169-0.503,0.503-0.503,1.006h-0.756v0.756h-2.767
	c-0.169,0.169-0.251,0.337-0.251,0.501c0,0.171-0.087,0.253-0.252,0.253c-0.169,0-0.251-0.082-0.251-0.253v0.253
	c-0.169,0-0.251-0.082-0.251-0.253l-0.253-0.501h-2.767c-0.169,0.169-0.251,0.337-0.251,0.501c0,0.171-0.087,0.253-0.252,0.253
	v-0.253c-0.169,0-0.251-0.082-0.251-0.251c0-0.165-0.169-0.251-0.503-0.251c0,0.672-0.126,0.965-0.377,0.88
	c-0.252-0.083-0.548,0.043-0.882,0.377h-2.263v0.251c0,0.169-0.169,0.252-0.503,0.252h-2.767c0-0.334-0.043-0.503-0.124-0.503
	c-0.087,0-0.126-0.083-0.126-0.252h-2.516c-0.338,0.503-0.923,0.756-1.76,0.756h-0.251c-0.169,0-0.338-0.165-0.503-0.503h-2.767
	c-0.337,0.338-0.798,0.628-1.383,0.88c-0.59,0.251-1.049,0.546-1.383,0.88h-2.766c0-0.669-0.422-1.006-1.257-1.006
	c-0.339,0-1.051,0.377-2.139,1.132c-1.092,0.754-1.972,1.131-2.64,1.131v0.252c-1.007,0.338-1.805,0.628-2.39,0.88
	c-0.59,0.251-1.47,0.377-2.64,0.377c0.165,0.338-0.169,0.503-1.006,0.503c-0.169,0-0.546-0.165-1.133-0.503
	c-0.588-0.334-0.88-0.585-0.88-0.754h-2.011c-0.169,0.338-0.339,0.503-0.503,0.503c-0.169,0-0.338-0.084-0.503-0.253
	c0,0.672-0.213,1.175-0.63,1.509c-0.419,0.338-0.798,0.503-1.131,0.503c-0.672,0-0.967-0.039-0.88-0.126
	c0.082-0.082-0.044-0.29-0.379-0.629h-0.754c0,0.339-0.043,0.59-0.126,0.755c-0.085,0.169-0.124,0.503-0.124,1.006
	c0,0.169,0.039,0.338,0.124,0.502c0.084,0.17,0.126,0.339,0.126,0.503v1.006h-2.013l-2.263,1.007l-2.515,0.503
	c-0.841,0.503-1.259,1.006-1.259,1.509c0,0.338,0.084,0.628,0.252,0.88c0.166,0.251,0.251,0.464,0.251,0.628
	c0,0.34-0.169,0.717-0.503,1.133c-0.338,0.422-0.841,0.715-1.508,0.88c0.333,0.841,0.29,1.509-0.126,2.013
	c-0.421,0.503-0.798,0.923-1.133,1.257c0.503,0.503,0.756,0.923,0.756,1.257h5.281c0.334,0.338,0.587,0.503,0.756,0.503
	c0.334,0,0.711-0.165,1.131-0.503c0.416-0.334,0.629-0.585,0.629-0.754h3.017c0-0.334,0.084-0.542,0.253-0.629
	c0.165-0.082,0.25-0.29,0.25-0.628h2.516v0.503h2.263c0.334-0.334,0.754-0.503,1.257-0.503c0.334,0,0.756,0.251,1.257,0.754
	c0.503,0.503,0.756,1.093,0.756,1.76l1.257-0.503h2.013c0.334,1.175,1.257,1.428,2.767,0.756c0,0.503,0.126,0.841,0.377,1.005
	c0.251,0.17,0.377,0.421,0.377,0.756h4.023l1.259,1.006v-0.503c0-0.165,0.082-0.252,0.251-0.252l1.257,1.762h2.013v-0.503h2.264
	l0.503-0.756c0.166,0,0.334,0.087,0.503,0.253c0.166,0.169,0.416,0.338,0.754,0.503l0.755,0.754c0.334,0,0.585-0.039,0.754-0.126
	c0.166-0.082,0.416-0.124,0.756-0.124c0.667,0,1.257,0.338,1.76,1.005h2.011v1.259h1.006v1.257
	c-0.338,0.169-0.464,0.377-0.377,0.629c0.082,0.251-0.043,0.546-0.377,0.88c-0.169,0.338-0.377,0.672-0.63,1.005
	c-0.251,0.34-0.377,0.672-0.377,1.007c-0.338,0.338-0.464,0.547-0.377,0.629c0.082,0.087-0.126,0.295-0.63,0.629
	c0,0.841-0.043,1.344-0.126,1.508c-0.086,0.169-0.125,0.59-0.125,1.259c-0.338,0.337-0.59,0.754-0.756,1.257
	c-0.169,0.503-0.503,1.007-1.005,1.509h-0.253v1.761h1.257c0.166,0.169,0.379,0.337,0.629,0.503
	c0.251,0.169,0.377,0.338,0.377,0.503c0,0.338-0.043,0.628-0.126,0.88c-0.086,0.251-0.125,0.546-0.125,0.88h-1.259l-0.502-0.503
	h-0.253c0-0.837-0.169-1.509-0.503-2.013c-1.175,2.685-2.098,5.199-2.767,7.546h-0.503c-0.169,0.672-0.797,0.798-1.887,0.377
	c-1.092-0.416-1.634-0.208-1.634,0.629c-1.509,1.175-2.263,2.852-2.263,5.03h-1.006c0.334,0.338,0.377,0.715,0.126,1.131
	c-0.252,0.421-0.547,0.716-0.88,0.882c-0.339,1.342-0.882,2.475-1.636,3.394c-0.754,0.924-1.301,2.224-1.634,3.899h-0.253
	c-0.338,0.503-0.503,1.175-0.503,2.011c-1.006,1.006-1.508,2.35-1.508,4.025c-0.34,0-0.547,0.043-0.629,0.124
	c-0.087,0.087-0.295,0.126-0.629,0.126c0,0.503-0.086,0.924-0.251,1.257c0,0.503-0.169,0.925-0.503,1.259h-0.503
	c0,0.338-0.043,0.546-0.126,0.628c-0.086,0.087-0.126,0.295-0.126,0.629c-0.338,0.169-0.501,0.672-0.501,1.509
	c-0.339,0.338-0.464,0.546-0.379,0.628c0.084,0.087-0.042,0.295-0.377,0.63l-0.251,1.509h1.006v0.754
	c-0.841,0-1.428,0.213-1.762,0.629c-0.338,0.416-0.672,0.793-1.005,1.131v1.509h0.754c0,0.334,0.082,0.543,0.251,0.63
	c0.165,0.082,0.252,0.29,0.252,0.628v2.013c-0.337,0.334-0.546,0.793-0.629,1.383c-0.085,0.585-0.295,1.133-0.628,1.634
	c-0.339-0.169-0.464-0.377-0.379-0.627c0.084-0.253,0.126-0.546,0.126-0.88c-0.338,0-0.42-0.087-0.251-0.253
	c0.164-0.169,0.082-0.25-0.252-0.25h-0.754c-0.338,0.503-0.63,1.046-0.88,1.634c-0.253,0.587-0.547,1.046-0.88,1.383v2.264
	c-0.503,0.334-0.756,0.919-0.756,1.762c-0.169,0.333-0.295,0.711-0.377,1.131c-0.087,0.416-0.377,0.793-0.88,1.132h-0.251
	c-0.339,1.005-0.672,2.05-1.006,3.144c-0.338,1.088-0.841,2.052-1.51,2.893l-0.251,3.521c-0.672,0.503-0.924,1.257-0.756,2.263
	c0.166,1.006-0.42,1.591-1.76,1.76v1.006l0.503,0.503v0.251v0.756h-0.503c0,0.503-0.087,1.007-0.252,1.51
	c-0.169,0.501-0.501,0.754-1.005,0.754l-0.252,2.767c-0.672,0.669-0.923,1.006-0.754,1.006l-0.503,3.52
	c-0.338,0-0.546,0.084-0.629,0.252c-0.085,0.164-0.295,0.251-0.628,0.251v3.52h-0.503l-0.252,2.767
	c-0.338,0-0.503,0.253-0.503,0.756c0,0.334,0.084,0.543,0.252,0.628c0.166,0.083,0.251,0.292,0.251,0.629v0.253
	c0-0.171-0.251,0-0.754,0.501l0.251,2.767l-0.251,3.27c-0.338,0.334-0.421,0.587-0.253,0.756c0.166,0.166,0.084,0.503-0.25,1.006
	h-0.754l-0.503,5.784c-0.169,0-0.338,0.208-0.503,0.629c-0.169,0.416-0.338,0.628-0.503,0.628c0,0.334,0.251,0.587,0.754,0.756v3.27
	v3.521c0.669,0.334,1.089,0.629,1.259,0.88c0.164,0.252,0.416,0.377,0.754,0.377l2.767-0.754h0.754
	c-0.169,0.334-0.211,0.542-0.125,0.629c0.082,0.082,0.125,0.29,0.125,0.628v2.013l0.503,0.251h0.252
	c0,1.007,0.334,1.675,1.005,2.012c0.165-0.503,0.503-0.967,1.006-1.383c0.503-0.421,0.919-0.629,1.259-0.629
	c0.332,0,0.542,0.165,0.627,0.503c0.084,0.334,0.292,0.503,0.63,0.503l0.754-1.007c0-0.503-0.169-0.754-0.503-0.754l-0.251-2.766
	l0.251-3.521l0.503-0.503c0-0.338-0.085-0.547-0.25-0.63c-0.169-0.087-0.253-0.295-0.253-0.629c0.334,0,0.587-0.085,0.756-0.25
	l0.503-0.503c-0.169-0.338-0.34-0.59-0.503-0.754c-0.169-0.169-0.421-0.59-0.756-1.259c0-0.338,0.334-0.503,1.006-0.503
	c-0.503-0.672-0.169-1.005,1.006-1.005v-1.762c-0.338,0-0.503-0.085-0.503-0.251c0-0.169,0.082-0.338,0.252-0.503v-0.754h0.754
	v-0.756c-0.338,0-0.503-0.085-0.503-0.251c0-0.169-0.087-0.253-0.251-0.253c0.164-0.169,0.416-0.25,0.754-0.25
	c-0.338-0.338-0.295-0.715,0.126-1.133c0.416-0.419,0.793-0.715,1.131-0.88v-1.005c1.341,0,2.139,0,2.39,0
	c0.25,0,0.542,0.164,0.88,0.501l-1.006,0.503c0,0.669-0.125,1.09-0.377,1.259c-0.251,0.164-0.377,0.503-0.377,1.005
	c0.334-0.169,0.754-0.25,1.257-0.25c0.334-0.338,0.461-0.63,0.377-0.88c-0.085-0.253,0.039-0.546,0.379-0.88v-3.27
	c0.667-0.503,1.257-1.049,1.76-1.636c0.503-0.588,0.837-1.218,1.006-1.886h0.754c-0.169-1.005-0.087-1.76,0.251-2.263
	c0.334-0.503,0.668-1.092,1.006-1.76l1.259,1.257h-0.503v2.266h-1.007c-0.503,1.842-1.093,3.52-1.76,5.03h-0.252
	c0,0.334-0.087,0.585-0.251,0.754c-0.169,0.165-0.252,0.416-0.252,0.754c0.334-0.338,0.755-0.501,1.257-0.501
	c0-0.843,0.21-1.47,0.629-1.887c0.416-0.421,0.711-0.967,0.88-1.635c0.334,0.334,0.416,0.669,0.252,1.006
	c-0.169,0.334-0.087,0.669,0.251,1.007c0.166,0,0.208,0.082,0.126,0.25c-0.087,0.166-0.043,0.253,0.126,0.253l3.771,0.251
	l1.006-3.27l2.013-1.509c0-0.501,0.334-0.923,1.006-1.257v-4.276c0.334-0.338,0.585-0.754,0.754-1.257
	c0.165-0.503,0.585-0.754,1.257-0.754c0.334-1.006,0.711-1.973,1.133-2.893c0.416-0.923,1.046-1.721,1.886-2.39v-0.754l-1.257,0.503
	c0-0.338-0.126-0.503-0.379-0.503c-0.251,0-0.212-0.169,0.126-0.503c0-0.169-0.043-0.252-0.126-0.252
	c-0.085,0,0.039-0.169,0.379-0.502v-0.756c-0.503,0-0.755-0.085-0.755-0.251c0.334-0.338,0.416-0.59,0.252-0.756
	c-0.169-0.169-0.087-0.338,0.251-0.503h3.52v-1.005c1.006,0.332,1.549,0.039,1.636-0.88c0.082-0.924,0.63-1.383,1.634-1.383
	c0.334-1.006,0.795-1.762,1.383-2.265c0.587-0.501,1.045-1.092,1.383-1.76l1.51-4.276h0.503c0-0.841,0.208-1.426,0.629-1.76
	c0.416-0.338,0.711-0.754,0.88-1.257l-0.253-0.25l0.253-2.013c0.503,0,0.627-0.212,0.377-0.629c-0.251-0.42-0.212-0.715,0.126-0.88
	c0.334,0.165,0.503,0.503,0.503,1.006c0.333,0,0.711-0.169,1.131-0.503c0.416-0.338,0.963-0.42,1.636-0.251l-1.259-1.259
	l1.509-1.005l0.503-2.516c0.335-0.338,0.503-0.672,0.503-1.007c0-0.338,0.251-0.841,0.754-1.51h0.756l0.503-2.263
	c0.163-0.338,0.377-0.672,0.628-1.006c0.252-0.338,0.377-0.67,0.377-1.005l2.012-1.51c0-0.338,0-0.754,0-1.257
	s0.253-0.756,0.754-0.756v-2.011h-0.754l0.503-1.762v0.503h0.251c0-0.333,0.083-0.503,0.252-0.503h0.251l0.503-0.754
	c-0.672,0-1.092-0.082-1.257-0.251c0-0.669,0.039-1.172,0.126-1.509c0.082-0.334,0.125-0.669,0.125-1.006v-0.503
	c0.669,0.672,1.006,1.093,1.006,1.257h1.007c-0.169-0.333-0.043-0.628,0.377-0.88c0.416-0.251,0.63-0.459,0.63-0.628l0.754-1.762
	c0-0.667,0.084-1.257,0.253-1.76c0,0.169,0.459,0.126,1.383-0.125c0.919-0.252,1.383-0.795,1.383-1.635v-0.251l-0.252-0.503
	l0.252-3.27c0.334-0.165,0.628-0.46,0.88-0.88c0.251-0.418,0.543-0.629,0.88-0.629l0.754,0.754c0.334,0,0.542-0.124,0.629-0.377
	c0.082-0.251,0.29-0.377,0.63-0.377v-1.257l-0.503-0.503v-0.253v-0.501h0.754v-0.756c0.334,0.338,0.63,0.338,0.88,0
	c0.253-0.334,0.208-0.838-0.126-1.51c0.668,0,0.882-0.29,0.629-0.88c-0.25-0.585-0.043-0.88,0.63-0.88v-0.754h-0.756
	c0,0.672-0.211,1.3-0.628,1.887c-0.421,0.588-0.63,1.049-0.63,1.383h-0.754l0.503-2.766c0.163,0,0.29-0.084,0.377-0.252
	c0.082-0.164,0.29-0.251,0.628-0.251v-2.767c0.503-0.165,0.837-0.542,1.006-1.132c0.165-0.585,0.503-0.711,1.006-0.377l1.76-3.27
	c0.669,0.337,1.089,0.213,1.259-0.377c0.164-0.585,0.501-0.711,1.005-0.377c-0.169-0.334,0.292-0.542,1.383-0.629
	c1.09-0.082,1.718-0.29,1.886-0.628v-2.013h0.755c0-0.503,0.164-0.92,0.503-1.257v-3.019c0.333-0.334,0.501-0.754,0.501-1.257h1.007
	c0-0.837,0.252-1.257,0.756-1.257v-1.51h1.005c-0.338-0.669-0.294-1.132,0.126-1.383c0.416-0.252,0.711-0.46,0.88-0.629
	c0-0.667,0.334-1.089,1.006-1.257v-2.516c0.334-0.164,0.46-0.416,0.377-0.754c-0.085-0.334,0.039-0.754,0.379-1.257h1.257
	c0.165,0.841,0.503,1.508,1.007,2.011v-1.508h1.257c0,0.338,0.082,0.546,0.251,0.628c0.166,0.087,0.253,0.295,0.253,0.63h0.754
	v-1.257c-0.338-0.334-0.88-0.46-1.634-0.379c-0.756,0.087-1.133-0.29-1.133-1.131c0-0.334,0.084-0.585,0.253-0.754
	c0.332,0,0.542-0.084,0.627-0.253c0.084-0.165,0.292-0.251,0.63-0.251c0,0.169,0.416,0.42,1.257,0.754
	c0,0.337,0.084,0.672,0.252,1.006c0.164,0.338,0.251,0.672,0.251,1.006h0.754c-0.337-0.837-0.293-1.422,0.126-1.762
	c0.416-0.333,0.711-0.836,0.88-1.508h2.516l0.503-0.253h0.754v3.522c0.838,0,1.422,0.125,1.76,0.377
	c0.334,0.251,0.756,0.546,1.259,0.88l1.005-1.76l1.509-1.006h2.516c-0.503,1.006-0.464,1.678,0.125,2.013
	c0.587,0.338,0.795,0.923,0.629,1.76c0.165,0,0.416-0.126,0.754-0.377c0.335-0.252,0.756-0.21,1.259,0.124
	c0-0.503,0.251-0.754,0.754-0.754h0.503c0,0.841,0.039,1.344,0.126,1.509c0.082,0.169,0.124,0.42,0.124,0.754h2.767l2.767,1.761
	h2.768c0-0.838,0.208-1.339,0.628-1.51c0.416-0.164,0.629-0.332,0.629-0.501h3.773c0,0.169,0.164,0.377,0.503,0.628
	c0.333,0.252,0.416,0.546,0.251,0.88c0.669-0.334,1.257-0.667,1.76-1.007c0.503-0.332,1.088-0.667,1.76-1.005
	c0.334-0.334,0.587-0.669,0.756-1.006c0.164-0.334,0.585-0.416,1.257-0.252c0.503-0.667,1.172-1.005,2.012-1.005
	c0.332,0,0.836,0.169,1.508,0.501c0.668,0.34,1.006,0.672,1.006,1.006c0,0.503-0.169,0.756-0.503,0.756h-0.503
	c0,0.338-0.043,0.628-0.125,0.88c-0.087,0.251-0.126,0.464-0.126,0.628l0.251,0.252v0.251h2.516l0.503-0.503h0.251
	c0.334,0,0.837,0.295,1.509,0.88c0.669,0.59,1.089,1.051,1.257,1.383c0.837-0.836,1.509-1.257,2.013-1.257
	c0.334-0.503,0.503-0.712,0.503-0.628c0,0.085,0.082-0.039,0.251-0.379c1.006-0.332,1.423-0.585,1.259-0.754
	c-0.169-0.165,0.251-0.251,1.257-0.251c0.334,0,0.629-0.041,0.88-0.126c0.25-0.083,0.377,0.212,0.377,0.88h0.755
	c0-0.334,0.208-0.543,0.628-0.629c0.416-0.082,0.711-0.29,0.88-0.628h2.516v0.503h0.251c0.334,0,0.838-0.334,1.509-1.006
	c0.669-0.669,1.172-1.006,1.51-1.006h2.011c0.503,0.503,0.838,0.754,1.006,0.754v-2.011c0.669-0.334,1.133-0.629,1.383-0.88
	C276.917,509.461,277.545,509.253,278.552,509.085z M528.8,537.253c0-0.165,0.082-0.252,0.249-0.252
	c0.334,0,0.505,0.087,0.505,0.252c0,0.169,0.082,0.251,0.253,0.251v-4.777c0.334-0.334,0.501-0.795,0.501-1.383
	c0-0.587,0.416-1.133,1.259-1.636v-2.767c0.164-0.165,0.249-0.585,0.249-1.257c0-0.334-0.501-0.668-1.508-1.006v-1.76
	c-0.338,0-0.59,0.087-0.754,0.25c-0.17,0.169-0.42,0.253-0.754,0.253v2.013h-0.505v2.263c-0.502,0-0.754,0.169-0.754,0.503
	c0.505,0.338,0.754,0.588,0.754,0.754c0,0.338-0.167,0.503-0.502,0.503h-1.006c0,0.338-0.171,0.628-0.505,0.88
	c-0.338,0.251-0.501,0.464-0.501,0.629c0,0.338,0.334,0.88,1.006,1.634c0.669,0.754,1.17,1.302,1.508,1.634
	c-0.502,0-0.754,0.252-0.754,0.755c0,0.338,0.252,0.754,0.754,1.257c-0.502,0-0.754,0.252-0.754,0.754
	c0.505,0,0.754,0.17,0.754,0.503C528.629,537.504,528.8,537.422,528.8,537.253z M564.008,475.886
	c0.334-0.166,0.584-0.418,0.754-0.756c0.164-0.164,0.29-0.334,0.375-0.503c0.085-0.164,0.212-0.333,0.379-0.503h-0.754
	c0,0.672-0.252,1.006-0.754,1.006h-0.754C563.254,475.633,563.503,475.886,564.008,475.886z M679.198,410.996l-0.501-0.503
	l-1.512-0.754h-0.754h-0.754v0.251h-0.505h-0.754v-1.006c-0.839,0.169-1.426,0.126-1.761-0.125c-0.338-0.253-0.839-0.461-1.508-0.63
	v-1.257h-0.754c-0.505,0.841-0.925,1.257-1.259,1.257h-0.501c0-0.669-0.252-1.257-0.757-1.76h-3.52c0-0.165-0.212-0.377-0.628-0.629
	c-0.419-0.251-0.716-0.543-0.88-0.88h-1.259v1.257h-0.754c0,0.339-0.171,0.629-0.502,0.88c-0.341,0.253-0.505,0.63-0.505,1.133
	c-0.167,0-0.253-0.082-0.253-0.251c0-0.165-0.167-0.252-0.502-0.252v-3.52c0.335,0,0.502-0.252,0.502-0.756
	c0-0.503-0.126-0.836-0.375-1.005c-0.252-0.165-0.546-0.418-0.88-0.756h-1.511v1.257h-1.007c-0.338-0.501-0.586-0.754-0.754-0.754
	c-1.006,0-1.508,0.377-1.508,1.132c0,0.754-0.42,1.131-1.259,1.131c-0.167,0-0.338-0.039-0.501-0.126
	c-0.171-0.082-0.338-0.124-0.505-0.124c-0.338,0-0.628,0.124-0.88,0.377c-0.249,0.251-0.628,0.377-1.132,0.377
	c0,0.841-0.212,1.344-0.628,1.509c-0.419,0.169-0.798,0.42-1.133,0.754l-0.754,2.516c-0.338-0.334-0.672-0.503-1.006-0.503
	c-0.337,0-0.672-0.083-1.006-0.252c-0.338,0.169-0.502,0.339-0.502,0.503c0,0.169-0.085,0.252-0.253,0.252
	c-0.839-0.669-1.426-1.172-1.76-1.51c-0.167,0.338-0.337,0.464-0.501,0.377c-0.171-0.082-0.338,0.044-0.505,0.377
	c0,0.169-0.167,0.379-0.501,0.629c-0.338,0.251-0.59,0.377-0.754,0.377c-0.341,0-0.672-0.165-1.006-0.503
	c-0.338-0.334-0.672-0.503-1.006-0.503v1.006c0.334,0,0.502,0.169,0.502,0.503v3.27h-2.767c0.167,0.503-0.167,1.175-1.007,2.013
	c-0.167,0.338-0.249,0.672-0.249,1.006c0,0.338-0.252,0.501-0.757,0.501c-0.502,1.175-1.255,2.013-2.262,2.516v1.257
	c-0.338,0-0.842,0.252-1.511,0.755l-1.508,1.005c0,1.007-0.338,1.805-1.007,2.39c-0.672,0.59-1.006,1.132-1.006,1.636
	c-0.672,0.337-1.133,0.841-1.382,1.508c-0.252,0.672-0.716,1.006-1.385,1.006c-0.338,0.841-0.754,1.428-1.256,1.762
	c-0.505,0.338-0.924,0.923-1.259,1.76c-0.338,0.672-0.798,1.218-1.385,1.634c-0.587,0.421-0.88,0.967-0.88,1.635l-1.255,0.754
	c-0.338,0.841-1.006,1.76-2.013,2.767c-0.338,0.841-0.754,1.47-1.259,1.887c-0.501,0.42-0.921,1.049-1.255,1.886h-2.265
	c0-0.503-0.167-0.756-0.501-0.756c-0.338,0-0.546,0.126-0.631,0.379c-0.085,0.251-0.294,0.377-0.628,0.377v-0.756h-3.019
	l-0.754,2.013c-0.501,0-0.965-0.039-1.382-0.126c-0.423-0.082-0.631,0.044-0.631,0.379h-3.016l-0.253-0.252
	c-0.17,0-0.297,0.043-0.379,0.126c-0.085,0.087-0.211,0.126-0.375,0.126h-0.253c-0.337-0.334-0.59-0.46-0.754-0.379
	c-0.171,0.087-0.423-0.039-0.754-0.377c-0.341,0-0.59-0.082-0.757-0.251l-0.502-0.503c-0.17,0-0.337,0.042-0.505,0.126
	c-0.167,0.085-0.338,0.125-0.501,0.125l-0.502-0.251h-3.271l-0.252,0.251c-0.338-0.164-0.587-0.251-0.754-0.251
	c-0.338,0.169-0.59,0.251-0.754,0.251h-1.259c0,0.672-0.338,1.006-1.006,1.006c-0.167,0-0.249-0.165-0.249-0.503v-0.503h-3.272
	c0,0.672-0.167,1.006-0.501,1.006c-0.171,0-0.423-0.165-0.754-0.503v-0.503c-0.171,0.338-0.253,0.756-0.253,1.259h-0.754v-0.252
	h-1.259c0,0.169-0.171,0.421-0.501,0.756h-1.512c-0.337-0.334-0.546-0.461-0.627-0.379c-0.086,0.087-0.297-0.039-0.628-0.377h-4.278
	v0.252h-5.281v0.503h-2.767l-0.252,0.501h-0.252v-0.251c-0.167,0-0.338-0.039-0.501-0.126c-0.171-0.082-0.338-0.124-0.502-0.124
	c-0.341,0-0.505,0.043-0.505,0.124c0,0.087-0.167,0.126-0.501,0.126l-0.252-0.251l-0.253,0.251h-0.252
	c0-0.334-0.249-0.416-0.754-0.251c-0.501,0.169-0.921,0.169-1.256,0c0-0.334-0.17-0.503-0.505-0.503
	c-0.167,0-0.338,0.086-0.502,0.251c-0.17,0.169-0.337,0.253-0.505,0.253c-0.338,0-0.501-0.084-0.501-0.253
	c0-0.165-0.171-0.251-0.505-0.251c-0.167,0-0.419,0.125-0.754,0.377c-0.338,0.25-0.754,0.377-1.259,0.377
	c-0.502,0-0.839-0.082-1.003-0.251c-0.341,0.338-0.59,0.462-0.757,0.377c-0.167-0.084-0.337-0.126-0.501-0.126
	c-0.672,0-0.925-0.039-0.754-0.126c0.164-0.082-0.089-0.29-0.754-0.628c0,0.672-0.126,0.88-0.379,0.628
	c-0.253-0.25-0.546-0.208-0.88,0.126h-8.552c0-0.165-0.082-0.251-0.253-0.251c-0.665,0-1.59,0.42-2.767,1.257h-4.527v0.251h-2.009
	l-0.253-0.251c-0.669,0-1.006,0.085-1.006,0.251h-3.019l-0.253,0.503h-0.249c-0.167,0-0.334-0.082-0.505-0.251
	c-0.164-0.166-0.416-0.253-0.754-0.253c-0.502,0-0.754,0.169-0.754,0.503h-3.52c-0.334,0.503-0.543,0.756-0.631,0.756
	c-0.082,0-0.29,0-0.628,0h-0.754v-0.756l-1.511,1.007h-4.525c0-0.166-0.126-0.292-0.376-0.377c-0.252-0.084-0.379-0.292-0.379-0.629
	c-0.334,0.841-0.795,1.257-1.382,1.257c-0.586,0-1.047,0.253-1.385,0.756h-2.514c-0.505,0.503-1.259,0.754-2.265,0.754
	c-0.836,0.672-1.672,1.006-2.514,1.006c-0.334,0.503-0.669,0.841-1.007,1.006c-0.334,0.169-0.668,0.42-1.006,0.754l-0.754,2.263
	h-0.502v1.259c0.338,0,0.672,0.169,1.006,0.501h2.767v2.013c-0.334,0.169-0.669,0.252-1.006,0.252v1.005
	c0.338,0.169,0.502,0.421,0.502,0.756h1.259c0,0.337,0.041,0.672,0.126,1.006c0.086,0.338,0.123,0.672,0.123,1.005
	c0.843,0,1.678,0.126,2.518,0.379c0.839,0.251,1.678,0.462,2.514,0.628v0.503h1.508v-0.754h2.012v0.754h1.512
	c0.337,0.338,0.672,0.672,1.001,1.007c0.341,0.337,0.672,0.672,1.007,1.006c0.672,0.338,1.095,0.628,1.259,0.88
	c0.17,0.251,0.419,0.377,0.754,0.377c0.505,0,0.754-0.251,0.754-0.754h3.271c0.338,0.338,0.672,0.588,1.006,0.754
	c0.337,0.169,0.501,0.503,0.501,1.006h1.259c0-1.172,0.59-1.76,1.76-1.76c0.501,0,0.754,0.085,0.754,0.251
	c0,0.338,0.126,0.672,0.379,1.006c0.249,0.338,0.375,0.672,0.375,1.006h3.524v0.503h1.255c-0.334-0.503-0.542-0.756-0.628-0.756
	c-0.082,0-0.126-0.164-0.126-0.503v-0.754h1.259l0.754,1.006c0.167-0.669,0.59-1.006,1.256-1.006l0.252,0.252
	c0-0.503,0.171-0.669,0.505-0.503c0.338,0.169,0.754,0,1.255-0.503h2.767c0,0.503,0.252,0.754,0.754,0.754
	c0.341,0,0.505-0.126,0.505-0.377c0-0.253,0.252-0.377,0.754-0.377c0.171,0.169,0.253,0.42,0.253,0.754h2.514v1.006h-3.268v0.503
	h-3.524l-3.268,1.51c0,0.672,0.252,1.005,0.754,1.005c0.338-0.503,0.88-0.667,1.634-0.503c0.757,0.17,1.303-0.082,1.638-0.754
	c0.167-0.334,0.546-0.459,1.129-0.377c0.59,0.087,0.88-0.039,0.88-0.377h2.265v0.251h3.019c0.164,0.338,0.461,0.59,0.88,0.756
	c0.416,0.169,0.792,0.501,1.133,1.005h-0.505v0.756h0.505c0.163-0.669,0.583-1.046,1.255-1.133c0.669-0.082,1.17-0.126,1.512-0.126
	c0-0.333,0.082-0.501,0.249-0.501v0.501h2.518c0-0.333,0.038-0.541,0.123-0.628c0.085-0.083,0.126-0.292,0.126-0.629h2.518
	c0.164,0.672,0.457,0.967,0.88,0.88c0.416-0.082,0.792-0.125,1.129-0.125c0.167,0.337,0.42,0.501,0.757,0.501
	c0-0.501,0.416-0.754,1.256-0.754c0,0.503,0.082,0.754,0.252,0.754v3.773c0.501,0.169,0.71,0.338,0.628,0.503
	c-0.086,0.169,0.041,0.338,0.379,0.503c0.163-0.165,0.252-0.503,0.252-1.006h1.006v-1.76c0.665-0.503,1.59-0.754,2.767-0.754v-1.76
	h0.754c0.164,0.337,0.416,0.501,0.754,0.501c0.334,0,0.754-0.208,1.259-0.628c0.501-0.416,0.836-0.711,1.003-0.88
	c0.669,0,1.259-0.165,1.764-0.503h1.508c0.334,0.672,0.754,0.967,1.259,0.88c0.501-0.082,0.918,0.295,1.256,1.131h1.511V470.1h0.754
	c0.334,0.503,0.669,0.756,1.006,0.756c0.164,0,0.249-0.039,0.249-0.126c0-0.083,0.167-0.126,0.505-0.126
	c0.164,0,0.253-0.039,0.253-0.126c0-0.082,0.163,0.045,0.501,0.379h3.52c0,0.337,0.082,0.501,0.253,0.501h0.253
	c0.334,0,0.583-0.082,0.754-0.251c0.164-0.165,0.416-0.251,0.754-0.251c0.334,0,0.88,0.169,1.634,0.501
	c0.754,0.339,1.385,0.59,1.886,0.755c0.334,1.007,0.587,1.426,0.754,1.257c0.167-0.166,0.253,0.252,0.253,1.257
	c0,0.34-0.293,0.88-0.88,1.636c-0.59,0.754-0.965,1.131-1.133,1.131c-0.338,1.344-0.839,2.477-1.508,3.396
	c-0.672,0.924-1.177,2.055-1.508,3.396h-0.252c0,1.006-0.338,1.847-1.006,2.514c-0.672,0.672-1.177,1.428-1.508,2.264l-1.007,1.259
	c0,0.503-0.171,0.754-0.505,0.754h-0.252v1.257c-0.501,0.672-0.921,1.22-1.255,1.635c-0.338,0.42-0.59,0.967-0.754,1.634
	l-0.252,1.51l-0.138,0.394c-0.165,0.155-0.348,0.256-0.486,0.486c-0.253,0.421-0.549,0.629-0.884,0.629
	c-1.174,2.683-2.934,5.03-5.281,7.041c-0.167,0.843-0.59,1.47-1.256,1.886c-0.672,0.421-1.006,0.967-1.006,1.636l-2.013,2.013
	c-0.338,0.338-0.672,0.754-1.007,1.257c-0.337,0.503-0.505,1.092-0.505,1.76c-1.344,0-2.18,0.422-2.514,1.257
	c-0.338,0.841-0.839,1.678-1.508,2.516c0,0.503-0.17,0.754-0.505,0.754c-0.502,0.672-1.173,1.175-2.009,1.51
	c-0.341,0.672-0.884,1.426-1.637,2.263c-0.754,0.841-1.382,1.426-1.887,1.76l-1.007,1.259c-0.501,0.841-1.092,1.552-1.76,2.137
	c-0.672,0.589-1.255,1.218-1.76,1.886c-0.839,0.169-1.508,0.503-2.013,1.006c-0.501,0.503-1.173,1.092-2.009,1.76
	c-0.171,0-0.253,0.251-0.253,0.754c-0.672,0.672-1.344,1.344-2.013,2.013c-0.672,0.672-1.259,1.344-1.76,2.011h-0.754l-1.259,1.259
	c-0.167,0.169-0.501,0.251-1.006,0.251c-0.338,0.338-0.966,0.967-1.887,1.887c-0.921,0.924-1.886,1.886-2.893,2.893
	c-1.006,1.006-2.009,1.929-3.016,2.767c-1.006,0.841-1.76,1.257-2.265,1.257h-0.501c0-1.007-0.253-1.634-0.757-1.887
	c-0.501-0.251-0.587-1.046-0.249-2.39c-0.338,0.171-0.505,0-0.505-0.501h0.505v-0.756c-0.505-0.165-0.716-0.251-0.631-0.251
	c0.085,0,0.126-0.166,0.126-0.503c0-0.334-0.085-0.503-0.249-0.503c0.054,0,0.116,0,0.249,0h0.505v-2.767
	c-0.338,0-0.505-0.084-0.505-0.253h-1.508c0,0.169-0.171,0.213-0.505,0.126c-0.338-0.082-0.501-0.039-0.501,0.126v6.79
	c-0.171,0-0.253,0.087-0.253,0.252c0,0.169-0.167,0.338-0.502,0.503v-6.792c-0.505,0-0.754-0.165-0.754-0.503v-0.251
	c0-0.503,0.164-0.756,0.502-0.756h0.252c-0.17-0.836-0.088-1.547,0.253-2.137c0.331-0.585,0.502-1.215,0.502-1.887h-0.754v-0.754
	c0.335-0.334,0.502-0.585,0.502-0.756c-0.338,0-0.502-0.164-0.502-0.501c0.335,0,0.543-0.252,0.628-0.756
	c0.082-0.503,0.29-0.919,0.628-1.257h0.757v-3.521c0.334,0,0.542-0.252,0.628-0.756c0.082-0.503,0.29-0.919,0.628-1.257
	l-0.754-0.503h0.252c0.164-0.165,0.334-0.252,0.502-0.252v-3.268h0.505v-2.266h1.76v2.013c-0.17,0-0.252,0.338-0.252,1.006
	c0,0.338,0.041,0.546,0.126,0.629c0.082,0.085,0.126,0.293,0.126,0.628h1.256c0-0.667,0.085-1.131,0.252-1.383
	c0.167-0.251,0.252-0.711,0.252-1.383h0.754c-0.338-0.667-0.376-1.296-0.127-1.886c0.253-0.585,0.795-0.793,1.634-0.628v-1.259
	h-0.754v-3.017c0.669,0,0.965-0.166,0.88-0.503c-0.085-0.334,0.041-0.754,0.379-1.257v-2.767c-0.337,0.338-0.628,0.377-0.88,0.124
	c-0.252-0.251-0.464-0.377-0.628-0.377c-0.341,0-0.549,0.044-0.631,0.126c-0.085,0.087-0.293,0.126-0.628,0.126
	c0-0.503-0.085-0.837-0.252-1.006c-0.167-0.166-0.252-0.416-0.252-0.756v-0.502h1.259c0,0.338,0.082,0.546,0.252,0.628
	c0.164,0.087,0.334,0.295,0.501,0.63c0.167-0.334,0.416-1.007,0.754-2.013c0.167-0.503,0.334-0.919,0.505-1.257
	c0-0.334-0.085-0.461-0.252-0.377c-0.167,0.085-0.252-0.208-0.252-0.88h0.505v-2.516c-0.337,0-0.546-0.29-0.628-0.88
	c-0.088-0.585-0.297-1.046-0.631-1.383c-0.167-0.335-0.338-0.543-0.501-0.63c-0.171-0.082-0.252-0.29-0.252-0.628h-1.259
	c-0.167,0.338-0.461,0.628-0.88,0.88c-0.42,0.251-0.795,0.464-1.129,0.628l-0.757-0.754c0.505,0,0.795-0.251,0.88-0.754
	c0.085-0.503,0.167-1.006,0.252-1.509c0.082-0.503,0.208-0.919,0.379-1.257c0.164-0.334,0.584-0.418,1.256-0.253
	c-0.167-0.503-0.42-0.711-0.754-0.628c-0.338,0.085-0.59,0.125-0.754,0.125c0-0.334-0.085-0.503-0.252-0.503
	c-0.167,0-0.249-0.082-0.249-0.251c0.334-0.334,0.501-0.585,0.501-0.754c-0.839,0.169-1.344,0-1.508-0.503
	c-0.17-0.503-0.59-0.92-1.259-1.259h-1.76c0.334-0.667,0.29-1.131-0.127-1.384c-0.419-0.251-0.464-0.711-0.126-1.383
	c-0.338,0.339-0.546,0.548-0.628,0.629c-0.085,0.087-0.294,0.126-0.628,0.126c-0.338,0-0.842-0.165-1.511-0.503
	c-0.338-0.165-0.59-0.416-0.754-0.756c-0.338,0-0.754,0.295-1.259,0.882c-0.501,0.588-0.921,0.88-1.255,0.88l-1.007-0.503
	c-0.338-0.165-0.59-0.334-0.754-0.503c-0.171-0.165-0.423-0.252-0.754-0.252c-0.505,0-0.924,0.126-1.259,0.379
	c-0.338,0.251-0.67,0.546-1.005,0.88h-4.527c0,0.338-0.17,0.464-0.505,0.377c-0.338-0.083-0.672-0.126-1.007-0.126
	c0,0.841-0.375,1.383-1.129,1.635c-0.754,0.251-1.132,0.715-1.132,1.383h-2.514v0.251h-4.779l-0.252,0.503
	c0,0.169-0.086,0.251-0.253,0.251h-0.249c-0.338,0-0.631-0.124-0.88-0.377c-0.252-0.251-0.549-0.377-0.88-0.377
	c-0.338,0-0.674,0.126-1.008,0.377c-0.338,0.253-0.754,0.377-1.257,0.377c-0.338,0.503-0.754,0.756-1.257,0.756
	c-0.503,0-0.925,0.337-1.259,1.006h-3.52c0,0.169-0.169,0.251-0.503,0.251h-0.251c-1.006,1.344-1.931,2.013-2.767,2.013
	c0.164,0.672,0.039,0.966-0.379,0.88c-0.42-0.083-0.715,0.043-0.88,0.377h-3.771c-0.171,0.672-0.464,0.88-0.882,0.629
	c-0.419-0.252-0.796-0.379-1.131-0.379c-0.841,1.007-1.886,1.636-3.144,1.887c-1.259,0.252-2.558,0.629-3.899,1.133
	c0,0.503-0.338,0.798-1.006,0.88c-0.672,0.087-1.175,0.126-1.508,0.126l-0.756,1.006c-1.007,0-1.803,0.251-2.39,0.754
	c-0.588,0.503-1.383,0.923-2.388,1.257c0,0.338,0.039,0.546,0.125,0.629c0.084,0.087-0.125,0.126-0.628,0.126h-0.252v-1.762h0.252
	v-2.263c0-0.334,0.082-0.503,0.251-0.503h0.252v-1.508h-0.756v-1.259c0.165-0.333,0.252-0.585,0.252-0.754
	c0-0.335-0.087-0.754-0.252-1.257l0.252-0.756h1.257c0.334,0.338,0.585,0.503,0.754,0.503h0.503
	c0.165,0.169,0.416,0.253,0.755,0.253c0.333-0.334,0.711-0.46,1.131-0.377c0.416,0.085,0.88,0.124,1.383,0.124v-1.257h-1.257
	l1.51-2.013h-1.51l-0.252,0.503h-0.251c-0.338-0.334-0.546-0.416-0.629-0.25c-0.085,0.169-0.295,0.085-0.628-0.253v-0.754
	c0.333-0.334,0.667-0.503,1.005-0.503c0-0.837,0.04-1.341,0.127-1.509c0.083-0.164,0.292-0.416,0.629-0.754h0.754
	c0.503,0.338,0.503,0.841,0,1.509h2.516l1.007-3.27h0.501c-0.338-0.669-0.294-1.088,0.126-1.259c0.416-0.164,0.63-0.416,0.63-0.754
	c0-0.838,0.165-1.341,0.503-1.509c0.165-0.667,0.25-1.088,0.25-1.257c0.503-0.837,1.046-1.592,1.636-2.263
	c0.585-0.669,0.88-1.51,0.88-2.516l1.509-1.257c0.333-1.006,0.754-1.842,1.257-2.514c0.503-0.669,1.006-1.423,1.51-2.265
	l-0.756-0.501c0-0.668,0.416-1.006,1.257-1.006c0-0.838,0.084-1.341,0.253-1.51l0.503-0.503c0-0.334-0.126-0.543-0.377-0.63
	c-0.252-0.082-0.379-0.29-0.379-0.628c0.166-0.503,0.418-1.006,0.756-1.509c0.667-1.007,1.089-1.592,1.257-1.76v-3.522h0.754v-2.514
	c-0.501,0-0.754-0.165-0.754-0.503v-0.25c0-0.166,0.252-0.418,0.754-0.756v-2.514h-0.754v-2.767c-0.338,0-0.503-0.126-0.503-0.379
	c0-0.25-0.087-0.459-0.251-0.628h-2.767c0,0.169,0.039,0.251,0.124,0.251c0.084,0,0.126,0.169,0.126,0.503v0.252h-1.257
	c-0.169-0.503-0.377-1.006-0.63-1.509c-0.25-0.503-0.377-1.172-0.377-2.013c-0.672-0.334-1.383-0.793-2.137-1.383
	c-0.756-0.585-1.552-1.045-2.39-1.383v-0.503c-0.841,0.338-1.47,0.377-1.886,0.126c-0.421-0.251-0.88-0.542-1.383-0.88
	c-0.169-0.165-0.377-0.252-0.629-0.252c-0.251,0-0.546-0.164-0.88-0.502h-1.257c-0.169-0.334-0.464-0.503-0.88-0.503
	c-0.421,0-0.798,0-1.132,0c-0.169-0.166-0.42-0.253-0.754-0.253v0.253h-4.276v0.503h-3.017c-0.169,0-0.253-0.084-0.253-0.252v-0.251
	h-8.299c0,0.338,0.039,0.503,0.126,0.503c0.082,0,0.126,0.169,0.126,0.502l-0.252,0.252v0.503c0.165,0,0.252,0.087,0.252,0.251
	h-0.252c-0.841,0-1.257-0.251-1.257-0.754c0.165-0.165,0.251-0.416,0.251-0.754h-1.005v1.257c0.501,0,0.754,0.419,0.754,1.257
	c-0.338,0-0.63-0.039-0.88-0.126c-0.253-0.082-0.546,0.044-0.88,0.379h-2.264c-0.339,0.338-0.756,0.546-1.259,0.628
	c-0.503,0.087-0.923,0.464-1.257,1.133h-2.263c0,0.503-0.169,0.672-0.503,0.503c-0.337-0.166-0.59-0.084-0.754,0.251h-2.767
	c0.333,0.503,0.29,0.756-0.126,0.756c-0.421,0-0.798,0-1.133,0c-0.503,0.169-1.005,0.251-1.508,0.251
	c-0.672,0.337-1.344,0.714-2.012,1.132c-0.672,0.42-1.344,0.628-2.013,0.628c-0.338,0.338-0.797,0.546-1.383,0.629
	c-0.589,0.086-1.218,0.212-1.886,0.377c-0.338,0.672-0.628,0.923-0.88,0.754c-0.251-0.164-0.464-0.251-0.628-0.251
	c-0.503,0.338-1.051,0.59-1.636,0.754c-0.589,0.169-0.967,0.59-1.131,1.259c0,0.169,0.164,0.251,0.503,0.251
	c0.164,0,0.251,0.087,0.251,0.251v0.253c0,0.338-0.169,0.503-0.503,0.503c-0.503-0.837-1.175-1.257-2.013-1.257
	c-0.672,0-1.131,0.337-1.383,1.005c-0.25,0.672-1.552,1.175-3.897,1.509c-0.169,0.503-0.503,0.798-1.006,0.88
	c-0.503,0.087-1.092,0.295-1.76,0.629c-0.503,0.841-1.301,1.344-2.39,1.509c-1.093,0.169-2.137,0.502-3.144,1.005
	c0,0.34-0.126,0.548-0.377,0.629c-0.252,0.087-0.379,0.212-0.379,0.377c-1.339,0.338-2.471,0.798-3.394,1.383
	c-0.919,0.59-2.052,1.049-3.396,1.383c-0.669,0.672-1.509,1.175-2.514,1.51c-1.007,0.337-1.762,0.841-2.265,1.509l-3.771,1.006
	c-0.334,1.508-1.259,2.098-2.767,1.76c-0.334,0.338-0.795,0.588-1.383,0.754c-0.587,0.169-1.045,0.59-1.383,1.257h-1.259
	c-0.334,0.339-0.628,0.672-0.88,1.006c-0.25,0.338-0.628,0.421-1.131,0.253c-0.166,0.338-0.334,0.546-0.503,0.628
	c-0.166,0.087-0.253,0.213-0.253,0.377c-0.334,0-0.585,0.087-0.754,0.252c-0.165,0.169-0.416,0.251-0.754,0.251
	c-0.334,0-0.543-0.082-0.63-0.251c-0.082-0.165-0.292-0.252-0.629-0.252c-0.334,0.339-0.793,0.798-1.383,1.383
	c-0.516,0.52-0.897,1.084-1.22,1.664l-0.161-0.028c-0.841,0-1.509,0.087-2.013,0.251c-0.338-0.333-0.628-0.459-0.88-0.377
	c-0.251,0.087-0.464-0.039-0.629-0.377v-2.516h-1.257c-0.672,0.503-1.218,0.756-1.634,0.756c-0.421,0-0.967,0.169-1.636,0.503
	c-0.169,0.338-0.338,0.503-0.503,0.503c-0.169,0-0.251,0.085-0.251,0.251h-2.013c0,0.338,0.083,0.59,0.252,0.756
	c0.164,0.169,0.251,0.338,0.251,0.501c-0.503,0.34-0.967,0.59-1.383,0.756c-0.42,0.169-0.799,0.42-1.131,0.754h-0.756
	c0.165,0.672,0.126,1.049-0.126,1.133c-0.251,0.085-0.462,0.295-0.628,0.628v3.522c0,0.169,0.039,0.251,0.126,0.251
	c0.082,0,0.125,0.087,0.125,0.252v0.251v0.503c-0.503,0-0.923,0.087-1.257,0.251h-2.263c-0.338,0.34-0.672,0.63-1.007,0.882
	c-0.338,0.251-0.841,0.377-1.51,0.377c-0.337,0.841-0.841,1.426-1.508,1.76c0,0.169-0.044,0.464-0.126,0.88
	c-0.087,0.421-0.295,0.63-0.629,0.63v0.754c0.334-0.165,0.587-0.126,0.756,0.126c0.164,0.251,0.416,0.464,0.754,0.627v2.516
	c-0.169,0-0.251,0.043-0.251,0.126c0,0.085-0.087,0.124-0.252,0.124h-0.251l2.767,1.006v1.51l-1.51,1.257v1.006h0.754l0.503-0.251
	h2.264c0.334,0.169,0.669,0.377,1.006,0.628c0.334,0.252,0.503,0.547,0.503,0.88h6.539c0.334,0.672,0.669,1.094,1.006,1.259
	c0.334,0.169,0.503,0.672,0.503,1.508c0.836,0.339,1.673,0.88,2.514,1.635c0.838,0.754,1.257,1.553,1.257,2.39
	c0.837-0.166,1.133,0.043,0.882,0.628c-0.252,0.59-0.213,1.049,0.125,1.383v4.025c-0.338,0.338-0.42,0.628-0.251,0.88
	c0.165,0.251,0.165,0.464,0,0.628h-0.756v3.019c-0.338,0.169-0.589,0.546-0.754,1.131c-0.169,0.59-0.503,0.967-1.006,1.133v4.779
	c0,0.134,0,0.197,0,0.251c0-0.165-0.085-0.082-0.251,0.252v2.767c-0.338,0.338-0.546,0.715-0.63,1.131
	c-0.087,0.421-0.295,0.967-0.627,1.636h-0.503v2.514c-0.34,1.006-0.798,1.886-1.383,2.641c-0.59,0.755-1.051,1.552-1.383,2.389
	c-0.339,0.338-0.717,0.798-1.133,1.383c-0.42,0.59-0.798,1.133-1.133,1.636v0.503v0.251h-1.257c-0.338,0.503-0.672,1.093-1.007,1.76
	c-0.337,0.672-0.841,1.094-1.508,1.259c-1.006,1.344-1.931,2.011-2.767,2.011c0,0.841-0.087,1.427-0.253,1.76
	c-0.672,0-1.218,0.339-1.634,1.006c-0.421,0.672-0.88,1.093-1.383,1.257c-0.169,0.339-0.672,0.503-1.51,0.503
	c-0.841,0.672-1.595,1.301-2.263,1.886c-0.672,0.59-1.509,1.049-2.516,1.383c-0.338,0.338-0.715,0.59-1.131,0.756
	c-0.421,0.169-0.88,0.589-1.383,1.257h-2.766c0,0.503-0.253,0.967-0.756,1.383c-0.503,0.421-0.923,0.629-1.257,0.629h-0.251
	c-0.169,0-0.34-0.165-0.503-0.503h-2.264c0,0.338-0.169,0.503-0.503,0.503h-6.037l-4.025-2.012v-0.503
	c-0.169-0.334-0.42-0.461-0.754-0.377c-0.338,0.087-0.59-0.039-0.754-0.377h-2.516c-0.169-0.334-0.672-0.503-1.509-0.503
	c-0.672-0.335-1.218-0.669-1.634-1.007c-0.421-0.334-0.967-0.669-1.634-1.006c-0.34-0.838-0.882-1.591-1.636-2.264
	c-0.754-0.669-1.133-1.509-1.133-2.516l-2.011-2.263v-3.27c-0.338,0-0.546-0.082-0.629-0.25c-0.085-0.166-0.295-0.251-0.628-0.251
	v-3.019h-0.252v-3.27c-0.841,0.338-1.344,0.338-1.51,0c-0.169-0.334-0.25-0.585-0.25-0.754c0.334-0.334,0.629-0.711,0.88-1.133
	c0.251-0.416,0.542-0.627,0.88-0.627v-4.779h0.252v-3.521c0.502-0.334,0.712-0.669,0.628-1.006
	c-0.085-0.334-0.126-0.669-0.126-1.006h0.756v-1.257c0.334-0.334,0.503-0.542,0.503-0.629c0-0.082,0.082-0.208,0.251-0.377
	c0.334-0.668,0.542-1.341,0.629-2.013c0.082-0.669,0.29-1.006,0.628-1.006v-2.263l2.013-2.515l0.756-1.509
	c-0.171,0-0.34-0.082-0.503-0.253c-0.169,0-0.252-0.082-0.252-0.25c0.334,0,0.629-0.127,0.88-0.377
	c0.252-0.252,0.46-0.377,0.629-0.377c-0.169-0.334,0-0.669,0.503-1.006c0.503-0.334,0.92-0.416,1.257-0.252v-0.754h-2.013v-0.251
	c0.165,0,0.292-0.166,0.379-0.503c0.082-0.334,0.377-0.503,0.88-0.503c0.164,0,0.251,0.169,0.251,0.503
	c0,0.338,0.166,0.503,0.503,0.503l2.013-2.516c0.334-1.006,0.88-1.844,1.634-2.516c0.756-0.667,1.549-1.423,2.39-2.263v-0.754h0.754
	c0-1.172,0.334-1.76,1.007-1.76c-0.169-0.669,0-1.172,0.503-1.509c0.503-0.335,0.92-0.335,1.257,0
	c0.669-0.669,1.215-1.383,1.636-2.138c0.416-0.756,1.046-1.132,1.886-1.132c0.334-0.165,0.503-0.503,0.503-1.007
	c0.334,0.169,0.711-0.082,1.131-0.754c0.416-0.669,0.795-1.007,1.133-1.007c0-0.503,0.165-0.754,0.503-0.754h0.251l0.503-0.503
	c0-0.165,0.082-0.252,0.253-0.252c0.163,0,0.25-0.164,0.25-0.503h0.754c0.334-0.164,0.629-0.416,0.88-0.754
	c0.252-0.334,0.46-0.585,0.629-0.754c0.669,0,1.296-0.334,1.886-1.007c0.585-0.669,1.045-1.172,1.383-1.509h0.251l0.503-0.503
	c0-0.166,0.084-0.251,0.253-0.251c0.166,0,0.251-0.165,0.251-0.503c1.007-0.165,1.76-0.542,2.263-1.132
	c0.503-0.585,1.172-0.962,2.013-1.131v-0.756h1.257c0-0.333,0.083-0.628,0.252-0.88c0.166-0.251,0.251-0.542,0.251-0.88
	c1.509,0.338,2.471,0.043,2.893-0.88c0.416-0.92,1.297-1.549,2.641-1.886c0.334-0.503,0.795-0.669,1.383-0.503
	c0.587,0.169,0.88-0.165,0.88-1.006c1.007,0,1.592-0.124,1.762-0.377c0.164-0.251,0.667-0.542,1.508-0.88
	c0.669-0.166,1.046-0.629,1.133-1.383c0.082-0.754,0.628-0.962,1.634-0.629c0.669-0.333,1.298-0.667,1.886-1.005
	c0.587-0.334,1.298-0.669,2.139-1.007c0.503-0.334,0.919-0.88,1.257-1.636c0.334-0.754,1.007-0.962,2.012-0.628
	c0-0.503,0.082-0.88,0.251-1.133c0.165-0.251,0.251-0.711,0.251-1.383c0.503-0.334,0.921-0.669,1.259-1.006
	c0.334-0.334,0.667-0.667,1.006-1.005l1.257-0.756c0.334-0.334,0.459-0.838,0.377-1.51c-0.087-0.667,0.208-1.088,0.88-1.257v-0.754
	c-0.338,0.169-0.63,0.043-0.88-0.377c-0.251-0.418-0.546-0.629-0.88-0.629c0.334-0.165,0.669-0.252,1.006-0.252
	c0.166,0,0.377,0.126,0.628,0.379c0.253,0.251,0.543,0.377,0.88,0.377c0.334,0,0.795-0.208,1.383-0.629
	c0.587-0.416,0.882-0.711,0.882-0.88c0.667-0.334,1.257-0.503,1.76-0.503c0.667-0.334,1.215-0.627,1.634-0.88
	c0.416-0.251,0.964-0.208,1.636,0.126c0-0.837-0.338-1.257-1.007-1.257c-0.338-0.837-0.672-1.259-1.006-1.259
	c-0.338,0.338-0.59,0.503-0.754,0.503h-0.252c-1.175,0-1.508-0.585-1.006-1.761h-1.76c0,0.841-0.672,1.257-2.011,1.257
	c-0.169,0-0.379-0.125-0.629-0.377c-0.253-0.251-0.546-0.377-0.88-0.377c-0.338,0-1.257,0.464-2.767,1.383
	c-1.509,0.923-2.601,1.383-3.27,1.383c-0.169,0.338-0.464,0.715-0.88,1.131c-0.421,0.421-0.798,0.464-1.133,0.126
	c-1.006,1.006-2.098,1.761-3.27,2.264c-1.175,0.503-2.514,0.924-4.024,1.259c-0.338,0-0.715,0.212-1.133,0.628
	c-0.42,0.421-1.049,0.546-1.885,0.377c-0.503,0.672-1.175,1.006-2.012,1.006c-0.672,0.672-0.924,1.007-0.754,1.007
	c-0.672,0.338-1.383,0.59-2.139,0.754c-0.754,0.169-1.383,0.421-1.886,0.756c0,0.672-0.338,1.049-1.006,1.131
	c-0.672,0.087-1.344,0.126-2.011,0.126c-0.503,0.338-0.88,0.841-1.132,1.509c-0.251,0.672-0.88,0.672-1.886,0v1.257
	c-1.344,0-2.514,0.672-3.52,2.013c-1.007,0.169-1.929,0.464-2.767,0.88c-0.841,0.42-1.426,1.218-1.76,2.39
	c-0.672,0-1.428,0.169-2.263,0.503c-0.841,0.338-1.679,0.672-2.516,1.005c0,0.34-0.087,0.548-0.251,0.629
	c-0.169,0.087-0.252,0.295-0.252,0.63h-1.51c-0.337,0.338-0.672,0.754-1.005,1.257c-0.339,0.503-0.841,0.59-1.509,0.251
	c-0.503,0.34-0.924,0.63-1.257,0.882c-0.339,0.251-0.924,0.462-1.762,0.628c-0.338,0.503-0.588,0.841-0.754,1.007
	c-0.169,0.169-0.251,0.421-0.251,0.754c-0.339,0.169-0.798,0.503-1.383,1.006c-0.59,0.503-0.882,1.093-0.882,1.76
	c-0.672,0.169-1.131,0.464-1.383,0.88c-0.251,0.421-0.715,0.63-1.383,0.63c-0.338,0.338-0.672,0.715-1.005,1.133
	c-0.339,0.419-0.924,0.464-1.762,0.125c-0.672,0.672-1.092,1.383-1.257,2.139c-0.169,0.754-0.841,0.967-2.013,0.628l-2.514,2.766
	c0,0.672-0.295,1.259-0.88,1.762c-0.59,0.503-1.218,0.754-1.886,0.754v1.257l-4.779,4.276c0,0.672-0.295,1.218-0.88,1.634
	c-0.589,0.421-1.218,0.967-1.887,1.636c0,0.841-0.42,1.509-1.257,2.012c-0.841,0.502-1.257,1.174-1.257,2.011
	c-1.344,0.841-2.39,1.974-3.145,3.396c-0.754,1.426-1.552,2.893-2.388,4.401h-0.253c0,0.672-0.169,1.05-0.503,1.133
	c-0.338,0.087-0.589,0.295-0.754,0.629v1.508c-0.672,0-1.175,0.338-1.51,1.006c-0.337,0.672-0.503,1.344-0.503,2.013h-0.754
	c-0.338,0.338-0.464,0.714-0.377,1.131c0.082,0.421-0.213,0.798-0.88,1.133c-0.339,0.672-0.548,1.257-0.63,1.76
	c-0.087,0.503-0.464,1.006-1.132,1.509c-0.169,0.338-0.251,0.589-0.251,0.754c0,0.169-0.169,0.421-0.503,0.756v1.257h1.257v1.257
	h-1.508c-0.339,0.503-0.547,1.006-0.629,1.509c-0.087,0.503-0.295,1.007-0.63,1.51c0,0.501,0.039,0.923,0.126,1.257
	c0.082,0.338-0.126,0.589-0.63,0.754c0,0.503,0.04,0.967,0.126,1.383c0.082,0.421-0.042,0.63-0.377,0.63v3.27h-0.754v4.778
	c-0.17,0-0.339,0.087-0.503,0.253v0.251c0,0.503,0.164,0.756,0.503,0.756v3.27c0.836,0,1.339,0,1.508,0
	c0.165,0,0.587,0.085,1.259,0.251c-0.339,0.841-0.798,1.175-1.383,1.006c-0.59-0.165-1.05-0.082-1.383,0.251v2.012
	c0.667,0.169,1.005,1.257,1.005,3.27c0.334,0.503,0.756,1.006,1.259,1.509c0.503,0.503,0.667,1.175,0.503,2.011
	c0.667,0.503,1.005,1.175,1.005,2.012c0.503,0.838,0.964,1.51,1.383,2.013c0.418,0.503,0.795,1.17,1.132,2.011
	c1.006,1.006,2.095,1.97,3.27,2.893c1.17,0.92,1.925,2.052,2.263,3.396c0.668,0.334,1.088,0.793,1.257,1.383
	c0.166,0.585,0.669,0.711,1.51,0.377l1.257,1.006c0.334,0.334,0.756,0.503,1.259,0.503v0.503h5.533
	c0.503,0.333,0.754,0.667,0.754,1.005h3.27v0.503h2.514l0.253,0.503h5.28c0,0.165,0.084,0.334,0.253,0.503
	c0,0.165,0.082,0.252,0.251,0.252c0.165-0.339,0.711-0.755,1.636-1.259c0.919-0.503,1.549-0.754,1.886-0.754
	c0-0.169,0.082-0.253,0.251-0.253l0.503,0.503h4.024c0-0.503,0.21-0.672,0.629-0.503c0.416,0.166,0.711,0.084,0.88-0.251
	c0.334-0.169,0.585-0.338,0.756-0.503c0.164-0.169,0.333-0.251,0.502-0.251v0.503h1.259c-0.337-0.672-0.126-0.882,0.628-0.629
	c0.756,0.251,1.383,0.039,1.887-0.63h2.767c0.669-0.503,1.423-0.754,2.263-0.754c0.669-0.503,1.383-0.841,2.139-1.006
	c0.754-0.169,1.549-0.42,2.39-0.754c0.164-0.672,0.416-0.967,0.754-0.88c0.334,0.082,0.585,0.125,0.754,0.125
	c0.503-0.338,1.09-0.503,1.762-0.503l0.754-0.754c0.334,0,0.629-0.126,0.88-0.377c0.251-0.253,0.629-0.377,1.132-0.377
	c0.333-0.338,0.585-0.672,0.754-1.006c0.165-0.338,0.503-0.503,1.006-0.503v-0.503h2.264c0.837-0.338,1.465-0.672,1.886-1.006
	c0.416-0.337,1.045-0.503,1.887-0.503l3.017-1.508h2.264c0-0.503,0.208-0.841,0.63-1.006c0.416-0.169,0.711-0.421,0.88-0.756
	c0-0.169-0.043-0.42-0.126-0.754c-0.085-0.334-0.043-0.503,0.126-0.503h1.006c-0.338-0.503-0.253-0.88,0.251-1.131
	c0.503-0.252,1.09-0.379,1.76-0.379c0-0.333,0.252-0.503,0.756-0.503v-0.501c0-0.165,0.082-0.252,0.251-0.252
	c0.334,0,0.503-0.251,0.503-0.754c0.838,0.338,1.509,0.169,2.013-0.503c0.503-0.669,0.92-1.172,1.257-1.509
	c0.503,0,1.006-0.416,1.51-1.257h1.257c0.669-0.166,1.089-0.416,1.257-0.756c0.166-0.333,0.503-0.585,1.006-0.754v-1.509
	c0.503,0,1.088-0.334,1.76-1.006c0.166,0,0.292-0.125,0.379-0.377c0.082-0.251,0.459-0.377,1.131-0.377
	c0-0.838,0.165-1.465,0.503-1.887c0.334-0.416,0.754-0.754,1.257-1.006c0.503-0.251,0.964-0.542,1.384-0.88
	c0.418-0.334,0.711-0.836,0.882-1.508h2.011c0.669-1.172,1.51-2.095,2.516-2.767c0-1.006,0.377-1.718,1.131-2.139
	c0.756-0.416,1.549-0.711,2.39-0.88l1.509-1.257l1.76-1.259v-3.268c0.334-0.334,0.629-0.756,0.88-1.259
	c0.252-0.503,0.711-0.836,1.383-1.007v-0.754c-0.169,0-0.42-0.166-0.754-0.503v-0.754c0.334,0,0.667-0.126,1.007-0.377
	c0.332-0.252,0.754-0.292,1.257-0.126c-0.503-0.503-0.338-0.754,0.503-0.754c0-0.838,0.416-1.341,1.257-1.51
	c0.837-0.165,1.341-0.587,1.509-1.257c-0.338-0.334-0.464-0.503-0.377-0.503c0.082,0,0.125-0.083,0.125-0.252l0.503-1.006
	c0.166-0.164,0.334-0.416,0.503-0.754c0.334-0.334,0.585-0.711,0.756-1.133c0.163-0.416,0.332-0.628,0.501-0.628v-1.76
	c0.334-0.166,0.542-0.253,0.629-0.253c0.082,0,0.292-0.166,0.63-0.503h2.514c0.334-0.334,0.587-0.667,0.756-1.006
	c0.164-0.333,0.416-0.667,0.754-1.005v-2.516c-0.338-0.165-0.421-0.46-0.251-0.88c0.164-0.416,0.082-0.795-0.252-1.133h-2.013
	v-2.011c0.837-0.334,1.133-0.756,0.882-1.259c-0.252-0.501,0.125-1.005,1.131-1.508c-0.169-0.334-0.087-0.587,0.252-0.756
	c0.333-0.164,0.667-0.416,1.005-0.754c0-0.165,0.166-0.416,0.503-0.754v-3.773c-0.338-0.165-0.588-0.334-0.754-0.503
	c-0.169-0.165-0.338-0.252-0.503-0.252c0-1.673,0-2.68,0-3.017c0-0.334,0.082-0.503,0.251-0.503c0.669,0.169,0.964,0.464,0.882,0.88
	c-0.087,0.421,0.04,0.798,0.377,1.132v-2.516c-0.169-0.334-0.464-0.92-0.88-1.76c-0.421-0.837-1.051-1.423-1.886-1.76v-2.264h-0.756
	c0-0.837-0.085-1.34-0.25-1.509c-0.169-0.165-0.253-0.668-0.253-1.509c-0.841,0.338-1.344,0.295-1.508-0.126
	c-0.169-0.416-0.421-0.711-0.756-0.88v-1.257l-2.011-1.257c-0.338-0.669-0.716-1.215-1.133-1.636
	c-0.378-0.375-0.62-0.889-0.792-1.472l0.163-0.162c0.503-1.34,1.257-2.302,2.263-2.893c1.006-0.585,2.181-1.046,3.52-1.384
	c0.34,0,0.464-0.165,0.379-0.503c-0.083-0.334,0.043-0.669,0.377-1.006h2.011c-0.333-0.334-0.251-0.503,0.252-0.503h0.503
	c0.503,0,0.923,0.169,1.257,0.503c0.169,0,0.213-0.082,0.126-0.251c-0.083-0.166-0.039-0.253,0.127-0.253h3.268h0.756
	c-0.169,0-0.338-0.208-0.503-0.627c-0.169-0.416-0.252-0.711-0.252-0.88c0-0.669,0.503-1.214,1.509-1.636
	c1.007-0.416,1.675-0.627,2.013-0.627v-1.006c1.17,0.169,1.968-0.039,2.39-0.629c0.416-0.585,1.296-0.711,2.641-0.377
	c-0.338-0.838-0.169-1.172,0.503-1.006c0.669,0.169,1.17,0.252,1.51,0.252c0.503-0.165,1.005-0.252,1.508-0.252v-1.257
	c0.669,0.338,1.172,0.338,1.51,0c0.334-0.334,0.585-0.585,0.754-0.756h2.516v-0.754h4.276v-0.503h5.03v0.503h3.52
	c1.006,1.006,2.178,1.509,3.522,1.509c0.334,0.672,0.667,1.218,1.005,1.634c0.334,0.421,0.837,0.798,1.509,1.132v6.79
	c-0.337,0-0.546,0.169-0.628,0.503c-0.087,0.338-0.295,0.503-0.629,0.503c0,1.509-0.338,2.767-1.006,3.773
	c-0.672,1.006-1.006,2.182-1.006,3.521c-0.338,0.503-0.589,0.924-0.754,1.257c-0.169,0.34-0.421,0.925-0.754,1.762h-0.503
	c-0.169,0.169-0.253,0.338-0.253,0.503c0,0.169-0.169,0.419-0.503,0.754v1.006c-0.672,0.672-0.923,1.006-0.754,1.006
	c0,0.502-0.213,1.131-0.629,1.887c-0.42,0.754-0.797,1.552-1.131,2.388h-0.756c0.334,1.006,0.252,1.847-0.251,2.516
	c-0.503,0.672-1.093,1.175-1.76,1.509c-0.338,1.847-1.006,2.936-2.013,3.27c0,0.501-0.251,0.841-0.754,1.005v1.762
	c-0.338,0.338-0.629,0.672-0.88,1.005c-0.252,0.34-0.213,0.672,0.125,1.006c-0.338,0-0.754,0.253-1.257,0.756v2.011
	c-0.503-0.334-1.007-0.251-1.51,0.253v3.27c-0.841,0-1.508,0.251-2.011,0.754c0.164,0.338,0.082,0.629-0.253,0.88
	c-0.337,0.252-0.672,0.546-1.006,0.88v1.509c-0.338,0.338-0.628,0.672-0.88,1.006c-0.251,0.337-0.377,0.841-0.377,1.508
	c-0.169,0-0.251,0.044-0.251,0.126c0,0.087-0.169,0.126-0.503,0.126l-0.756,2.767c-0.338,0-0.503,0.087-0.503,0.25
	c0,0.169-0.085,0.253-0.251,0.253c0,0.503-0.169,0.923-0.503,1.257c-0.338,0-0.503,0.043-0.503,0.126
	c0,0.087-0.338,0.295-1.007,0.629c0.165,0.67,0.084,1.092-0.251,1.257c-0.338,0.169-0.672,0.42-1.006,0.754
	c-0.338,1.175-0.754,2.098-1.257,2.767c-0.503,0.672-0.841,1.596-1.006,2.766c-0.672,0.672-1.383,1.344-2.138,2.013
	c-0.756,0.672-1.132,1.51-1.132,2.514l-0.503,1.51h-1.509c0,0.672-0.338,1.301-1.005,1.886c-0.672,0.59-1.007,1.049-1.007,1.383
	c0,0.169,0.039,0.252,0.125,0.252c0.083,0,0.126,0.169,0.126,0.501h-1.006v1.259c0.503,0,0.837,0.251,1.006,0.754
	c0,0.338,0.084,0.503,0.253,0.503c0.164,0,0.251,0.251,0.251,0.754c0,0.672-0.169,1.344-0.503,2.012
	c-0.337,0.169-0.503,0.338-0.503,0.503c0,0.169-0.169,0.251-0.503,0.251v1.259h0.755v3.52c0.334,0,0.459,0.251,0.377,0.754
	c-0.087,0.503-0.126,0.925-0.126,1.259c0.503,0,0.712,0.124,0.63,0.377c-0.087,0.251-0.126,0.546-0.126,0.88
	c0.334,0.337,0.711,0.464,1.133,0.377c0.416-0.082,0.88,0.126,1.383,0.629h2.264v-0.756h3.27c0,0.503,0.251,0.756,0.754,0.756
	c1.172,0,1.591-0.503,1.257-1.509c0.837-0.334,1.549-0.793,2.139-1.383c0.585-0.585,1.214-1.214,1.886-1.886
	c-0.34,0-0.672-0.251-1.007-0.754c0.503-0.165,0.711-0.252,0.628-0.252c-0.085,0,0.039-0.164,0.379-0.503h0.251
	c-0.169-0.667-0.126-1.044,0.126-1.131c0.251-0.083,0.459-0.208,0.628-0.377h2.516c0.334-0.669,0.669-1.172,1.007-1.51
	c0.334-0.334,0.919-0.503,1.76-0.503c0.668-0.334,1.214-0.711,1.636-1.133c0.416-0.416,1.044-0.459,1.885-0.124
	c0.334-0.669,0.63-1.088,0.882-1.259c0.251-0.164,0.541-0.585,0.88-1.257v-1.257c0.333-0.503,1.089-0.754,2.264-0.754
	c-0.169-0.503-0.044-0.964,0.377-1.383c0.416-0.418,0.962-0.461,1.634-0.126c-0.169-0.669,0.083-0.919,0.755-0.756
	c0.667,0.169,1.088,0.169,1.257,0c1.51-1.005,2.429-2.345,2.767-4.023h1.257c0-0.334,0.084-0.585,0.253-0.754
	c0.165-0.165,0.25-0.416,0.25-0.756h1.259v-1.005c0.501,0,1.088-0.165,1.76-0.503c0.667-0.334,1.088-0.92,1.257-1.762
	c-0.672,0-1.344-0.164-2.013-0.501c0.503-0.669,0.964-0.882,1.383-0.629c0.418,0.251,0.795,0.211,1.133-0.126
	c0.334,0,0.585-0.208,0.754-0.628c0.165-0.418,0.587-0.461,1.259-0.126V528.2h1.257c0-0.669,0.29-1.259,0.88-1.762
	c0.585-0.503,1.296-0.585,2.137-0.251c0.837-0.334,1.549-0.63,2.139-0.88c0.585-0.252,1.383-0.46,2.388-0.629
	c0.166-0.334,0.334-0.754,0.503-1.257c0.166-0.503,0.669-0.669,1.51-0.503c0.165-0.334,0.334-0.88,0.503-1.636
	c0.165-0.754,0.669-1.131,1.509-1.131c1.006-1.341,2.177-2.013,3.521-2.013c0.334-0.334,0.919-0.585,1.76-0.754
	c0.837-0.166,1.591-0.416,2.263-0.754c0.503-0.837,1.172-1.259,2.013-1.259c0.334-0.334,0.88-0.628,1.635-0.88
	c0.754-0.251,1.547-0.459,2.388-0.628c0.669-0.334,1.215-0.629,1.636-0.882c0.416-0.25,1.046-0.29,1.886-0.124
	c0-0.669,0.251-1.006,0.754-1.006c0.334,0,0.585,0.043,0.755,0.126c0.164,0.085,0.333,0.125,0.501,0.125
	c0.334-1.005,1.298-1.547,2.893-1.634c1.592-0.084,2.806-0.461,3.647-1.133h3.522v-0.754h5.531l1.76,1.257v2.264
	c0.167,0.169,0.253,0.338,0.253,0.503v4.026c-0.338,0-0.464,0.25-0.376,0.754c0.082,0.503-0.044,0.923-0.379,1.257h-0.501
	c0,0.503-0.089,0.925-0.252,1.257v3.522c-0.843,0.338-1.218,0.754-1.133,1.257c0.082,0.503-0.126,0.841-0.628,1.006
	c0,0.503,0.038,0.923,0.126,1.257c0.082,0.338-0.044,0.59-0.379,0.756v3.771h-0.754v4.276h-0.503v3.773h-0.756v2.767h-0.503v4.276
	l-0.25,0.503v2.514c0,0.169,0.039,0.213,0.126,0.126c0.082-0.082,0.124-0.039,0.124,0.126v2.514c0.334,0.338,0.543,0.798,0.63,1.383
	c0.082,0.59,0.292,1.301,0.629,2.139h0.503v1.508c0.836,1.344,1.508,2.728,2.013,4.15c0.502,1.423,1.508,2.305,3.016,2.642
	c0,0.503,0.085,0.793,0.252,0.88c0.164,0.082,0.335,0.208,0.505,0.377c0.331,0.334,0.628,0.416,0.88,0.251
	c0.249-0.169,0.543-0.085,0.88,0.252c0.334,0.165,0.665,0.251,1.006,0.251c0.331,0,0.665,0.165,1.003,0.503h6.038
	c0,0.165,0.082,0.252,0.253,0.252h0.754c0.164,0,0.252-0.087,0.252-0.252c0,0.165,0.164,0.252,0.502,0.252h0.502
	c0.505,0,0.921-0.087,1.257-0.252h2.514c0-0.338,0.167-0.503,0.505-0.503h0.252c0.502,0,0.754,0.252,0.754,0.756h1.255
	c-0.337-0.338-0.249-0.672,0.253-1.006c0.505-0.338,0.921-0.503,1.259-0.503c0.334-0.169,0.583-0.546,0.754-1.133
	c0.164-0.588,0.586-0.715,1.259-0.377v-0.754c0.334-0.669,0.962-1.006,1.887-1.006c0.918,0,1.214-0.503,0.88-1.51
	c0.334,0.338,0.501,0.59,0.501,0.756h2.265c0.334-1.172,1.044-1.887,2.135-2.139c1.089-0.251,2.139-0.628,3.145-1.131
	c0.669-1.172,1.59-2.221,2.767-3.143c1.17-0.921,2.013-1.97,2.514-3.145l4.025-3.27h0.253c0.163,0,0.334-0.082,0.501-0.251
	c1.341-1.006,2.6-2.263,3.773-3.773c1.17-1.51,2.681-2.68,4.527-3.521c0.505-0.503,0.754-0.919,0.754-1.257
	c0.669,0,1.088-0.126,1.259-0.379c0.163-0.251,0.416-0.377,0.754-0.377c0.505-2.177,1.593-3.52,3.271-4.024
	c0.331-0.165,0.628-0.585,0.88-1.257c0.249-0.668,0.791-0.921,1.634-0.756c0.836-0.667,1.423-1.423,1.76-2.263
	c0.334-0.837,0.918-1.422,1.76-1.76c0.334-0.838,0.628-1.592,0.88-2.264c0.253-0.669,0.795-1.006,1.634-1.006h0.501l0.253,1.257
	c-0.672,0.338-0.969,0.548-0.883,0.63c0.085,0.087-0.041,0.295-0.376,0.629v2.011c-0.337,0.672-0.672,1.344-1.006,2.012
	c-0.338,0.672-0.672,1.176-1.006,1.51v3.268c0.334,0,0.505,0.17,0.505,0.503h-1.259c0,0.503-0.126,1.006-0.378,1.51
	c-0.249,0.503-0.546,1.006-0.88,1.51c-0.167-0.166-0.249-0.334-0.249-0.503c0-0.165-0.171-0.251-0.505-0.251v3.52
	c-0.338,0.503-0.628,1.092-0.88,1.76c-0.252,0.672-0.546,1.344-0.88,2.013c0.334,0,0.501,0.043,0.501,0.124
	c0,0.087,0.085,0.127,0.252,0.127h0.253c0,0.337-0.171,0.503-0.505,0.503c-0.338,0-0.501,0.169-0.501,0.503l0.501,0.251l0.505,0.503
	l-1.259,2.012h-0.754c0.164,0.841,0.041,1.383-0.379,1.634c-0.42,0.252-0.628,0.464-0.628,0.629c0,0.338-0.044,0.715-0.126,1.133
	c-0.085,0.419-0.293,0.715-0.628,0.88c0.164,0.169,0.334,0.25,0.501,0.25h0.253v0.253h-0.253v2.767
	c-0.672,0.338-0.965,0.588-0.88,0.754c0.085,0.169-0.041,0.421-0.375,0.754v0.503c0.334,0.338,0.501,0.421,0.501,0.252
	c0,0.053,0,0.117,0,0.251v2.263h-1.007c0-0.169-0.126-0.338-0.375-0.503c-0.253-0.169-0.379-0.416-0.379-0.754h-0.253
	c0,0.338-0.167,0.585-0.501,0.754c-0.338,0.166-0.505,0.334-0.505,0.503c0.669,0,0.921,0.208,0.757,0.629
	c-0.171,0.416-0.089,0.793,0.249,1.133c0.167,0,0.253,0.082,0.253,0.251c-0.839,0.334-1.259,0.838-1.259,1.51
	c0,0.667,0.167,1.046,0.505,1.131c0.334,0.083,0.501,0.292,0.501,0.629c0,0.165-0.211,0.542-0.627,1.131
	c-0.42,0.587-0.799,0.964-1.133,1.132v2.013c-0.167,0.334-0.419,0.542-0.754,0.628c-0.338,0.084-0.501,0.292-0.501,0.63
	c0,0.334,0.163,0.46,0.501,0.377c0.334-0.087,0.505,0.208,0.505,0.88c-0.505,0.166-0.843,0.416-1.006,0.756
	c-0.171,0.333-0.505,0.503-1.007,0.503c0,0.333-0.089,0.585-0.252,0.754c-0.171,0.166-0.253,0.416-0.253,0.754h1.259
	c0,0.334-0.253,0.587-0.754,0.755v2.514c0.334,0,0.501,0.039,0.501,0.126c0,0.082,0.082,0.126,0.253,0.126
	c0,0.332-0.044,0.416-0.126,0.251c-0.086-0.169-0.294-0.087-0.628,0.253c0,0.332-0.126,0.754-0.379,1.257
	c-0.252,0.503-0.375,0.838-0.375,1.007c0,0.334,0.037,0.628,0.123,0.88c0.085,0.25,0.126,0.542,0.126,0.88
	c0,0.503-0.085,0.919-0.249,1.257v3.522h-0.505v8.801c0.334,0.165,0.416,0.503,0.252,1.006c-0.17,0.503-0.089,0.919,0.253,1.259
	c0.163,0,0.249,0.164,0.249,0.503v0.251l-0.249,0.503v2.514c-0.341,0.166-0.505,0.587-0.505,1.259v0.503
	c0,0.333,0.164,0.503,0.505,0.503v4.023h-0.505v3.27c0.334,0.165,0.416,0.542,0.252,1.131c-0.17,0.587,0,0.964,0.501,1.133v4.276
	h1.512v2.767h1.255l-0.249,0.251v1.257h0.754c-0.672-1.677-0.171-2.18,1.508-1.508v-1.259c-0.338,0.334-0.464,0.292-0.375-0.125
	c0.082-0.421,0.123-0.798,0.123-1.132h-1.255c0.164-0.338,0.461-0.464,0.88-0.377c0.416,0.082,0.795-0.043,1.132-0.377l1.256,1.257
	v3.017c0.505,0,0.669,0.21,0.505,0.63c-0.17,0.416-0.088,0.795,0.249,1.133h0.757c0,0.164-0.089,0.251-0.252,0.251
	c-0.171,0-0.253,0.165-0.253,0.503c0,0.166,0.082,0.416,0.253,0.754c0.163,0.334,0.668,0.503,1.508,0.503l0.505,0.503
	c0.164,0.166,0.249,0.334,0.249,0.503c0.334-0.169,0.505-0.42,0.505-0.754c0.163,0.503,0.416,0.754,0.754,0.754l0.505-0.503
	c0.502-0.503,0.754-0.672,0.754-0.503c0-0.169-0.17-0.42-0.505-0.754l-0.249-0.252c0.164-0.169,0.331-0.251,0.502-0.251
	c0.163,0,0.252-0.169,0.252-0.503c0-0.169-0.126-0.338-0.379-0.503c-0.252-0.169-0.375-0.42-0.375-0.754
	c0-0.672,0.331-1.175,1.003-1.509v-2.263c-0.338-0.338-0.587-0.715-0.754-1.133c-0.167-0.419-0.42-1.049-0.754-1.885
	c0.334-0.17,0.505-0.339,0.505-0.503c0-0.169,0.082-0.339,0.249-0.503h2.013v-1.762h0.754v0.503h1.259
	c-0.337-0.672-0.419-1.173-0.252-1.508c0.167-0.338,0.416-0.672,0.754-1.007c0.505,0.334,0.669,0.585,0.505,0.754
	c-0.17,0.166-0.089,0.503,0.253,1.006c0.501,0,0.754,0.082,0.754,0.251c-0.843,0.503-1.259,0.921-1.259,1.259
	c0,0.667,0.126,0.962,0.379,0.88c0.249-0.087,0.375,0.039,0.375,0.377l-0.249,0.252v1.76h0.249v-1.76h1.259v-1.006l-0.754-0.503
	c0-0.503,0.416-1.176,1.255-2.013v-2.013c0.167-0.338,0.253-0.588,0.253-0.754c0-0.338-0.044-0.546-0.126-0.629
	c-0.085-0.085-0.126-0.294-0.126-0.628c0.334-0.338,0.587-0.59,0.757-0.756c0.164-0.169,0.416-0.588,0.754-1.257
	c0.334,0.503,0.502,0.88,0.502,1.132c0,0.251,0,0.542,0,0.88c0.167,0.166,0.334,0.251,0.505,0.251h0.249v0.252
	c0,0.503-0.167,0.754-0.501,0.754h-0.252c0,1.006-0.167,1.76-0.502,2.263h1.508v-0.754l-0.252-0.252
	c0.167-0.338,0.334-0.672,0.505-1.005c0.164-0.34,0.252-0.672,0.252-1.007c0-0.338-0.089-0.629-0.252-0.88
	c-0.171-0.253-0.253-0.464-0.253-0.63v-0.251c0-0.171,0.164-0.421,0.505-0.755v-1.007h-0.757c0,0.503-0.167,0.837-0.501,1.007
	h-0.252v-2.264c-0.672,0-1.174-0.087-1.508-0.251c-0.338-0.169-0.672-0.252-1.007-0.252c0.334-0.338,0.502-0.464,0.502-0.377
	c0,0.082,0.085,0.126,0.253,0.126c0-0.672,0.163-1.093,0.505-1.259h0.754l-0.253-0.501h-0.252v-2.265
	c0.505-0.501,0.669-0.796,0.505-0.88c-0.171-0.085,0-0.212,0.502-0.377v-2.767h0.754v3.019c0.167,0,0.416,0.082,0.757,0.251
	c0.331,0.166,0.583,0.253,0.754,0.253c0.836,0,1.088-0.379,0.754-1.133c-0.338-0.754,0-1.301,1.006-1.636
	c0.164-0.338,0.252-1.005,0.252-2.011h0.501v-1.76h-1.259c0,0.332-0.167,0.503-0.501,0.503v-2.013h-0.754
	c0-0.169,0.082-0.253,0.249-0.253c0.167,0,0.253-0.169,0.253-0.501c0-0.503-0.42-1.006-1.256-1.51l0.754-0.503v-2.767
	c0-0.338,0.164-0.503,0.502-0.503v-2.263c0.334,0,0.46-0.253,0.379-0.756c-0.089-0.502-0.126-0.923-0.126-1.257
	c0.501-0.337,0.709-0.546,0.628-0.628c-0.085-0.087,0.041-0.295,0.379-0.629c0.836,0.334,1.215,0.082,1.133-0.754
	c-0.089-0.841,0.29-1.259,1.129-1.259v0.503c0,0.166-0.041,0.334-0.123,0.503c-0.089,0.166-0.126,0.334-0.126,0.503
	c0,0.334,0.038,0.63,0.126,0.88c0.082,0.252,0.123,0.542,0.123,0.88v0.253h-0.754c-0.337,0.334-0.375,0.711-0.126,1.131
	c0.252,0.416,0.041,0.63-0.628,0.63v2.767h-0.501c-0.171,0.334-0.171,0.629,0,0.88c0.164,0.25,0.082,0.46-0.252,0.629
	c-0.338,0.333-0.464,0.628-0.379,0.88c0.082,0.251-0.126,0.542-0.628,0.88v0.754c0.334,0,0.501-0.087,0.501-0.251
	c0-0.169,0.167-0.252,0.505-0.252h1.508l1.259-3.017c0.164-0.338,0.253-0.629,0.253-0.88c0-0.253,0.163-0.547,0.501-0.88v-3.522
	c0.334-0.337,0.501-0.754,0.501-1.257c0-0.338-0.085-0.59-0.249-0.754c-0.17-0.171-0.252-0.422-0.252-0.756
	c0-0.338,0.208-0.714,0.628-1.131c0.416-0.421,0.713-0.63,0.88-0.63v-3.017h-1.007v-1.006c0-0.169,0.252-0.253,0.757-0.253
	c-0.338-0.338-0.378-0.628-0.126-0.88c0.253-0.251,0.543-0.546,0.88-0.88c-0.17,0-0.252-0.087-0.252-0.251
	c0-0.339,0.082-0.503,0.252-0.503h1.508c0.334-0.338,0.631-0.716,0.88-1.133c0.252-0.42,0.379-0.967,0.379-1.634h0.252v-0.756
	c-0.341-0.338-0.464-0.503-0.379-0.503c0.082,0,0.126-0.085,0.126-0.25c0-0.338,0.126-0.629,0.375-0.88
	c0.252-0.252,0.542-0.546,0.88-0.88l-1.003-0.252c0-0.338,0.164-0.503,0.502-0.503h0.754c-0.167-0.169-0.252-0.338-0.252-0.503
	v-0.251v-2.012l2.012-1.508v-2.516c0-0.166,0.082-0.251,0.253-0.251v-2.516c1.842-1.341,2.767-2.932,2.767-4.779
	c0.334,0,0.501-0.125,0.501-0.377c0-0.25,0.167-0.377,0.505-0.377v-3.772c0.164,0,0.334-0.04,0.501-0.127
	c0.167-0.082,0.334-0.124,0.505-0.124v-1.259h-1.007c0.164-0.332,0.416-0.501,0.754-0.501l1.511-4.276
	c-0.341,0-0.505,0.169-0.505,0.503l-0.252,0.251c-0.338-0.165-0.501-0.585-0.501-1.257c0-0.166,0.082-0.334,0.252-0.503l0.501-0.503
	c0-0.334-0.126-0.503-0.379-0.503c-0.249,0-0.375-0.165-0.375-0.503c0.501,0,0.918-0.082,1.259-0.251v-1.259h1.508v-1.257
	c-0.505,0-0.754-0.165-0.754-0.503c0-0.334-0.089-0.667-0.252-1.006c0.334,0,0.46-0.208,0.379-0.628
	c-0.089-0.416,0.037-0.711,0.375-0.88c0.167,0.169,0.416,0.251,0.754,0.251c0-0.165-0.085-0.29-0.249-0.377
	c-0.171-0.082-0.253-0.377-0.253-0.88h1.259v-2.264h2.514v0.251h1.508v-0.754c-0.338-0.166-0.59-0.334-0.754-0.503
	c-0.17-0.166-0.59-0.416-1.259-0.754l0.757-1.006v-1.006h1.003c0-0.503,0.085-1.006,0.252-1.51c0.167-0.503,0.587-0.919,1.259-1.257
	c0-0.165,0.082-0.377,0.252-0.629c0.164-0.251,0.249-0.543,0.249-0.88c-0.501-0.165-0.839-0.459-1.006-0.88
	c-0.167-0.416-0.42-0.88-0.754-1.383c0.669-0.669,1.297-1.215,1.886-1.634c0.587-0.418,0.88-1.298,0.88-2.642h1.76v-1.005h0.252
	c0.669-0.838,1.089-1.762,1.259-2.767c0.164-1.006,0.665-1.844,1.508-2.516c0-0.838,0.208-1.636,0.628-2.39
	c0.416-0.754,1.214-1.131,2.391-1.131c0-0.669,0.164-1.172,0.501-1.51c0.334-0.334,0.416-0.919,0.253-1.76
	c0.502,0,0.754-0.253,0.754-0.756c0.164,0,0.252-0.082,0.252-0.251v-0.503h0.501v-1.257c0.669-0.334,1.088-0.755,1.259-1.259
	c0.164-0.503,0.416-1.17,0.754-2.011c0.334,0.338,0.542,0.251,0.628-0.253c0.085-0.503,0.293-0.919,0.631-1.257h0.754
	c0.334-0.837,0.669-1.634,1.006-2.39c0.334-0.754,0.836-1.549,1.508-2.39c0-0.667,0.167-1.215,0.505-1.634
	c0.334-0.416,0.754-0.964,1.256-1.635c0.334-0.333,0.505-0.754,0.505-1.257c0.334,0,0.501-0.126,0.501-0.377
	c0-0.253,0.082-0.377,0.252-0.377v-1.259h-0.754v-0.754c0.334,0,0.416-0.208,0.249-0.63c-0.167-0.416-0.085-0.711,0.253-0.88
	c0.334,0.169,0.46,0.379,0.379,0.63c-0.089,0.25-0.126,0.546-0.126,0.88h1.259v-1.257h1.255c-0.338-0.503-0.375-0.963-0.126-1.383
	c0.252-0.416,0.542-0.711,0.88-0.88l1.259-1.509c-0.338,0.169-0.628,0.337-0.88,0.503c-0.252,0.169-0.546,0.251-0.88,0.251h-0.253
	c0.167-0.334,0.334-0.628,0.505-0.88c0.164-0.25,0.249-0.542,0.249-0.88c-0.338,0-0.501-0.082-0.501-0.251l-0.502,0.251h-0.505
	c-0.501,0-0.925-0.082-1.259-0.251c0.668-0.334,1.385-0.587,2.139-0.756c0.754-0.164,1.385-0.503,1.887-1.006h2.265
	c0.334-0.164,0.628-0.377,0.88-0.628c0.249-0.252,0.542-0.377,0.88-0.377c0.164,0,0.334,0.125,0.501,0.377
	c0.167,0.251,0.416,0.377,0.754,0.377c0.334-0.837,0.669-1.257,1.006-1.257c0.334,0,0.505,0.085,0.505,0.251
	c0,0.169,0.164,0.253,0.502,0.253c0.505,0,0.754-0.166,0.754-0.503h2.013c0,1.678,0.334,2.514,1.006,2.514
	c0.669,0,1.215-0.334,1.634-1.006c0.416-0.667,0.965-1.005,1.638-1.005c0.665,0,1.003,0.043,1.003,0.125
	c0,0.087,0.167,0.378,0.505,0.88h2.514l1.259,1.762h3.52c0-0.669,0.334-1.006,1.006-1.006c0.669,0,1.088-0.253,1.259-0.756h4.527
	c0,0.672,0.416,1.006,1.256,1.006v-0.503h3.271v-0.503h0.253c0.331,0.339,0.583,0.503,0.754,0.503
	c0.669-0.667,1.255-1.17,1.76-1.508c0.501-0.334,1.255-0.503,2.262-0.503c0.334-0.334,0.631-0.629,0.88-0.88
	c0.253-0.253,0.543-0.543,0.88-0.88c0.334-1.006,0.669-1.51,1.006-1.51v-2.263c1.846,0.338,2.767-0.126,2.767-1.383
	c0-1.259,0.334-2.303,1.007-3.144h0.754v-7.546c-0.338-0.334-0.754-0.585-1.255-0.756c-0.505-0.164-0.754-0.585-0.754-1.257
	c-0.672,0-1.177-0.416-1.511-1.257c-0.338-0.838-0.921-1.257-1.76-1.257c-0.167,0-0.294,0.125-0.376,0.377
	c-0.089,0.251-0.379,0.377-0.88,0.377l-1.006-1.509l0.249-0.251c-0.167,0-0.375-0.165-0.628-0.503
	c-0.253-0.334-0.546-0.503-0.88-0.503v1.257c-0.672-0.334-1.05-0.667-1.132-1.006c-0.085-0.333-0.212-0.754-0.375-1.257
	c-0.505,0.169-0.924,0.126-1.259-0.126c-0.337-0.251-0.59-0.377-0.754-0.377c-0.17,0-0.297,0.044-0.379,0.126
	c-0.085,0.087-0.211,0.126-0.375,0.126l-0.253,0.251c-0.17-0.334-0.337-0.503-0.505-0.503c-0.167,0-0.249-0.082-0.249-0.251
	c-1.678-0.669-2.603-1.006-2.767-1.006c-0.338,0-0.505,0.337-0.505,1.006h-2.262c-0.337-0.503-0.88-0.837-1.637-1.006
	c-0.754-0.165-1.129-0.669-1.129-1.51c0-0.837,0.669-1.509,2.009-2.011l2.013-2.012c0-0.503,0.085-0.919,0.252-1.257h0.754
	c-0.167-0.669-0.126-1.214,0.126-1.635c0.253-0.416,0.543-0.962,0.88-1.634h0.754v-1.006c0.334,0.169,0.631,0.087,0.88-0.253
	c0.252-0.332,0.46-0.667,0.631-1.005c0.164,0,0.249,0.043,0.249,0.125c0,0.087,0.085,0.126,0.252,0.126
	c0,0.169,0.082,0.252,0.252,0.252l4.026-4.529h-1.006c0.334-0.334,0.583-0.503,0.754-0.503c0.164,0,0.416,0,0.754,0
	c-0.337-0.836-0.252-1.296,0.253-1.383c0.502-0.082,0.918-0.124,1.255-0.124c0-0.837,0.208-1.341,0.631-1.509
	c0.416-0.165,0.792-0.503,1.129-1.006v-1.006c0.167-0.503,0.461-0.836,0.88-1.007c0.42-0.164,0.631-0.416,0.631-0.754
	c-0.338-0.334-0.754-0.669-1.259-1.006h0.754l-1.006-1.76c0.167,0,0.334-0.039,0.505-0.126c0.164-0.082,0.334-0.125,0.501-0.125
	v-1.762h3.773c0.167-0.333,0.587-0.667,1.259-1.005v-0.503l1.006-1.259l-0.252-0.251l0.754-0.503v0.754v0.503l-0.501,1.259
	l1.006-0.503l0.249-0.503l0.505-0.756v0.756l0.754-0.756v-0.251v-1.257v-0.756l0.505-0.503L679.198,410.996z"/>
<path class="st1" d="M717.172,532.223l-5.281,30.432H609.778c1.17-8.716,2.05-17.563,2.64-26.535
	c0.587-8.967,1.047-18.147,1.385-27.54c0.164,0,0.334-0.039,0.502-0.126c0.164-0.082,0.416-0.124,0.754-0.124
	c0-0.669,0.082-1.172,0.253-1.509c0.163-0.334,0.082-0.416-0.253-0.253c0.334-0.334,0.713-0.754,1.133-1.257
	c0.416-0.503,0.628-1.172,0.628-2.012c0.505-0.503,0.757-1.005,0.757-1.508c1.17-0.669,1.924-1.762,2.262-3.27l1.259-0.756
	c0.334-1.673,0.88-3.057,1.634-4.15c0.754-1.088,1.467-2.05,2.139-2.891c0-0.669,0.249-1.259,0.754-1.762
	c1.006-1.17,1.508-2.264,1.508-3.27l3.521-3.52l-0.502-0.754h-0.253l1.259-1.509l-1.76-1.761h3.019l0.249-0.252
	c0.334,0.338,0.669,0.338,1.006,0c0.334-0.334,0.669-0.585,1.006-0.754h1.006c0.836,1.175,2.094,1.76,3.773,1.76
	c0.334,0,0.918-0.082,1.76-0.251c0.836-0.166,1.593-0.587,2.265-1.259c0.331,0,0.542,0.087,0.628,0.253
	c0.082,0.169,0.29,0.251,0.628,0.251l1.511,1.509l4.274,0.253c-0.17,5.368-0.252,10.814-0.252,16.347c0,5.533,0,11.153,0,16.852
	v22.886h14.839c9.054,0,17.858-0.25,26.411-0.754C700.068,534.487,708.62,533.568,717.172,532.223z M614.809,432.878
	c-0.341,1.006-0.631,1.721-0.88,2.137c-0.252,0.421-0.464,0.798-0.631,1.133c-0.502-15.927-1.508-32.194-3.019-48.793h44.016
	l-0.505,8.552c-2.514,2.514-4.148,4.066-4.902,4.653c-0.754,0.589-1.723,0.88-2.893,0.88l-0.754,2.767l-1.006,1.257l-0.252-0.503
	c0.334-0.334,0.46-0.669,0.379-1.006c-0.089-0.334-0.215-0.667-0.379-1.006l-4.527,2.516c0-0.165-0.126-0.126-0.379,0.126
	c-0.249,0.251-0.546,0.503-0.88,0.754c-0.338,0.253-0.754,0.377-1.255,0.377c-0.505,0-1.095-0.416-1.76-1.257
	c0,0.338-0.126,0.672-0.379,1.006c-0.252,0.338-0.379,1.426-0.379,3.27l-3.015,0.25c0,0.841-0.044,1.428-0.126,1.76
	c-0.089,0.34-0.126,0.672-0.126,1.006v0.503h-0.505c-0.839,2.012-1.593,3.27-2.262,3.773l-0.754,1.257
	c0,0.169,0.082,0.253,0.249,0.253l-3.521,0.754v1.509c0,1.006-0.167,1.847-0.501,2.514c-0.17,0.339-0.419,0.629-0.754,0.88
	c-0.338,0.253-0.505,0.464-0.505,0.629l-0.252,0.503h-0.502l-2.265,3.27c-0.338,0.337-0.754,0.672-1.255,1.006
	c-0.505,0.337-0.924,0.923-1.259,1.76l-1.508,1.509H614.809z M765.712,432.122c9.722,0.503,18.111,0.756,25.152,0.756
	c4.861,0,12.325-0.253,22.385-0.756c5.195,19.453,11.65,39.952,19.366,61.494c7.709,21.547,16.852,44.56,27.413,69.04h-40.744
	c-2.013-10.563-4.694-21.21-8.048-31.942h-46.779c-1.678,4.865-3.145,9.935-4.404,15.216c-1.255,5.282-2.473,10.858-3.647,16.725
	h-36.72c12.237-29.006,22.259-54.201,30.054-75.579C757.539,465.7,762.86,447.382,765.712,432.122z M788.851,453.753
	c-3.691,9.222-7.041,18.194-10.06,26.91c-3.019,8.721-5.786,17.355-8.3,25.905h34.71c-1.849-6.2-4.025-13.664-6.54-22.383
	C796.144,475.468,792.876,465.323,788.851,453.753z M911.842,432.625c9.221,0,17.52,0.213,24.899,0.629
	c7.375,0.42,13.915,2.055,19.618,4.904c5.533,2.685,9.848,6.163,12.953,10.439c3.101,4.274,4.653,9.096,4.653,14.46
	c0,13.92-9.896,23.811-29.678,29.678c11.568,1.175,20.41,4.363,26.533,9.559c6.12,5.199,9.18,12.071,9.18,20.623
	c0,6.708-1.76,12.745-5.281,18.109c-3.52,5.368-8.719,9.726-15.593,13.077c-4.026,2.182-8.344,3.86-12.953,5.032
	c-4.615,1.175-9.599,2.011-14.965,2.514c-5.369,0.503-11.066,0.798-17.101,0.88c-6.038,0.087-12.496,0.126-19.37,0.126h-26.155
	c1.675-12.576,2.722-24.271,3.142-35.085c0.416-10.816,0.631-21.002,0.631-30.558c0-10.226-0.297-20.707-0.88-31.439
	c-0.59-10.729-1.385-21.713-2.391-32.948H911.842z M912.344,485.442c19.618,0,29.429-5.533,29.429-16.599
	c0-4.861-2.057-8.383-6.164-10.563c-4.11-2.178-10.271-3.27-18.486-3.27c-2.012,0-3.899,0-5.659,0c-1.76,0-3.647,0.087-5.659,0.251
	c0,2.854-0.085,6.753-0.249,11.696c-0.17,4.948-0.252,11.109-0.252,18.486H912.344z M913.855,539.014
	c10.896,0,19.114-1.341,24.647-4.024c5.533-2.68,8.299-7.208,8.299-13.582c0-7.206-3.06-11.82-9.18-13.833
	c-6.123-2.013-14.883-3.017-26.281-3.017h-6.038v34.456H913.855z"/>
</svg>
