<?xml version="1.0" encoding="utf-8"?>
<!-- Generator: Adobe Illustrator 21.0.0, SVG Export Plug-In . SVG Version: 6.00 Build 0)  -->
<svg version="1.1" id="Layer_1" xmlns="http://www.w3.org/2000/svg" xmlns:xlink="http://www.w3.org/1999/xlink" x="0px" y="0px"
	 width="1000px" height="1000px" viewBox="0 0 1000 1000" style="enable-background:new 0 0 1000 1000;" xml:space="preserve">
<style type="text/css">
	.st0{fill:#FFFFFF;}
</style>
<path class="st0" d="M697.593,427.273c-5.36,0-11.503-5.458-11.503-11.199c0-4.61,3.366-10.738,12.554-10.738
	c16.385,0,29.609,35.256,29.609,35.256C719.067,430.734,710.148,427.273,697.593,427.273z M761.98,418.068
	c5.375,0,11.503-5.473,11.503-11.217c0-4.609-3.335-10.735-12.54-10.735c-16.385,0-29.609,35.256-29.609,35.256
	C740.539,421.515,749.44,418.068,761.98,418.068z M727.968,421.515c0,0,14.66-34.683,2.79-45.963
	c-6.684-6.334-13.336-4.194-16.493-0.845c-3.957,4.162-3.255,12.362,0.622,16.049C723.994,399.386,728.096,408.031,727.968,421.515z
	 M40,566.772h14.974v-50.15h43.508v-13.399H54.974v-37.624h51.372v-13.4H40V566.772z M214.87,509.484
	c0,39.723-16.053,59.034-49.074,59.034s-49.074-19.311-49.074-59.034s16.053-59.03,49.074-59.03S214.87,469.762,214.87,509.484z
	 M199.722,509.484c0-31.562-10.462-45.635-33.926-45.635s-33.925,14.073-33.925,45.635c0,31.558,10.462,45.635,33.925,45.635
	S199.722,541.042,199.722,509.484z M310.568,548.851l-52.602-96.12l-0.29-0.531h-21.372v114.572H251.1v-96.654l52.602,96.123
	l0.293,0.531h21.368V452.2h-14.796V548.851z M342.709,465.599h34.251v101.172h14.971V465.599h34.25v-13.4h-83.472V465.599z
	 M481.52,502.266l-4.155-1.302c-13.878-4.292-24.84-7.679-24.84-20.485c0-11.035,8.238-16.629,24.49-16.629
	c8.574,0,19.839,1.684,26.882,3.125l1.023,0.213l2.28-12.823l-0.946-0.217c-10.179-2.346-20.9-3.695-29.418-3.695
	c-24.965,0-39.286,11.388-39.286,31.247c0,18.495,11.862,25.706,32.358,31.908c18.756,5.591,27.053,8.618,27.053,21.738
	c0,13.305-8.87,19.773-27.113,19.773c-9.789,0-22.696-1.869-28.981-3.126l-1.041-0.206l-2.067,12.838l0.95,0.199
	c5.245,1.114,18.815,3.695,31.488,3.695c26.914,0,41.734-11.905,41.734-33.521C511.932,511.995,495.771,506.827,481.52,502.266z
	 M607.735,485.371c0,25.258-14.513,38.064-43.131,38.064c-6.506,0-13.235-0.528-19.601-1.121v44.458h-14.971V453.195l0.89-0.115
	c11.185-1.467,24.934-2.455,34.205-2.455C584.966,450.625,607.735,454.571,607.735,485.371z M545.003,509.414
	c7.148,0.559,13.35,0.625,15.756,0.625c19.105,0,31.831-4.107,31.831-24.144c0-16.148-7.508-21.872-28.685-21.872
	c-5.709,0-13.015,0.37-18.902,0.95V509.414z M703.233,565.197l1.013,1.575H686.24l-0.293-0.499
	c-10.581-17.834-18.844-32.857-25.968-47.206c-5.524,0-14.052-0.01-19.838-0.29v47.995H625.17v-113.58l0.891-0.112
	c11.555-1.467,25.37-2.455,34.376-2.455c19.025,0,40.865,3.73,40.865,32.823c0,18.431-8.647,29.473-26.418,33.73
	C682.284,531.38,691.318,546.679,703.233,565.197z M660.965,464.024c-4.358,0-13.769,0.304-20.823,0.957v40.935
	c4.166,0.279,8.189,0.279,12.083,0.279c25.052,0,33.929-5.817,33.929-22.22C686.153,469.245,679.56,464.024,660.965,464.024z
	 M722.3,566.772h14.974V452.2H722.3V566.772z M838.182,548.851l-52.598-96.12l-0.293-0.531h-21.372v114.572h14.796v-96.654
	l52.602,96.123l0.29,0.531h21.375V452.2h-14.8V548.851z M922.006,507.766v13.399h23.191v29.407
	c-7.085,2.934-15.072,4.547-22.566,4.547c-10.773,0-18.906-3.51-24.175-10.434c-5.738-7.474-8.528-19.046-8.528-35.371
	c0-15.233,2.511-26.184,7.679-33.49c7.432-10.615,19.238-11.974,28.695-11.974c9.443,0,20.645,1.568,27.56,3.122l1.058,0.237
	l2.074-12.862l-0.946-0.202c-11.356-2.452-21.717-3.691-30.794-3.691c-18.312,0-30.786,5.234-39.258,16.479
	c-7.547,9.998-11.213,23.917-11.213,42.551c0,20.348,4.32,35.622,12.827,45.394c7.731,9.051,19.045,13.64,33.625,13.64
	c13.319,0,27.266-3.744,38.266-10.277l0.499-0.297v-50.178H922.006z"/>
</svg>
