<?xml version="1.0" encoding="utf-8"?>
<!-- Generator: Adobe Illustrator 19.2.0, SVG Export Plug-In . SVG Version: 6.00 Build 0)  -->
<!DOCTYPE svg PUBLIC "-//W3C//DTD SVG 1.1//EN" "http://www.w3.org/Graphics/SVG/1.1/DTD/svg11.dtd">
<svg version="1.1" id="Layer_1" xmlns="http://www.w3.org/2000/svg" xmlns:xlink="http://www.w3.org/1999/xlink" x="0px" y="0px"
	 width="1000px" height="1000px" viewBox="0 0 1000 1000" style="enable-background:new 0 0 1000 1000;" xml:space="preserve">
<style type="text/css">
	.st0{fill:#FFFFFF;}
	.st1{fill:none;stroke:#FFFFFF;stroke-width:1.3785;stroke-miterlimit:10;}
</style>
<path id="G" class="st0" d="M204.4039,487.2729c1.8214-1.8214,2.8256-4.2444,2.8256-6.8223c0-2.5779-1.0042-5.001-2.8256-6.8224
	c-1.325-1.3254-2.9691-2.211-4.7573-2.5994v-20.5397c4.3393-91.694,29.4089-154.2386,77.936-195.4215
	c48.6613-41.296,122.6925-62.7752,231.156-66.7413h29.005c0.389,1.7869,1.2748,3.4304,2.6002,4.7553
	c1.8806,1.8799,4.3508,2.8195,6.821,2.8195c2.4716,0,4.9418-0.9396,6.8223-2.8195v-0.0007
	c1.3243-1.3244,2.2097-2.9678,2.5988-4.7546h37.044c9.7028,0.2805,19.4301,0.6475,29.1693,1.0996
	c0.3211,0.615,0.7081,1.1982,1.2126,1.7025c1.3031,1.3038,3.0342,2.0219,4.8771,2.0219c1.8402,0,3.57-0.7182,4.8718-2.0206
	c0.3443-0.344,0.6411-0.7213,0.9009-1.1193c22.6185,1.2094,45.2468,2.8836,67.6839,4.9909c0.3403,0.9207,0.8589,1.7719,1.573,2.4864
	c1.3018,1.3024,3.0329,2.0199,4.8731,2.0199s3.5714-0.7175,4.8731-2.0199h-0.0013c0.389-0.3886,0.7074-0.8247,0.9888-1.2812
	c6.1418,0.6232,12.2696,1.2717,18.3721,1.9608l37.1375,5.3043v7.6776h6.3182l-20.0962,203.4803h-8.0823v5.8229l-50.0509-4.1696
	c-0.2823-1.2603-0.9023-2.4218-1.8369-3.3569c-1.3018-1.3024-3.0329-2.0199-4.8745-2.0199s-3.5727,0.7175-4.8731,2.0193
	c-0.9171,0.917-1.4963,2.0359-1.7874,3.2116c-14.2737-1.0228-28.2468-1.9169-41.864-2.6192
	c0.0693-1.8513-0.5812-3.7245-1.9916-5.1357c-2.6869-2.6829-7.0593-2.6836-9.7462,0.002c-0.8107,0.8108-1.3462,1.7823-1.6676,2.8074
	h-33.9774c-0.389-1.7881-1.2745-3.4325-2.5994-4.7573c-3.7612-3.7625-9.8835-3.7625-13.6447,0
	c-1.325,1.3249-2.2104,2.9692-2.5991,4.7573h-77.5601c-0.3285-1.0445-0.875-2.0119-1.6713-2.8081
	c-1.3017-1.3024-3.0329-2.0192-4.8731-2.0192c-1.8402,0-3.5714,0.7168-4.8731,2.0192c-1.3018,1.3018-2.0193,3.0329-2.0193,4.8745
	s0.7175,3.5727,2.0193,4.8745c1.3434,1.3435,3.1083,2.0152,4.8731,2.0152c1.7648,0,3.5296-0.6717,4.8731-2.0152
	c0.7956-0.7955,1.3421-1.762,1.6706-2.8054h25.7332c-13.7692,2.1386-23.9142,5.3384-31.7115,9.7859
	c-9.6749,5.519-15.9089,13.1062-19.382,24.1424v-15.8344c1.0439-0.3284,2.0108-0.8746,2.8067-1.6701
	c1.3018-1.3011,2.0179-3.0309,2.0179-4.8711c0-1.8402-0.7162-3.5707-2.0166-4.8724c-1.3017-1.3038-3.0329-2.0219-4.8745-2.0219
	c-0.0013,0-0.0027,0-0.0027,0c-1.8416,0.0007-3.5714,0.7188-4.8677,2.0199c-1.3058,1.3031-2.0233,3.0349-2.0219,4.8765
	c0,1.8409,0.7188,3.57,2.0193,4.8677c0.7952,0.7957,1.7614,1.342,2.804,1.6707v33.9776c-1.7881,0.3888-3.4314,1.2742-4.7546,2.5982
	c-1.8227,1.822-2.8256,4.2451-2.8256,6.823c0,2.5779,1.0029,5.001,2.8256,6.8224c1.3233,1.3244,2.9666,2.2099,4.7546,2.5988v29.4383
	c-1.0429,0.3285-2.0085,0.8743-2.8014,1.6681c-1.3031,1.3004-2.0219,3.0302-2.0219,4.8691
	c-0.0013,1.8416,0.7162,3.5727,2.0206,4.8745c1.3421,1.3434,3.1069,2.0139,4.8717,2.0139c1.7635,0,3.5283-0.6704,4.8718-2.0125
	l0.0027-0.0013c1.3004-1.3018,2.0166-3.0329,2.0166-4.8718s-0.7162-3.5687-2.0179-4.8691
	c-0.7959-0.7959-1.7628-1.3425-2.8067-1.6711v-7.7935c4.337,16.1936,12.8683,26.4358,26.067,31.3344h-6.159
	c-0.3214-1.0232-0.8558-1.993-1.6649-2.8027c-2.6883-2.6883-7.0606-2.6856-9.7489,0c-2.6829,2.687-2.6829,7.0566,0.0027,9.7449
	c1.3435,1.3408,3.1083,2.0125,4.8718,2.0125c1.7648,0,3.5296-0.6718,4.8731-2.0125l0.0027-0.0013
	c0.8091-0.8104,1.3438-1.7811,1.6649-2.8054h18.543c0.3887,1.7866,1.2742,3.4301,2.5988,4.7546
	c1.8214,1.8227,4.2444,2.827,6.8224,2.827c2.5765,0,4.9996-1.0043,6.8223-2.827c1.3519-1.3525,2.2097-3.0115,2.5894-4.7546h6.4622
	v47.4333h-7.2369v17.2255h17.2308v-17.1143l42.5107-52.7972h13.787v-17.2336h-17.2308v8.8892l-14.6779,4.1277
	c-0.2578-0.3929-0.5533-0.7646-0.8932-1.1047c-2.6843-2.6815-7.0579-2.6829-9.7449,0.0013
	c-1.0762,1.0764-1.7255,2.4525-1.9277,3.9356c-1.8497,0.3301-3.6915,0.6334-5.5344,0.9116
	c-0.2696-0.4294-0.5785-0.8405-0.9514-1.2139c-2.687-2.6843-7.062-2.6856-9.7462,0.0013c-0.7754,0.7762-1.2997,1.6993-1.6271,2.6752
	c-0.4012,0.0349-0.798,0.0746-1.2011,0.1073v-67.3875h7.2369v-7.2343h221.5767v7.2343h7.237v269.593l-9.754,9.6874l-31.1613,6.0405
	c-14.1374,2.2719-28.1634,4.2763-42.1362,6.0267c-1.261-1.1218-2.8539-1.7589-4.5554-1.7589c-1.8402,0-3.5714,0.7175-4.8704,2.0179
	c-0.3022,0.3018-0.5657,0.6314-0.8033,0.9753c-21.2912,2.4797-42.5081,4.3721-63.8699,5.6813
	c-0.2716-0.4294-0.5798-0.8384-0.9481-1.206c-1.3017-1.3018-3.0329-2.0193-4.873-2.0193c-1.8416,0-3.5728,0.7175-4.8718,2.0179
	c-0.5526,0.5514-0.9746,1.1923-1.3065,1.8743c-7.2989,0.3732-14.62,0.688-21.9727,0.9297h-32.3543
	c-0.3796-1.7436-1.2374-3.403-2.5894-4.756c-3.7652-3.7598-9.8862-3.7558-13.646,0.0013c-1.3522,1.3523-2.2101,3.0113-2.59,4.7546
	h-29.4055c-107.5818-3.8932-180.5875-24.6826-227.9293-64.5901c-48.0123-40.4727-72.8263-103.2375-77.139-196.11v-21.0986
	C201.4348,489.4836,203.0789,488.5978,204.4039,487.2729z M552.9465,546.1621c-1.3448,1.3394-3.1096,2.0098-4.8731,2.0098
	c-1.7648,0-3.5296-0.6704-4.8718-2.0112c-0.8101-0.811-1.3455-1.7822-1.6669-2.8068h-1.1627v47.4333h3.7861l42.5178-52.806v-3.9276
	l-13.5714,3.8167c-0.0545,1.7598-0.7481,3.4095-1.9997,4.6584c-1.3018,1.3018-3.0316,2.0179-4.8718,2.0179
	s-3.5714-0.7175-4.8731-2.0192c-0.8561-0.8543-1.4303-1.9055-1.7433-3.0422c-1.5871,0.2812-3.1709,0.543-4.7529,0.7863
	c0.3089,2.0861-0.315,4.2853-1.916,5.8879L552.9465,546.1621z"/>
<path id="handles" class="st1" d="M556.814,186.2587h65.1811 M298.901,186.2587h238.6144 M629.262,413.2589h-33.4026
	 M553.1767,773.7386h53.382 M695.5773,766.9784l68.4567-13.27 M471.7999,467.1695v-33.4012 M541.1874,541.2863h-9.8041
	 M471.7999,486.4679v28.862 M494.124,541.2863h17.9679 M297.309,773.7386h236.5805 M197.5789,470.8014V275.7693 M698.3756,418.3678
	l49.9257,4.1592 M197.5789,490.0998v199.5723 M715.59,193.5886l54.5717,7.7944 M499.5766,413.2589h76.9843 M771.2534,456.6478
	h13.0955v13.0955h-13.0955V456.6478z M532.4458,469.7432h13.0955v-13.0927h-13.0955V469.7432z M532.4458,605.9452h13.0955v-13.0901
	h-13.0955V605.9452z M588.7436,536.0336h13.0955v-13.0982h-13.0955V536.0336z M569.6442,541.0656
	c1.8846-1.882,1.8846-4.9378,0-6.8224c-1.8845-1.8819-4.9377-1.8819-6.8223,0c-1.8846,1.8846-1.8846,4.9404,0,6.8224
	C564.7065,542.9501,567.7597,542.9501,569.6442,541.0656 M551.4859,544.6974c1.8832-1.8846,1.8832-4.9351,0-6.8195
	c-1.8873-1.8847-4.939-1.8847-6.8237,0c-1.8833,1.8845-1.8833,4.9349,0,6.8195
	C546.5469,546.5795,549.5986,546.5795,551.4859,544.6974 M527.1015,546.6467c2.9603-2.9616,2.9603-7.7566,0-10.7181
	c-2.9615-2.9615-7.7605-2.9615-10.7208,0c-2.9615,2.9615-2.9615,7.7565,0,10.7181
	C519.341,549.6083,524.14,549.6083,527.1015,546.6467 M490.6488,544.6974c1.8833-1.8846,1.8833-4.9351,0-6.8195
	c-1.8846-1.8847-4.9391-1.8847-6.8237,0c-1.8832,1.8845-1.8832,4.9349,0,6.8195
	C485.7098,546.5795,488.7642,546.5795,490.6488,544.6974 M475.2125,525.6277c1.8833-1.8846,1.8833-4.9349,0-6.817
	c-1.8846-1.8846-4.939-1.8846-6.8211,0c-1.8872,1.882-1.8872,4.9323,0,6.817C470.2734,527.5098,473.3278,527.5098,475.2125,525.6277
	 M477.1616,482.1791c2.9603-2.9589,2.9603-7.762,0-10.7208c-2.9601-2.9616-7.7619-2.9616-10.7221,0
	c-2.9603,2.9587-2.9603,7.7619,0,10.7208C469.3997,485.1406,474.2015,485.1406,477.1616,482.1791 M475.2125,430.288
	c1.8833-1.882,1.8833-4.9351,0-6.8197c-1.8846-1.8873-4.939-1.8873-6.8211,0c-1.8872,1.8846-1.8872,4.9377,0,6.8197
	C470.2734,432.172,473.3278,432.172,475.2125,430.288 M496.0955,416.6703c1.8846-1.8846,1.8846-4.9404,0-6.8251
	s-4.9378-1.8846-6.8223,0c-1.8846,1.8846-1.8846,4.9404,0,6.8251C491.1576,418.5547,494.2108,418.5547,496.0955,416.6703
	 M591.5706,418.6194c2.9615-2.9615,2.9615-7.7619,0-10.7235c-2.9615-2.9615-7.7593-2.9615-10.7208,0
	c-2.9617,2.9616-2.9617,7.762,0,10.7235C583.8113,421.5783,588.609,421.5783,591.5706,418.6194 M639.5625,416.6703
	c1.8832-1.8846,1.8832-4.9404,0-6.8251c-1.8846-1.8819-4.9391-1.8819-6.8237,0c-1.8832,1.8846-1.8832,4.9404,0,6.8251
	C634.6234,418.5522,637.6779,418.5522,639.5625,416.6703 M694.9503,421.2094c1.8846-1.8846,1.8846-4.9377,0-6.8223
	c-1.8833-1.8846-4.9391-1.8846-6.8223,0c-1.8846,1.8846-1.8846,4.9377,0,6.8223
	C690.0112,423.0914,693.067,423.0914,694.9503,421.2094 M750.369,429.7952h13.0955v-13.0981H750.369V429.7952z M772.2293,209.0814
	h12.9568v-12.9582h-12.9568V209.0814z M712.2013,196.0264c1.8874-1.8846,1.8874-4.9377,0-6.8223
	c-1.8832-1.8846-4.9363-1.8846-6.8196,0c-1.8846,1.8846-1.8846,4.9377,0,6.8223C707.265,197.911,710.3181,197.911,712.2013,196.0264
	 M632.2986,189.6671c1.8832-1.8819,1.8832-4.9351,0-6.8196c-1.8833-1.8846-4.9391-1.8846-6.8237,0
	c-1.8832,1.8845-1.8832,4.9377,0,6.8196C627.3596,191.5545,630.4153,191.5545,632.2986,189.6671 M552.5251,191.619
	c2.9615-2.9615,2.9615-7.7593,0-10.7208c-2.9603-2.9615-7.7593-2.9615-10.7195,0c-2.9629,2.9615-2.9629,7.7593,0,10.7208
	C544.7659,194.5779,549.5649,194.5779,552.5251,191.619 M295.4246,189.6671c1.8846-1.8847,1.8846-4.9351,0-6.8196
	c-1.8846-1.882-4.9391-1.882-6.8223,0c-1.8832,1.8845-1.8832,4.9349,0,6.8196
	C290.4855,191.5545,293.5399,191.5545,295.4246,189.6671 M200.9927,272.2918c1.8833-1.882,1.8833-4.9378,0-6.8197
	c-1.8846-1.8846-4.9391-1.8846-6.8237,0c-1.8833,1.8819-1.8833,4.9377,0,6.8197
	C196.0537,274.1764,199.1081,274.1764,200.9927,272.2918 M202.942,485.8111c2.9587-2.9589,2.9587-7.762,0-10.7209
	c-2.9616-2.9615-7.762-2.9615-10.7209,0c-2.9615,2.9589-2.9615,7.762,0,10.7209C195.18,488.7726,199.9804,488.7726,202.942,485.8111
	 M200.9927,699.9717c1.8833-1.8846,1.8833-4.9404,0-6.8251c-1.8846-1.8819-4.9391-1.8819-6.8237,0
	c-1.8833,1.8846-1.8833,4.9404,0,6.8251C196.0537,701.8536,199.1081,701.8536,200.9927,699.9717 M294.03,776.6652
	c1.6153-1.6155,1.6153-4.2349,0-5.8478c-1.6154-1.6153-4.2337-1.6153-5.8477,0c-1.6154,1.6129-1.6154,4.2323,0,5.8478
	C289.7963,778.2779,292.4146,778.2779,294.03,776.6652 M548.8945,779.1018c2.9603-2.9643,2.9603-7.762,0-10.7236
	c-2.9615-2.9589-7.7606-2.9589-10.7222,0c-2.9615,2.9615-2.9615,7.7593,0,10.7236
	C541.1339,782.0633,545.933,782.0633,548.8945,779.1018 M616.8622,777.1525c1.8845-1.8846,1.8845-4.9404,0-6.8223
	c-1.8846-1.8846-4.9391-1.8846-6.8224,0c-1.8846,1.8818-1.8846,4.9376,0,6.8223
	C611.9231,779.0345,614.9776,779.0345,616.8622,777.1525 M692.2256,771.7032c1.8846-1.8846,1.8846-4.9377,0-6.8223
	c-1.8833-1.8846-4.9363-1.8846-6.8196,0c-1.8874,1.8846-1.8874,4.9377,0,6.8223
	C687.2893,773.5879,690.3423,773.5879,692.2256,771.7032 M790,755.0648l-12.1989-12.1155l-12.1989,12.1155H790z"/>
</svg>
