<?xml version="1.0" encoding="utf-8"?>
<!-- Generator: Adobe Illustrator 21.0.0, SVG Export Plug-In . SVG Version: 6.00 Build 0)  -->
<svg version="1.1" id="Layer_1" xmlns="http://www.w3.org/2000/svg" xmlns:xlink="http://www.w3.org/1999/xlink" x="0px" y="0px"
	 width="1000px" height="1000px" viewBox="0 0 1000 1000" style="enable-background:new 0 0 1000 1000;" xml:space="preserve">
<style type="text/css">
	.st0{fill:#FFFFFF;}
</style>
<g>
	<path class="st0" d="M172,464.2v-28.7h96c1,5.1,1.6,11.1,1.6,17.6c0,21.5-5.9,48.1-24.8,67.1c-18.4,19.2-42,29.4-73.2,29.4
		c-57.9,0-106.5-47.1-106.5-105c0-57.9,48.6-105,106.5-105c32,0,54.8,12.5,71.9,28.9l-20.2,20.2c-12.3-11.5-28.9-20.5-51.7-20.5
		c-42.2,0-75.3,34-75.3,76.3s33,76.3,75.3,76.3c27.4,0,43-11,53-21c8.1-8.1,13.5-19.8,15.6-35.8L172,464.2z"/>
	<path class="st0" d="M415.8,482c0,38.9-30.5,67.6-67.8,67.6c-37.4,0-67.8-28.7-67.8-67.6c0-39.2,30.5-67.6,67.8-67.6
		C385.4,414.5,415.8,442.9,415.8,482z M386.1,482c0-24.3-17.7-41-38.1-41c-20.5,0-38.1,16.6-38.1,41c0,24.1,17.7,41,38.1,41
		C368.5,523,386.1,506.1,386.1,482z"/>
	<path class="st0" d="M563.8,482c0,38.9-30.5,67.6-67.8,67.6c-37.4,0-67.8-28.7-67.8-67.6c0-39.2,30.5-67.6,67.8-67.6
		C533.4,414.5,563.8,442.9,563.8,482z M534.1,482c0-24.3-17.7-41-38.1-41c-20.5,0-38.1,16.6-38.1,41c0,24.1,17.7,41,38.1,41
		C516.5,523,534.1,506.1,534.1,482z"/>
	<path class="st0" d="M705.7,418.5v121.3c0,49.9-29.4,70.4-64.3,70.4c-32.8,0-52.5-22-59.9-39.9l25.9-10.8c4.6,11,15.9,24.1,34,24.1
		c22.3,0,36.1-13.8,36.1-39.7v-9.7h-1c-6.7,8.2-19.5,15.4-35.6,15.4c-33.8,0-64.8-29.4-64.8-67.3c0-38.1,31-67.8,64.8-67.8
		c16.1,0,28.9,7.2,35.6,15.1h1v-11L705.7,418.5L705.7,418.5z M679.6,482.3c0-23.8-15.9-41.2-36.1-41.2c-20.5,0-37.6,17.4-37.6,41.2
		c0,23.6,17.2,40.7,37.6,40.7C663.7,523,679.6,505.9,679.6,482.3z"/>
	<path class="st0" d="M756,347.5v198h-29.7v-198H756z"/>
	<path class="st0" d="M870.7,504.3l23,15.4c-7.4,11-25.3,30-56.3,30c-38.4,0-67.1-29.7-67.1-67.6c0-40.2,28.9-67.6,63.7-67.6
		c35.1,0,52.2,27.9,57.9,43l3.1,7.7l-90.4,37.4c6.9,13.6,17.7,20.5,32.8,20.5C852.5,523,863,515.6,870.7,504.3z M799.8,480
		l60.4-25.1c-3.3-8.4-13.3-14.3-25.1-14.3C820,440.6,799,453.9,799.8,480z"/>
</g>
</svg>
