<?xml version="1.0" encoding="utf-8"?>
<!-- Generator: Adobe Illustrator 21.0.0, SVG Export Plug-In . SVG Version: 6.00 Build 0)  -->
<svg version="1.1" id="Layer_1" xmlns="http://www.w3.org/2000/svg" xmlns:xlink="http://www.w3.org/1999/xlink" x="0px" y="0px"
	 width="1000px" height="1000px" viewBox="0 0 1000 1000" style="enable-background:new 0 0 1000 1000;" xml:space="preserve">
<style type="text/css">
	.st0{fill:#FFFFFF;}
</style>
<path class="st0" d="M522.6,396.4v-19h-14.2v19h-8v-43.8h8v17.2h14.2v-17.2h8v43.8H522.6z M554.4,392.7c-4.8-4.8-5.6-11.2-5.6-18.2
	c0-7,0.8-13.3,5.6-18.2c3.2-3.2,7.2-4.6,11.7-4.6c4.4,0,8.5,1.4,11.7,4.6c4.8,4.8,5.6,11.2,5.6,18.2c0,7-0.8,13.3-5.6,18.2
	c-3.2,3.2-7.2,4.6-11.7,4.6C561.7,397.3,557.7,395.9,554.4,392.7z M572.3,387.7c3-3,3-9.5,3-13.2c0-3.6,0-10.1-3-13.2
	c-1.7-1.7-3.8-2.4-6.2-2.4c-2.4,0-4.5,0.7-6.2,2.4c-3,3-3,9.5-3,13.2c0,3.6,0,10.1,3,13.2c1.7,1.7,3.8,2.4,6.2,2.4
	C568.5,390.1,570.6,389.4,572.3,387.7z M611.5,359.8v11.7h19v7.2h-19v17.6h-8v-43.8h30v7.2H611.5z M662.2,359.8v11.7h19v7.2h-19
	v17.6h-8v-43.8h30v7.2H662.2z M726.6,396.4v-33.7l-5.2,22.5h-6.7l-5.2-22.5v33.7H702v-43.8h11.2l4.9,21.4l5.5-21.4h10.6v43.8H726.6z
	 M755.3,396.4v-6.6h9.3v-30.6h-9.3v-6.6h26.8v6.6h-9.4v30.6h9.4v6.6H755.3z M823.3,360v36.4h-7.9V360h-13.7v-7.4H837v7.4H823.3z
	 M854.5,396.4v-7.8l22.5-28.7h-22.2v-7.2h31.1v7.8l-22.4,28.7h22.7v7.2H854.5z M524,470.5v-33.7l-5.2,22.5h-6.7l-5.2-22.5v33.7h-7.6
	v-43.8h11.2l4.9,21.4l5.5-21.4h10.6v43.8H524z M552.7,470.5v-6.6h9.3v-30.6h-9.3v-6.6h26.8v6.6h-9.4v30.6h9.4v6.6H552.7z
	 M604.2,470.5v-43.8h8V463h21.3v7.5H604.2z M660.6,446.2l15.6-19.5h10.1l-15.3,18.4l15.4,25.5h-9.5l-11.2-19.1l-5.1,6.1v13h-8v-43.8
	h8V446.2z M704.8,470.5v-43.8H734v7.2h-21.3v10.3h16.9v7.2h-16.9v11.9H734v7.2H704.8z M775.1,470.5l-13.9-31.8v31.8h-7.8v-43.8h10.4
	l12.5,28.9v-28.9h7.8v43.8H775.1z M524.8,529.8h8c-0.6,7.7-5.1,15.8-16.7,15.8c-4.4,0-8.6-1.3-11.8-4.5c-4.8-4.8-5.7-11.2-5.7-18.2
	c0-7,0.9-13.4,5.7-18.2c3.2-3.2,7.4-4.5,11.8-4.5c11.3,0,16.2,7.8,16.7,15.4h-8c-0.1-4.1-2.4-8.2-8.6-8.3c-2.5,0-4.6,0.9-6.4,2.6
	c-3,3-3.1,9.3-3.1,13s0.2,10.1,3.1,13.1c1.7,1.7,3.8,2.5,6.2,2.5C522.3,538.3,524.7,533.9,524.8,529.8z M552.8,544.7v-43.8h29.2v7.2
	h-21.3v10.3h16.9v7.2h-16.9v11.9h21.3v7.2H552.8z M623.1,544.7l-13.9-31.8v31.8h-7.8v-43.8h10.4l12.5,28.9v-28.9h7.8v43.8H623.1z
	 M671.4,508.3v36.4h-7.9v-36.4h-13.7v-7.4H685v7.4H671.4z M704.8,544.7v-43.8H734v7.2h-21.3v10.3h16.9v7.2h-16.9v11.9H734v7.2H704.8
	z M776.5,544.7l-7.1-16.6h-6.7v16.6h-8v-43.8h15.8c10.4,0,15.1,6.5,15.1,13.6c0,5.9-3.5,10.5-8.3,12l8.1,18.2H776.5z M770.3,507.8
	h-7.8v13.1h7.8c4.5,0,7.1-2.5,7.1-6.6C777.4,510.8,774.8,507.8,770.3,507.8z M864.8,508.1v11.7h19v7.2h-19v17.6h-8v-43.8h30v7.2
	H864.8z M909,540.9c-4.8-4.8-5.6-11.2-5.6-18.2c0-7,0.8-13.3,5.6-18.2c3.2-3.2,7.2-4.6,11.7-4.6c4.4,0,8.5,1.4,11.7,4.6
	c4.8,4.8,5.6,11.2,5.6,18.2c0,7-0.8,13.3-5.6,18.2c-3.2,3.2-7.2,4.6-11.7,4.6C916.2,545.5,912.2,544.2,909,540.9z M926.9,535.9
	c3-3,3-9.5,3-13.2s0-10.1-3-13.2c-1.7-1.7-3.8-2.4-6.2-2.4c-2.4,0-4.5,0.7-6.2,2.4c-3,3-3,9.5-3,13.2s0,10.1,3,13.2
	c1.7,1.7,3.8,2.4,6.2,2.4C923.1,538.4,925.2,537.6,926.9,535.9z M979.1,544.7l-7.1-16.6h-6.7v16.6h-8v-43.8h15.8
	c10.4,0,15.1,6.5,15.1,13.6c0,5.9-3.5,10.5-8.3,12l8.1,18.2H979.1z M972.9,507.8h-7.8v13.1h7.8c4.5,0,7.1-2.5,7.1-6.6
	C980.1,510.8,977.5,507.8,972.9,507.8z M519.4,582.4v36.4h-7.9v-36.4h-13.7V575h35.2v7.4H519.4z M570.1,600.1v18.7h-8v-18.7
	L547.5,575h8.8l10.1,17.9l10-17.9h8.4L570.1,600.1z M618.6,601.9h-8.2v16.9h-7.9V575h16.1c10.1,0,15.3,5.6,15.3,13.4
	C633.9,596.2,628.6,601.9,618.6,601.9z M618.1,582h-7.7v12.9h7.7c5.3,0,7.7-2.4,7.7-6.4C625.8,584.4,623.4,582,618.1,582z
	 M655.7,615.1c-4.8-4.8-5.6-11.2-5.6-18.2c0-7,0.8-13.3,5.6-18.2c3.2-3.2,7.2-4.6,11.7-4.6c4.4,0,8.5,1.4,11.7,4.6
	c4.8,4.8,5.6,11.2,5.6,18.2c0,7-0.8,13.3-5.6,18.2c-3.2,3.2-7.2,4.6-11.7,4.6C663,619.6,659,618.3,655.7,615.1z M673.6,610.1
	c3-3,3-9.5,3-13.2c0-3.6,0-10.1-3-13.2c-1.7-1.7-3.8-2.4-6.2-2.4c-2.4,0-4.5,0.7-6.2,2.4c-3,3-3,9.5-3,13.2c0,3.6,0,10.1,3,13.2
	c1.7,1.7,3.8,2.4,6.2,2.4C669.8,612.5,671.9,611.7,673.6,610.1z M706.8,615.4c-4.9-4.8-5.5-11.6-5.5-18.5c0-7,0.9-13.4,5.7-18.2
	c3.2-3.2,7.5-4.5,12-4.5c11.1,0,15.9,7.3,15.9,14.7h-8c-0.1-3.6-2-7.5-7.9-7.5c-8.8,0-9.6,9.5-9.6,15.6c0,6,0.7,15.8,9.1,15.8
	c5.6,0,8.8-3.8,8.8-9.9h-10.3v-6.6h17.9v22.6h-5.2l-1.2-5c-1,2.4-4.4,5.9-10.6,5.9C713.8,619.6,709.9,618.5,706.8,615.4z
	 M776.5,618.8l-7.1-16.6h-6.7v16.6h-8V575h15.8c10.4,0,15.1,6.5,15.1,13.6c0,5.9-3.5,10.5-8.3,12l8.1,18.2H776.5z M770.3,582h-7.8
	v13.1h7.8c4.5,0,7.1-2.5,7.1-6.6C777.4,584.9,774.8,582,770.3,582z M827,607.9h-15.2l-3.2,10.9h-8.3l14-43.8h10.4l13.8,43.8h-8.3
	L827,607.9z M813.9,600.8h11l-5.5-18.6L813.9,600.8z M871.8,601.9h-8.2v16.9h-7.9V575h16.1c10.1,0,15.3,5.6,15.3,13.4
	C887.1,596.2,881.9,601.9,871.8,601.9z M871.4,582h-7.7v12.9h7.7c5.3,0,7.7-2.4,7.7-6.4C879.1,584.4,876.7,582,871.4,582z
	 M927.8,618.8v-19h-14.2v19h-8V575h8v17.2h14.2V575h8v43.8H927.8z M975.4,600.1v18.7h-8v-18.7L952.7,575h8.8l10.1,17.9l10-17.9h8.4
	L975.4,600.1z M70,303.6v372.7h372.7V303.6H70z M267.4,352.9h25.7l11.3,48.9l12.6-48.9h24.1V453h-17.4v-77.1l-11.9,51.5h-15.2
	l-11.9-51.4V453h-17.4V352.9z M94.7,352.9h18.2v39.4h32.5v-39.4h18.2V453h-18.2v-43.3h-32.5V453H94.7V352.9z M116.2,585.9
	c4,4,8.6,5.6,14.3,5.6c14.4-0.1,19.8-10.2,20.1-19.6h18.2c-1.3,17.5-11.7,36-38.3,36c-10.2,0-19.6-3-27-10.3c-11-11-13-25.7-13-41.7
	c0-16,2-30.6,13-41.7c7.3-7.3,16.8-10.3,27-10.3c25.8,0,37,17.8,38.3,35.3h-18.4c-0.3-9.5-5.5-18.8-19.6-18.9
	c-5.6,0-10.6,2-14.5,5.9c-6.8,6.9-7.2,21.3-7.2,29.7C109,564.3,109.4,579,116.2,585.9z M251.7,618.4h-70V606h70V618.4z M251.7,465.4
	h-70V453h70V465.4z M344.5,522.8h-31.2V606h-18.1v-83.2H264v-16.9h80.5V522.8z M426.8,618.4h-70V606h70V618.4z M426.8,465.4h-70V453
	h70V465.4z"/>
</svg>
