<?xml version="1.0" encoding="utf-8"?>
<!-- Generator: Adobe Illustrator 21.0.0, SVG Export Plug-In . SVG Version: 6.00 Build 0)  -->
<svg version="1.1" id="Layer_1" xmlns="http://www.w3.org/2000/svg" xmlns:xlink="http://www.w3.org/1999/xlink" x="0px" y="0px"
	 width="1000px" height="1000px" viewBox="0 0 1000 1000" style="enable-background:new 0 0 1000 1000;" xml:space="preserve">
<style type="text/css">
	.st0{fill:#FFFFFF;}
</style>
<path class="st0" d="M479.094,416.738c0-8.341,6.719-15.359,17.291-15.359c6.209,0,10.372,2.34,13.328,5.903l1.931-5.703h7.937
	v16.278h-8.444c-3.669-5.697-7.931-9.663-13.019-9.663c-3.972,0-6.003,1.828-6.003,4.572c0,3.466,2.744,4.791,11.803,7.125
	c10.375,2.744,17.8,6.103,17.8,15.569c0,8.234-6.406,15.663-18.006,15.663c-7.431,0-11.519-3.053-14.575-6.516l-1.931,5.494h-7.831
	v-16.581h8.441c4.172,6.413,8.778,10.681,14.578,10.681c4.263,0,6.2-1.831,6.2-4.778c0-3.663-2.65-5.088-12.103-7.525
	C485.097,428.944,479.094,425.281,479.094,416.738z M301.031,441.247h-11.094v-19.728h4.278c5.597,0,6.606,1.325,7.625,9.766h7.938
	v-27.469h-7.938c-1.219,8.237-1.928,9.362-7.625,9.362h-4.278v-21.362h13.837c8.544,0,10.784,1.938,13.938,15.662h8.85v-24.306
	h-62.938v8.85h9.737v49.225h-9.737v8.853h37.406V441.247z M323.709,426.506c0-14.75,11.087-25.128,25.837-25.128
	c15.156,0,25.631,9.969,25.631,24.616c0,14.753-10.985,25.128-25.734,25.128C334.287,451.122,323.709,441.247,323.709,426.506z
	 M339.984,426.297c0,12.925,3.256,17.903,9.763,17.903c6.513,0,9.159-5.194,9.159-18.003c0-12.815-3.156-17.903-9.769-17.903
	C342.731,408.294,339.984,413.478,339.984,426.297z M405.591,441.559h-5.288v-18.515c0-6.812,4.372-11.6,9.153-11.6
	c2.038,0,3.559,0.609,4.681,1.634c1.519,1.525,2.137,3.962,2.137,7.216v21.266h-5.394v8.541h27.156v-8.541h-6.812v-23.294
	c0-9.869-4.275-16.788-14.547-16.788c-8.747,0-13.934,5.497-17.291,13.425v-12.507h-20.956v8.544h7.019v30.619h-7.019v8.541h27.159
	V441.559z M444.853,434.847c0,10.875,5.084,16.275,15.46,16.275c9.562,0,14.547-4.991,16.319-16.119l-6.106-1.728
	c-1.259,6.047-2.785,8.484-5.841,8.484c-3.456,0-4.981-2.437-4.981-6.816v-24.003h15.844v-8.544h-15.844v-12.306l-14.547,1.725
	v10.581h-8.747v8.544h8.444V434.847z M539.412,388.563h-6.919v-8.75h21.875v32.044c2.95-6.203,7.932-10.478,15.15-10.478
	c5.4,0,9.169,1.931,12.106,4.881c4.381,4.378,6.506,11.4,6.506,19.937c0,8.55-2.544,15.562-6.812,19.835
	c-3.15,3.253-7.625,5.091-12.712,5.091c-8.438,0-13.525-3.975-16.681-10.078l-4.675,9.766h-7.837V388.563z M553.45,427.106
	c0,9.363,3.769,15.678,10.163,15.678c5.906,0,8.556-5.6,8.556-16.378c0-10.175-2.65-15.566-8.556-15.566
	C557.113,410.841,553.45,417.957,553.45,427.106z M613.869,450.909c-2.944,7.125-5.494,9.062-9.662,9.562
	c0.5-1.009,0.919-2.438,0.919-3.763c0-3.963-2.556-8.038-7.737-8.038c-4.681,0-7.825,3.775-7.825,8.553
	c0,6.1,4.469,10.572,13.125,10.572c11.075,0,16.469-7.522,21.344-19.013l16.281-37.844h5.8v-8.544h-20.85v8.544h6.1l-9.662,24.919
	l-10.681-24.919h7.231v-8.544h-29.812v8.544h6.306C594.744,410.941,608.269,439.222,613.869,450.909z M244.475,462.897
	c0,16.95-12.34,29.884-27.734,29.884c-10.125,0-18.969-5.369-23.85-13.866c-8.563,4.803-17.087,12.109-25.697,23.097
	c14.088,16.316,23.566,22.922,34.332,22.922c11.737,0,18.519-6.475,24.025-16.312l3.563,1.125
	c-0.679,32.225-20.338,52.375-44.203,52.375c-16.475,0-28.719-5.994-46.688-25.075c-15.559,17.125-34.578,25.075-57.54,25.075
	C47.366,562.122,20,539.934,20,510.759c0-23.266,16.009-40.65,45.322-50.712c-11.378-12.278-17.025-22.072-17.025-38.2
	c0-23.903,23.478-46.925,60.51-46.925c34.019,0,52.378,21.472,52.378,41.028c0,7.031-1.419,12.938-5.147,18.784
	c15.197-0.784,26.316,5.678,27.206,20.178c9.178-13.309,19.737-20.75,33.497-20.75C232.134,434.163,244.475,445.95,244.475,462.897z
	 M121.553,520.359c-15.466-19.256-31.247-35.609-41.288-45.54c-5.772,6.428-8.791,13.875-8.791,22.538
	c0,16.99,12.206,29.94,29.113,29.94C108.906,527.297,115.325,525.241,121.553,520.359z M123.556,416.572
	c0-12.728-6.622-21.413-15.953-21.413c-8.734,0-15.05,7.138-15.05,16.444c0,12.528,8.466,20.547,21.075,32.628
	C119.915,434.834,123.556,425.528,123.556,416.572z M151.769,440.297c-5.056,5.644-12.534,11.575-23.234,18.65
	c8.722,8.997,15.769,17.088,22.569,25.422C162,466.138,164.556,453.169,151.769,440.297z M276.791,583.816h-4.525v5.419h-2.506
	v3.894h2.506v10.394c0,4.338,2.356,5.8,5.684,5.8c1.722,0,2.956-0.375,4.078-1.013v-3.7c-0.9,0.45-1.797,0.675-2.806,0.675
	c-1.534,0-2.431-0.713-2.431-2.469v-9.688h5.312v-3.894h-5.312V583.816z M297.031,603.897l-5.538-14.662h-4.862l8.228,19.787
	c-0.747,1.681-1.532,2.244-2.803,2.244c-0.938,0-1.835-0.3-2.656-0.75l-1.534,3.331c1.384,0.787,2.806,1.231,4.675,1.231
	c3.181,0,4.938-1.494,6.509-5.569l7.853-20.275h-4.712L297.031,603.897z M332.831,599.072v0.075c0,6.544-4.491,10.25-9.166,10.25
	c-3.291,0-5.347-1.644-6.731-3.481v9.056h-4.562v-25.737h4.562v3.294c1.459-2.056,3.515-3.706,6.731-3.706
	C328.303,588.822,332.831,592.491,332.831,599.072z M328.228,599.072c0-3.812-2.616-6.319-5.647-6.319
	c-3.066,0-5.759,2.544-5.759,6.319v0.075c0,3.781,2.694,6.319,5.759,6.319c3.106,0,5.647-2.431,5.647-6.319V599.072z
	 M359.281,599.072v0.075c0,5.612-4.488,10.288-10.584,10.288c-6.022,0-10.472-4.6-10.472-10.212v-0.075
	c0-5.65,4.488-10.325,10.547-10.325C354.831,588.822,359.281,593.422,359.281,599.072z M354.756,599.147
	c0-3.475-2.506-6.356-6.059-6.356c-3.628,0-5.947,2.844-5.947,6.281v0.075c0,3.444,2.506,6.319,6.022,6.319
	c3.666,0,5.984-2.837,5.984-6.244V599.147z M380.569,589.234h4.525v15.712c0,3.325-0.86,5.794-2.506,7.444
	c-1.794,1.794-4.562,2.65-8.115,2.65c-3.253,0-6.281-0.819-8.825-2.356l1.681-3.4c2.132,1.306,4.341,2.056,7.031,2.056
	c4.041,0,6.247-2.056,6.247-6.019v-1.5c-1.644,2.094-3.704,3.594-6.957,3.594c-4.675,0-8.978-3.444-8.978-9.237v-0.075
	c0-5.838,4.378-9.281,8.978-9.281c3.328,0,5.384,1.537,6.919,3.369V589.234z M380.644,598.066c0-3.219-2.656-5.388-5.797-5.388
	c-3.14,0-5.609,2.131-5.609,5.388v0.075c0,3.212,2.506,5.419,5.609,5.419c3.141,0,5.797-2.206,5.797-5.419V598.066z
	 M397.109,593.684v-4.45h-4.562v19.75h4.562v-7.519c0-5.237,2.769-7.819,6.731-7.819h0.262v-4.787
	C400.625,588.709,398.344,590.734,397.109,593.684z M423.294,591.178c1.456,1.425,2.131,3.519,2.131,6.1v11.706h-4.412v-2.469
	c-1.347,1.606-3.406,2.881-6.434,2.881c-3.703,0-7.031-2.131-7.031-6.1v-0.075c0-4.263,3.366-6.356,8.191-6.356
	c2.206,0,3.778,0.338,5.309,0.825v-0.487c0-2.806-1.719-4.3-4.897-4.3c-2.21,0-3.853,0.487-5.65,1.231l-1.235-3.55
	c2.206-0.975,4.341-1.612,7.481-1.612C419.703,588.972,421.909,589.759,423.294,591.178z M421.122,600.534
	c-1.159-0.45-2.691-0.788-4.488-0.788c-2.915,0-4.637,1.231-4.637,3.288v0.075c0,1.912,1.684,2.994,3.853,2.994
	c2.991,0,5.272-1.719,5.272-4.225V600.534z M453.072,599.072v0.075c0,6.544-4.491,10.25-9.166,10.25
	c-3.291,0-5.347-1.644-6.731-3.481v9.056h-4.562v-25.737h4.562v3.294c1.459-2.056,3.516-3.706,6.731-3.706
	C448.544,588.822,453.072,592.491,453.072,599.072z M448.469,599.072c0-3.812-2.616-6.319-5.647-6.319
	c-3.066,0-5.759,2.544-5.759,6.319v0.075c0,3.781,2.694,6.319,5.759,6.319c3.106,0,5.647-2.431,5.647-6.319V599.072z
	 M470.247,588.822c-3.069,0-4.9,1.612-6.172,3.444v-10.587h-4.562v27.306h4.562v-11.144c0-3.069,1.831-4.9,4.45-4.9
	c2.694,0,4.228,1.756,4.228,4.825v11.219h4.525v-12.606C477.278,591.816,474.697,588.822,470.247,588.822z M492.506,603.897
	l-5.534-14.662h-4.862l8.228,19.787c-0.747,1.681-1.531,2.244-2.803,2.244c-0.938,0-1.834-0.3-2.656-0.75l-1.534,3.331
	c1.384,0.787,2.806,1.231,4.675,1.231c3.181,0,4.937-1.494,6.509-5.569l7.853-20.275h-4.712L492.506,603.897z M506.275,608.984
	h4.975v-5.162h-4.975V608.984z M528.35,605.466c-3.481,0-5.912-2.8-5.912-6.319v-0.075c0-3.438,2.431-6.281,5.725-6.281
	c2.244,0,3.7,1.044,5.087,2.469l2.844-3.031c-1.875-2.019-4.194-3.406-7.894-3.406c-5.95,0-10.287,4.712-10.287,10.325v0.075
	c0,5.612,4.337,10.212,10.212,10.212c3.85,0,6.131-1.537,8.081-3.706l-2.732-2.694C532.013,604.497,530.481,605.466,528.35,605.466z
	 M561.938,599.072v0.075c0,5.612-4.488,10.288-10.581,10.288c-6.025,0-10.475-4.6-10.475-10.212v-0.075
	c0-5.65,4.487-10.325,10.55-10.325C557.487,588.822,561.938,593.422,561.938,599.072z M557.412,599.147
	c0-3.475-2.506-6.356-6.056-6.356c-3.631,0-5.95,2.844-5.95,6.281v0.075c0,3.444,2.506,6.319,6.025,6.319
	c3.662,0,5.981-2.837,5.981-6.244V599.147z M590.706,588.822c-2.994,0-5.087,1.388-6.656,3.481c-1.05-2.094-3.069-3.481-5.912-3.481
	c-3.025,0-4.75,1.65-6.019,3.406v-2.994h-4.563v19.75h4.563v-11.144c0-3.031,1.719-4.9,4.225-4.9c2.506,0,4,1.719,4,4.787v11.256
	h4.531v-11.144c0-3.181,1.756-4.9,4.225-4.9c2.544,0,4,1.681,4,4.825v11.219h4.525v-12.606
	C597.625,591.553,595.006,588.822,590.706,588.822z M318.616,479.106h11.791v24.619H296.75v-24.619h11.653v-11.384h-44.778v11.384
	h11.781v63.372h-11.781v11.4h44.778v-11.4H296.75v-27.756h33.656v27.756h-11.791v11.4h44.916v-11.4H351.75v-63.372h11.781v-11.384
	h-44.916V479.106z M430.575,522.834c0,18.994-14.144,32.35-33.125,32.35c-19.512,0-33.131-12.706-33.131-31.687
	c0-18.987,14.272-32.338,33.256-32.338C417.087,491.159,430.575,503.991,430.575,522.834z M409.622,523.109
	c0-16.5-4.056-23.05-12.565-23.05c-8.25,0-11.788,6.675-11.788,23.175c0,16.625,4.194,23.037,12.569,23.037
	C406.222,546.272,409.622,539.603,409.622,523.109z M496.962,525.728h-41.772c0.788,14.269,6.544,18.981,16.372,18.981
	c7.197,0,11.912-3.013,14.659-10.731h10.085c-2.359,12.819-11,21.206-28.156,21.206c-20.425,0-32.863-12.569-32.863-31.425
	c0-18.594,13.744-32.6,32.21-32.6C488.188,491.159,497.875,505.822,496.962,525.728z M478.234,517.472
	c-0.65-12.438-4.056-17.413-11.128-17.413c-6.806,0-11,4.319-11.788,17.413H478.234z M640.981,525.728h-41.775
	c0.787,14.269,6.544,18.981,16.375,18.981c7.194,0,11.913-3.013,14.656-10.731h10.088c-2.356,12.819-11,21.206-28.15,21.206
	c-20.437,0-32.875-12.569-32.875-31.425c0-18.594,13.75-32.6,32.219-32.6C632.2,491.159,641.894,505.822,640.981,525.728z
	 M622.256,517.472c-0.663-12.438-4.069-17.413-11.131-17.413c-6.812,0-11,4.319-11.787,17.413H622.256z M690.075,491.284
	c-8.375,0-15.45,5.628-19.119,17.025v-15.847h-26.969v11.003h9.031v39.413h-9.031v11h39.544v-11h-11.394v-26.844
	c2.231-7.6,6.681-11.525,10.081-11.788c0,0.394-0.125,0.788-0.125,1.05c0,6.019,4.45,9.294,10.219,9.294
	c5.75,0,10.2-4.713,10.2-11.262C702.513,496.913,697.675,491.284,690.075,491.284z M787.469,534.491l7.206,2.231
	c-2.494,10.731-7.987,19.25-19.506,19.25c-7.856,0-12.312-2.619-18.725-10.606c-6.938,7.062-14.938,10.606-24.619,10.606
	c-17.287,0-27.375-9.95-27.375-22.788c0-12.569,8.913-19.112,20.169-23.438c-6.013-6.153-9.031-10.866-9.031-18.075
	c0-11.384,10.337-21.203,25.919-21.203c14.938,0,22.65,9.163,22.65,17.934c0,9.947-7.462,14.669-17.013,18.856
	c7.331,7.062,12.838,13.356,18.063,20.819c3.675-4.319,7.075-9.287,9.569-14.144h-9.037v-10.862h28.294v11H785.9
	c-4.319,7.856-9.557,15.188-15.056,20.944c4.45,6.156,6.419,7.6,9.556,7.6C783.681,542.616,785.506,540.647,787.469,534.491z
	 M732.612,487.094c0,4.847,2.875,8.9,9.156,15.188c5.113-3.665,7.606-7.988,7.606-13.484c0-5.369-2.625-9.819-8.656-9.819
	C736.144,478.978,732.612,482.253,732.612,487.094z M751.069,539.209c-6.419-9.162-13.744-17.281-20.956-24.225
	c-4.319,3.406-6.669,7.988-6.669,14.538c0,8.637,5.494,14.4,14.531,14.4C742.294,543.922,746.612,542.478,751.069,539.209z
	 M848.687,543.653c-14.8,0-23.831-10.069-23.831-33.65c0-24.613,8.644-33.644,20.937-33.644c10.875,0,18.206,7.981,23.444,23.828
	h12.969v-34.306h-11.788l-2.75,9.953c-5.237-6.416-13.481-10.219-24.488-10.219c-22.519,0-41.637,18.859-41.637,45.7
	c0,26.594,17.281,44.656,44.125,44.656c23.312,0,36.138-14.275,38.362-36.531h-12.694
	C869.106,533.841,861.644,543.653,848.687,543.653z M954.862,522.834c0,18.994-14.144,32.35-33.125,32.35
	c-19.513,0-33.125-12.706-33.125-31.687c0-18.987,14.275-32.338,33.256-32.338C941.375,491.159,954.862,503.991,954.862,522.834z
	 M933.913,523.109c0-16.5-4.056-23.05-12.569-23.05c-8.243,0-11.788,6.675-11.788,23.175c0,16.625,4.2,23.037,12.569,23.037
	C930.513,546.272,933.913,539.603,933.913,523.109z M968.344,532.922c-6.675,0-11.781,5.106-11.781,11.656
	c0,6.412,5.106,11.525,11.656,11.525c6.675,0,11.781-5.238,11.781-11.788C980,537.909,974.894,532.922,968.344,532.922z
	 M550.306,542.878v-39.413H528.05v39.413h7.85v11h-35.538v-11h8.906v-39.413H498.14v-11.003h11.128v-0.522
	c0-20.169,14.2-29.334,30.3-29.334c5.044,0,9.85,1.028,13.231,2.562l16.287-2.894v80.603h9.956v11h-36.588v-11H550.306z
	 M550.306,492.463V485c-5.494-0.128-9.163-3.144-9.163-8.906c0-1.831,0.656-4.19,1.7-5.365c-0.906-0.394-2.219-0.787-4.188-0.787
	c-6.55,0-11.056,3.275-11.056,18.2v4.322H550.306z"/>
</svg>
