<?xml version="1.0" encoding="utf-8"?>
<!-- Generator: Adobe Illustrator 21.1.0, SVG Export Plug-In . SVG Version: 6.00 Build 0)  -->
<svg version="1.1" id="Layer_1" xmlns="http://www.w3.org/2000/svg" xmlns:xlink="http://www.w3.org/1999/xlink" x="0px" y="0px"
	 width="1000px" height="1000px" viewBox="0 0 1000 1000" style="enable-background:new 0 0 1000 1000;" xml:space="preserve">
<style type="text/css">
	.st0{fill:#FFFFFF;}
</style>
<g>
	<path class="st0" d="M264.466,610.317h62.559v-50.75c-24.37-16.833-50.248-22.612-79.392-22.612
		c-20.099,0-40.952,2.512-55.273,13.316c-17.587,13.316-21.355,24.873-22.36,47.987v4.774c0,46.479,22.863,56.278,63.564,66.327
		c18.592,4.522,32.41,6.281,32.41,28.39c0,7.788-4.02,16.582-13.065,16.582c-5.025,0-9.798-2.764-12.059-7.035
		c-2.261-4.522-2.01-14.07-2.01-26.883h-65.574v57.785c21.858,17.336,50.75,22.612,78.136,22.612
		c64.066,0,82.407-30.651,82.407-72.106v-1.005c0-10.05-1.507-20.351-5.025-29.646c-3.015-9.045-8.793-15.326-16.582-20.602
		c-13.567-9.045-35.174-14.823-51.253-19.094c-5.527-1.508-15.074-4.522-18.843-8.542c-3.517-3.518-4.02-7.789-4.02-12.06
		c0-8.04,4.522-14.321,13.064-14.321c13.064,0,13.316,13.316,13.316,22.863V610.317L264.466,610.317z M431.537,711.065
		c-5.527,4.02-11.055,5.778-16.079,5.778c-5.276,1.005-8.542-4.774-8.542-9.798c0-11.055,14.069-13.567,24.622-17.838V711.065
		L431.537,711.065z M433.798,756.539h64.317v-35.425c-8.04-5.778-7.286-13.064-7.286-21.355v-44.218
		c0.251-18.341,0-34.922-16.582-47.987c-13.316-10.05-33.666-12.562-49.494-12.562c-24.621,0-50.248,5.025-70.598,19.597v38.942
		h55.524v-6.532c0-7.788,2.01-15.577,11.557-15.577c8.291,0,10.301,7.789,10.301,15.577v5.527l-38.189,12.311
		c-26.631,8.794-45.726,18.089-45.726,49.746c0,27.888,17.336,45.223,44.972,45.223c16.331,0,28.641-4.774,41.203-15.326V756.539
		L433.798,756.539z M575.498,541.226h-66.579v35.425c8.04,4.773,7.286,12.813,7.286,20.853v103.762
		c0,8.04,0.502,15.074-7.286,19.848v35.425h73.865v-35.425c-8.04-4.271-7.286-13.064-7.286-20.853V541.226L575.498,541.226z
		 M658.909,550.522l-59.293,16.833v30.903h-7.286v36.179h7.286v73.865c0,13.818-0.754,28.641,10.05,39.445
		c10.05,9.798,26.129,12.06,39.193,11.055l29.646-2.261v-35.927c-19.848-2.261-19.597-8.542-19.597-25.626v-60.549h19.597v-36.179
		h-19.597V550.522L658.909,550.522z M688.803,756.539H830v-61.554h-43.464v4.774c0,4.271-0.251,11.306-2.512,15.074
		c-2.764,5.025-11.557,4.271-16.582,4.271h-6.03l67.081-85.17v-35.676H689.808v58.79h41.203v-3.769
		c0-3.266,0.251-10.803,2.01-14.572c2.512-5.276,11.306-4.271,16.079-4.271h5.779l-66.076,84.668V756.539L688.803,756.539z"/>
	<path class="st0" d="M187.473,440.312c0,12.425,1.165,24.85-11.26,32.616v59.019h126.191v-59.019
		c-12.425-7.766-11.26-20.191-11.26-32.616V290.824c0-12.425-1.165-24.85,11.26-32.616V199.19H176.213v59.019
		c12.425,7.766,11.26,20.19,11.26,32.616V440.312L187.473,440.312z M428.202,287.329h-99.01v54.748
		c11.648,8.542,11.26,17.084,11.26,30.286v74.162c0,12.425,0.777,23.685-11.26,30.674v54.748h114.153v-54.748
		c-12.425-6.601-11.26-20.19-11.26-32.227v-91.634c15.143-6.989,25.238,0,31.451,9.319c3.883,8.93,2.718,20.191,2.718,21.744v71.444
		c0,25.238-0.388,51.253,5.048,76.103h97.458v-54.748c-12.037-6.601-10.872-20.19-10.872-32.227v-91.634
		c0-20.967-1.941-38.828-18.637-54.747c-9.319-9.319-26.015-15.531-45.04-16.308c-19.414-0.777-41.158,3.495-66.008,20.191V287.329
		L428.202,287.329z M718.636,461.667c-8.542,6.212-17.084,8.93-24.85,8.93c-8.154,1.553-13.201-7.378-13.201-15.143
		c0-17.084,21.744-20.967,38.051-27.568V461.667L718.636,461.667z M722.13,531.946h99.4v-54.748
		c-12.425-8.93-11.26-20.19-11.26-33.004v-68.337c0.388-28.345,0-53.971-25.626-74.162c-20.579-15.531-52.029-19.414-76.491-19.414
		c-38.051,0-77.656,7.766-109.107,30.286v60.183h85.81v-10.095c0-12.037,3.106-24.073,17.861-24.073
		c12.813,0,15.919,12.037,15.919,24.073v8.542l-59.019,19.026c-41.158,13.59-70.667,27.956-70.667,76.879
		c0,43.099,26.791,69.89,69.502,69.89c25.238,0,44.264-7.377,63.678-23.685V531.946L722.13,531.946z"/>
</g>
</svg>
