<?xml version="1.0" encoding="utf-8"?>
<!-- Generator: Adobe Illustrator 21.0.0, SVG Export Plug-In . SVG Version: 6.00 Build 0)  -->
<svg version="1.1" id="Layer_1" xmlns="http://www.w3.org/2000/svg" xmlns:xlink="http://www.w3.org/1999/xlink" x="0px" y="0px"
	 width="1000px" height="1000px" viewBox="0 0 1000 1000" style="enable-background:new 0 0 1000 1000;" xml:space="preserve">
<style type="text/css">
	.st0{fill:#FFFFFF;}
</style>
<path class="st0" d="M768.619,566.982c0,0-11.047-19.491-15.593-29.236c-5.845-9.745-10.396-21.439-12.993-26.637
	c-1.299-1.299-2.597-1.948-2.597-1.948l-1.302,1.299l1.302,14.942v8.446l0.648,9.095l0.651,25.986v10.396l-0.651,7.147
	c-0.648,1.948-1.434,3.66-3.899,5.196l-5.198,3.248c-3.896,1.3-8.426,3.98-14.292,5.198c-9.731,2.031-16.241,3.248-24.036,3.248
	c-1.95,0-3.268-0.488-3.899-0.649c-1.993-0.494-1.95-1.3-3.248-2.599c-1.299-1.949-1.299-5.198-1.299-7.146
	c0-5.198,1.946-16.243,1.946-25.987l0.651-11.045l0.651-42.228l-0.651-68.207l-0.651-15.593l-0.648-7.795
	c0-3.899,1.299-9.745,3.899-11.694c1.299-0.649,3.896-2.599,5.846-2.599c3.899-1.948,14.275-5.305,21.439-6.496
	c8.43-1.408,23.388-3.248,33.133-3.248c2.601,0,4.55,1.299,6.497,1.948c1.95,0,4.55,4.548,4.55,4.548l5.195,12.344l1.302,4.547
	l1.298,2.601l4.547,11.043c0,0,6.497,16.241,11.047,25.987c5.194,10.394,10.392,22.738,12.993,27.935
	c1.299,1.3,1.95,3.248,1.95,3.248l0.648-1.948c-0.648-12.345-1.95-48.075-3.248-63.018l-1.299-9.746v-3.248
	c0,0-0.103-3.303,0.648-4.547c1.206-2.011,3.252-3.248,5.849-3.898c3.899-2.601,11.023-3.98,16.892-5.198
	c9.731-2.031,14.942-2.599,22.737-2.599c1.95,0,3.262,0.487,3.899,0.649c1.989,0.494,2.597,1.299,3.896,2.599
	c1.302,1.948,1.95,3.898,1.95,6.496c0,7.146-1.95,26.637-1.95,26.637l-0.648,12.344l-0.651,45.477v61.713l0.651,15.592l0.648,12.344
	c0,3.898-0.648,4.549-2.597,7.146c-1.299,0.651-4.547,3.899-6.496,3.899c-4.547,1.948-12.385,5.725-19.489,7.795
	c-8.489,2.477-12.996,3.899-19.493,3.899l-3.896,0.649h-2.601c-1.299-1.3-3.248-1.95-3.248-3.899l-3.896-4.547l-6.5-11.045
	l-2.597-4.547l-1.299-2.599L768.619,566.982z M646.479,399.374c-0.628-0.162-2.597-0.649-3.896-1.299
	c-4.547,0-14.275,0.738-24.039,2.599c-3.879,0.737-11.691,2.597-14.942,2.597l-12.993,3.899c-2.597,1.299-6.497,3.248-7.795,5.847
	c-0.651,1.299-1.299,3.248-1.299,5.847c0,1.299,0.648,5.198,1.299,7.795v4.548l0.651,7.146l0.648,29.885
	c-0.648,1.299-1.949,1.949-3.248,1.299h-10.392c-2.6,0-12.993,0.651-16.244,1.95c-1.946-0.649-1.946-1.299-1.946-2.597v-11.694
	l-0.651-6.498l0.651-3.897c0.648-9.745-0.651-29.885,0.648-36.381v-4.547c0-3.899-3.248-7.147-5.845-7.797
	c-9.745-0.649-26.66,2.483-36.381,4.547c-11.721,2.485-22.845,5.725-27.935,10.396c-2.71,2.483-1.95,6.496-1.95,12.993l1.299,3.898
	l-0.649,3.899l1.3,15.592l2.599,42.878l0.649,25.33l1.299,40.28l-0.649,38.98l1.299,3.248c1.3,1.299,3.899,2.599,5.847,2.599h9.745
	c8.446,0,19.489-1.95,19.489-1.95l9.097-1.95c4.616-0.988,11.043-2.597,13.644-4.547c1.299-0.649,3.896-2.599,4.547-4.547
	c0.648-1.3,1.299-3.248,1.299-9.745l0.651-6.498l-0.651-10.394l0.651-13.644l0.648-18.191c4.55-4.547,17.543-6.497,32.482-6.497
	l1.302,37.031v18.193l0.648,11.692v4.549c0,3.248,5.198,5.846,8.446,5.846c9.745,0,20.104-1.421,28.586-3.898
	c7.111-2.07,13.644-3.248,16.241-5.847c1.95,0,3.899-1.299,5.198-1.948c1.95-2.599,3.896-5.198,3.896-9.095l0.651-14.293v-15.592
	V486.43l0.651-39.629l-0.651-9.095l0.651-3.898v-25.338c0-1.948,0-4.547-1.302-6.496
	C648.428,400.674,648.475,399.868,646.479,399.374z M859.572,771.628l-3.899,1.949l-7.795,1.948
	c-3.899,1.95-6.496,2.599-9.745,2.599c-1.95,0.649-4.547-0.649-7.147-1.95c-5.198-3.898-9.745-9.745-13.644-16.89l-13.641-22.739
	l-9.748,1.95c-0.648,8.446,1.95,23.388,1.95,28.586c-1.299,2.597-3.896,5.196-5.845,5.196c-2.601,2.599-9.745,3.248-13.644,3.898
	l-7.147,0.651c-3.248-0.651-6.497-2.599-6.497-7.147c0,0,0.651-3.898,0-5.198c1.299-1.299,0-13.642,0-13.642l-0.648-10.394
	l-1.302-27.286l-0.648-20.14l-1.299-16.892l-0.651-14.941c0-3.25,0.651-7.147,2.597-9.097l4.55-1.949l9.745-1.299l14.291-2.599
	c0,0,11.694-1.299,17.543-1.299c5.846,0,12.96,1.38,18.191,3.248c3.863,1.38,7.795,3.898,11.043,6.497
	c10.396,10.394,12.993,19.491,12.993,32.484c0,12.993-4.547,27.935-12.993,34.432l-1.299,1.3v1.298l9.745,20.14l12.993,22.088
	C858.921,767.73,860.871,768.38,859.572,771.628z M816.694,690.419c0-12.344-8.446-17.541-13.644-17.541c0,0-5.845,0-7.795,1.3
	c-1.302,5.845-1.302,22.088-0.651,34.432l1.299,1.299c7.798,0,11.047-0.649,14.295-1.299
	C814.094,704.712,816.694,700.815,816.694,690.419z M742.63,745.642h-3.248l-6.496,0.648c0,0-19.489,1.3-25.986,1.3
	c-1.299,0-1.95-1.948-1.95-1.948s0-3.248,0-6.498c0-5.196-0.651-12.343-0.651-12.343l1.302-1.299l18.187-1.3l3.248-0.649
	l5.849-0.649c1.949-0.649,4.55-2.599,4.55-4.549c1.946-2.597,1.946-5.847,2.597-8.446l0.651-6.496c0,0,0.648-5.198-0.651-6.497
	c-1.299-1.299-3.248-0.649-6.5-0.649c0,0-12.989,1.299-20.137,1.299h-5.849l-2.597-1.299l0.651-19.491l1.299-0.649h3.248
	l9.745-1.299l6.496-0.649h5.846l4.55-1.3l1.95-2.599c1.95-1.95,3.896-5.846,3.896-7.795l1.302-5.847v-6.498
	c0-1.299-0.651-3.248-4.55-3.248h-38.978c-9.745,0-19.493,1.949-19.493,1.949s-5.194,0-8.443,1.299
	c-3.248,1.949-5.198,6.498-5.198,14.295l1.299,12.342l0.651,16.243v7.146l1.299,33.784v17.54l0.651,12.993v5.198
	c0.648,3.899,3.245,7.147,5.845,7.797l11.694,0.649l16.241-1.299l16.241-1.95l9.745-1.299l6.5-1.949
	c1.946-0.649,3.896-1.299,5.195-3.248c2.601-5.198,3.899-12.343,3.899-17.541c0-1.948-1.298-4.549-1.298-4.549L742.63,745.642z
	 M456.779,446.8c6.384,14.99,7.797,37.68,7.797,51.973c0,40.923-12.991,74.706-45.476,94.197
	c-16.243,9.745-42.228,12.993-68.214,12.993c-16.241,0-32.482-6.49-45.477-19.489c-19.491-19.491-27.286-51.975-27.286-81.209
	c0-32.477,5.198-58.471,29.236-82.502c20.79-20.79,53.921-27.935,79.257-27.935c11.694,0,26.035,2.516,35.732,8.444
	C436.039,411.637,448.222,426.701,456.779,446.8z M396.362,498.773c0-42.228-9.746-48.725-22.739-48.725
	c-9.095,0-18.189,3.248-21.439,6.496c-2.597,6.496-4.547,19.491-4.547,38.98c0,38.974,3.248,53.267,25.986,53.267
	c9.744,0,14.942-3.248,19.491-7.797C395.061,531.25,396.362,518.257,396.362,498.773z M646.479,648.191
	c-1.243-0.745-2.597-1.3-5.194-1.3c-4.55,0-19.489,3.248-25.989,5.849c-1.299,1.299-1.946,3.898-1.299,5.196
	c1.949,6.498,2.339,13.001,2.601,19.491l1.299,32.482l-3.899-6.496c-3.152-5.251-16.116-29.289-18.191-33.782l-7.795-16.89
	c-0.651-1.3-1.299-6.498-3.248-7.797c-3.899-0.649-13.644,1.299-13.644,1.299l-6.496,1.949c-4.547,0.649-11.043,3.248-11.043,3.248
	c-3.248,0.649-5.198,3.248-5.849,5.198c0,3.898,1.302,12.993,1.302,12.993l1.298,29.885l0.648,37.682v34.432
	c0,1.949,0.651,3.897,2.601,4.547h3.248c6.496,0,19.489-2.597,24.687-7.795c1.299-1.298,1.299-5.198,1.299-5.198
	c0-5.198-1.299-18.84-1.299-18.84l-1.95-33.133l3.248,5.847c11.043,20.14,29.885,52.622,35.73,58.469
	c1.302,0.649,2.601,1.3,4.55,1.3c1.946,0,8.443-1.95,12.993-3.899c1.95-0.649,7.795-3.248,9.094-5.196
	c1.299-1.3,1.95-3.899,1.299-6.498v-2.597l-0.648-9.745v-32.484l0.648-33.784l1.95-24.038v-1.948c0,0,0.651-3.248,0-4.548
	C648.428,650.79,648.488,649.395,646.479,648.191z M530.191,646.891l-8.446,1.3c-2.597,0-8.446,1.299-10.392,3.248
	c-0.651,0.649-2.055,1.928-2.601,5.198c-2.055,12.33-8.446,42.229-11.694,56.522l-5.196-27.937c0,0-6.496-33.782-7.797-35.083
	c0-1.948-1.299-2.597-3.248-3.898c-7.797,0-24.038,5.198-27.286,7.147c-3.248,3.248-3.154,6.544-5.196,17.541l-8.446,45.477
	l-5.847-32.484c0,0-5.198-33.133-6.497-35.083c0-2.599-1.949-3.898-5.198-3.898c-6.497,0-30.534,6.496-30.534,9.745
	c0,4.548,10.396,43.527,14.293,58.471c0.649,5.196,6.496,29.236,6.496,29.236c2.599,9.094,5.196,29.883,6.497,31.183
	c1.298,1.299,3.898,3.248,7.146,2.597c7.147,0,15.592-2.597,15.592-2.597l4.548-1.949l1.949-1.95
	c1.948-1.948,2.558-1.963,3.248-4.547l5.196-19.489l7.797-29.236v-1.3l1.299-3.898c1.95,1.949,13.644,59.77,15.592,61.717
	c1.3,2.599,2.599,3.248,5.847,3.248c7.147,0,16.872-2.002,22.09-3.898c1.93-0.704,2.597-2.599,3.248-3.898l3.248-12.993
	l2.597-12.993l3.248-11.047c0,0,12.993-53.272,14.291-59.119c1.95-7.795,3.252-12.344,3.252-16.241l0.648-1.3
	c1.299-4.548,0-6.497-1.949-8.446C534.09,646.241,530.191,646.891,530.191,646.891z M250.187,566.982
	c7.156-16.236,9.745-45.477,9.745-77.954c0-32.484,0-77.96-6.497-90.953c-1.948-4.549-3.248-6.497-9.745-6.497
	c-16.241,0-51.973,9.745-58.469,16.241c-1.948,1.95-3.248,3.248-3.248,6.497c0,3.248,3.248,9.746,3.248,16.243
	c0,9.745,9.745,106.538,7.797,110.436c-2.599,5.198-7.797,9.746-17.541,9.746c-6.496,0-12.993-3.25-16.241-6.498
	c-5.198-3.248-5.198-9.745-9.746-6.497c-3.247,0-4.547,3.248-6.495,6.497c-3.25,3.248-12.994,21.439-12.994,35.734
	c0,19.489,19.489,29.234,45.477,29.234C214.457,609.211,240.451,589.077,250.187,566.982z M389.214,706.66
	c0.387,12.359-0.649,24.038-2.599,32.484c-2.597,9.095-8.445,18.191-12.993,22.739l-3.248,2.597
	c-1.949,1.95-9.075,6.546-13.642,8.446c-3.23,1.348-9.095,3.899-13.644,3.899c0,0-8.444,1.299-14.942,1.299h-7.795
	c-9.095-1.299-15.632-3.18-21.439-6.496c-3.289-1.882-7.795-6.497-10.394-10.396c-4.548-7.146-8.319-18.853-10.395-34.431
	c-0.522-3.919-0.649-17.541-0.649-23.388l1.299-5.847v-4.547c2.599-14.942,3.25-18.19,11.045-30.534
	c2.599-4.549,12.408-12.195,15.592-13.644c3.967-1.799,11.045-3.898,13.642-3.898l10.396-1.95c0,0,7.146-0.649,13.642-0.649
	c13.644,1.299,13.644,2.599,18.84,5.198l4.548,1.948c8.446,5.847,15.05,15.565,18.84,29.885
	C387.372,687.145,388.951,698.214,389.214,706.66z M352.835,713.158c0-28.586-8.446-40.93-21.439-40.93
	c-4.548,0-10.395,2.599-12.345,3.898c-1.948,3.248-4.547,14.293-4.547,31.834c0,29.236,9.095,39.63,18.84,39.63
	c7.147,0,11.694-3.248,14.293-5.847C350.236,735.896,352.835,726.151,352.835,713.158z M255.385,659.236
	c11.013,14.32,14.942,31.184,14.291,50.673l-1.299,14.293v1.95c-2.599,14.942-7.146,23.387-11.694,29.236
	c-4.547,5.845-16.241,14.291-19.489,16.241c-3.248,1.949-6.496,3.248-9.745,4.547c-3.248,1.3-12.993,2.599-12.993,2.599l-11.045,1.3
	c0,0-12.993,0.649-18.191,0.649c-6.496,0-11.043-1.3-11.043-1.3c-2.599-0.649-5.198-5.196-5.847-9.094v-5.198l-1.3-12.344v-7.797
	l-4.547-50.674v-1.299l-1.95-12.994l-2.599-19.489c-1.298-3.248,0.649-5.847,2.599-7.795l4.547-2.6
	c7.147-2.597,18.832-5.913,29.885-7.146c6.49-0.717,21.436-1.272,28.586-0.649c7.794,0.677,13.642,2.599,20.138,6.496
	C246.939,650.79,253.404,656.663,255.385,659.236z M233.946,711.209c0-11.694-3.248-25.987-6.497-30.534
	c-1.949-4.548-9.744-9.745-16.243-8.446c-3.248-0.649-9.095,0.649-11.692,1.95c-1.299,1.948,0,9.745,0,12.993v16.241
	c0,22.739,1.299,40.281,1.948,42.23c1.3,1.299,7.797,1.948,11.045,1.948l5.198-0.649c2.992-1.279,5.196-1.299,7.795-4.547
	C230.698,737.196,233.946,726.151,233.946,711.209z M172.228,297.376c0,40.93-1.95,55.223-1.95,58.471
	c0,3.248,1.95,3.248,5.198,3.248s8.415-1.996,12.993-5.198c1.918-1.347,3.248-4.547,3.248-7.795c0-16.243-0.263-29.723,0-48.726
	c0.35-25.343-1.299-61.718,1.95-64.966c1.298-1.3,14.742,40.989,20.789,61.718c3.048,10.455,11.76,37.66,17.54,58.471
	c0.717,2.577,3.248,2.597,5.847,2.597c3.248,0,14.862-3.268,15.592-5.845c11.613-40.956,35.732-120.189,38.98-120.189
	c3.248,0,3.248,97.45,4.549,123.437c-1.3,3.248,0,5.198,1.948,5.198c0,0,3.248-0.651,3.248-1.95c7.146,0,13.051-4.514,14.293-6.496
	c2.007-3.215,0-35.732,0-61.719v-32.484c1.298-1.299-1.3-3.248-1.3-3.248c1.3-0.649,1.3-1.948,1.3-3.248v-38.98
	c0-6.496-1.3-9.745-7.797-9.745h-3.248c-16.241,1.949-29.234,6.496-30.534,8.446c-1.948,2.599-5.231,20.783-11.694,43.527
	c-9.774,34.413-18.189,60.419-19.489,61.719c-1.298,0-12.993-42.879-16.241-55.221c-3.248-12.345-6.513-25.987-11.045-45.478
	c-1.963-8.439-5.198-11.043-8.446-11.043c-16.241,0-32.482,6.496-37.031,11.043c-1.948,1.95-1.933,3.248,0,19.491
	C172.243,243.455,172.228,277.237,172.228,297.376z M364.527,238.906l1.3,33.783c0,0,0,33.133,1.299,34.432
	c-1.299,6.498-1.299,45.478-3.248,45.478c0,3.248,1.949,3.898,3.898,3.898c0.649,1.3,12.344-2.599,14.942-5.198
	c1.95,0,3.898-1.948,3.898-5.196c0-6.496,0-32.484,0-71.464v-6.496c0,0,0-42.23,3.25-61.719c1.948-3.248,0-7.146-4.549-7.146
	c-8.446,0-18.191,3.898-21.439,7.146c-1.949,3.248-1.299,9.745,0,12.993C363.878,225.264,364.527,238.906,364.527,238.906z
	 M423.646,349.351c5.847,5.845,18.191,12.993,34.433,12.993c16.241,0,32.482-6.497,38.979-16.241
	c11.047-9.746,19.489-25.987,16.241-42.23c0-9.745-6.384-17.682-12.993-22.737c-4.438-3.397-13.021-7.729-25.986-12.993
	c-7.825-3.182-16.89-8.446-20.79-12.995c-1.948-1.299-3.898-6.496-3.898-11.692c0-7.797,1.949-11.045,5.198-15.593
	c6.496-5.198,12.993-6.497,22.737-6.497c9.745,0,12.993,2.599,18.841,2.599h1.299l2.597-1.3c1.299-1.299,1.299-1.299,3.248-6.496
	c1.299-1.299,3.248-6.497,1.949-7.795c0-5.198-8.446-8.446-14.942-8.446c-9.745,0-17.541,0-25.986,3.248
	c-3.248,0-9.095,2.599-12.993,5.198c-8.446,2.599-16.242,11.043-19.491,17.54c-3.248,4.548-5.198,12.994-5.198,22.739
	c0,6.496,3.899,16.243,10.396,22.739c6.496,6.496,17.541,12.993,40.279,22.737c9.745,5.198,12.993,12.993,12.993,19.491
	c0,6.496,0,9.745-3.248,12.993c-3.248,9.745-9.745,16.243-22.738,16.243c-3.248,0-10.394-0.651-12.993-1.949
	c-2.599-1.299-7.147-3.248-12.994-9.095c-1.948-3.248-4.547-4.548-6.497-3.248c-1.948,0-3.248,1.299-6.496,5.196
	c-3.248,3.248-4.547,6.496-4.547,9.097C421.049,344.802,421.698,348.05,423.646,349.351z M518.497,227.862
	c6.457,1.489,12.993-1.95,32.482-1.95h3.248c1.949,1.95,1.302,9.746,1.302,16.243c0,12.993,1.299,25.987,1.299,42.229
	c0,16.241,0.651,42.228,1.95,51.973c-1.299,3.25,0,9.746,0,12.995c0,3.248,0,6.496,1.299,7.795c1.95,1.95,0.651,1.95,3.899,1.95
	c3.245,0,9.094-3.248,12.342-6.496c3.248-1.95,3.899-3.248,3.899-6.497v-9.746c0-9.745-1.949-35.732-1.949-55.221
	c0-16.241,1.949-51.973,5.198-55.223c6.496-1.948,19.489,0.651,25.986-1.948c3.248-1.3,5.198-2.599,6.496-4.549
	c1.299-1.948,2.597-2.597,3.248-4.547c1.298-3.897,1.949-8.446,0-10.395c-1.299-1.299-6.497,0.651-12.993,0.651
	c-6.497,0-19.489-0.651-29.234-0.651h-25.989c-9.094,0-16.241,0.651-22.737,0.651c-3.248,0-6.496,3.248-9.745,7.795
	c-3.248,4.548-5.049,8.345-3.248,11.045C516.055,225.175,516.494,227.402,518.497,227.862z M712.745,353.897l1.949-2.599
	c1.95,0,1.95,0,1.95-1.948c2.597-3.248,4.547-6.497,4.547-11.045c0-1.949-0.648-4.548-1.95-5.198c-1.299,1.3-2.597,1.3-5.198,1.949
	c-5.845,0-15.59,1.299-22.087,1.299c-6.497,0-12.999,1.3-19.489,0c0,0-7.147-0.649-9.745-1.948c-1.95-1.3-3.248-4.548-3.248-7.797
	c0-12.993-0.651-27.935,0-33.782c3.896-1.95,17.539-1.95,25.985-1.95c3.248,0,16.241-0.649,19.489-1.949
	c3.248-1.299,6.496-4.547,6.496-6.497c1.299-1.299,3.248-6.496,3.248-9.095c0-5.847-1.949-5.196-1.949-5.196
	c-1.95,1.948-4.547,1.298-7.795,1.298h-20.14c0,0-17.54,0-23.388-1.298c-1.299,0-1.946-3.248-1.946-6.497
	c0-12.994,1.298-29.235,3.248-32.484c0-3.25,3.248-3.25,3.248-3.25l25.986-1.299c12.993-0.649,18.191-0.649,20.788-3.248
	c1.949-1.949,5.198-4.547,6.496-10.394c0-3.25,1.95-5.847,0-7.797c-2.597-1.299-14.291,0-20.14,0
	c-2.597,0.649-23.385-0.649-31.831,0c-14.291,0-17.543,0.649-23.388,1.949c-1.95,0-3.899,1.299-5.198,1.948
	c-1.299,1.3-1.299,1.95-1.95,5.198v16.892v19.489c0,19.491,1.95,64.968,1.95,84.457l-0.648,16.243c0,8.446,3.248,7.795,5.195,9.745
	c3.899,1.299,4.59,1.589,9.748,1.299l22.737-1.299C701.589,357.613,708.198,355.847,712.745,353.897z M750.428,216.167
	c-1.302-3.898-0.651-6.497,1.299-7.795c1.95-1.95,24.687-6.496,40.928-6.496c12.993,0,21.445,2.577,25.989,4.547
	c10.406,4.527,17.566,12.98,19.489,17.541c3.275,7.782,4.547,14.942,4.547,21.439c0,16.243-4.547,25.987-7.795,32.484
	c-3.248,6.497-9.745,12.344-12.993,14.293v1.948c0,1.3,4.573,8.433,6.496,12.993c3.275,7.783,12.993,25.987,22.738,38.982
	c1.949,2.597,4.547,4.547,6.496,7.795v1.949c-1.299,1.95-1.299,1.299-3.248,1.95c-1.299,1.299-9.745,2.597-12.993,2.597
	c-3.248,0-4.547-1.299-7.795-2.597c-2.6-1.95-3.252-3.25-5.198-6.498c-3.899-4.547-6.496-11.693-16.245-27.935
	c-6.496-9.745-9.745-17.541-12.993-22.739c-5.845,1.3-25.986,3.248-25.986,3.248c0,9.746-1.299,42.23-1.299,42.23
	c1.299,3.248-0.651,6.497-1.949,7.795c-3.248,3.899-14.943,7.147-16.241,5.847c-2.601,0-3.248-3.248-3.248-5.847
	c1.95-5.847,0-81.858,0-113.692C750.428,240.205,750.428,222.014,750.428,216.167z M773.166,282.433
	c3.248,1.3,9.745,1.95,16.241,1.95c9.745,0,16.241-1.95,19.489-4.547c6.5-8.446,9.748-18.191,9.748-31.185
	c0-16.241-9.748-25.987-28.586-25.987c-7.147,0-12.345,1.3-12.345,1.3s-0.648,0.649-1.299,1.948
	C773.166,235.658,773.166,261.645,773.166,282.433z"/>
</svg>
