<?xml version="1.0" encoding="utf-8"?>
<!-- Generator: Adobe Illustrator 19.2.0, SVG Export Plug-In . SVG Version: 6.00 Build 0)  -->
<!DOCTYPE svg PUBLIC "-//W3C//DTD SVG 1.1//EN" "http://www.w3.org/Graphics/SVG/1.1/DTD/svg11.dtd">
<svg version="1.1" id="Layer_1" xmlns="http://www.w3.org/2000/svg" xmlns:xlink="http://www.w3.org/1999/xlink" x="0px" y="0px"
	 width="1000px" height="1000px" viewBox="0 0 1000 1000" style="enable-background:new 0 0 1000 1000;" xml:space="preserve">
<style type="text/css">
	.st0{display:none;opacity:0.08;fill:#FFFFFF;enable-background:new    ;}
	.st1{display:none;opacity:0.15;fill:#FFFFFF;enable-background:new    ;}
	.st2{fill:#FFFFFF;}
</style>
<path class="st0" d="M687.097,455.51l191.399-12.796l-181.94,29.488l193.067,4.451l-190.841,12.242l186.947,21.699l-193.067-5.007
	l173.594,37.834l-186.948-21.699l152.452,52.301l-173.038-37.835l125.745,64.541l-152.451-52.3l93.473,74.556l-125.744-64.543
	l57.864,81.233l-93.473-74.557l19.473,84.572L526.3,568.458l-19.473,84.572l-18.918-85.128l-58.421,81.233l20.587-84.572
	l-94.03,74.557l58.421-81.233l-126.301,64.541l94.586-73.999l-153.008,51.744l126.301-64.541L182.45,572.909l153.008-51.744
	l-186.947,21.143l173.594-36.721l-193.068,3.895l187.504-21.143l-190.843-12.798l193.068-3.895l-181.383-30.044l190.842,13.352
	l-163.579-45.067l180.827,30.044l-139.655-58.977l163.579,45.623l-110.166-70.105l139.655,58.977L322.661,337l110.165,70.106
	l-38.948-83.459l75.67,78.452l0.556-85.129l37.834,83.459l39.504-83.459l-0.556,85.129l76.225-77.896l-39.504,82.903l110.722-69.549
	l-76.781,77.894l140.21-58.42L646.48,426.579l164.135-45.067l-140.21,58.421L851.79,411L687.097,455.51z"/>
<path class="st1" d="M627.006,466.082l127.414-8.901l-120.737,19.473l128.526,3.338l-127.412,8.347l124.632,13.908l-128.526-2.781
	l115.172,25.038L622,510.038l101.264,34.495L608.09,519.495l83.46,42.842l-101.264-34.495l62.317,49.519l-83.46-43.4l38.391,54.527
	l-62.315-50.075l12.796,56.752l-37.834-53.971l-13.354,56.196l-12.241-56.752l-38.947,53.97l13.353-56.194l-62.316,49.519
	l38.947-53.971l-84.015,42.842l62.872-48.961l-101.819,34.495l84.015-42.842l-115.729,24.481l102.376-34.497l-124.632,14.468
	L384.42,498.91l-128.526,2.781l124.632-13.91l-127.414-8.345l128.526-2.782l-120.18-20.029l126.857,8.901l-109.053-30.044
	L400,455.51l-93.474-38.948l109.053,30.046l-73.444-46.737l92.917,38.947l-50.631-51.745l73.444,46.737l-25.594-55.639l50.075,52.3
	V373.72l25.594,55.639l26.15-55.639l-0.556,56.751l51.189-52.3l-26.708,55.639l74-46.737l-51.187,52.301l93.473-38.947l-74,46.18
	l109.053-30.046l-93.475,38.948l120.737-19.473L627.006,466.082z"/>
<path class="st2" d="M808.81,412.517c-8.465,3.763-22.573,8.466-35.739,8.466c-10.643,0-20.669-2.464-29.09-9.365
	c18.212,1.817,33.793-10.129,33.793-27.315c0-15.989-13.168-24.455-25.394-24.455c-22.606,0-40.719,15.686-51.727,43.673v-20.583
	c36.901-62.814,50.787-99.455,50.787-126.546c0-15.987-7.525-43.263-25.394-43.263c-17.87,0-50.787,25.393-50.787,106.278v81.61
	c-8.741,11.049-16.195,17.142-22.571,17.142c-7.525,0-12.227-6.583-12.227-16.93c0-10.343,3.762-21.63,6.583-28.213
	c2.822-6.583,0-12.227-7.524-7.526c-4.703,2.823-9.406,6.583-16.929,6.583c-2.822,0-11.287,0-15.988-3.76
	c0.94-13.167-3.763-20.693-12.227-20.693c-7.525,0-15.048,7.526-15.048,17.87c0,9.037,4.314,15.639,11.175,19.852
	c-4.104,17.856-18.898,30.937-27.164,30.937c-6.583,0-9.405-4.703-9.405-15.99v-31.976c0-5.974-10.233-3.209-17.708,2.486
	c-5.698-4.62-14.683-8.13-23.674-8.13c-21.631,0-49.846,17.869-49.846,47.026c0,19.75,13.167,31.036,31.036,31.036
	c14.493,0,28.18-10.481,36.89-23.7c2.289,15.769,14.276,20.877,25.184,20.877c19.689,0,41.522-24.332,46.778-48.024
	c3.33,0.659,6.884,1.001,10.593,1.001c4.746,0,9.114-0.982,12.775-2.233c-5.669,7.542-9.954,18.134-9.954,25.743
	c0,14.109,10.345,23.513,26.333,23.513c12.228,0,22.81-6.608,32.918-17.803v10.28c0,4.703,1.882,6.583,6.585,6.583h15.048
	c4.702,0,5.642-3.76,6.583-6.583c10.345-36.68,23.513-54.549,36.68-54.549c7.525,0,12.226,7.524,12.226,15.05
	c0,3.76-1.882,9.403-6.583,9.403c-4.703,0-6.583-3.76-9.405-5.643c-4.703-3.76-15.048,9.406-15.048,20.693
	c0,10.343,15.048,24.453,39.501,24.453c28.215,0,44.204-10.346,50.787-18.81C816.333,415.34,814.453,409.697,808.81,412.517z
	 M504.086,415.34c-11.286,0-16.929-8.466-16.929-19.753c0-10.343,8.465-18.81,19.751-18.81c8.339,0,14.848,3.121,21.492,9.726
	C527.014,406.245,515.551,415.34,504.086,415.34z M716.64,228.179c12.226,0,15.988,21.631,15.988,38.561
	c0,25.567-14.464,63.421-31.976,95.185v-55.682C700.652,271.443,704.413,228.179,716.64,228.179z M223.748,496.228
	c0-11.287,8.463-19.753,19.75-19.753c11.286,0,19.753,8.466,19.753,19.753c0,11.283-8.466,19.75-19.753,19.75
	C232.211,515.978,223.748,507.511,223.748,496.228z M488.097,468.949c-6.583,14.107-19.75,21.63-32.918,21.63
	c-26.333,0-39.501-23.513-39.501-62.073c0-27.276,4.703-64.895,4.703-92.169c0-16.929-3.762-26.336-14.108-26.336
	c-15.048,0-29.156,17.87-29.156,63.015v57.369c0,4.703-1.88,6.583-6.583,6.583h-14.106c-4.703,0-6.585-1.88-6.585-6.583V326.932
	c0-16.93,0-36.68-14.107-36.68c-10.346,0-27.275,14.107-27.275,47.026v93.109c0,4.703-1.882,6.583-6.585,6.583H287.77
	c-4.703,0-6.585-1.88-6.585-6.583V316.586c0-43.263-18.81-62.073-47.965-62.073c-29.156,0-61.134,20.69-61.134,61.132
	c0,28.216,19.751,45.145,43.264,45.145c15.988,0,29.155-9.406,39.501-23.513c5.643-7.526,9.405-1.883,5.643,5.643
	c-9.406,18.81-30.096,36.679-57.371,36.679c-29.156,0-50.787-24.453-50.787-53.609c0-48.906,45.144-88.408,89.347-88.408
	c30.512,0,58.851,15.915,65.371,64.215c8.443-18.683,22.168-29.415,39.025-29.415c20.691,0,31.036,16.929,31.036,38.559v11.882
	c8.602-20.058,23.234-28.811,36.681-28.811c15.988,0,31.976,12.229,31.976,39.502c0,24.453-3.762,58.312-3.762,86.525
	c0,33.859,5.643,52.669,21.631,52.669c9.405,0,14.108-3.76,18.81-9.404C486.217,458.603,490.919,463.306,488.097,468.949z
	 M963.925,581.813c-4.703,3.76-9.406,5.643-15.05,5.643c-4.7,0-9.403-1.883-14.107-14.109l-6.583-17.87
	c-4.703-12.227-8.463-20.69-19.75-20.69c-10.55,0-20.003,8.403-25.63,19.06c-1.221-9.657-7.446-17.18-16.693-17.18
	c-0.069,0-0.221,0-0.477,0c-0.425,0-1.141,0-2.346,0c-3.76,0-5.643,1.883-5.643,6.583v2.889
	c-2.889,7.311-12.083,12.161-28.216,12.161c0-7.523-3.76-18.81-17.87-18.81c-2.475,0-5.081,0.932-7.372,2.442
	c-2.999-3.884-8.24-6.205-14.258-6.205c-15.157,0-33.647,16.248-38.926,34.377c-6.415,7.964-13.55,13.15-21.412,16.77
	c-2.217-35.828-31.83-33.007-31.83-50.207c0-2.82-1.883-5.643-4.703-5.643c-7.523,0-16.93,13.166-16.93,21.633
	c0,4.485,1.469,8.193,3.777,11.402c-5.379,12.328-14.983,23.397-21.647,23.397c-4.703,0-9.406-1.883-14.107-14.109l-6.583-17.87
	c-4.703-12.227-8.466-20.69-19.753-20.69c-10.55,0-20,8.403-25.627,19.06c-1.221-9.657-7.446-17.18-16.695-17.18
	c-0.072,0-0.223,0-0.474,0c-0.427,0-1.141,0-2.346,0c-3.763,0-5.643,1.883-5.643,6.583v2.889
	c-2.892,7.311-12.086,12.161-28.216,12.161c0-7.523-3.76-18.81-17.87-18.81c-2.475,0-5.084,0.932-7.374,2.442
	c-2.997-3.884-8.235-6.205-14.255-6.205c-14.661,0-32.464,15.198-38.394,32.599c-0.061,0.099-0.127,0.196-0.168,0.32
	c-3.76,11.284-10.347,18.81-16.93,18.81c-4.701,0-9.404-1.883-14.107-14.109l-6.583-17.87c-4.703-12.227-8.464-20.69-19.75-20.69
	c-10.669,0-20.207,8.596-25.812,19.424c-1.395-13.481-6.6-19.424-18.393-19.424c-9.274,0-24.119,7.027-32.1,20.045
	c-0.91-10.128-7.245-18.164-16.805-18.164c-0.072,0-0.223,0-0.474,0c-0.427,0-1.141,0-2.346,0c-3.763,0-5.643,1.883-5.643,6.583
	v4.703c0,15.99-18.81,38.56-35.739,38.56c-5.643,0-9.404-5.64-9.404-15.047v-28.216c0-4.7-1.883-6.583-6.586-6.583h-12.226
	c-4.703,0-6.583,1.883-6.583,6.583v6.583c0,24.453-18.81,44.206-37.619,55.492c-7.526,4.7-4.703,10.343,2.823,7.523
	c13.354-5.343,28.092-14.967,35.541-27.16c2.015,15.89,8.475,24.337,22.768,24.337c13.434,0,36.434-13.291,47.026-31.477v23.954
	c0,4.703,1.88,6.583,6.583,6.583h12.226c4.703,0,6.583-1.88,6.583-6.583v-18.81c0-15.99,11.286-25.393,18.81-25.393
	c3.763,0,6.583,1.88,6.583,9.403v34.799c0,4.703,1.883,6.583,6.583,6.583h12.227c4.703,0,6.583-1.88,6.583-6.583v-18.81
	c0-15.99,10.346-25.393,15.99-25.393c5.643,0,6.583,8.463,7.523,12.226l4.703,19.75c2.823,14.107,10.346,20.693,23.513,20.693
	c13.544,0,24.624-8.306,31.185-19.267c4.714,13.247,17.624,23.028,37.47,23.028c24.208,0,38.05-22.239,40.134-40.443
	c0.416,0,0.805,0,1.249,0c9.707,0,20.423-4.099,27.276-11.146v39.362c0,4.703,1.88,6.583,6.583,6.583h12.227
	c4.703,0,6.583-1.88,6.583-6.583v-18.81c0-15.99,10.346-25.393,15.99-25.393c5.643,0,6.583,8.463,7.523,12.226l4.703,19.75
	c2.82,14.107,10.344,20.693,23.513,20.693c19.794,0,35.621-18.909,42.497-40.137c9.938,7.796,23.339,12.797,23.339,22.267
	c-7.526,0-12.226-2.823-15.989-2.823c-5.643,0-11.287,9.406-11.287,14.107c0,4.703,9.406,6.586,15.05,6.586
	c17.95,0,38.402-9.646,52.492-23.695c3.22,15.444,16.734,27.455,38.736,27.455c24.205,0,38.047-22.239,40.131-40.443
	c0.419,0,0.808,0,1.252,0c9.707,0,20.42-4.099,27.273-11.146v39.362c0,4.703,1.883,6.583,6.583,6.583h12.227
	c4.703,0,6.583-1.88,6.583-6.583V579.93c0-15.987,10.346-21.63,15.99-21.63s6.583,8.463,7.523,12.226l4.703,19.75
	c2.82,14.107,10.347,20.693,23.513,20.693c12.227,0,31.036-13.169,34.799-23.513C971.449,582.753,966.745,579.93,963.925,581.813z
	 M503.076,590.277c-11.286,0-23.513-10.346-23.513-23.513c0-9.403,6.583-15.987,15.05-15.987c4.711,0,8.924,1.469,12.326,4.359
	c0.513,6.123,3.27,13.255,14.007,18.211C520.946,582.753,515.303,590.277,503.076,590.277z M793.695,590.277
	c-11.286,0-23.513-10.346-23.513-23.513c0-9.403,6.583-15.987,15.047-15.987c4.708,0,8.924,1.469,12.326,4.359
	c0.513,6.123,3.267,13.255,14.007,18.211C811.561,582.753,805.921,590.277,793.695,590.277z M121.23,492.473
	c-3.763,7.523-7.525,12.227-7.525,22.573c0,16.93,14.108,30.096,32.918,30.096c29.156,0,43.263-20.693,43.263-43.263
	c0-35.739-34.798-63.955-74.299-63.955c-39.502,0-65.835,25.393-65.835,58.312c0,76.179,118.503,71.479,118.503,154.241
	c0,36.68-26.334,60.192-54.549,60.192c-27.275,0-41.382-16.927-41.382-36.68c0-23.513,23.513-41.383,41.382-41.383
	c7.525,0,7.525,7.526,1.882,7.526c-11.286,0.94-23.513,8.464-23.513,26.333c0,13.166,11.287,26.333,30.096,26.333
	s31.036-12.227,31.036-31.976C153.206,594.048,30,600.631,30,507.523c0-51.729,51.727-92.171,95.932-92.171
	c42.323,0,77.12,26.336,77.12,75.242c0,41.383-28.215,72.419-59.251,72.419c-27.274,0-46.084-19.753-46.084-42.323
	c0-15.989,10.345-28.216,19.75-31.979C120.288,487.77,122.17,489.653,121.23,492.473z M321.684,756.87
	c-4.771,0-11.157-2.128-14.68-8.882l8.662-5.431c0.66,2.423,3.082,4.256,6.018,4.256c3.377,0,6.093-2.423,6.093-5.356
	c0-3.598-3.596-5.8-7.634-8.221c-5.358-3.305-11.523-6.975-11.523-14.975c0-7.559,6.532-13.726,14.533-13.726
	c4.845,0,10.644,2.495,13.433,8.516l-9.029,4.623c-0.514-2.128-2.715-3.082-4.404-3.082c-2.422,0-4.477,1.687-4.477,3.669
	c0,2.641,3.082,4.477,6.826,6.68c5.505,3.303,12.406,7.559,12.406,16.516C337.906,749.969,330.639,756.87,321.684,756.87z
	 M387.521,715.545v40.296h-9.982v-40.296h-8.368v-9.982h26.791v9.982H387.521z M446.971,756.87c-8.735,0-15.781-7.046-15.781-15.783
	v-35.524h9.982v35.524c0,3.231,2.569,5.872,5.799,5.872s5.872-2.641,5.872-5.872v-35.524h9.908v35.524
	C462.751,749.823,455.705,756.87,446.971,756.87z M515.085,755.841h-12.698v-50.279h12.698c13.872,0,25.178,11.303,25.178,25.175
	C540.263,744.61,528.958,755.841,515.085,755.841z M515.085,715.545h-2.715v30.314h2.715c8.441,0,15.193-6.751,15.193-15.121
	C530.278,722.296,523.527,715.545,515.085,715.545z M576.59,755.841v-50.279h9.982v50.279H576.59z M649.108,756.87
	c-14.46,0-26.204-11.672-26.204-26.132c0-14.46,11.744-26.204,26.204-26.204c14.459,0,26.129,11.744,26.129,26.204
	C675.237,745.197,663.567,756.87,649.108,756.87z M649.108,746.813c8.882,0,16.075-7.193,16.075-16.075
	c0-8.88-7.193-16.075-16.075-16.075c-8.883,0-16.149,7.195-16.149,16.075C632.958,739.62,640.225,746.813,649.108,746.813z"/>
</svg>
