<?xml version="1.0" encoding="utf-8"?>
<!-- Generator: Adobe Illustrator 21.0.0, SVG Export Plug-In . SVG Version: 6.00 Build 0)  -->
<svg version="1.1" id="Layer_1" xmlns="http://www.w3.org/2000/svg" xmlns:xlink="http://www.w3.org/1999/xlink" x="0px" y="0px"
	 width="1000px" height="1000px" viewBox="0 0 1000 1000" style="enable-background:new 0 0 1000 1000;" xml:space="preserve">
<style type="text/css">
	.st0{fill:#FFFFFF;}
</style>
<path class="st0" d="M225.9,526.3h16.6l-8.5-135h-22.4l-33.9,97c-2.7,7.9-4.6,14.1-6.7,21.6c-1.2-5.8-3.5-15-5.2-20.4L133,391.3H110
	l-10,135h16l5.2-84.8c0.8-12.5,1.7-26,1.7-34.3c2.3,8.1,6.2,20,8.3,26.6l30.9,92.5h17.7l31.6-91.8c3.5-10,5.8-19.1,8.1-27.6
	c0,8.1,0.8,25.1,1.2,32.2L225.9,526.3z M331.3,476.3c0,22.4-8.7,38.9-28.9,38.9c-19.3,0-28.5-12.1-28.5-35.7
	c0-22.4,9.1-39.1,29.3-39.1C322.6,440.5,331.3,452.8,331.3,476.3 M347.8,476.3c0-30.1-13.3-48.6-42.4-48.6
	c-31.4,0-48.2,19.7-48.2,51.9c0,30.1,13.3,48.6,42.4,48.6C331.1,528.2,347.8,508.5,347.8,476.3 M427.2,526.3h16v-68.8
	c0-20-12.5-29.9-29.5-29.9c-13.5,0-24.5,6-32.8,11l-2.5-9.1h-13.3v96.8h16v-76.9c8.5-4.2,18.1-7.9,27.6-7.9
	c11.4,0,18.5,5.4,18.5,17.9L427.2,526.3L427.2,526.3z M534.4,476.3c0,22.4-8.7,38.9-28.9,38.9c-19.3,0-28.5-12.1-28.5-35.7
	c0-22.4,9.1-39.1,29.3-39.1C525.7,440.5,534.4,452.8,534.4,476.3 M550.9,476.3c0-30.1-13.3-48.6-42.4-48.6
	c-31.4,0-48.2,19.7-48.2,51.9c0,30.1,13.3,48.6,42.4,48.6C534.2,528.2,550.9,508.5,550.9,476.3 M594.7,528c9.3,0,17.9-2.2,24.2-4.8
	l-1.9-10.7c-3.5,0.8-9.5,2-14.5,2c-7.7,0-12.7-3.1-12.7-13.7v-58.6h23.9l1.9-12.7h-26l-0.4-27.6l-11.8,2.9l-3.5,23.9l-16.2,4.2v8.9
	l16,0.2v63.8C573.7,521.5,582,528,594.7,528 M681.2,526.1l33.5-96.6h-17.2L677.5,491c-1.9,5.6-5,15.8-6.6,21.2
	c-1.5-5.4-5-15.6-6.9-21l-22.9-61.7h-17.5l37.4,96.8h4.2c-9.1,20.4-16.6,29.1-32.6,29.1c-4,0-10.2-0.8-14.1-2.1l-2.7,12.1
	c4.2,1.5,11.4,3.3,19.1,3.3C663.6,568.7,672.3,551.1,681.2,526.1 M789.5,476.1c0,27-14.5,39.1-32.6,39.1c-5.8,0-12.5-1.3-17.3-2.9
	v-66.3c7.1-2.7,15.4-4.6,22.4-4.6C778.9,441.4,789.5,449.2,789.5,476.1 M806.1,474.4c0-34.3-16.2-46.8-38.4-46.8
	c-11,0-20.8,3.1-28.1,7.9l-2.7-6h-13.3v139.2l16-3.9v-39.7c5.6,2.1,12.1,3.1,17.5,3.1C781.1,528.2,806.1,513.9,806.1,474.4
	 M883.4,467.3h-46.3c1.5-13.3,8.5-26.8,23.7-26.8C874.9,440.5,882.5,450.5,883.4,467.3 M900,473.4c0-27.8-12.3-45.7-37.4-45.7
	c-28.7,0-42.8,22-42.8,51.9c0,31.2,17.5,48.6,45.3,48.6c13.5,0,23.5-2.1,32-6l-2.5-11.6c-8.5,2.5-15.4,3.9-26.8,3.9
	c-18.9,0-31.4-13.3-31.4-33.9v-1.4H899L900,473.4z"/>
</svg>
