<?xml version="1.0" encoding="utf-8"?>
<!-- Generator: Adobe Illustrator 21.0.0, SVG Export Plug-In . SVG Version: 6.00 Build 0)  -->
<svg version="1.1" id="Calque_1" xmlns="http://www.w3.org/2000/svg" xmlns:xlink="http://www.w3.org/1999/xlink" x="0px" y="0px"
	 width="1000px" height="1000px" viewBox="0 0 1000 1000" style="enable-background:new 0 0 1000 1000;" xml:space="preserve">
<style type="text/css">
	.st0{fill:#FFFFFF;}
</style>
<g>
	<polygon class="st0" points="601.3,521.2 589.5,556.6 613,556.6 	"/>
	<polygon class="st0" points="638.3,662.3 661.8,662.3 650.1,626.9 	"/>
	<rect x="366.8" y="494.1" class="st0" width="29.5" height="17.2"/>
	<path class="st0" d="M654,306.9c-15.6,0-27.5,12.7-27.5,29.6c0,16.1,12.1,28.9,27.5,28.9s27.4-12.7,27.4-29.2
		C681.3,319.7,669.3,306.9,654,306.9z"/>
	<path class="st0" d="M521.9,414.2h-7.1V434h7.1c9.8,0,14-3,14-10C535.9,417,531.9,414.2,521.9,414.2z"/>
	<path class="st0" d="M180,170v640h640V170H180z M754.6,747.7h-512v-512h512V747.7z"/>
	<path class="st0" d="M737.7,252.5H259.4v478.4h478.4L737.7,252.5L737.7,252.5z M507,291.4h22l19.8,63.3l19.8-63.3h22.1l11.8,89.4
		h-19.1l-6.8-59.8l-18.4,59.8h-18.9L521.2,321l-6.7,59.8h-19.1L507,291.4z M517.1,450h-2.3v36.4h-18.5v-89.5h26.8
		c8.7,0,13.2,0.8,17.8,3.1c8.7,4.4,13.8,13.2,13.8,23.8c0,12.4-6.9,21.7-18.5,24.7l25.7,37.9h-22.2l0,0L517.1,450z M589.5,502.4H613
		l32.4,89.4h-20.7l-6.5-19.5h-34l-6.6,19.5h-20.7L589.5,502.4z M570,486.4v-89.5H589v89.5H570z M518.4,554
		c-17.2-6-23.4-12.8-23.4-25.7c0-16,12.5-27.6,30.1-27.6c7.5,0,14.8,2.1,22.2,6.3l-4.3,16.9c-6.2-4-12.3-6-17.6-6
		c-7,0-11.8,3.9-11.8,9.4c0,2.6,1.3,5.2,3.4,6.6c1.7,1.2,3.6,1.9,8,3.5c12.1,4.3,16.3,6.2,20.4,10.7c4.1,4.4,6.3,10.3,6.3,17
		c0,16.8-13.4,28.6-32.6,28.6c-9.9,0-19-2.7-27.9-8.3l5.4-16.9c7.5,5.2,14.8,7.9,22,7.9c8.4,0,14.3-4.1,14.3-10
		C533.2,560.8,529.8,557.9,518.4,554z M322.9,325.8H355v-12.6h-32.1v-22.9h118v22.9h-55.1v12.6H441v22.9h-55.1v8.4
		c0,3.7,1.7,5.2,5.6,5.2H441v25h-56.8c-17.4,0-29.2-15.5-29.2-30.1v-8.4h-32.1L322.9,325.8L322.9,325.8z M363.2,394.7V455h-30.9
		v-60.3H363.2z M437.1,666.9c0,17-13.8,31-27,31H366v-25h33.2c3.9,0,7-2.6,7-6.6V625h-50v33.6h-28.7v-57.7l0,0H437L437.1,666.9
		L437.1,666.9z M445.5,535.4h-18.3v29.9c0,17-13.8,31-27,31h-33.4v-25h22.5c3.9,0,7-2.6,7-6.6v-29.2h-29.5v19.8H338v-19.8h-18.3
		v-24.2H338v-17.2h24.7V468h31.7c3.4,0,5.3-2.6,5.3-6.3v-66.8h30.9v66.8c0,18-12.8,32.4-29.8,32.4h26.1v17.2h18.3L445.5,535.4
		L445.5,535.4z M567.9,697.6L552,630.7l-15.8,66.9h-22.4l-25.7-89.4H508l16.9,65.9l16-65.9h22.4l15.9,65.9l16.9-65.9H616l-25.7,89.4
		H567.9z M673.6,697.6l-6.5-19.5h-34l-6.6,19.5h-20.7l32.4-89.4h23.6l32.4,89.4H673.6z M653.9,382.7c-26.7,0-46.1-19.8-46.1-46.9
		c0-26.2,19.9-46,46.1-46c26.6,0,46.3,19.8,46.3,46.5C700.1,362.9,680.4,382.7,653.9,382.7z"/>
</g>
</svg>
