<?xml version="1.0" encoding="utf-8"?>
<!-- Generator: Adobe Illustrator 21.0.0, SVG Export Plug-In . SVG Version: 6.00 Build 0)  -->
<svg version="1.1" id="Layer_1" xmlns="http://www.w3.org/2000/svg" xmlns:xlink="http://www.w3.org/1999/xlink" x="0px" y="0px"
	 width="1000px" height="1000px" viewBox="0 0 1000 1000" style="enable-background:new 0 0 1000 1000;" xml:space="preserve">
<style type="text/css">
	.st0{fill:#FFFFFF;}
</style>
<path class="st0" d="M642.467,729.867l77,95.667h15.867l-49.467-62.067c-17.267-21.933-21.933-42.933-21.933-62.533
	c0-20.067,4.667-37.8,5.6-53.2l1.4-20.533c0-2.333,0-4.667,0-7.467c0-13.067-0.933-26.133-3.733-39.667L787.133,470.4
	c4.667-4.667,7.467-6.067,15.867-6.067h17.733L824,462l0.467-11.2H674.2L342.4,755.067c-8.867-7.467-17.267-15.867-24.733-25.2
	l303.8-279.067h-90.533v10.733l3.267,2.8h11.2c9.8,0,17.733,4.2,17.733,12.133c0,5.133-3.267,11.667-12.133,19.6l-241.733,222.6
	c-8.4-12.133-14.467-25.2-19.6-39.2c-0.933-4.2-1.867-7.933-1.867-11.667c0-13.533,11.2-25.2,50.4-62.067l242.667-226.8
	c25.667-25.2,37.333-56.467,37.333-87.267c0-24.733-7.467-49.933-21.467-71.867c0.467,1.4,0.933,4.2,0.933,7.467
	c0,6.533-1.867,14.933-10.267,22.867L329.333,485.8c-37.333,33.6-60.2,82.133-60.2,136.267c0,102.2,82.133,184.333,184.333,184.333
	c99.867,0,184.8-83.533,184.8-182.933c0-5.133-0.467-10.267-0.933-15.867l19.133-17.733c1.867,10.733,2.8,21.467,2.8,32.2
	c0,105-89.6,205.333-205.8,205.333c-113.4,0-205.333-91.933-205.333-205.333c0-59.733,25.2-113.4,65.8-150.733L556.6,246.4
	c12.6-11.667,17.267-23.333,17.267-33.6c0-20.067-16.8-36.867-30.8-46.2c-26.133-16.8-56-26.6-88.2-26.6
	c-90.067,0-163.333,73.267-163.333,163.333c0,48.067,20.533,91.467,54.133,121.333L305.533,462c-42.933,39.667-70,96.6-70,160.067
	c0,120.4,97.533,217.933,217.933,217.933C514.6,840,569.2,814.333,608.4,774.2C622.867,758.8,634.067,744.333,642.467,729.867z
	 M356.4,415.333c-31.733-29.4-50.4-69.067-50.4-112c0-82.133,66.733-148.867,148.867-148.867c30.333,0,55.067,7.467,73.267,20.533
	c19.133,13.533,28.467,26.6,28.467,39.667c0,10.267-5.6,20.533-16.8,31.733L356.4,415.333z M628,615.533
	c0.467,3.267,0.467,7,0.467,10.267c0,86.8-78.867,170.333-174.067,170.333c-7,0-13.533-0.467-20.533-1.4L628,615.533z"/>
</svg>
