<?xml version="1.0" encoding="utf-8"?>
<!-- Generator: Adobe Illustrator 19.2.0, SVG Export Plug-In . SVG Version: 6.00 Build 0)  -->
<!DOCTYPE svg PUBLIC "-//W3C//DTD SVG 1.1//EN" "http://www.w3.org/Graphics/SVG/1.1/DTD/svg11.dtd">
<svg version="1.1" id="Layer_1" xmlns="http://www.w3.org/2000/svg" xmlns:xlink="http://www.w3.org/1999/xlink" x="0px" y="0px"
	 width="1000px" height="1000px" viewBox="0 0 1000 1000" style="enable-background:new 0 0 1000 1000;" xml:space="preserve">
<style type="text/css">
	.st0{fill:#FFFFFF;}
</style>
<g>
	<path class="st0" d="M387.7,363.1c3.3,0,4.9,2.3,4.9,7c0,4.1-1.1,9.3-3.3,15.7c-2.2,6.3-4.8,12.4-7.8,18.1l-44.9,90.3
		c-3.3,6.3-6.3,10.9-9.1,13.8c-2.8,2.9-5.9,4.3-9.5,4.3c-5.8,0-10.7-3.8-14.8-11.5c-4.1-7.7-6.2-16.8-6.2-27.2
		c0-1.9,0.1-4.2,0.2-6.8c0.1-2.6,0.4-6.2,0.8-10.9c0.4-4.7,1-10.6,1.9-17.7c0.8-7.1,1.9-16.2,3.3-27.2c1.4-12.4,2.7-23.5,3.9-33.4
		c1.2-9.9,1.9-18,1.9-24.3c0-4.7-0.4-8.1-1.2-10.3l-43.3,132.3c-3.9,11-7.2,18.8-9.9,23.5c-2.8,4.7-6.9,7-12.4,7
		c-4.1,0-8-1.3-11.7-3.9s-6.9-6.2-9.5-10.7s-4.7-9.9-6.4-16.1c-1.7-6.2-2.5-12.8-2.5-20c0-15.7,0.5-31,1.4-46c1-15,1.4-28.6,1.4-41
		c0-11.8-0.8-18.8-2.5-21c-1.4,3.9-2.8,8.5-4.3,13.8c-1.5,5.4-3.2,11.6-4.9,18.8c-1.8,7.1-3.8,15.5-6,24.9
		c-2.2,9.5-4.7,20.4-7.4,32.8L177,500.1c-1.9,8.2-4.5,16.2-7.6,23.9c-3.2,7.7-7.2,14.5-12.2,20.4c-4.9,5.9-11.1,10.6-18.5,14.2
		c-7.4,3.6-16.4,5.4-26.8,5.4c-12.4,0-24.1-1.5-35.2-4.5c-11.1-3-20.9-7.2-29.3-12.6c-8.4-5.4-15-11.7-20-19
		c-4.9-7.3-7.4-15.3-7.4-24.1c0-9.6,3.7-17.8,11.1-24.5c7.4-6.7,18.1-10.1,32.2-10.1c9.1,0,17.1,1.1,24.1,3.3
		c7,2.2,12.9,4.9,17.7,8.2c4.8,3.3,8.4,6.8,10.9,10.5s3.7,7.1,3.7,10.1c0,4.9-2.6,7.4-7.8,7.4c-3.6,0-8.7-0.5-15.5-1.4
		c-6.7-1-13.7-1.4-20.8-1.4c-9.1,0-17,1.2-23.9,3.7c2.5,3.6,6,7.1,10.7,10.7c4.7,3.6,10,6.7,16.1,9.5c6,2.7,12.4,5,19.2,6.8
		c6.7,1.8,13.3,2.7,19.6,2.7c7.4,0,13.3-1.8,17.7-5.4c4.4-3.6,8.2-9.5,11.3-17.7c3.2-8.2,6.1-19.2,8.9-33
		c2.7-13.7,6.2-30.8,10.3-51.1c5.8-28,11-50.5,15.7-67.4s9.1-29.8,13.2-38.7s8.1-14.8,12-17.7c3.8-2.9,7.8-4.3,12-4.3
		c4.4,0,8.8,1.4,13.2,4.1c4.4,2.8,8.3,6.5,11.7,11.3c3.4,4.8,6.2,10.6,8.2,17.3c2.1,6.7,2.9,14,2.7,21.6l-3.7,84.9l35.4-111.3
		c2.7-8.2,5.2-14.9,7.2-20c2.1-5.1,4.1-8.9,6.2-11.5s4.1-4.4,6.2-5.4s4.6-1.4,7.6-1.4c3.6,0,7.4,1.2,11.5,3.5
		c4.1,2.3,8,5.6,11.5,9.7c3.6,4.1,6.5,9.1,8.7,14.8c2.2,5.8,3.3,12.1,3.3,19c0,4.1-0.2,8.7-0.6,13.6s-1.1,11.3-2.1,19
		c-1,7.7-2.2,17.2-3.7,28.4c-1.5,11.3-3.2,25.3-5.2,42l25.6-51.1c3.3-6.6,6.1-11.9,8.5-15.9c2.3-4,4.5-6.9,6.4-8.9
		c1.9-1.9,3.7-3.2,5.4-3.7C384,363.4,385.8,363.1,387.7,363.1z"/>
	<path class="st0" d="M381.5,403.9c-0.3-4.1-0.6-8.2-1-12.4c-0.4-4.1-0.6-8.1-0.6-12c0-4.7,0.6-8.6,1.6-11.7
		c1.1-3.2,3.2-4.7,6.2-4.7c4.1,0,8,1,11.7,3.1s6.9,4.8,9.7,8.2c2.7,3.4,4.9,7.2,6.6,11.3c1.6,4.1,2.5,8.2,2.5,12.4
		c0,5.8-1,14.4-3.1,25.8c-2.1,11.4-5.4,28.6-10.1,51.7l19-38.3c4.4-8.5,7.8-14.4,10.3-17.7c2.5-3.3,6-4.9,10.7-4.9
		c4.7,0,8.7,1.6,12.2,4.9c3.4,3.3,6.2,7.8,8.2,13.4c2.1,5.6,3.6,12.2,4.5,19.6c1,7.4,1.4,15.3,1.4,23.5c0,19.2-1.5,38.9-4.5,58.9
		c-3,20.1-7.6,39.6-13.8,58.7c-6.2,19.1-14.1,37.1-23.7,54c-9.6,16.9-21,31.6-34,44.1c-13.1,12.5-28,22.5-44.7,29.9
		c-16.8,7.4-35.4,11.1-56.1,11.1c-17.3,0-31.5-2.8-42.5-8.4c-11-5.6-16.5-13.4-16.5-23.3c0-3.9,1.1-6.1,3.3-6.8
		c2.2-0.7,4.5-0.5,7,0.6c5.2,2.2,10,4.1,14.4,5.6s8.5,2.7,12.4,3.5s7.6,1.4,11.3,1.7c3.7,0.3,7.8,0.4,12.2,0.4
		c16.8,0,31.9-3.7,45.6-11.1c13.6-7.4,25.6-17.5,36.1-30.1c10.4-12.6,19.4-27.4,27-44.3s13.9-34.8,19-53.6s9-38.2,11.7-58.1
		c2.7-19.9,4.5-39.4,5.4-58.3l-27.6,55.6c-4.7,9.1-8.4,15.8-11.3,20.2c-2.9,4.4-6.3,6.6-10.1,6.6c-2.2,0-4.7-0.7-7.4-2.1
		c-2.7-1.4-5.2-3.4-7.4-6.2c-2.2-2.7-4.1-6.2-5.6-10.5s-2.3-9.1-2.3-14.6c0-7.7,0.7-16.3,2.1-26c1.4-9.6,2.8-19.1,4.3-28.4
		s2.9-17.7,4.1-25.1C380.9,412.6,381.5,407.2,381.5,403.9z"/>
	<path class="st0" d="M622.2,390.7c1.6,0,2.3,1.4,2.1,4.1c-0.3,2.8-1.7,5.8-4.1,9.3c-2.5,3.4-6.2,6.6-11.1,9.5
		c-4.9,2.9-11.3,4.3-19,4.3c-6,0.3-12.4,0.6-19,0.8c-6.6,0.3-13.3,0.7-20.2,1.2l-9.5,63.5c-1.9,13.5-4.2,24.7-6.8,33.6
		c-2.6,8.9-5.4,16.1-8.2,21.4c-2.9,5.4-6,9.1-9.3,11.3s-6.7,3.3-10.3,3.3c-3.9,0-6.5-1-8-3.1c-1.5-2.1-2.3-5.2-2.3-9.3
		c0-1.9,0.3-6,1-12.2c0.7-6.2,1.6-14.5,2.7-24.9l9.9-81.6c-4.4,0.3-8.3,0.5-11.7,0.6c-3.4,0.1-6,0.2-7.6,0.2c-3.6,0-6-0.7-7.4-2.1
		c-1.4-1.4-2.1-3.2-2.1-5.4c0-5.5,2.7-10.3,8.2-14.4s13.5-6.5,23.9-7l6.6-53.6h-45.8c-5.8,0.3-10.8-0.4-15-2.1
		c-4.3-1.6-7.8-3.7-10.5-6.2c-2.7-2.5-4.8-5.1-6.2-7.8c-1.4-2.7-2.1-5.1-2.1-7c0-4.7,1.7-7.6,5.2-8.7c3.4-1.1,7.5-1.8,12.2-2.1
		l66.8-2.1c1.1-9.3,2.2-17.1,3.3-23.3c1.1-6.2,2.3-11,3.7-14.4c1.4-3.4,2.9-5.8,4.5-7.2c1.7-1.4,3.4-2.1,5.4-2.1
		c7.1,0,12.6,4.3,16.5,13c3.8,8.7,6,19.6,6.6,32.8l165.3-4.5c3.8-0.3,6.9,0.1,9.1,1c2.2,1,3.3,3.4,3.3,7.2c0,3.3-0.8,6.9-2.5,10.7
		c-1.6,3.9-4.1,7.4-7.2,10.7c-3.2,3.3-6.9,6-11.3,8c-4.4,2.1-9.2,3.1-14.4,3.1c-1.1,0-6.3,0-15.5,0c-9.2,0-20.8,0.1-34.8,0.2
		s-29.4,0.3-46.2,0.4c-16.8,0.1-33.1,0.2-49,0.2l-7,52.8c7.4-0.3,15-0.5,22.9-0.8c7.8-0.3,15-0.5,21.4-0.8
		c6.5-0.3,11.9-0.5,16.3-0.6C619.2,390.8,621.7,390.7,622.2,390.7z"/>
	<path class="st0" d="M637.1,405.5c2.5-2.5,5.3-4.5,8.5-6.2c3.2-1.6,6.2-2.5,9.3-2.5c2.5,0,4.7,0.8,6.6,2.5c1.9,1.6,3.2,4.4,3.7,8.2
		c0.6,3.3,1,8.1,1.4,14.4c0.4,6.3,0.6,11.7,0.6,16.1c0,11.5-1.2,22.5-3.5,33c-2.3,10.4-5.8,19.7-10.5,27.6c-4.7,8-10.4,14.3-17.3,19
		c-6.9,4.7-14.8,7-23.9,7c-11.3,0-20.3-3.8-27.2-11.3c-6.9-7.6-10.3-18.8-10.3-33.6c0-9.6,1.6-20.1,4.7-31.5
		c3.2-11.4,6.8-21.5,10.9-30.3c3.6-7.7,8.5-14.1,14.6-19.4c6.2-5.2,12-7.8,17.5-7.8s9.3,1.7,11.3,5.2
		C635.6,399.3,636.8,402.5,637.1,405.5z M612.3,481.4c0,5.5,0.7,9.8,2.1,13s3.4,4.7,6.2,4.7c3.3,0,6.1-2.9,8.4-8.9
		c2.3-5.9,3.5-15.6,3.5-29.1c0-7.1-0.2-14.2-0.6-21.2s-0.6-12.2-0.6-15.5c-3.9,8-8,16.8-12.4,26.6
		C614.5,460.9,612.3,471,612.3,481.4z"/>
	<path class="st0" d="M828.7,410.9c2.2-3.8,3.8-5.2,4.9-4.1c1.1,1.1,1.6,3.9,1.6,8.2c0,4.9-0.9,11.4-2.7,19.4
		c-1.8,8-4.9,16.4-9.3,25.1c-3,6.3-6.3,12.7-9.7,19.2c-3.4,6.5-6.7,12.4-9.7,17.9s-5.8,10.4-8.5,14.8c-2.6,4.4-4.7,7.7-6.4,9.9
		c-4.1,5.5-7.4,9.5-9.7,12.2c-2.3,2.6-5.3,3.9-8.9,3.9c-2.8,0-5.6-0.6-8.7-1.9c-3-1.2-5.8-3-8.2-5.2c-2.5-2.2-4.5-4.8-6.2-7.8
		c-1.6-3-2.5-6.5-2.5-10.3c0-2.7,0.4-7.5,1.2-14.2c0.8-6.7,1.8-13.9,2.9-21.6s2.1-15.2,2.9-22.5c0.8-7.3,1.2-13,1.2-17.1
		c-9.3,19-16.8,34.1-22.5,45.6c-5.6,11.4-10.2,20.1-13.8,26c-3.6,5.9-6.3,9.8-8.2,11.5c-1.9,1.8-3.9,2.7-5.8,2.7
		c-4.7,0-8.9-2.2-12.6-6.6c-3.7-4.4-5.6-9.8-5.6-16.1c0-5.2,0.5-13.1,1.4-23.5c1-10.4,2-21.2,3.1-32.4c1.1-11.1,2.2-21.6,3.3-31.3
		c1.1-9.8,1.6-16.8,1.6-21.2c-1.6,0.6-3.9,1.5-6.8,2.9c-2.9,1.4-5.8,2.8-8.7,4.3s-5.6,3.1-8,4.7c-2.5,1.6-4.4,3-5.8,4.1
		c-2.5,2.2-5.8,3.9-9.9,5.2c-4.1,1.2-8,1.9-11.5,1.9c-3.6,0-6.3-0.7-8-2.1c-1.8-1.4-1.3-3.7,1.4-7c6.1-6.6,12-12.5,18.5-17.7
		s12.9-9.6,19.4-13.2s12.7-6.3,18.8-8.2c6-1.9,11.4-2.9,16.1-2.9c6.3,0,11.5,3.4,15.7,10.1c4.1,6.7,6.2,14.9,6.2,24.5
		c0,2.5-0.1,5.6-0.4,9.5c-0.3,3.9-0.7,7.9-1.2,12.2c-0.6,4.3-1.2,8.7-1.9,13.2s-1.3,8.7-1.8,12.6c6.9-13.7,12.4-24.7,16.7-33
		c4.3-8.2,7.7-14.6,10.3-19.2c2.6-4.5,4.9-7.6,6.8-9.1c1.9-1.5,4.1-2.3,6.6-2.3s5.2,0.6,8.2,1.9c3,1.2,5.8,3,8.5,5.4
		c2.6,2.3,4.7,5.2,6.4,8.7c1.6,3.4,2.5,7.2,2.5,11.3c0,3.6-0.3,8.3-0.8,14.2c-0.6,5.9-1.2,12.4-2.1,19.6c-0.8,7.1-1.7,14.7-2.7,22.7
		s-2,15.7-3.1,23.1c3.6-5.5,7.6-12,12.2-19.4c4.5-7.4,9-14.8,13.4-22.3c4.4-7.4,8.4-14.4,12-20.8
		C824.1,419.9,826.8,414.8,828.7,410.9z"/>
	<path class="st0" d="M927.2,393.2c3.8-6.6,7.1-9.9,9.9-9.9c2.5,0,3.7,3.2,3.7,9.5c0,4.9-1,11.1-2.9,18.6
		c-1.9,7.4-4.8,14.6-8.7,21.4c-15.1,26.9-29.2,47.5-42.3,61.6c-13.1,14.2-24.3,21.2-33.6,21.2c-4.1,0-8.1-1-12-3.1
		c-3.9-2.1-7.2-4.7-9.9-8c-2.8-3.3-4.9-7-6.6-11.1c-1.6-4.1-2.5-8.2-2.5-12.4c0-3,0.1-6.5,0.2-10.5c0.1-4,0.3-7.6,0.6-10.9
		c0.6-8.2,1.2-16.4,2.1-24.5c0.8-8.1,1.9-16.1,3.3-24.1l4.9-33.8l-24.3-2.1c-7.4-0.5-13.3-1.1-17.5-1.6c-4.3-0.5-7.4-1.1-9.5-1.6
		c-2.1-0.5-3.4-1.2-3.9-2.1c-0.5-0.8-0.8-1.8-0.8-2.9c0-3.3,2.6-7.1,7.8-11.3c5.2-4.3,13.7-6.4,25.6-6.4l27.2-0.4l1.6-9.5
		c1.1-6.3,2.8-12.8,5.2-19.6c2.3-6.7,4.8-12.9,7.4-18.6c2.6-5.6,5.4-10.2,8.5-13.8c3-3.6,5.9-5.4,8.7-5.4c4.4,0,7.1,1.9,8,5.6
		c1,3.7,1.2,7.4,0.6,10.9l-5.4,49.9l37.9-0.8c3,0,5.1,0.8,6.2,2.3s1.6,3.5,1.6,6c0,3.3-0.7,6.4-2.1,9.3s-3.2,5.5-5.4,7.8
		c-2.2,2.3-4.6,4.2-7.2,5.6c-2.6,1.4-5.3,2.1-8,2.1c-3.8,0-7.8-0.1-11.7-0.2c-4-0.1-8.7-0.5-14.2-1c-1.4,12.6-2.6,24.7-3.7,36.3
		c-1.1,11.5-2.1,22-2.9,31.3c-0.8,9.3-1.4,17.4-1.9,24.1c-0.4,6.7-0.6,11.5-0.6,14.2c3.3-2.7,7.5-7.3,12.6-13.8
		c5.1-6.5,10.6-13.9,16.7-22.5c6-8.5,12.3-17.7,18.8-27.4C915.4,411.7,921.5,402.3,927.2,393.2z"/>
	<path class="st0" d="M929.3,432.8c-1.4-3.8-2.5-7.7-3.5-11.5s-1.4-8-1.4-12.4c0-4.9,1-10.2,2.9-15.7c4.7-15.7,10.7-27.5,18.1-35.4
		c7.4-8,14.3-12,20.6-12c4.7,0,8.2,1.2,10.5,3.7c2.3,2.5,3.5,5.8,3.5,9.9c0,1.6-0.3,3.4-0.8,5.2c-0.6,1.8-1.6,4.1-3.1,7
		s-3.6,6.4-6.4,10.5c-2.8,4.1-6.3,9.1-10.7,14.8c4.7,15.7,8.8,31.1,12.4,46.2s5.4,29.8,5.4,44.1c0,14.8-3.4,27-10.1,36.5
		s-15.6,14.2-26.6,14.2c-8.2,0-15.7-2.4-22.5-7.2c-6.7-4.8-10.1-10.6-10.1-17.5c0-2.5,0.6-4.8,1.9-7c1.2-2.2,3.2-4.5,5.8-7
		c2.6-2.5,5.9-5.3,9.9-8.5s8.9-6.9,14.6-11.3c-1.4-7.4-2.9-15.3-4.5-23.5C933.4,447.6,931.5,439.9,929.3,432.8z"/>
</g>
</svg>
