<?xml version="1.0" encoding="utf-8"?>
<!-- Generator: Adobe Illustrator 21.0.0, SVG Export Plug-In . SVG Version: 6.00 Build 0)  -->
<svg version="1.1" id="Layer_1" xmlns="http://www.w3.org/2000/svg" xmlns:xlink="http://www.w3.org/1999/xlink" x="0px" y="0px"
	 width="1000px" height="1000px" viewBox="0 0 1000 1000" style="enable-background:new 0 0 1000 1000;" xml:space="preserve">
<style type="text/css">
	.st0{fill:#FFFFFF;}
</style>
<path class="st0" d="M657.268,716.077c5.766-133.781,4.037-226.041,7.497-319.456c-43.825,133.78-77.269,306.192-88.226,314.265
	c-10.955,8.074-23.065,2.883-54.78,0c1.731-44.978,1.731-96.298,1.731-147.043c-22.489-0.576-44.978-0.576-66.314-0.576
	c0.577,60.547,0.577,141.276-6.92,147.043c-9.225,6.917-47.283,0.576-57.086,1.151c4.614-69.194,5.189-106.677,5.189-147.618
	c-20.182,0.578-39.211,0.578-57.086,1.154c-0.577,59.969,2.883,131.473,0.577,136.661c-5.191,11.535-12.686,13.84-56.511,14.994
	c-1.729-67.467,0-110.138,1.154-149.926c-20.183,0.578-36.328,1.154-46.131,1.732c-20.758,35.172-60.547,105.523-74.963,142.427
	c-20.182-4.612-46.131,1.729-46.131,1.729s-2.306-17.298-11.532-35.175c-9.226-17.874-64.006-98.027-66.889-110.135
	c-2.308-10.38,0-25.372,8.072-40.365c-6.343-10.38-5.189-28.255,1.729-51.321c9.226-29.985,49.014-113.02,81.883-190.864
	c16.722,0,28.255-1.154,49.591-6.92c23.065,58.817,44.4,143.581,62.852,232.383c8.649,0.577,23.643,1.154,42.671,1.731
	c0-2.883,0-5.766,0-8.651c0-65.158-4.612-196.055,4.614-210.47c4.037-6.343,13.839-10.38,51.32-10.957
	c-4.612,89.955,1.154,170.107-0.577,230.653c17.877,0.577,36.329,0.577,55.357,0.577v-2.883c0-200.669-6.919-210.47,4.614-219.696
	c8.072-6.343,36.328-3.46,49.591-4.037c-1.731,97.451,1.152,170.107,2.883,226.039c25.372-0.575,48.437-1.152,68.043-2.306
	c-0.577-113.02-1.731-212.778,4.612-221.427c10.38-13.838,39.788-9.226,56.511-8.072c-6.343,46.708-6.343,187.983-5.766,247.375
	c39.788-132.049,74.961-238.149,87.071-244.492c12.686-6.92,54.781-1.154,54.781-1.154c-6.92,134.357,4.037,409.411-2.883,423.827
	C710.896,720.689,657.268,716.077,657.268,716.077z M189.042,526.363c-1.152-11.532-24.218-110.714-34.021-151.078
	C125.613,441.022,90.439,518.867,90.439,530.4c-0.577,13.262,31.714,58.24,53.049,106.677
	C164.823,581.145,190.196,540.779,189.042,526.363z M881.579,273.221C912.141,371.248,929.44,425.453,960,539.626
	c-45.554,119.361-72.655,171.835-85.917,174.718c-13.264,2.883-38.058-5.766-53.628-12.108
	c-1.729-35.751-43.246-92.84-59.394-119.363c-16.145-26.526-3.459-32.292,1.729-40.365c4.615-8.074,0.578-16.723-10.379-19.606
	c0,0,65.16-160.304,87.649-245.646C853.323,283.024,871.776,284.178,881.579,273.221z M805.465,542.509
	c1.151,18.451,40.939,72.078,51.895,98.604c23.065-53.052,41.517-103.795,41.517-103.795
	c-13.262-76.692-29.406-123.398-35.751-156.267C840.637,446.788,804.311,524.057,805.465,542.509z"/>
</svg>
