<?xml version="1.0" encoding="utf-8"?>
<!-- Generator: Adobe Illustrator 19.2.0, SVG Export Plug-In . SVG Version: 6.00 Build 0)  -->
<!DOCTYPE svg PUBLIC "-//W3C//DTD SVG 1.1//EN" "http://www.w3.org/Graphics/SVG/1.1/DTD/svg11.dtd">
<svg version="1.1" id="Calque_1" xmlns="http://www.w3.org/2000/svg" xmlns:xlink="http://www.w3.org/1999/xlink" x="0px" y="0px"
	 width="1000px" height="1000px" viewBox="0 0 1000 1000" style="enable-background:new 0 0 1000 1000;" xml:space="preserve">
<style type="text/css">
	.st0{fill:#FFFFFF;}
</style>
<g>
	<path class="st0" d="M307,793.5V186.5h253c115.9,0,207,81,207,213.4c0,131.5-91.1,212.5-207,212.5h-51.5c-27.6,0-41.4-5.5-58.9-23
		l-20.3,20.3c15.7,15.6,23,26.6,23,49.7v134.3H307L307,793.5z M452.3,448.6c0,18.4-6.5,26.6-21.1,42.3l17.5,18.4
		c16.6-16.6,29.4-21.1,52.4-21.1h31.3c50.6,0,89.2-35.9,89.2-88.3c0-53.4-38.6-89.2-89.2-89.2H492c-19.3,0-28.5-5.5-43.2-20.3
		l-17.5,16.6c14.7,14.7,21.1,23.9,21.1,42.3C452.3,349.2,452.3,448.6,452.3,448.6z"/>
</g>
</svg>
