<?xml version="1.0" encoding="utf-8"?>
<!-- Generator: Adobe Illustrator 21.0.0, SVG Export Plug-In . SVG Version: 6.00 Build 0)  -->
<svg version="1.1" id="Layer_1" xmlns="http://www.w3.org/2000/svg" xmlns:xlink="http://www.w3.org/1999/xlink" x="0px" y="0px"
	 width="1000px" height="1000px" viewBox="0 0 1000 1000" style="enable-background:new 0 0 1000 1000;" xml:space="preserve">
<style type="text/css">
	.st0{fill:#FFFFFF;}
</style>
<g>
	<path class="st0" d="M415.2,511c19.7,5.6,50,16.9,68.7,36.4l67-20.8c4.4-26.6,23-53.1,36.1-68.9L451.9,325.7L415.2,511z
		 M463.9,438.5c1.1-10.2,7-17.7,16.2-20.6c9.1-2.8,18.2-0.1,25,7.6c4.5,5,8.1,12.2,11.1,21.9c3,9.7,4,17.6,3.2,24.3
		c-1.3,10.2-7.2,17.6-16.3,20.4c-9.2,2.8-18.3,0-25-7.8c-4.3-5-7.8-12.1-10.8-21.8C464.4,452.9,463.2,445,463.9,438.5z"/>
	<path class="st0" d="M842.4,372.4C819.8,309.2,777,256,718.8,218.5c-56.8-36.6-124.3-55.9-195.4-55.9c-45.3,0-90.4,7.9-134.1,23.5
		c-91.3,32.7-165.8,95.5-209.6,176.9c-43.9,81.6-51.8,172-22.2,254.6C180.2,680.8,223,734,281.2,771.5
		c56.8,36.6,124.3,55.9,195.4,55.9c45.3,0,90.4-7.9,134.1-23.5c91.3-32.7,165.8-95.5,209.6-176.9C864.1,545.4,872,455,842.4,372.4z
		 M606.5,792.4c-42.3,15.1-86,22.8-130,22.8c-142.9,0-263.6-79.2-307.4-201.7c-58.7-164,42-350.5,224.4-415.9
		c42.3-15.1,86-22.8,130-22.8c142.9,0,263.6,79.2,307.4,201.7C889.6,540.5,789,727,606.5,792.4z"/>
	<path class="st0" d="M406.7,230.7C243.9,289,154.5,455,207,601.6s226.9,218.1,389.7,159.8C759.4,703.1,848.8,537,796.3,390.5
		C743.9,244,569.4,172.5,406.7,230.7z M623.8,465.1c-13.2,13.2-48.8,56.4-40.1,80.6l34.9,97c1.1,3,0.9,6.4-0.5,9.3
		c-1.4,2.9-4,5.1-7.1,6l-101.6,31.5c-3.1,1-6.4,0.6-9.2-1c-2.8-1.6-4.9-4.2-5.7-7.3l-26.1-99.7c-6.6-24.9-60.4-40.3-78.7-43.7
		c-3.1-0.6-5.9-2.4-7.7-5.1c-1.8-2.7-2.4-5.9-1.7-9l50-233.2c0.9-4.2,4-7.5,8.1-8.8l0.4-0.1c4.1-1.3,8.5-0.2,11.6,2.7l173.2,163.9
		c2.3,2.2,3.7,5.2,3.7,8.4C627.3,459.7,626,462.8,623.8,465.1z"/>
</g>
</svg>
