<?xml version="1.0" encoding="utf-8"?>
<!-- Generator: Adobe Illustrator 21.0.0, SVG Export Plug-In . SVG Version: 6.00 Build 0)  -->
<svg version="1.1" id="Layer_1" xmlns="http://www.w3.org/2000/svg" xmlns:xlink="http://www.w3.org/1999/xlink" x="0px" y="0px"
	 width="1000px" height="1000px" viewBox="0 0 1000 1000" style="enable-background:new 0 0 1000 1000;" xml:space="preserve">
<style type="text/css">
	.st0{fill:#FFFFFF;}
</style>
<g>
	<path class="st0" d="M130.05,595.981l36.891-22.437l-42.115-56.261c19.062-10.756,32.276-29.202,32.276-56.863
		c0-39.966-26.128-62.402-77.774-62.402c-21.821,0-45.49,3.074-59.328,6.457v187.508h39.041V529.58h12.297
		c5.532,0,11.072-0.308,16.296-0.917L130.05,595.981z M59.041,495.154V441.05c7.381-0.917,17.22-1.533,23.369-1.533
		c21.204,0,36.884,7.682,36.884,26.128c0,21.828-22.437,29.51-50.105,29.51H59.041z M252.705,436.442
		c-47.031,0-71.625,31.968-71.625,79.916c0,47.956,24.594,79.315,71.317,79.315c46.73,0,71.317-31.051,71.317-79.924
		C323.714,467.486,299.127,436.442,252.705,436.442 M252.705,479.783c20.287,0,35.659,10.756,35.659,36.275
		c0,24.594-13.83,37.5-36.275,37.5c-21.512,0-35.659-11.989-35.659-36.275C216.43,493.313,230.268,479.783,252.705,479.783
		 M342.16,585.218c13.214,6.148,29.51,9.839,46.723,9.839c39.966,0,65.169-19.37,65.169-50.722
		c0-27.052-18.754-34.118-47.956-42.108c-15.063-3.999-26.128-7.381-26.128-15.063c0-6.457,7.99-10.456,22.136-10.456
		c8.298,0,22.437,1.233,37.192,3.999l8.298-34.433c-11.064-5.224-27.36-9.215-43.34-9.215c-36.891,0-62.094,22.129-62.094,50.714
		c0,26.443,21.821,34.125,42.115,39.657c16.597,4.307,31.352,8.607,31.352,17.213c0,7.073-7.99,11.064-23.978,11.064
		c-11.064,0-29.202-1.533-40.883-3.991L342.16,585.218z M550.88,556.632c-27.36,0-40.274-7.682-43.957-26.744h92.521
		c2.157-9.223,3.382-20.904,3.382-30.427c0-42.115-23.361-63.019-60.245-63.019c-45.498,0-71.625,30.427-71.625,82.382
		c0,45.49,24.286,76.233,71.625,76.233c19.363,0,39.958-3.382,58.404-11.064l-7.99-31.975
		C578.856,555.099,564.101,556.632,550.88,556.632 M539.507,474.867c16.597,0,26.436,7.682,26.436,22.437
		c0,1.849,0,4.615-0.308,6.765h-58.712C510.606,483.165,522.595,474.867,539.507,474.867 M825.076,551.716
		c-8.915,1.225-17.521,1.842-23.053,1.842c-14.139,0-19.363-6.457-19.363-21.821v-52.571h45.798v-39.033H782.66v-46.114h-31.051
		l-8.915,46.114h-64.552v-46.114h-31.051l-8.298,44.881l-20.904,3.382v36.884h23.67l-0.308,60.869
		c-0.308,38.733,11.38,55.021,44.265,55.021c15.063,0,31.359-3.691,42.115-9.223l-7.073-34.118
		c-8.915,1.225-17.213,1.842-23.053,1.842c-14.139,0-19.363-6.457-19.363-21.821v-52.571h67.627v60.869
		c-0.308,38.733,11.373,55.021,43.957,55.021c15.371,0,31.66-3.691,42.115-9.223L825.076,551.716z M980,585.218
		c-3.991-12.906-6.757-27.661-6.757-40.883V489.93c0-34.433-23.978-53.488-63.019-53.488c-18.746,0-38.425,4.916-55.638,13.522
		l8.607,31.968c13.53-3.991,26.744-6.149,38.733-6.149c22.437,0,34.426,7.689,35.042,28.901c-8.607-1.541-18.754-2.458-28.277-2.458
		c-36.891,0-64.252,15.98-64.252,49.181c0,25.819,15.68,44.265,43.656,44.265c22.437,0,39.342-7.381,51.639-19.062
		c2.157,6.457,5.224,12.913,8.298,19.062L980,585.218z M882.864,544.951c0-10.147,7.998-17.213,27.36-17.213
		c7.682,0,17.829,0.616,26.744,2.15v22.753c-10.14,5.833-25.511,8.915-35.967,8.915
		C889.937,561.555,882.864,556.016,882.864,544.951"/>
</g>
</svg>
