<?xml version="1.0" encoding="utf-8"?>
<!-- Generator: Adobe Illustrator 19.2.0, SVG Export Plug-In . SVG Version: 6.00 Build 0)  -->
<!DOCTYPE svg PUBLIC "-//W3C//DTD SVG 1.1//EN" "http://www.w3.org/Graphics/SVG/1.1/DTD/svg11.dtd">
<svg version="1.1" id="Calque_1" xmlns="http://www.w3.org/2000/svg" xmlns:xlink="http://www.w3.org/1999/xlink" x="0px" y="0px"
	 width="1000px" height="1000px" viewBox="0 0 1000 1000" style="enable-background:new 0 0 1000 1000;" xml:space="preserve">
<style type="text/css">
	.st0{fill:#FFFFFF;}
</style>
<path class="st0" d="M612.772,561.685c-0.879,1.172-1.611,2.49-2.783,2.49c-1.904,0-5.713-4.98-7.763-7.616
	c-2.197-2.49-4.834-6.445-5.566-6.445c-0.44,0-0.44,0.586-0.44,1.025c0,0.293-0.147,6.591-0.147,7.031
	c0,1.025,0.439,2.929,1.172,3.515c0.733,0.586,1.172,0.732,1.172,1.172c0,0.439-1.026,0.439-2.197,0.586
	c-0.732,0-1.904,0.147-2.49,0.147c-0.586,0-0.586-0.147-0.586-0.586c0-2.197,1.026-7.324,1.026-10.546
	c0-3.955-0.44-4.541-1.172-4.541c-0.439,0-1.172,0.146-1.172-0.439c0-0.879,1.758-1.172,3.076-1.611
	c1.318-0.439,2.197-1.318,3.369-1.318c0.586,0,1.025,1.758,2.49,3.515c3.515,4.541,9.374,12.304,11.425,12.304
	c0.586,0,1.172-1.465,1.758-1.465C614.53,558.902,613.651,560.66,612.772,561.685z M614.676,544.841
	c-0.586,0-2.637,1.025-4.101,1.465c-0.293,0.147-0.586,0.293-0.732,0.293c-0.44,0.146-0.586,0.439-0.586,0.586
	c0,0.293,0.146,0.439,0.586,0.439c0.293,0,0.732-0.146,1.025,0c0.586,0.147,1.318,3.223,1.318,4.98c0,4.248-0.439,5.42-0.439,6.005
	c0,0.44,0,0.733,0.293,0.733c1.025,0,3.369-9.521,3.369-13.476C615.409,545.281,615.409,544.841,614.676,544.841z M681.076,559.927
	c-0.293,0-0.439,0.293-0.879,0.293c-1.319,0-2.93-5.42-3.955-9.081l-0.879-3.516c-0.147-1.172,0-2.783-0.439-2.783
	c-0.439,0-0.879,0.586-1.611,0.879c-0.586,0.44-2.051,1.172-2.051,1.465c0,0.147-0.147,0.147-0.147,1.611
	c0,0.732-2.929,7.47-5.419,9.96c0-2.636-2.343-14.208-3.808-14.208c-0.586,0-1.318,0.586-2.783,1.318
	c-1.611,0.733-3.222,0.44-3.222,1.026c0,0.293,0.146,0.586,0.439,0.586c0.293,0,1.025-0.293,1.611-0.293
	c1.464,0,3.222,7.763,4.247,12.89c0.439,2.197,0.293,4.394,0.879,4.247c0.732-0.147,1.025-1.465,1.757-1.904
	c3.223-2.783,6.884-9.521,7.324-10.4h0.146c0.586,2.197,3.369,12.011,5.127,12.011c0.878,0,1.464-0.879,2.05-1.465
	c0.879-1.026,1.758-1.904,1.758-2.051C681.516,560.367,681.516,559.927,681.076,559.927z M686.496,545.573
	c-0.293,0-1.172,0.293-2.051,0.586c-1.318,0.586-2.637,1.025-2.637,1.464c0,0.44,0.879,0.44,1.318,0.44
	c0.586,0,0.733,0.439,0.733,0.733c0.146,0.586-0.147,1.904-0.293,2.783c-0.732,4.101-2.929,7.031-2.929,7.617
	c0,0,0.146,0.293,0.439,0.293c0.586,0,2.343-1.904,3.808-4.541c1.465-2.783,2.783-6.884,2.783-8.056
	C687.668,546.452,687.521,545.573,686.496,545.573z M646.569,559.342c-0.586,0-1.758,1.758-6.591,1.758c-2.782,0-4.1,0-6.295-0.293
	c0.076-0.459,0.48-3.09,0.844-5.86c1.353,0,4.779,0,5.597,0c0.879,0,3.369-1.318,3.662-1.464c0.293,0,0.293-0.439-0.293-0.586
	c-0.485,0-6.587-0.201-8.677-0.27c0.191-1.642,0.328-3.122,0.328-3.978c0-0.586,0-1.904,0-1.904s2.197,0,2.929,0
	c3.222,0,4.248,0.732,4.248,1.611c0,1.172,0,2.344,0.439,2.344c0.586,0,0.732-0.733,0.879-1.318l0.293-2.197
	c0.146-0.293,0.586-1.465,0.586-1.757c0-0.586-0.586-0.879-1.025-0.879c-1.026,0-3.955,0.439-5.859,0.439h-4.248
	c-0.733,0-3.369,0.879-4.394,1.465c-0.147,0.146-0.147,0.146-0.147,0.439c0,0.146,0.147,0.293,0.733,0.293
	c1.025,0,1.758,1.611,1.758,4.98c0,3.515-1.025,9.374-1.025,9.521c-0.146,0.439-0.146,0.879-0.146,1.318
	c0,0.732,4.101,1.025,8.642,1.025c3.808,0,7.763-3.808,8.056-4.101C647.008,559.635,646.862,559.342,646.569,559.342z
	 M740.212,544.548c-1.465,0-1.904,0.146-3.515,0.439c-1.611,0.44-6.738,7.031-8.203,9.374h-0.293c0,0,0.147-1.318,0.147-2.051
	c0-2.05-3.369-6.884-6.884-6.884c-0.879,0-3.222,1.025-3.222,1.025c-1.172,0.732-2.636,0.732-2.636,1.465
	c0,0.146,0.146,0.293,0.439,0.293c0.879,0,0.586-0.732,2.344-0.732c1.904,0,7.617,5.273,7.617,8.495c0,3.369-0.44,5.859-0.44,6.884
	c0,0.293,0.146,0.439,0.293,0.439c0.733,0,2.051-0.146,2.783-0.293c0.732,0,3.223,0.293,3.223-0.147c0-0.586-0.44-0.439-1.318-1.465
	c-0.586-0.586-1.025-1.465-1.025-3.808c0-4.687,7.324-9.814,10.253-11.571c0.732-0.586,3.076-0.293,3.076-1.026
	S741.091,544.402,740.212,544.548z M837.544,562.271c-3.369-1.172-6.152-7.031-8.349-8.349c-0.879-0.44-2.636-0.293-3.222-0.293
	v-0.146c3.955-2.197,8.642-7.323,9.521-7.617c0.439-0.146,1.612-0.293,1.612-0.879c0-0.439-0.44-0.439-1.026-0.439
	c-0.586,0-4.101,0.146-4.394,0.439c-4.46,5.946-7.491,8.143-8.606,8.821c0.172-1.765,0.56-3.61,0.696-8.235
	c0-0.439-0.147-1.025-0.879-1.025c-0.44,0-1.611,0.439-3.076,0.732l-3.369,0.439c-0.293,0-0.293,0.146-0.293,0.293
	c0,0.439,0.586,0.439,1.465,0.439c1.465,0,1.904,2.344,1.904,7.617c-0.147,5.419-1.026,7.909-1.026,8.788
	c0,0.732,0.44,0.732,0.879,0.732c0.439,0,0.733-0.147,1.904-0.147c2.49,0,3.661,0.293,3.661-0.293c0-0.293-0.439-0.44-0.878-1.026
	c-0.586-0.586-1.025-1.757-1.025-3.369c0-0.552-0.13-2.149-0.022-4.172c0.201-0.111,0.531-0.222,1.047-0.222
	c0.732,0,1.758,1.465,3.369,3.223c1.904,2.343,4.101,5.273,6.005,5.566c1.025,0.146,3.954,0.293,5.419,0.293
	c0.732,0,0.879-0.293,0.879-0.586C839.741,562.271,838.422,562.564,837.544,562.271z M801.748,560.807
	c-1.611-1.758-4.248-5.127-6.152-5.859c-0.439-0.146-1.318-0.146-1.318-0.146c0-0.146,0.146-0.293,0.293-0.293
	c2.197-1.172,5.859-2.344,5.859-5.566c0-2.93-3.369-4.248-5.859-4.248c-1.874,0-4.246,1.079-5.305,1.612
	c-0.11-0.547-0.499-1.173-0.993-1.173c-0.586,0-4.395,1.026-4.834,1.026C783,546.306,783,546.452,783,546.745
	c0,0.293,0.732,0.293,1.172,0.586c0.439,0.146,1.318,0.879,1.318,3.222c0,2.344-1.025,11.571-1.025,12.011
	c0,0.586,0.146,0.879,0.439,0.879c0.293,0,1.465-0.147,2.197-0.147h3.223c0.44,0,0.44,0,0.44-0.146c0-0.293-0.293-0.44-0.586-0.733
	c-0.586-0.439-1.172-1.904-1.172-3.369c0-0.586,0.294-5.273,0.44-8.788c0-1.258-0.064-2.385-0.107-3.05
	c0.608-0.302,1.47-0.612,2.45-0.612c2.783,0,4.247,1.904,4.247,3.808c0,2.051-1.757,3.369-3.222,4.101
	c-1.172,0.586-1.904,0.586-1.904,1.025c0,0.732,0.878,0.293,2.783,2.637c2.051,2.343,5.42,5.712,6.445,5.712
	c1.904,0,2.929-0.293,3.516-0.293c0.439,0,1.757,0.146,1.757-0.147C805.41,563.004,803.505,562.71,801.748,560.807z
	 M770.519,552.458c0,7.617-7.763,11.278-12.45,11.278c-2.197,0-8.056-1.172-8.056-8.495c0-6.738,8.935-10.4,12.597-10.4
	C764.221,544.841,770.519,545.72,770.519,552.458z M766.711,554.362c0-3.955-3.076-7.324-6.884-7.324
	c-2.197,0-6.006,1.904-6.006,7.47c0,3.516,2.051,7.03,6.884,7.03C763.049,561.539,766.711,559.195,766.711,554.362z
	 M887.264,559.049c-0.439,0-1.904,2.343-6.591,2.343c-2.929,0-8.788-2.783-8.788-7.031c0-2.929,1.904-7.617,6.445-7.617
	c2.636,0,5.566,0.732,6.445,2.197c0.146,0.439,0.293,0.879,0.146,1.464c0,0.879-0.293,1.758,0.733,1.758
	c0.878,0,0.732-0.879,0.732-1.758c0-2.344,0.733-3.662,0.733-4.834c0-0.879-2.197-1.318-3.076-1.318
	c-4.248,0-15.672,2.197-15.672,11.279c0,4.541,5.273,8.495,9.521,8.495s9.521-3.076,9.521-4.541
	C887.411,559.195,887.411,559.049,887.264,559.049z M906.924,561.099c-0.439-0.586-0.732-1.904-0.732-4.248
	c0-2.197,1.172-11.279,1.172-11.864c0-0.586-0.293-0.732-0.732-0.732c-0.586,0-1.172,0.439-2.344,0.732
	c-1.611,0.586-2.929,0.44-2.929,1.172c0,0.439,0.293,0.439,0.732,0.439c0.732,0,0.732,1.025,0.732,2.197
	c0,3.076-0.732,11.571-0.732,11.864c0,0.44-0.146,2.344,0.879,2.197c0.44,0,1.172-0.147,2.197-0.293c1.318-0.147,2.636,0,2.636-0.44
	C907.803,561.539,907.364,561.685,906.924,561.099z M935.632,544.548c-2.05,0.146-10.4-0.146-10.4-0.146
	c-1.025,0-4.394,2.93-4.687,3.369c-0.293,0.293-0.147,0.586,0.293,0.586c0.439,0,1.611-0.439,3.223-0.733
	c1.611-0.293,3.661-0.146,4.247-0.146c0.045,0,0.092,0,0.141,0c0.517,0.66,0.592,1.907,0.592,2.637
	c0,1.172-0.879,10.839-0.879,11.571c0,0.732,0.146,1.465,0.879,1.465c0.586,0,2.051-0.293,2.783-0.293
	c0.733,0,3.222,0.293,3.222-0.293c0-0.586-2.636-0.586-2.636-3.809c0-1.904,0.439-8.935,0.439-9.667c0-0.675,0.146-1.252,0.326-1.62
	c0.931-0.014,2.217-0.049,2.75-0.137l3.222-1.904c1.318-0.586,2.49-0.733,2.49-1.318
	C941.638,543.669,939.294,544.255,935.632,544.548z M976.141,543.669c-1.318,0-2.783,0-3.955,0.586
	c-1.318,0.439-7.031,7.763-7.031,7.763h-0.147c-0.293-0.146-0.147-0.732-0.733-2.051c-0.879-2.197-3.515-5.712-5.566-5.712
	c-1.464,0-5.126,2.49-5.126,2.929c0,0.439,0,0.586,0.439,0.586c0.732,0,0.586-0.586,1.611-0.586c1.904,0,6.591,5.127,6.591,6.884
	c0,0.878-0.293,6.298-0.293,7.177c0,1.318,0.44,2.197,1.318,2.051c1.758-0.293,4.394,0.147,4.394-0.439
	c0-0.439-0.586-0.586-0.879-0.879c-0.44-0.44-0.732-0.879-0.732-4.394c0-0.147,0.147-2.93,0.586-4.541
	c0.586-1.904,8.495-8.203,9.227-8.349c1.172-0.293,2.344,0.147,2.344-0.586C978.191,543.669,977.166,543.523,976.141,543.669z"/>
<path class="st0" d="M40.498,521.786C23.662,521.786,5,515.295,5,511.238c0-1.623,3.448-5.071,5.274-13.388
	c2.637-11.765,4.463-23.733,7.302-23.733c1.014,0,1.623,0.811,1.623,1.826c0,2.028-3.448,5.68-3.448,12.374
	c0,8.925,13.185,16.025,42.597,16.025c20.203,0,31.035-11.075,31.035-28.398c0-11.968-17.242-13.793-34.686-15.416
	c-22.651-1.773-36.106-4.883-36.106-19.675c0-1.603,1.965-16.047,3.448-20.285c1.42-4.057,22.719-24.544,29.21-28.804
	s21.83-6.491,30.832-6.491c3.854,0,22.921,0.811,22.313,7.505c-0.203,2.231-4.463,2.84-6.694,8.114
	c-2.637,6.288-3.246,16.836-6.085,19.676c-1.014,1.014-2.434,0.203-2.434-1.217c0-1.42,2.637-4.462,2.637-8.722
	c0-2.637-1.217-4.26-3.246-5.274c-2.434-1.217-10.954-3.854-20.284-4.057c-11.562-0.203-18.662,1.014-27.587,5.071
	c-4.463,2.028-6.694,7.911-6.491,12.982c1.014,17.445,6.694,21.096,35.903,22.516c29.21,1.42,34.078,14.605,34.078,24.95
	c0,11.562-13.996,25.964-21.299,33.875c-7.911,8.519-11.359,13.388-16.228,17.039C62.405,520.974,50.234,521.786,40.498,521.786z
	 M128.532,522.597c-3.651,0-15.619-6.897-15.619-31.441c0-9.939,2.028-22.516,3.043-30.021c1.014-7.708,2.231-15.822,0.811-23.327
	c18.662-7.708,30.832-21.907,40.163-21.907c13.388,0,14.808,18.662,14.808,25.356s-3.043,37.323-6.491,43.612
	c0.203,0-8.114,13.996-17.85,20.893C137.255,513.064,130.358,522.597,128.532,522.597z M143.543,506.573
	c5.274,0,10.548-22.516,10.548-50.103c0-25.964-10.345-28.195-16.025-28.195c-3.651,0-2.434,5.477-4.057,17.242
	c-1.217,8.722-2.637,20.284-4.057,37.526C129.141,493.388,138.269,506.573,143.543,506.573z M336.651,576.96
	c-24.652,0-40.904-22.196-41.177-32.049c0,0,0-1.014,0.609-1.014c0.811,0,0.816,0.607,1.014,1.217
	c3.537,10.897,18.158,29.21,38.946,29.21c31.735,0,56.596-39.671,62.603-79.592c-6.658,10.151-17.768,25.838-22.846,25.838
	c-5.882,0-7.505-9.939-7.505-17.445c0-2.057,0.116-5.43,0.285-9.426c-1.694,2.063-23.724,28.696-31.523,28.696
	c-6.897,0-10.345-23.327-8.925-38.743c0.41-4.479,0.913-8.622,1.473-12.508c-10.437,18.419-32.13,50.035-46.099,50.035
	c-11.254,0-14.071-15.394-13.835-29.938c-8.364,12.188-22.959,31.358-26.937,31.358c-4.665,0-10.142-9.534-10.142-17.445
	c0-5.593,1.42-16.763,2.61-24.836c-6.587,11.51-13.788,21.535-26.546,32.949c-5.882,5.274-8.317,10.751-10.751,10.751
	c-2.84,0-16.836-10.548-16.836-29.615c0-18.865,7.1-36.512,4.868-58.216c1.623-0.609,8.925-2.637,16.633-8.114
	c9.737-6.897,17.039-11.968,21.299-11.968c5.274,0,9.737,3.246,11.156,6.085c1.217,2.434-2.84,2.231-5.274,9.128
	c-1.327,3.814-2.111,7.9-2.131,10.483c-0.001,0.11-0.001,0.211-0.002,0.308c8.309-9.265,25.1-21.338,27.286-21.338
	c2.84,0,3.651,12.779,3.651,16.633c0.203,8.925-8.519,45.437-7.911,55.985c0.609,10.548,4.26,10.751,5.071,10.751
	c1.472,0,9.931-9.688,14.111-17.191c0.154-2.775,0.404-5.457,0.709-7.923c-2.088-0.797-3.865-2.318-4.8-5.388
	c-0.609-2.028-0.487-5.199,0.527-5.199c0.811,0,0.811,2.434,1.42,4.26c0.583,1.942,1.539,3.508,3.221,3.638
	c1.064-7.095,4.284-25.559,4.284-32.037c0-3.043-0.406-5.882-0.609-7.1c5.68-3.651,14.199-8.317,25.356-14.808
	c6.694-3.854,12.171-7.302,13.185-7.302c1.281,0,3.629,3.371,5.537,8.368c3.385,0.016,10.136-0.236,14.545-2.283
	c4.682-2.174,6.016-6.797,6.379-10.587c0.123-1.287,0.134-2.476,0.126-3.442c-0.087-0.915-0.31-1.86-0.826-2.806l19.473-11.156
	c0.399,0.832,1.217,6.694-0.406,16.633c-1.084,6.64-1.685,10.194-2.106,12.609c5.616,0.468,12.857,0.778,12.857,0.778
	c28.398,0,28.844-8.003,29.007-9.024c0.143-0.895-0.152-2.054-0.64-2.862c-0.013-0.041-0.003-0.07,0.032-0.081
	c0.796-0.207,3.246,0.657,3.246,3.448c0.197,4.917-7.979,7.896-13.591,9.128c-6.993,1.535-24.095,3.558-32.047,4.457
	c-1.827,8.335-7.05,31.795-7.913,44.226c-1.014,14.605-1.42,33.469,5.071,33.469c3.33,0,11.371-8.663,16.861-15.575
	c0.481-10.618,1.192-23.95,1.192-29.457c0-8.317-2.434-20.893-6.085-20.893c-1.42,0-2.028,1.826-3.854,1.826
	c-1.49,0-1.829-0.461-1.829-0.727c0-0.022,0.003-0.086,0.054-0.12c0,0,11.511-8.484,15.365-10.918
	c3.246-2.028,7.911-3.854,8.317-3.854c0.609,0,5.68,2.84,5.68,23.53c0,20.893-6.897,52.131,0.406,52.131
	c3.447,0,10.644-11.012,14.023-19.296c2.808-13.879,10.814-50.697,18.027-57.582c8.925-8.722,28.398-16.633,28.398-16.633
	c0.781-0.342,1.42-0.203,1.623,0.406c0.203,0.406,0.018,0.851-0.609,1.217c-0.406,0.406-3.448,1.217-5.477,3.854
	c-12.576,15.01-20.487,45.437-26.978,71.604C409.878,513.875,386.956,576.96,336.651,576.96z M236.417,472.657
	c0.01-0.054,0.019-0.11,0.029-0.162c1.014-5.883,6.288-36.512,1.826-36.512c-2.028,0-6.288,4.463-10.345,9.128
	c-4.868,5.477-4.868,9.331-6.085,9.331s-1.258-0.829-0.203-3.246c0.325-0.644,0.761-1.483,1.196-2.278
	c0.004-0.067,0.008-0.134,0.011-0.203c0.206-4.821-2.029-11.834-5.264-14.559c-3.854-3.246-10.345-5.274-11.968-4.463
	c-1.217,19.27-6.085,36.715-6.897,55.174c-0.609,11.968,10.142,22.313,12.171,21.907
	C213.819,506.147,229.161,489.565,236.417,472.657z M290.605,455.253c-1.697,9.14-2.722,15.421-3.236,21.063
	c0.577-0.12,1.262-0.301,2.019-0.576c5.071-1.826,14.402-11.359,13.591-27.587c-0.811-16.836-5.68-20.893-7.911-20.284
	C292.634,428.477,293.851,436.997,290.605,455.253z M330.64,464.559c2.34-13.736,5.212-24.373,6.688-36.084l-17.439-1.319
	c1.088,3.786,1.822,8.119,1.751,12.479c-0.203,13.996-10.548,18.053-16.228,25.558c-3.948,5.264-10.684,12.966-18.27,14.066
	c-0.128,2.069-0.189,4.102-0.189,6.219c0,15.01,5.68,19.676,9.331,19.676C306.042,505.153,323.03,479.794,330.64,464.559z
	 M244.973,408.181c5.569-0.105,6.317-1.426,11.397-2.178c6.228-0.922,10.984-3.659,10.984-3.659
	c-6.938-1.339-13.876-3.773-18.425-6.503c-6.712,1.545-13.218,2.903-18.933,4.176C231.773,402.883,239.776,408.279,244.973,408.181z
	 M487.567,580.205c-16.025,0-31.847-11.765-36.918-20.082c-0.31-0.517-0.656-1.186-0.656-1.678c0-0.593,0.434-0.776,0.539-0.776
	c0.427,0,1.185,1.29,1.943,2.048c5.477,7.1,21.502,17.647,34.281,17.647c35.903,0,44.017-47.263,46.451-61.868
	c1.113-6.678,2.608-28.435,4.615-48.12c-0.331-0.051-0.653-0.103-0.964-0.157c-6.335-0.965-12.114-1.572-17.273-1.969
	c-1.146,7.851-2.679,15.221-4.635,19.211c-1.42,3.246-4.057,8.317-8.925,13.185c-6.085,5.882-10.954,7.708-21.096,16.633
	c-4.868,4.26-6.694,7.505-8.519,7.505c-5.071,0-14.605-9.534-14.605-25.761c0-20.69,5.68-42.597,5.68-53.551
	c0-2.434-0.406-5.68-0.406-5.68s9.939-5.274,19.27-10.345c8.519-4.665,15.619-10.548,21.299-10.548
	c8.317,0,14.605,8.114,14.605,19.879c0,2.604-0.544,11.985-1.706,22.06c2.243-0.464,4.207-0.933,5.658-1.386
	c6.572-2.054,11.053-4.734,13.689-6.655c0.329-2.335,0.669-4.522,1.021-6.513c3.448-20.69,11.359-37.729,22.719-45.843
	c5.477-4.057,25.558-16.228,34.484-17.242c1.826-0.203,3.448-0.406,4.665-0.406c2.434,0,4.26,0.406,5.274,0.609
	c0.866,0.205,0.609,2.028,0.406,2.637c-0.609,1.623-7.302,6.288-9.737,7.505c-2.84,1.42-16.228-0.811-24.341,4.665
	c-10.134,7.08-15.042,37.623-17.976,66.733c6.449-0.258,15.058-0.75,19.193-1.417c4.057-0.609,10.954-1.42,16.836-3.651
	c3.246-1.217,6.085-2.84,8.519-5.274c1.217-1.42,1.217,0.609,0.609,1.623c-2.231,3.043-18.662,15.619-27.79,15.619
	c-4.565,0-11.267,0-18.014-0.19c-1.017,11.035-1.78,21.576-2.473,30.211C551.058,526.654,528.339,580.205,487.567,580.205z
	 M503.13,464.449c-3.83-0.117-6.815-0.209-8.868-0.474l0.203-2.028c0,0,3.903-0.491,9.078-1.243
	c2.413-24.103-4.479-29.024-7.86-31.213c-1.826-1.014-4.057-1.623-5.68-1.623c-2.231,0-3.246,0.811-3.246,0.811
	c-1.623,1.42-0.811,7.505-2.434,16.025c-1.623,8.519-5.274,33.469-5.274,41.989c0,10.548,8.317,19.067,12.779,19.067
	C496.941,505.761,500.339,488.784,503.13,464.449z M538.362,462.267c0.283-2.586,0.575-5.107,0.877-7.522
	c-5.423,2.609-12.913,4.902-19.077,6.286c-0.061,0.478-0.123,0.956-0.187,1.433C525.42,462.421,532.515,462.337,538.362,462.267z
	 M793.318,409.692c4.057,0,8.114-1.014,10.751-1.014c5.274,0,11.296-0.282,13.121-0.688c0.406-0.203,0.811-0.811,0.406-1.014
	c-2.434-1.014-6.491-2.434-11.562-8.114c-5.274,0-16.633,3.043-22.313,2.84C786.357,405.556,790.072,409.692,793.318,409.692z
	 M842.545,525.234c-2.231,0.811-6.491,0.203-9.128-1.42c-3.227-1.972-5.344-6.005-5.792-9.856l-4.756,3.974
	c-0.811-4.463-1.217-9.331-1.217-13.793c0-5.147,0.477-9.531,0.973-13.544c-4.957,7.735-12.033,16.627-18.012,23.078
	c-2.231,2.434-7.708,8.722-10.142,8.722c-4.057,0-5.883-10.548-6.288-21.096c-0.406-12.576,2.231-40.569,6.897-55.782l18.662-14.199
	h0.203c-7.708,26.37-8.519,38.946-9.737,50.305c-1.014,11.562,0.406,22.719,2.84,22.719c2.596,0,11.462-10,16.22-18.999
	c0.003-0.023,0.005-0.045,0.008-0.068c0.203-2.434,0.203-6.288,0.406-7.302c0.609-8.114,10.142-43.814,10.142-75.661
	c0-4.868-2.028-8.925-2.028-8.925c9.331-2.434,16.228-7.505,18.256-12.171l0.406-0.203c2.637,3.246,0,28.804-0.406,33.064
	c-0.762,8.19-4.564,30.867-9.727,55.267l0.802-2.527c5.274-14.199,13.388-25.964,19.473-32.455
	c6.694-7.302,15.01-12.374,17.039-12.374c3.246,0,6.694,11.968,6.694,20.487c0,8.114-2.84,35.701-12.374,54.971
	c-4.057,8.519-11.156,13.388-16.836,17.85C850.253,519.352,845.994,523.814,842.545,525.234z M830.968,511.165
	c2.241,2.023,6.198,4.942,11.172,4.942c6.491,0,11.968-3.246,13.996-7.708c4.057-8.317,4.868-15.822,6.085-23.733
	c2.434-18.256,4.057-47.466-0.609-47.466c-0.406,0-0.811,0.203-1.623,1.217c-4.812,6.06-15.888,23.71-21.395,44.554
	c-0.891,6.068-1.121,10.158-1.121,11.837c0,7.708,0.203,10.751,0.203,10.751L830.968,511.165z M962.224,519.352
	c-2.84,1.826-11.359,3.448-15.619,3.448c-4.26,0-18.662-2.434-18.662-4.26c0-1.826,3.246-10.548,4.057-12.982
	c0.598-1.792,1.584-4.759,1.812-8.13c-3.009,4.429-8.738,10.054-14.591,15.433c-7.911,7.1-12.779,12.171-14.402,12.171
	c-2.637,0-12.171-10.751-12.171-27.79s8.114-40.569,5.68-55.985c0,0,4.057-1.014,9.534-4.868
	c11.156-7.505,28.601-18.256,30.021-18.256c3.043,0,6.897,5.071,6.897,16.228c0,17.85-7.708,19.067-14.402,26.978
	c-2.731,3.317-13.155,16.575-19.723,17.584c-0.354,3.506-0.562,6.487-0.562,8.583c0,12.982,5.68,20.284,7.911,20.284
	c3.651,0,7.911-2.637,12.576-8.925c1.42-1.623,3.448-4.26,4.463-8.925c0.13-0.648,0.342-1.047,0.584-1.357
	c0.076-0.498,0.152-0.995,0.227-1.483c0.203-1.42,0.811-5.882,1.217-6.491c0.609-1.014,1.623-1.42,2.84-1.42
	s1.217,0.406,1.217,1.014c0,0.609-4.057,10.142-4.057,16.228c0,8.317,13.793,12.779,22.313,12.779
	c12.779,0,16.228-12.576,16.228-15.619c0-10.345-5.882-12.374-11.968-13.793c-8.925-2.231-18.662-0.609-18.662-13.388
	c0-7.505,2.637-12.982,3.246-21.502c0,0,8.722-6.085,14.402-11.156c5.68-5.071,8.317-8.114,9.939-9.737
	c0,0,8.722-3.854,16.228-3.854c6.085,0,5.883,1.014,6.085,1.42c0.609,2.028-1.217,4.463-3.448,9.534
	c-2.434,5.68-0.609,17.445-3.854,17.85c-0.609,0-1.014-0.609-1.014-2.231c0-2.028,0.811-4.463,0.406-7.1
	c-0.406-3.246-4.463-5.477-10.954-5.477c-5.071,0-9.128,0.609-11.968,3.448c-3.448,3.448-4.665,10.954-4.665,17.039
	c0,6.085,3.854,9.331,9.534,10.345c5.477,0.811,9.128,1.42,11.562,2.434c6.288,2.637,8.317,8.114,8.317,15.01
	c0,9.331-4.26,9.737-13.591,20.893C967.295,512.861,964.455,517.729,962.224,519.352z M918.815,432.331
	c-2.009,4.944-6.017,27.774-7.814,43.396c4.833-0.363,15.725-9.324,15.725-28.791c0-8.925-3.854-15.822-5.68-16.025
	C920.032,430.912,919.221,431.52,918.815,432.331z M653.9,518.743c3.854-2.231,17.039-16.836,21.704-22.11
	c4.665-5.274,16.43-15.822,16.43-26.775c0-14.605-8.925-24.138-45.843-26.573c-16.025-1.014-20.284-10.142-20.284-17.242
	c0-4.057,0.609-11.968,5.071-15.01c5.071-3.651,13.996-5.071,25.558-5.071s23.419,4.382,24.747,5.477
	c1.487,1.225,1.706,2.922,1.42,4.665c-0.296,1.801-2.997,6.501-3.246,7.505c-0.162,0.559,0.182,2.151,2.035,2.151
	c2.112,0,2.441-3.769,3.712-8.454c1.233-4.541,2.444-9.447,4.665-12.441c2.691-3.627,6.018-3.313,6.22-6.206
	c0.241-3.44-9.331-7.911-22.313-7.911s-27.587,3.448-30.63,5.274c-3.245,1.826-25.761,20.893-29.21,26.775
	c-0.811,1.217-3.854,17.445-3.854,22.11c0,12.576,13.388,15.416,28.398,17.242c13.591,1.826,38.743,2.434,38.743,16.43
	c0,9.737-4.868,27.181-30.427,27.181c-10.548,0-41.989-3.448-41.989-16.836c0-7.505,4.057-10.142,4.057-12.576
	c0-1.014-0.609-2.231-1.826-2.231c-1.454,0-2.41,2.131-3.54,5.128c-2.303,6.109-4.232,15.817-4.777,18.402
	c-0.811,3.651-5.477,11.156-5.477,13.388c0,2.84,20.082,10.954,36.512,10.954C643.149,521.989,650.046,520.974,653.9,518.743z
	 M749.034,520.163c0,0-1.623-1.623-2.028-5.274c-0.406-2.434-0.406-7.302-0.203-12.374c0.177-4.941,0.354-8.656,1.866-15.416
	c-3.519,5.658-7.79,11.307-12.82,16.633c-2.84,3.043-5.274,4.868-7.911,7.302c-5.019,5.019-10.501,10.871-13.125,12.849
	c-0.187,0.141-0.495,0.379-0.807,0.379s-0.555-0.202-0.661-0.287c-5.857-4.67-13.805-17.113-13.805-23.489
	c0-4.996,0.962-25.254,4.087-46.067c0.427-3.42,0.748-6.64,0.909-9.54c0-3.295,0-5.972-0.206-8.441c1.233,0,2.677-0.415,3.707-1.032
	c0.135-0.07,0.27-0.139,0.404-0.209c3.034-1.62,7.432-3.556,14.223-7.735c6.694-4.057,12.171-8.925,17.85-8.925
	c8.114,0,10.548,3.043,10.548,3.043s-7.505,12.171-6.897,17.647c8.317-7.302,23.936-18.053,26.573-18.053
	c1.217,0,4.868,7.302,4.868,16.43h0.203c3.854-3.246,15.619-16.43,21.502-17.242c0.609,0,1.014,0.203,1.014,0.609
	c0,1.014-1.217,0.811-1.217,1.623c0,0.609,2.637,2.231,6.085,3.854c4.868,2.434,7.1,1.623,7.1,2.434
	c0,0.811-12.779,9.331-21.299,9.331c-3.043,0-5.071-1.014-7.302-1.014c-2.434,0-16.025,30.021-16.025,58.216
	c0,9.169,1.469,12.727,2.569,14.303c0.695,0.996,1.214,0.811,1.214,1.795c0,0.423-0.208,0.831-0.538,0.941
	c-0.609,0.203-5.468,1.032-9.331,2.84C755.536,517.188,749.034,520.163,749.034,520.163z M750.782,478.14
	c3.245-14.533,5.149-28.624,5.149-35.261c0-7.708-2.637-8.722-2.637-8.722s-5.883,4.665-10.142,10.548
	c-0.331,0.332-0.528,1.611-1.031,2.953c-0.667,1.781-1.703,3.738-2.62,3.538c-1.253-0.273,1.623-4.868,0.811-8.722
	c-1.826-7.911-8.114-11.156-16.228-11.156c-5.274,8.519-7.911,48.48-7.911,56.594c0,7.911,7.505,17.039,11.359,17.039
	C731.187,504.95,742.247,494.579,750.782,478.14z"/>
</svg>
