<?xml version="1.0" encoding="utf-8"?>
<!-- Generator: Adobe Illustrator 21.0.0, SVG Export Plug-In . SVG Version: 6.00 Build 0)  -->
<svg version="1.1" id="Layer_1" xmlns="http://www.w3.org/2000/svg" xmlns:xlink="http://www.w3.org/1999/xlink" x="0px" y="0px"
	 width="1000px" height="1000px" viewBox="0 0 1000 1000" style="enable-background:new 0 0 1000 1000;" xml:space="preserve">
<style type="text/css">
	.st0{fill:#FFFFFF;}
</style>
<path class="st0" d="M109.2,739.1c-14.6,0-27.5-1.7-39.2-13.2l15.1-15.1c7.6,7.6,17.5,8.8,24.6,8.8c8,0,16.3-2.7,16.3-9.5
	c0-4.6-2.4-7.8-9.7-8.5l-14.6-1.5c-16.6-1.7-26.8-8.8-26.8-25.8c0-19,16.8-29.5,35.6-29.5c14.4,0,26.3,2.4,35.3,10.7l-14.1,14.4
	c-5.4-4.9-13.4-6.1-21.4-6.1c-9.3,0-13.2,4.1-13.2,8.8c0,3.4,1.5,7.3,9.5,8l14.6,1.5c18.3,1.7,27.5,11.5,27.5,27.1
	C148.2,729.3,130.9,739.1,109.2,739.1z M188.4,738.1c-18.8,0-26.8-13.2-26.8-26.3v-45.6h-9.7v-17.8h9.7v-27.3h22.9v27.3h16.3V666
	h-16.3v44.4c0,5.4,2.4,8.3,8,8.3h8.3v19.5L188.4,738.1L188.4,738.1z M211.1,630.1v-18.8h23.6v18.8H211.1z M211.6,738.1V646h22.9
	v92.1H211.6z M286.6,739.1c-18.5,0-41.2-10-41.2-47.3s22.9-47,41.2-47c12.7,0,22.4,3.9,30.5,12.4l-15.6,15.6
	c-4.9-5.1-8.8-7.3-14.9-7.3c-5.6,0-9.7,1.9-13.2,6.1c-3.7,4.4-5.1,10.7-5.1,20.5s1.7,16.1,5.1,20.5c3.4,4.1,7.6,6.1,13.2,6.1
	c6.1,0,10-2.2,14.9-7.3l15.6,15.4C308.8,735.2,299.3,739.1,286.6,739.1z M380.5,738.1l-22.7-38.5l-9.7,11v27.5h-22.9v-126h22.9v71.4
	l30.7-37.8h27.8L373.6,683l35.3,55.1L380.5,738.1L380.5,738.1z M428.2,699.1c0,11.9,7.3,20.5,20.2,20.5c10,0,15.1-2.9,21-8.8
	l13.9,13.6c-9.3,9.3-18.5,14.6-35.1,14.6c-21.7,0-42.6-10-42.6-47.3c0-30,16.3-47,40.2-47c25.6,0,40.2,18.8,40.2,44.1v10.2
	L428.2,699.1L428.2,699.1z M461.1,673.5c-2.4-5.6-7.6-9.5-15.4-9.5c-7.8,0-12.9,4.1-15.4,9.5c-1.5,3.4-1.9,5.8-2.2,10h35.1
	C463.1,679.4,462.6,676.9,461.1,673.5z M546.9,671.1c-3.7-3.7-6.6-5.6-12.2-5.6c-7.1,0-14.9,5.4-14.9,17.1v55.6H497V646h22.4v8.8
	c4.4-5.4,13.4-10,23.2-10c9,0,15.4,2.2,21.7,8.8L546.9,671.1z M667.8,644.8c-11.5,0-19.7,3.7-27.5,11.7c-5.8-8-14.1-11.7-24.4-11.7
	c-8.5,0-17.1,3.4-22.9,9.5V646h-22.4v92.1h22.9v-55.8c0-12.7,8-16.8,15.4-16.8s15.1,4.1,15.1,16.8v55.8h22.9v-56.3
	c0-11.9,8.3-16.3,15.4-16.3c7.3,0,15.1,4.1,15.1,16.8v55.8h22.9v-59c0-10-2.7-18.8-10-26.3C685.3,647.9,677,644.8,667.8,644.8z
	 M767.7,701.5c0,12.7-8,16.8-15.4,16.8s-15.1-4.1-15.1-16.8V646h-22.9v59c0,10,1.9,18.8,9.3,26.1c5.1,5.1,12.7,8,21.7,8
	c8.5,0,17.1-3.2,22.9-9.5v8.5h22.4V646h-22.9V701.5z M828.4,710.3v-98.2h-22.9v99.7c0,13.2,8,26.3,26.8,26.3h13.2v-19.5h-8.8
	C830.8,718.6,828.4,715.9,828.4,710.3z M930,688.9c0-25.3-14.6-44.1-40.2-44.1c-23.9,0-40.2,17.1-40.2,47c0,37.3,21,47.3,42.6,47.3
	c16.6,0,25.6-5.1,35.1-14.6l-13.9-13.6c-5.8,5.8-10.7,8.8-21,8.8c-12.9,0-20.2-8.8-20.2-20.5H930V688.9z M872.2,683.5
	c0.2-4.1,0.7-6.6,2.2-10c2.4-5.6,7.6-9.5,15.4-9.5c7.8,0,12.9,4.1,15.4,9.5c1.5,3.4,1.9,5.8,2.2,10H872.2z M542.5,585
	c-3.2,1.5-7.6,1.2-12.2,1.5c-3.9,0-9.5,0.2-11.7-1.9c-1.2-1.2-1.7-3.4-1.7-4.9c0-1.7,0.2-3.7,0.7-5.6c0.5-2.2,1-5.1,0-6.1
	c-1-1.5-4.6-0.7-6.3-1.9c-1.9-1.2-2.4-3.7-3.2-6.8c-0.2-1-0.7-1.7-1-2.4c-0.5-4.6,1-10.7,1.9-15.4c1.2-4.9,2.4-9.5,3.4-14.1
	c1.2-6.8,1.7-14.6,1.2-21.9c-0.2-3.7-0.7-6.6-0.2-9.7c0.5-2.9,1.7-5.4,2.4-8.3c0.2-1,0-1.9,0.2-2.9c0-1,0.7-1.7,0.7-2.4
	c0-1.9-0.5-4.4-0.7-6.8c-0.5-6.6,0-15.6,0.5-21.2c0.2-1.9,1-4.1-0.2-5.1c-6.8,0-12.9,1.2-19.3,1.9c-16.8,2.2-38,2.4-54.3-0.7
	c-1.5-0.2-3.2-0.2-4.6-0.7c-11.5-2.7-22.2-7.6-30.5-14.1c-1.2-1-2.7-2.2-4.1-3.2c-1.5-1-2.9-2.7-4.1-3.2c-6.6-3.2-15.4,0.5-18,4.6
	c-1,1.7-1.9,3.9-2.9,5.8s-1.9,3.9-2.7,5.8c-4.4,10-9.3,19.5-13.6,29.5c-2.4,5.8-5.4,12.2-7.3,18.5c-3.9,13.6-0.2,32.2,2.9,45.1
	c0.2,1.2,1,2.4,1.5,3.7c1,3.2,3.2,7.3,5.6,9.5c1.2,1.2,3.4,1.7,4.9,2.9c1.7,1.5,3.2,4.6,4.6,7.3c0.5,1,1.5,2.4,2.2,3.7
	c1.7,2.9,2.2,5.6-1,7.3c-2.4,1.2-6.1,1.7-9.5,1.9c-1.5,0.5-1,2.4-1.9,3.4c-0.5,0.5-2.9,1.5-4.1,1.9c-4.4,1.2-12.2,1.2-15.6,0
	c-1.7-0.7-3.7-1.9-4.1-3.4c-1-2.7,1.2-6.3-0.7-8.3c-1-1-2.7-0.7-4.4-1.5c-2.4-1-4.6-3.2-5.6-6.1c-2.7-6.8-1-17.3-1.2-25.6
	c0-2.4-0.5-5.1-0.5-7.8c-0.2-4.9-1.2-9.7-1.9-14.6c-0.2-2.4-1-4.4-1.5-6.6c-0.7-3.4-1.5-7.3-2.4-10.7c-1.2-3.9-1.2-7.6,0.2-11
	c0.2-1,1.2-1.7,1.9-2.9c0.7-1.9,1-4.1,1-5.8c-0.5-1-2.9-0.2-3.4-1.2c-1.5-10.7-2.9-21.2-3.9-32.4c-0.2-3.7-0.2-7.6-0.7-11.5
	c-0.7-7.6,0-15.4-0.7-22.7c-0.2-3.7-1.2-7.1-1.7-10.5c-1.2-9.7-3.9-22.2-1.9-32.4c1.2-6.6,3.7-11.7,7.3-16.6
	c2.7-3.4,5.4-6.6,8.5-9.5c2.9-2.9,6.3-5.6,10-8.3c2.2-1.7,4.6-3.7,7.3-4.6c5.6-2.7,12.9-4.9,20.7-5.1c7.8-0.2,16.6-0.5,24.1,1
	c7.3,1.2,14.6,2.7,21.9,4.1c7.1,1.5,13.9,3.4,20.7,5.1c1,0.2,1.7,0.7,2.4,1c2.2,0.5,4.6,0.7,6.8,1.5c6.3,1.7,14.4,2.4,21.9,2.4
	c8.3,0,15.6-0.2,22.4-1.9c1-0.2,1.7-0.7,2.9-1.2c1-0.5,2.4-0.2,3.4-0.7c0.7-0.2,1.5-1,2.2-1.2c3.9-1.9,7.3-3.7,10.7-6.1
	c2.7-1.9,5.1-3.7,8.8-5.1c1.7-0.7,3.2-1.5,4.9-1.9c3.4-1.2,7.3-2.2,10-3.9c4.1-2.7,7.3-6.6,10.7-9.5c3.7-3.2,7.3-6.1,11.2-9.3
	c7.8-6.1,15.6-11.7,22.9-17.5c3.7-2.9,7.8-5.8,12.2-8.3c8.5-4.9,17.1-10.5,29.2-11.5c4.9-0.2,9.7-0.5,14.6,0.2
	c1.2,0.2,3.2,1,4.4,0.7c1.2-0.2,2.2-2.2,3.2-3.9c1.7-3.2,3.2-5.4,4.6-9.3c1-2.4,0.5-4.9,2.9-4.6c2.4,0,2.2,6.6,2.2,9
	c0.2,2.9-0.2,6.8,0.2,8.8c0.2,1.5,2.2,3.4,4.1,3.4c1.5,0,2.2-1,3.4-1.9c1.2-0.7,2.4-1.2,3.4-1.9c1.9-1.5,4.4-3.9,6.3-6.1
	c1.7-1.7,4.4-5.6,7.1-5.4c4.9,0.5,0,7.6-1,10c-2.4,5.6-4.9,9.5-7.8,14.9c-1.2,2.2-3.9,5.1-3.9,7.3c0,1.5,1.2,2.7,1.9,4.1
	c0.2,0.7,0.5,1.7,0.7,2.4c1.7,3.9,2.9,9.3,4.1,13.6c1.2,3.7,1.9,7.8,3.4,11.5c1.2,3.7,3.2,7.1,4.6,10.5c0.5,1,0.5,2.2,0.7,2.9
	c3.2,7.8,6.1,16.8,9.7,24.4c1.5,3.2,3.7,6.8,3.7,11.5c0,4.9-2.7,7.3-4.9,11c-1.2,1.9-2.9,4.9-4.6,5.6c-1.2,0.5-2.9,0-4.1,0.2
	c-1.9,0.2-3.2,1.5-4.9,1.7c-4.6,0.5-8.8-2.9-10-6.3c-0.5-1.2-0.2-2.7-0.5-4.1c-1-5.4-3.7-8-7.6-11.7c-2.4-2.2-4.4-3.9-7.3-5.6
	c-4.4-2.2-9-3.7-13.6-6.1c-1.7-1-3.7-1.7-5.1-1.5c-2.4,0.5-4.9,4.4-6.8,6.8c-11.9,15.6-22.4,31.7-33.9,47
	c-7.6,10.2-15.8,20.5-21.9,32.2c-1.5,2.9-2.4,6.3-3.7,9.7c-1.2,3.4-1.7,7.1-2.9,10.5c-4.4,12.7-5.8,28.3-10,41.7
	c-0.5,1.5-0.5,2.9-1,4.6c-1.9,6.8-3.7,14.6-5.8,21.9c-1.7,5.4-2.2,12.7-2.4,19.7c-0.2,6.6-0.5,16.1,1.9,20.2
	c1.2,2.2,5.8,3.2,7.6,5.4c1.2,1.7,1.9,4.9,3.2,6.8c0.7,1.5,3.2,4.6,2.9,6.8c-0.2,1.7-1.7,2.9-2.9,3.4c-1.5,0.7-3.4,0.2-4.9,1
	C543.5,582.1,544.2,584.1,542.5,585z"/>
</svg>
