<?xml version="1.0" encoding="utf-8"?>
<!-- Generator: Adobe Illustrator 18.1.1, SVG Export Plug-In . SVG Version: 6.00 Build 0)  -->
<!DOCTYPE svg PUBLIC "-//W3C//DTD SVG 1.1//EN" "http://www.w3.org/Graphics/SVG/1.1/DTD/svg11.dtd">
<svg version="1.1" id="Layer_1" xmlns="http://www.w3.org/2000/svg" xmlns:xlink="http://www.w3.org/1999/xlink" x="0px" y="0px"
	 viewBox="-139 -116 1000 1000" enable-background="new -139 -116 1000 1000" xml:space="preserve">
<path fill="#FFFFFF" d="M794.4,469.2c0,15.2-5.4,28.4-16.3,38.9c-10.8,10.8-23.7,16-38.9,16c-15.2,0-28.4-5.4-38.9-16
	c-10.8-10.8-16.3-23.7-16.3-38.9c0-15.2,5.4-28.4,16.3-38.9c10.8-10.8,23.7-16.3,38.9-16.3c15.2,0,28.4,5.4,38.9,16.3
	C789,441.1,794.4,454,794.4,469.2z"/>
<path fill="#FFFFFF" d="M-28.9,435.2V303.5h-43.5v-57.8h44.1l5.4-83.5h77v83.5h56.1v57.8H54.1v118.2c0,21.5,8.8,33.5,29.2,36.4
	c10.3,1.2,20.9,1.2,32.3,0v61c-13.2,1.7-32.3,3.2-49.5,3.2C4,522.1-28.9,492.9-28.9,435.2"/>
<path fill="#FFFFFF" d="M303.9,433.7V323.8c-9.5-13.7-22-28.6-46.1-28.6c-30.6,0-45,22-45,86.1c0,65.8,16.9,85,44.3,85
	C281.3,466.6,295,451.1,303.9,433.7 M124.1,380.7c0-86.7,43.5-140,108.2-140c32.3,0,55.5,14.3,71.2,32.9V151.7h84.7V518H307v-38.9
	c-22,29.2-45,44.1-85.6,44.1C162.8,523,124.1,476.9,124.1,380.7"/>
<path fill="#FFFFFF" d="M419.2,381.3c0-77.6,52.1-140.5,134.5-140.5c65.8,0,109.9,35.2,120.7,102.1l-75.9,7.1
	c-3.7-31.2-15.4-52.6-42.4-52.6c-30.6,0-46.7,29.2-46.7,84.7c0,60.4,18.1,86.7,47.8,86.7c26.9,0,38.9-18.1,44.1-48.9l73.6,6.6
	c-8.3,62.1-51.5,96.7-122.4,96.7C474.1,523,419.2,470.9,419.2,381.3"/>
</svg>
