<?xml version="1.0" encoding="utf-8"?>
<!-- Generator: Adobe Illustrator 18.1.1, SVG Export Plug-In . SVG Version: 6.00 Build 0)  -->
<!DOCTYPE svg PUBLIC "-//W3C//DTD SVG 1.1//EN" "http://www.w3.org/Graphics/SVG/1.1/DTD/svg11.dtd">
<svg version="1.1" id="Layer_1" xmlns="http://www.w3.org/2000/svg" xmlns:xlink="http://www.w3.org/1999/xlink" x="0px" y="0px"
	 width="1000px" height="1000px" viewBox="0 0 1000 1000" enable-background="new 0 0 1000 1000" xml:space="preserve">
<g>
	<path opacity="0.25" fill="#FFFFFF" enable-background="new    " d="M221.9,917.1v9.8H209v47.9h-11v-47.9h-12.9v-9.8H221.9z
		 M232.3,974.8v-57.7h11v23h15.6v-23h11v57.7h-11v-24.9h-15.6v24.9H232.3z M283.7,974.8v-57.7h30.2v9.8h-19.2v13.3h14.6v9.7h-14.6
		v15.2h20v9.8L283.7,974.8L283.7,974.8z"/>
	<path fill="#FFFFFF" d="M336.9,957.7c0,6.4,2.8,8.2,7.2,8.2c4.4,0,7.2-1.8,7.2-8.2v-3.8h11v2.4c0,14.2-7.5,19.3-18.2,19.3
		s-18.2-5.1-18.2-19.3v-20.6c0-14.2,7.5-19.3,18.2-19.3s18.2,5.1,18.2,19.3v0.2h-11v-1.6c0-6.4-2.8-8.2-7.2-8.2
		c-4.4,0-7.2,1.8-7.2,8.2V957.7z M373.5,935.7c0-14.2,7.5-19.3,18.2-19.3s18.2,5.1,18.2,19.3v20.6c0,14.2-7.5,19.3-18.2,19.3
		s-18.2-5.1-18.2-19.3V935.7z M384.5,957.7c0,6.4,2.8,8.2,7.2,8.2c4.4,0,7.2-1.8,7.2-8.2v-23.5c0-6.4-2.8-8.2-7.2-8.2
		c-4.4,0-7.2,1.8-7.2,8.2V957.7z M421.1,935.7c0-14.2,7.5-19.3,18.2-19.3s18.2,5.1,18.2,19.3v20.6c0,14.2-7.5,19.3-18.2,19.3
		s-18.2-5.1-18.2-19.3V935.7z M432.2,957.7c0,6.4,2.8,8.2,7.2,8.2c4.4,0,7.2-1.8,7.2-8.2v-23.5c0-6.4-2.8-8.2-7.2-8.2
		c-4.4,0-7.2,1.8-7.2,8.2V957.7z M470.3,974.8v-57.7h15.9c13.6,0,20.2,6.4,20.2,17.3c0,10.9-6.6,17.3-20.2,17.3h-4.9v23.2
		L470.3,974.8L470.3,974.8z M481.4,942.6h5.9c5.4,0,8.2-2.7,8.2-8.2c0-5.4-2.7-8.1-8.2-8.1h-5.9V942.6z M517.3,974.8v-57.7h30.2v9.8
		h-19.2v13.3H543v9.7h-14.6v15.2h20v9.8L517.3,974.8L517.3,974.8z M586.4,974.8l-9.6-23.5h-5.3v23.5h-11v-57.7h16
		c13.3,0,19.6,6.4,19.6,17.3c0,7.2-2.5,12.4-8.7,14.7l10.9,25.7H586.4z M571.5,942.2h5.7c4.9,0,7.8-2.4,7.8-8s-3-8-7.8-8h-5.7V942.2
		z"/>
	<path opacity="0.5" fill="#FFFFFF" enable-background="new    " d="M618.3,919.7v38.5c0,5.3,2.3,8,7.4,8c5.1,0,7.5-2.8,7.5-8v-38.5
		h10.5v38.6c0,12.1-7.2,17.2-18,17.2s-17.9-5.1-17.9-17.2v-38.6H618.3z M658.2,974.8v-55.1h11.5l14.6,32.7h0.2v-32.7h9.6v55.1H684
		l-16.1-35.6h-0.1v35.6H658.2z M709.3,974.8v-55.1h10.5v55.1H709.3z M732.9,937.4c0-13.6,7.2-18.5,17.4-18.5s17.4,4.9,17.4,18.5
		v19.7c0,13.6-7.2,18.5-17.4,18.5s-17.4-4.9-17.4-18.5V937.4z M743.4,958.4c0,6.1,2.7,7.8,6.9,7.8s6.9-1.7,6.9-7.8V936
		c0-6.1-2.7-7.8-6.9-7.8s-6.9,1.7-6.9,7.8V958.4z M780.6,974.8v-55.1h11.5l14.7,32.7h0.1v-32.7h9.6v55.1h-10.1l-16.1-35.6h-0.1v35.6
		H780.6z"/>
</g>
<g>
	<polygon fill="none" stroke="#FFFFFF" stroke-width="17.4022" stroke-linejoin="round" points="393.1,25.6 810.8,443.3 
		810.8,652.1 601.9,860.9 184.3,443.3 184.3,234.5 	"/>
	<line fill="none" stroke="#FFFFFF" stroke-width="17.4022" stroke-linejoin="round" x1="393.1" y1="234.5" x2="393.1" y2="25.6"/>
	<polygon fill="none" stroke="#FFFFFF" stroke-width="17.4022" stroke-linejoin="round" points="601.9,234.4 393.1,443.3 
		393.1,652.1 602,443.2 	"/>
	<polyline fill="none" stroke="#FFFFFF" stroke-width="17.4022" stroke-linejoin="round" points="810.8,443.3 601.9,652.1 
		184.3,234.5 	"/>
	<polyline fill="none" stroke="#FFFFFF" stroke-width="17.4022" stroke-linejoin="round" points="184.3,443.3 393.1,234.5 
		810.8,652.1 	"/>
	<line fill="none" stroke="#FFFFFF" stroke-width="17.4022" stroke-linejoin="round" x1="601.9" y1="652.1" x2="601.9" y2="860.9"/>
</g>
</svg>
