<?xml version="1.0" encoding="utf-8"?>
<!-- Generator: Adobe Illustrator 21.0.0, SVG Export Plug-In . SVG Version: 6.00 Build 0)  -->
<svg version="1.1" id="Layer_1" xmlns="http://www.w3.org/2000/svg" xmlns:xlink="http://www.w3.org/1999/xlink" x="0px" y="0px"
	 width="1000px" height="1000px" viewBox="0 0 1000 1000" style="enable-background:new 0 0 1000 1000;" xml:space="preserve">
<style type="text/css">
	.st0{fill:#FFFFFF;}
	.st1{opacity:0.35;fill:#FFFFFF;}
	.st2{opacity:0.55;fill:#FFFFFF;}
	.st3{opacity:0.65;fill:#FFFFFF;}
	.st4{opacity:0.8;fill:#FFFFFF;}
</style>
<path class="st0" d="M111.371,413.161h56.033v37.473h-56.033v63.527c0,35.689,29.623,37.475,58.174,27.122l4.639,37.833
	c-59.244,16.415-111.706,6.78-111.706-63.884v-64.599L30,447.422v-34.262h36.046l5.353-53.534h39.972V413.161z M311.218,409.235
	c13.205-0.357,26.767,3.569,36.76,11.063l-11.063,41.756c-10.351-6.78-21.057-9.635-32.12-9.279
	c-21.771,0-40.329,14.276-40.329,40.686v91.364h-48.894V465.268c0-14.276-1.429-23.555-17.131-21.057v-30.693
	c24.981-5.71,59.957-5.71,62.813,24.983C268.392,418.871,290.162,409.235,311.218,409.235z M519.629,323.581V517.73
	c0,26.411,10.349,33.192,34.262,29.266l1.783,36.044c-53.175,9.638-85.295-3.569-85.295-65.31V323.581H519.629z M657.737,588.394
	c-45.682,0-91.007-29.978-91.007-90.292c0-59.958,45.325-88.867,91.007-88.867s91.364,28.908,91.364,88.867
	C749.101,558.416,703.419,588.394,657.737,588.394z M658.094,544.498c21.055,0,41.399-15.348,41.399-46.396
	c0-30.693-20.701-44.969-41.399-44.969c-21.058,0-41.756,13.919-41.756,44.969C616.338,529.508,637.036,544.498,658.094,544.498z
	 M764.074,412.448c25.341-4.64,65.669-7.139,65.669,26.052c11.063-20.342,31.407-29.266,54.248-29.266
	c48.536,0,68.88,33.192,67.809,76.018v44.969c0,16.059,0.714,23.911,18.201,22.839v29.267c-33.904,8.563-67.809,4.283-67.809-38.545
	v-58.531c0.357-23.911-14.989-36.403-33.19-36.403c-18.558-1.07-36.047,13.562-36.047,37.475v98.501h-49.965V466.338
	c0-18.915,0.357-25.695-18.915-24.625V412.448z"/>
<g>
	<path class="st0" d="M407.383,315.288c-17.695,0-32.042,14.347-32.042,32.042c0,17.698,14.347,32.042,32.042,32.042
		c17.695,0,32.042-14.344,32.042-32.042C439.426,329.635,425.078,315.288,407.383,315.288"/>
	<path class="st1" d="M407.383,391.623c-17.695,0-32.042,14.347-32.042,32.042c0,17.698,14.347,32.042,32.042,32.042
		c17.695,0,32.042-14.344,32.042-32.042C439.426,405.97,425.078,391.623,407.383,391.623"/>
	<path class="st2" d="M407.383,467.958c-17.695,0-32.042,14.347-32.042,32.042c0,17.698,14.347,32.042,32.042,32.042
		c17.695,0,32.042-14.344,32.042-32.042C439.426,482.305,425.078,467.958,407.383,467.958"/>
	<path class="st3" d="M407.383,544.293c-17.695,0-32.042,14.347-32.042,32.042c0,17.698,14.347,32.042,32.042,32.042
		c17.695,0,32.042-14.344,32.042-32.042C439.426,558.64,425.078,544.293,407.383,544.293"/>
	<path class="st4" d="M407.383,620.627c-17.695,0-32.042,14.347-32.042,32.042c0,17.698,14.347,32.042,32.042,32.042
		c17.695,0,32.042-14.344,32.042-32.042C439.426,634.975,425.078,620.627,407.383,620.627"/>
</g>
</svg>
