<?xml version="1.0" encoding="utf-8"?>
<!-- Generator: Adobe Illustrator 21.0.0, SVG Export Plug-In . SVG Version: 6.00 Build 0)  -->
<svg version="1.1" id="Layer_1" xmlns="http://www.w3.org/2000/svg" xmlns:xlink="http://www.w3.org/1999/xlink" x="0px" y="0px"
	 width="1000px" height="1000px" viewBox="0 0 1000 1000" style="enable-background:new 0 0 1000 1000;" xml:space="preserve">
<style type="text/css">
	.st0{fill:none;stroke:#FFFFFF;stroke-width:18.7194;stroke-miterlimit:10;}
	.st1{fill:#2E292D;stroke:#FFFFFF;stroke-width:4.6799;stroke-miterlimit:10;}
	.st2{fill:#FFFFFF;}
</style>
<g>
	<line class="st0" x1="20" y1="296.467" x2="980" y2="296.467"/>
	<line class="st1" x1="20" y1="566.777" x2="980" y2="566.777"/>
	<line class="st1" x1="20" y1="693.533" x2="980" y2="693.533"/>
</g>
<path class="st2" d="M764.804,472.592h-34.107v-117.33h34.107v34.446c3.539-3.382,9.449-7.097,19.414-7.097
	c14.849,0,24.64,9.963,24.64,30.89v59.092h-34.096v-56.556c0-4.726-1.019-7.427-4.728-7.427c-3.54,0-5.231,2.363-5.231,6.417
	V472.592z M487.952,427.009c0,31.228-19.414,48.284-43.552,48.284c-24.987,0-40.683-14.52-40.683-45.245
	c0-35.62,23.964-47.438,43.046-47.438C460.773,382.61,487.952,386.828,487.952,427.009z M452.837,429.372
	c0-16.037-1.687-22.618-7.255-22.618c-4.899,0-6.928,7.253-6.928,19.583c0,13.674,0.683,24.474,7.093,24.474
	C450.982,450.811,452.837,445.249,452.837,429.372z M257.186,428.527c0,30.391-15.027,46.767-39.164,46.767
	c-2.873,0-6.755-0.512-9.117-1.019v33.764h-34.101v-118.5c14.517-5.237,31.568-6.928,40.346-6.928
	C242.499,382.61,257.186,398.144,257.186,428.527z M222.749,429.71c0-14.012-0.677-22.448-8.446-22.448
	c-2.528,0-4.554,0.502-5.399,0.84v42.882c1.35,0.498,3.037,1.01,4.728,1.01C222.577,451.994,222.749,441.355,222.749,429.71z
	 M121.294,517.494c-20.093,0-30.726-9.282-30.726-24.14c0-10.635,4.387-19.752,15.87-28.527
	c-14.691-3.208-20.092-12.161-20.092-26.671v-52.84h34.103v52.159c0,5.744,0.507,8.779,4.726,8.779c3.715,0,5.402-2.87,5.402-8.272
	v-52.667h34.271v62.287c0,3.542,0,18.907-0.171,23.637C163.325,501.119,148.975,517.494,121.294,517.494z M131.421,466.011
	c-4.392,3.373-11.647,11.137-11.647,20.762c0,4.721,2.023,6.581,5.569,6.581c4.559,0,6.078-3.044,6.078-10.461V466.011z
	 M894.446,465.673c0.343-0.169-13.505,9.621-34.436,9.621c-30.892,0-42.873-17.902-42.873-43.554
	c0-24.478,14.849-49.129,45.069-49.129c18.399,0,31.395,8.78,31.395,28.536c0,23.125-24.305,29.199-41.696,30.89
	c1.355,5.063,6.083,8.277,13.343,8.277c6.917,0,14.35-2.875,20.596-6.928L894.446,465.673z M850.218,421.945
	c9.12-0.845,14.35-6.247,14.35-11.137c0-2.706-1.691-4.561-4.385-4.561C855.456,406.247,850.728,410.808,850.218,421.945z
	 M397.807,447.438l7.086,21.608c-5.4,3.373-15.532,6.248-25.995,6.248c-16.713,0-25.829-5.238-30.387-16.883
	c-8.946,9.789-22.282,16.883-40.178,16.883c-32.241,0-44.564-18.235-44.564-43.554c0-24.478,14.855-49.129,45.073-49.129
	c18.4,0,31.402,8.78,31.402,28.536c0,23.125-24.311,29.199-41.703,30.89c1.52,4.721,6.247,8.437,16.037,8.437
	c12.664,0,31.911-7.591,31.911-37.81v-57.401h34.265v30.054h20.091v26.338h-20.091v27.01c0,8.436,4.39,11.138,9.287,11.138
	C392.403,449.801,395.105,448.955,397.807,447.438z M296.855,421.945c9.115-0.845,14.35-6.247,14.35-11.137
	c0-2.706-1.691-4.561-4.39-4.561C302.087,406.247,297.36,410.808,296.855,421.945z M948.466,382.61
	c-5.909,0-14.35,2.87-19.24,14.355l-2.705-11.65h-27.172l2.532,18.23v69.046h34.096v-52.338c0-6.581,3.378-8.944,9.958-8.944
	c4.392,0,8.615,1.352,12.323,3.034l4.223-28.527C958.431,383.455,952.858,382.61,948.466,382.61z M84.828,468.877l-6.92-21.439
	c-2.536,1.183-6.249,2.363-9.963,2.363c-6.754,0-8.61-2.701-8.61-11.138v-27.01h19.414v-26.338H59.336v-30.054H25.068v85.083
	c0,16.713,1.858,34.948,32.414,34.948C67.946,475.294,77.568,472.592,84.828,468.877z M652.709,443.384l8.61,22.289
	c0.336-0.169-13.501,9.621-34.439,9.621c-30.89,0-42.877-17.902-42.877-43.554c0-24.478,14.86-49.129,45.069-49.129
	c18.411,0,31.406,8.78,31.406,28.536c0,23.125-24.316,29.199-41.696,30.89c1.344,5.063,6.071,8.277,13.336,8.277
	C639.037,450.313,646.464,447.438,652.709,443.384z M617.091,421.945c9.117-0.845,14.355-6.247,14.355-11.137
	c0-2.706-1.691-4.561-4.396-4.561C622.322,406.247,617.594,410.808,617.091,421.945z M710.947,449.801
	c-4.89,0-9.282-2.701-9.282-11.138v-27.01h20.093v-26.338h-20.093v-30.054h-34.274v85.083c0,16.713,1.865,34.948,32.421,34.948
	c10.463,0,20.595-2.875,25.995-6.248l-7.09-21.608C716.015,448.955,713.316,449.801,710.947,449.801z M534.207,517.32
	c-21.274,0-31.904-9.616-31.904-24.135c0-11.475,5.4-21.439,16.709-30.223c-13.331-2.354-24.814-15.36-24.814-35.446
	c0-29.208,19.078-44.907,46.255-44.907c10.632,0,26.002,2.198,35.956,6.417v67.355c0,3.209-0.17,14.693-0.505,18.231
	C574.045,501.284,560.707,517.32,534.207,517.32z M528.297,427.517c0,9.794,0.846,19.24,7.936,19.24
	c3.211,0,6.245-2.358,6.245-8.263V406.59C530.824,404.899,528.297,416.882,528.297,427.517z M537.074,493.354
	c4.724,0,6.078-3.044,6.078-11.818v-15.525c-4.392,3.373-11.647,11.137-11.647,20.762
	C531.505,491.495,533.535,493.354,537.074,493.354z M80.144,626.066H52.848v-23.139h-7.077v53.914h7.077v-24.487h27.295v24.487
	h7.077v-53.914h-7.077V626.066z M110.241,656.841h7.077v-53.914h-7.077V656.841z M174.262,650.777
	c-2.808,0.562-6.179,1.124-9.323,1.124c-15.95,0-20.669-11.01-20.669-22.805c0-14.487,7.975-21.229,19.32-21.229
	c6.291,0,10.447,1.91,14.378,4.378l3.259-5.612c-3.259-2.696-10.447-5.169-16.962-5.169c-17.86,0-27.631,11.905-27.631,28.308
	c0,15.726,7.975,28.417,27.631,28.417c6.291,0,13.256-1.572,17.186-3.821v-22.686h-7.189V650.777z M235.813,626.066h-27.295v-23.139
	h-7.077v53.914h7.077v-24.487h27.295v24.487h7.077v-53.914h-7.077V626.066z M332.292,653.697c2.92,2.806,6.289,5.055,9.995,6.512
	l-2.806,4.721c-4.719-1.686-9.099-4.721-12.806-8.313c-3.035,1.01-6.515,1.572-10.447,1.572c-17.746,0-25.497-12.467-25.497-28.979
	c0-16.402,9.323-27.745,26.283-27.745c15.278,0,25.161,10.781,25.161,27.293C342.175,640.444,338.918,648.866,332.292,653.697z
	 M327.573,648.642c4.831-3.706,7.189-10.224,7.189-18.308c0-13.706-5.505-22.467-18.31-22.467c-11.905,0-18.42,8.199-18.42,20.781
	c0,9.547,2.92,23.363,18.646,23.363c1.796,0,3.594-0.224,5.167-0.562c-2.696-3.368-4.943-6.736-6.403-9.885l5.729-2.92
	C322.63,641.792,324.877,645.384,327.573,648.642z M395.973,634.15c0,9.323-1.572,17.412-13.928,17.412
	c-13.142,0-14.154-8.427-14.154-19.656v-28.979h-6.963v32.572c0,13.592,3.706,22.691,20.442,22.691
	c18.758,0,21.455-12.02,21.455-23.587v-31.676h-6.853V634.15z M443.368,602.927l19.771,53.914h-7.639l-5.729-16.064h-20.554
	l-5.841,16.064h-6.965l19.656-53.914H443.368z M447.748,634.936l-7.861-24.035h-0.338l-8.425,24.035H447.748z M485.601,602.927
	h-7.077v53.914h31.678v-5.955h-24.601V602.927z M527.157,656.841h7.075v-53.914h-7.075V656.841z M550.406,609.101h18.084v47.74
	h7.189v-47.74h18.308v-6.174h-43.581V609.101z M623.41,629.548h-0.338l-13.368-26.621h-7.637l17.522,33.696v20.219h6.851v-20.442
	l18.313-33.472h-7.079L623.41,629.548z M688.548,656.841h7.075v-23.925h19.661v-6.293h-19.661v-17.522h23.929v-6.174h-31.004
	V656.841z M782.342,628.758c0,18.761-8.651,29.432-25.949,29.432c-17.746,0-25.497-12.467-25.497-28.979
	c0-16.402,9.323-27.745,26.283-27.745C772.457,601.465,782.342,612.246,782.342,628.758z M774.925,630.334
	c0-13.706-5.502-22.467-18.308-22.467c-11.905,0-18.422,8.199-18.422,20.781c0,9.547,2.92,23.363,18.646,23.363
	C768.974,652.011,774.925,643.135,774.925,630.334z M838.496,646.284h-0.562l-25.497-43.357h-11.119v53.914h6.627v-47.402h0.562
	l28.417,47.402h8.089v-53.914h-6.517V646.284z M860.844,609.101h18.084v47.74h7.189v-47.74h18.308v-6.174h-43.581V609.101z
	 M935.534,625.613c-7.523-2.92-11.457-4.94-11.457-10.219c0-4.159,3.373-7.751,10.109-7.751c4.945,0,8.875,1.458,12.02,3.368
	l2.92-5.164c-3.816-2.811-9.433-4.383-14.94-4.383c-9.095,0-17.408,4.607-17.408,14.94c0,9.433,6.736,12.582,14.487,15.278
	c7.079,2.468,11.91,4.04,11.91,10.667c0,6.069-4.269,9.661-11.796,9.661c-6.741,0-12.467-3.259-14.602-4.716l-2.92,5.617
	c3.144,2.358,10.333,5.279,17.97,5.279c11.124,0,18.646-5.955,18.646-16.96C950.474,631.12,941.937,628.086,935.534,625.613z"/>
</svg>
