<?xml version="1.0" encoding="utf-8"?>
<!-- Generator: Adobe Illustrator 19.2.0, SVG Export Plug-In . SVG Version: 6.00 Build 0)  -->
<!DOCTYPE svg PUBLIC "-//W3C//DTD SVG 1.1//EN" "http://www.w3.org/Graphics/SVG/1.1/DTD/svg11.dtd">
<svg version="1.1" id="Layer_1" xmlns="http://www.w3.org/2000/svg" xmlns:xlink="http://www.w3.org/1999/xlink" x="0px" y="0px"
	 width="1000px" height="1000px" viewBox="0 0 1000 1000" style="enable-background:new 0 0 1000 1000;" xml:space="preserve">
<style type="text/css">
	.st0{fill:#FFFFFF;}
</style>
<path class="st0" d="M502.422,558.293c0,19.27-7.418,28.289-19.425,28.289c-5.583,0-12.15-2.121-17.468-6.529v-41.734
	c5.984-5.934,11.938-8.483,18.238-8.483C496.035,529.836,502.422,540.759,502.422,558.293z M572.341,400.073
	c0-17.535-6.388-28.459-18.657-28.459c-6.3,0-12.252,2.551-18.233,8.485v41.734c5.319,4.408,11.883,6.529,17.463,6.529
	C564.923,428.361,572.341,419.343,572.341,400.073z M588.751,529.836c-6.298,0-12.252,2.549-18.234,8.483v41.734
	c5.319,4.408,11.883,6.529,17.463,6.529c12.009,0,19.427-9.018,19.427-28.289C607.408,540.759,601.02,529.836,588.751,529.836z
	 M925,485c0,165.127-126.482,284.639-425.322,284.639C200.861,769.639,75,650.128,75,485c0-165.123,125.861-284.639,424.678-284.639
	C798.518,200.361,925,319.877,925,485z M610.421,400.211c0,29.781,19.501,48.365,51.391,48.365c11.327,0,26.683-3.854,37.055-9.525
	l-5.017-20.732c-12.996,7-21.714,9.417-30.647,9.417c-13.828,0-22.77-6.476-25.007-20.245h62.768v-7.28
	c0-28.105-16.664-48.365-44.537-48.365C630.192,351.846,610.421,372.241,610.421,400.211z M317.668,341.946h35.915v104.816h29.35
	V341.946h35.917v-24.57H317.668V341.946z M324.826,566.418c0-19.824-7.519-30.683-35.465-38.201l-12.922-3.459
	c-9.192-2.684-12.996-7.054-12.996-14.018c0-7.273,6.195-12.706,16.931-12.706c9.731,0,20.025,2.775,34.943,10.216l6.743-24.829
	c-14.191-6.586-29.617-9.629-40.724-9.629c-27.089,0-45.275,16.291-45.275,39.075c0,17.91,8.89,29.844,31.524,36.524l14.827,4.284
	c10.528,3.084,13.812,7.794,13.812,14.149c0,8.624-6.525,13.897-19.138,13.897c-9.422,0-22.783-3.602-38.379-11.9l-6.657,25.2
	c15.257,7.87,32.842,11.776,48.05,11.776C307.933,606.798,324.826,588.926,324.826,566.418z M421.32,511.883h-27.472v63.218
	c-5.172,5.934-12.594,10.549-18.548,10.549c-7.67,0-11.546-4.325-11.546-14.76v-59.007h-27.472v58.455
	c0,23.857,9.649,36.47,29.254,36.47c11.908,0,22.805-6.607,30.124-16.429v14.603h25.659V511.883z M425.959,483.231
	c19.917,0,29.506-5.464,35.887-25.05l36.042-104.518h-26.56l-18.79,62.877l-18.747-62.877h-29.282l33.452,96.63l-1.429,4.146
	c-2.318,5.889-4.938,7.485-11.8,7.485h-10.273v21.308H425.959z M530.667,558.431c0-29.772-17.273-48.365-38.455-48.365
	c-11.736,0-21.648,4.61-29.406,13.999v-12.183h-24.748v129.383h27.471v-44.135c6.971,6.222,15.666,9.667,24.151,9.667
	C513.059,606.798,530.667,588.805,530.667,558.431z M535.451,438.908c6.969,6.225,15.664,9.667,24.147,9.667
	c23.381,0,40.989-17.991,40.989-48.365c0-29.772-17.276-48.365-38.457-48.365c-11.731,0-21.643,4.61-29.404,14.002v-12.185h-24.748
	v129.383h27.473V438.908z M635.654,558.431c0-29.772-17.275-48.365-38.457-48.365c-11.731,0-21.643,4.61-29.401,13.999v-12.183
	h-24.751v129.383h27.473v-44.137c6.971,6.225,15.664,9.67,24.149,9.67C618.048,606.798,635.654,588.805,635.654,558.431z
	 M674.872,475.606h-27.537v129.376h27.537V475.606z M778.054,511.883h-26.562l-18.79,62.877l-18.747-62.877h-29.282l33.452,96.63
	l-1.429,4.149c-2.316,5.887-4.938,7.482-11.8,7.482h-10.271v21.308h11.498c19.917,0,29.506-5.464,35.89-25.05L778.054,511.883z
	 M656.757,371.533c-8.666,0-15.647,6.469-18.136,18.447h35.324C673.35,377.926,666.85,371.533,656.757,371.533z"/>
</svg>
