<?xml version="1.0" encoding="utf-8"?>
<!-- Generator: Adobe Illustrator 21.0.0, SVG Export Plug-In . SVG Version: 6.00 Build 0)  -->
<svg version="1.1" id="Layer_1" xmlns="http://www.w3.org/2000/svg" xmlns:xlink="http://www.w3.org/1999/xlink" x="0px" y="0px"
	 width="1000px" height="1000px" viewBox="0 0 1000 1000" style="enable-background:new 0 0 1000 1000;" xml:space="preserve">
<style type="text/css">
	.st0{fill:#FFFFFF;}
</style>
<g>
	<path class="st0" d="M867.703,320.578H616.416c-2.219-65.732-53.419-118.339-116.418-118.339
		c-62.998,0-114.199,52.607-116.409,118.339H132.301C81.324,320.578,40,363.744,40,416.997c0,53.253,41.324,96.428,92.301,96.428
		h735.402c50.973,0,92.297-43.175,92.297-96.428C960,363.744,918.676,320.578,867.703,320.578z"/>
	<path class="st0" d="M110.67,709.356v-35.053h16.71v-19.789h-16.71v-17.676H81.629v17.676H71.407v19.789h10.221v37.813
		c0,19.945,10.707,29.202,29.853,29.202c6.811,0,12.331-1.467,16.06-2.445v-22.059c-2.593,0.977-5.03,1.467-8.274,1.467
		C113.753,718.28,110.67,715.521,110.67,709.356z"/>
	<polygon class="st0" points="182.532,699.785 165.014,654.514 133.541,654.514 167.451,730.768 153.33,767.761 181.083,767.761 
		226.511,654.514 198.758,654.514 	"/>
	<path class="st0" d="M291.885,652.243c-12.82,0-21.587,6.811-26.452,14.933v-12.662h-29.036v113.247h29.036v-40.887
		c4.218,8.435,13.466,14.444,26.286,14.444c19.954,0,36.014-14.601,36.014-43.804v-1.31
		C327.733,667.176,311.674,652.243,291.885,652.243z M298.208,697.514c0,13.955-5.843,21.57-16.715,21.57
		c-10.54,0-16.872-7.301-16.872-21.745v-1.292c0-14.269,6.331-21.902,16.872-21.902c10.227,0,16.715,7.143,16.715,22.059V697.514z"
		/>
	<path class="st0" d="M382.078,652.243c-25.64,0-45.918,17.203-45.918,44.45v1.309c0,27.736,19.474,43.315,46.075,43.315
		c25.639,0,40.397-10.881,43-30.023h-27.264c-1.135,5.676-5.188,10.06-14.759,10.06c-10.383,0-16.872-6.48-17.684-17.676h59.706
		v-7.632C425.235,665.551,405.272,652.243,382.078,652.243z M365.852,687.279c1.468-10.217,7.467-15.893,16.226-15.893
		c9.414,0,14.444,5.677,14.924,15.893H365.852z"/>
	<path class="st0" d="M453.129,708.378c-9.571,0-16.54,7.301-16.54,16.383c0,9.083,6.969,16.383,16.54,16.383
		c9.737,0,17.046-7.301,17.046-16.383C470.175,715.678,462.866,708.378,453.129,708.378z"/>
	<path class="st0" d="M518.022,709.356v-35.053h16.715v-19.789h-16.715v-17.676h-29.036v17.676h-10.218v19.789h10.218v37.813
		c0,19.945,10.706,29.202,29.848,29.202c6.821,0,12.332-1.467,16.069-2.445v-22.059c-2.602,0.977-5.03,1.467-8.279,1.467
		C521.105,718.28,518.022,715.521,518.022,709.356z"/>
	<path class="st0" d="M590.217,652.243c-26.277,0-46.564,17.203-46.564,44.45v1.309c0,27.404,20.287,43.315,46.407,43.315
		c26.12,0,46.398-16.558,46.398-44.135v-1.293C636.457,668.957,616.337,652.243,590.217,652.243z M606.931,697.514
		c0,14.112-5.842,22.216-16.714,22.216c-11.196,0-16.872-7.946-16.872-22.547v-1.293c0-14.286,6.008-21.902,16.872-21.902
		c11.038,0,16.714,7.947,16.714,22.217V697.514z"/>
	<path class="st0" d="M707.028,666.513c-4.865-8.594-12.82-14.269-26.12-14.269c-20.12,0-36.015,15.404-36.015,44.293v1.292
		c0,29.378,16.06,43.49,35.691,43.49c12.812,0,22.226-6.987,26.444-15.737v13.78h29.045V617.207h-29.045V666.513z M707.839,697.339
		c0,14.445-6.489,21.745-17.038,21.745c-10.06,0-16.383-7.301-16.383-21.57v-1.31c0-14.759,5.842-22.059,16.705-22.059
		c10.716,0,16.715,7.632,16.715,21.902V697.339z"/>
	<path class="st0" d="M792.19,652.243c-23.194,0-39.263,10.06-40.556,30.495h27.256c0.647-5.344,3.572-10.06,11.519-10.06
		c9.248,0,11.195,5.362,11.195,13.466v1.956h-8.113c-28.233,0-45.105,7.79-45.105,27.736c0,18.007,13.466,25.482,28.722,25.482
		c13.623,0,21.09-5.677,25.142-11.842v9.885h28.233v-54.999C830.483,661.814,815.559,652.243,792.19,652.243z M801.604,709.67
		c0,7.301-6.165,12.017-14.444,12.017c-6.811,0-10.051-3.091-10.051-7.947c0-6.986,5.188-9.256,16.872-9.256h7.623V709.67z"/>
	<polygon class="st0" points="885.474,699.785 867.956,654.514 836.483,654.514 870.383,730.768 856.271,767.761 884.016,767.761 
		929.444,654.514 901.7,654.514 	"/>
</g>
</svg>
