<?xml version="1.0" encoding="utf-8"?>
<!-- Generator: Adobe Illustrator 21.0.0, SVG Export Plug-In . SVG Version: 6.00 Build 0)  -->
<svg version="1.1" id="Layer_1" xmlns="http://www.w3.org/2000/svg" xmlns:xlink="http://www.w3.org/1999/xlink" x="0px" y="0px"
	 width="1000px" height="1000px" viewBox="0 0 1000 1000" style="enable-background:new 0 0 1000 1000;" xml:space="preserve">
<style type="text/css">
	.st0{fill:#FFFFFF;}
</style>
<path class="st0" d="M502.689,276.07h32.362l141.406,166.935V276.07h50.144h0.971v257.507h-34.076L553.262,368.74v164.838h-50.573
	L502.689,276.07L502.689,276.07z M475.666,276.07H231.754v46.211h96.516v211.296h50.881V322.282h96.516V276.07z M204.603,600.043
	v-10.995H140v10.995h25.816v79.182h12.355v-79.182L204.603,600.043L204.603,600.043z M259.565,618.945h-11.986l-20.014,43.853
	l-19.638-43.853H195.45l26.064,55.833l-4.697,9.387c-3.458,6.801-6.666,9.018-10.62,9.018c-2.104,0-4.201-0.737-5.066-1.233
	l-3.337,10.378c1.36,0.496,4.074,1.602,7.906,1.602c6.666,0,14.573-2.714,20.262-14.452L259.565,618.945z M263.129,703.688h11.484
	v-36.69c2.472,7.162,10.747,13.213,21.99,13.213c14.452,0,27.303-12.101,27.303-31.994c0-18.406-10.874-30.513-27.303-30.513
	c-12.107,0-20.382,6.794-22.727,14.948v-13.588h-10.747L263.129,703.688L263.129,703.688z M293.89,670.703
	c-10.754,0-19.645-6.674-19.645-21.374c0-14.948,8.274-22.479,19.149-22.479c12.107,0,18.654,9.507,18.654,21.983
	c0,13.219-7.786,21.99-18.158,21.99V670.703L293.89,670.703z M363.41,680.586c14.084,0,20.878-4.818,26.559-10.747l-7.162-7.41
	c-3.585,4.194-9.018,8.274-19.397,8.274c-12.971,0-20.382-7.658-20.998-17.916h50.774c0-22.479-12.234-35.33-30.392-35.33
	s-31.504,14.332-31.504,32c0,19.638,13.715,31.25,32.369,31.25L363.41,680.586z M342.66,644.017
	c0.864-8.891,8.522-16.798,19.766-16.798c11.363,0,18.901,7.41,19.27,16.798H342.66z M477.293,679.227v-90.178h-11.49v67.692
	l-52.623-67.692h-9.394v90.178h11.738v-68.187l53.119,68.187H477.293L477.293,679.227z M520.502,680.586
	c14.084,0,20.878-4.818,26.559-10.747l-7.169-7.41c-3.578,4.194-9.018,8.274-19.39,8.274c-12.971,0-20.389-7.658-21.005-17.916
	h50.774c0-22.479-12.228-35.33-30.392-35.33c-18.158,0-31.498,14.332-31.498,32c0,19.638,13.709,31.25,32.369,31.25L520.502,680.586
	z M499.746,644.017c0.864-8.891,8.522-16.798,19.766-16.798c11.363,0,18.901,7.41,19.27,16.798H499.746z M587.31,668.479
	c-0.985,0.617-4.322,1.608-6.914,1.608c-5.193,0-8.154-2.6-8.154-8.53v-32.737h14.452v-9.876h-14.452v-20.141l-11.49,1.481v18.66
	h-8.891v9.876h8.891v34.097c0,12.603,8.522,17.052,17.668,17.052c4.201,0,8.274-0.864,9.882-1.977L587.31,668.479z M648.818,679.594
	h6.674l21.494-60.65H665.99l-14.204,42.988l-14.332-36.818h-6.794l-15.196,37.066l-14.204-43.236h-12.107l21.494,60.65h6.674
	l16.302-38.291L648.818,679.594z M709.199,680.586c17.916,0,32.489-13.836,32.489-32.985c0-9.018-3.21-16.308-9.635-21.862
	c-6.426-5.561-14.084-8.402-22.854-8.402c-8.402,0-15.813,3.089-22.11,9.387c-6.305,6.298-9.514,13.836-9.514,22.606
	c0,9.762,3.21,17.421,9.635,22.975c6.426,5.561,13.715,8.402,21.742,8.402L709.199,680.586z M709.447,670.576
	c-11.243,0-20.134-7.779-20.134-21.246c0-12.724,8.154-21.742,19.27-21.742c12.971,0,20.998,9.139,20.998,20.878
	C729.582,661.437,721.306,670.576,709.447,670.576z M794.914,621.163c-2.593-2.097-6.922-3.706-12.355-3.706
	c-11.115,0-19.022,7.41-20.63,14.084v-12.596h-10.747v60.282h11.491v-35.082c0-9.882,8.026-16.677,15.933-16.677
	c4.201,0,8.154,1.112,11.243,3.705L794.914,621.163z M860,679.106l-28.288-35.458l22.847-24.703h-12.965l-29.28,32.489v-71.035
	h-11.242v98.827h11.49v-15.444l11.611-12.228l22.358,27.672L860,679.106z"/>
</svg>
