<?xml version="1.0" encoding="utf-8"?>
<!-- Generator: Adobe Illustrator 21.1.0, SVG Export Plug-In . SVG Version: 6.00 Build 0)  -->
<svg version="1.1" id="Layer_1" xmlns="http://www.w3.org/2000/svg" xmlns:xlink="http://www.w3.org/1999/xlink" x="0px" y="0px"
	 width="1000px" height="1000px" viewBox="0 0 1000 1000" style="enable-background:new 0 0 1000 1000;" xml:space="preserve">
<style type="text/css">
	.st0{fill:#FFFFFF;}
</style>
<g>
	<path class="st0" d="M785.608,440.275c2.657,0.011,5.005,1.795,4.971,8.287c-0.053,10.327-14.053,35.922-24.97,35.865
		c-2.657-0.015-5.009-1.502-5.886-2.981C768.409,456.413,782.955,440.26,785.608,440.275 M407.053,438.585
		c2.951,0.015,3.82,3.267,3.797,7.399c-0.068,12.98-15.833,37.092-25.275,37.043c-3.244-0.015-6.183-2.394-6.763-4.46
		C388.368,456.781,402.334,438.563,407.053,438.585 M521.713,461.023c-4.117-2.089-10.903-2.123-18.29-0.392l0.011-1.772
		c0.045-9.145,4.226-18.272,11.012-18.234c7.376,0.038,11.772,5.668,11.685,21.896c-0.038,7.67-1.558,15.923-3.666,24.176
		c-8.852-0.342-15.02-5.686-17.624-15.14c4.441-3.225,10.063-5.848,16.266-7.294L521.713,461.023z M460.814,371.299
		c-0.677,16.522-6.386,35.963-6.386,35.963l6.759,5.051c8.874-4.083,27.83-17.556,27.876-26.114
		C489.118,375.285,474.091,371.367,460.814,371.299 M520.061,494.946c-6.296,19.144-16.71,35.613-25.855,35.564
		c-7.376-0.038-10.59-6.251-10.541-15.396c0.053-10.327,3.368-23.589,11.392-34.168
		C500.913,488.944,510.032,494.596,520.061,494.946 M710.821,354.018c5.31,0.03,9.412,5.066,9.367,14.214
		c-0.086,16.228-12.6,39.471-39.753,41.1C692.136,371.92,702.854,353.976,710.821,354.018 M156.022,595.128
		c-5.901-0.03-14.452-1.253-14.407-9.518c0.06-11.505,27.281-26.114,55.04-30.397C184.699,584.361,172.841,595.219,156.022,595.128
		 M821.65,600.977c-8.558-0.045-12.367-5.378-12.321-13.345c0.06-11.505,15.773-25.881,48.036-45.778
		C845.04,585.754,836.106,601.052,821.65,600.977 M287.712,520.872c-4.129-0.019-5.295-2.683-5.589-3.274l-1.769,0.286
		c-0.892,1.174-1.791,3.53-1.81,7.071c-0.034,6.785,4.949,13.304,14.387,13.352c30.98,0.162,52.259-61.983,52.368-83.228
		c0.053-9.736-2.22-26.86-19.333-26.95c-9.442-0.049-20.992,8.445-48.729,64.953l-2.653-0.606
		c3.605-12.668,9.002-28.572,13.507-43.595c5.408-18.561-3.715-23.33-16.992-23.401c-16.567,64.238-31.293,115.499-41.909,170.916
		l24.417,13.703c2.774-22.411,6.134-44.228,10.974-67.218c34.616-74.173,49.496-97.996,55.397-97.966
		c1.178,0.008,1.468,0.896,1.46,2.665C321.341,466.167,301.286,520.944,287.712,520.872 M72.147,384.9
		c-23.604-0.12-34.898,14.865-34.981,31.093c-0.124,23.902,13.65,41.383,34.258,50.046c7.102-3.504,17.146-6.104,24.82-6.067
		c1.17,1.776,3.218,5.329,3.191,10.048c-0.042,7.967-5.374,11.776-13.635,11.734c-6.492-0.038-12.679-1.543-16.217-2.446
		c-8.294,6.447-13.657,16.45-13.721,28.549c-0.091,17.406,9.916,22.475,18.471,22.52c29.802,0.154,45.089-45.793,59.725-136.006
		C110.187,389.232,88.077,384.987,72.147,384.9 M178.745,425.59c-6.639,28.29-24.251,66.85-24.387,92.52
		c-0.068,13.277,5.193,22.452,14.342,22.501c15.046,0.075,24.308-21.414,48.432-64.366l2.356,1.193
		c-6.94,28.877-13.255,51.269-19.242,68.351c-42.801,3.319-72.408,22.637-72.495,39.158c-0.09,16.819,16.39,25.166,34.093,25.26
		c48.39,0.252,57.825-55.168,88.813-168.605c3.308-12.374-7.595-14.794-16.446-14.839l-54.784,93.837l-2.059-0.896
		c12.314-41.541,21.922-73.059,21.967-81.911C199.384,428.353,189.659,425.94,178.745,425.59 M404.295,514.403
		c-6.221,5.276-13.04,11.437-18.979,18.49c-1.182,0.29-2.657,0.576-4.132,0.568c-7.967-0.041-12.077-4.49-12.013-16.292
		c0.053-10.327,2.766-21.523,6.955-32.422c2.616,7.392,9.081,12.442,18.524,12.491c15.934,0.083,32.268-20.484,32.388-43.204
		c0.075-14.162-7.538-25.414-29.374-25.527c-28.03-0.147-54.253,49.286-54.43,83.217c-0.117,21.832,13.714,29.577,33.479,29.682
		c0.591,0,1.479-0.29,2.07-0.286c-8.325,12.054-14.297,25.595-14.372,39.757c-0.109,20.654,14.613,26.634,24.94,26.686
		c18.588,0.098,46.091-11.561,70.572-122.669l7.854-35.071c3.632-16.8-5.201-20.387-19.954-20.466l-11.471,48.921
		c-22.031,94.01-38.68,117.821-50.483,117.761c-3.541-0.019-6.473-2.984-6.421-13.018c0.068-13.277,6.071-32.719,16.759-45.056
		c10.933-3.188,20.996-9.036,21.03-15.825C417.271,515.946,409.609,514.43,404.295,514.403 M229.582,408.741
		c-21.538-0.113-46.892-4.377-71.648-9.521c-17.44,118.228-43.23,141.696-81.294,141.497c-20.947-0.109-37.408-11.998-37.303-32.358
		c0.091-17.112,8.995-27.097,17.88-33.837l0.004-0.591c-14.73-4.501-37.374-19.077-37.22-48.288
		c0.143-27.145,20.94-54.182,66.082-53.945c34.522,0.181,83.153,10.466,119.737,10.658c31.278,0.166,58.472-9.134,70.967-28.546
		c1.174,1.189,6.161,6.819,6.104,17.146C282.766,394.858,259.087,408.896,229.582,408.741 M553.654,503.677
		c-0.139,26.848,16.329,37.262,31.966,37.345c20.063,0.105,38.771-22.517,52.488-50.475l1.475,0.598
		c-2.427,12.675-5.156,26.231-7.595,40.972l20.894,10.733c10.278-46.862,36.814-99.539,49.207-99.475
		c2.066,0.011,3.827,1.2,3.801,6.808c-0.06,11.505-13.146,30.616-25.847,33.795c-1.091,38.944,2.653,56.372,17.997,56.451
		c9.443,0.049,19.83-11.7,29.355-27.288c0.779,20.364,15.185,29.881,29.938,29.961c16.228,0.083,33.995-11.625,50.618-30.717
		c-0.305,1.769-0.316,3.835-0.324,5.604c-0.072,13.277,5.193,22.452,14.339,22.501c15.046,0.079,25.787-21.997,49.91-64.949
		l2.356,1.193c-5.13,21.218-9.352,38.899-13.563,53.926c-54.445,29.81-67.783,40.954-67.87,57.475
		c-0.098,18.587,19.634,26.363,34.089,26.438c29.212,0.154,39.986-29.001,54.43-82.626l18.648-11.113
		c2.571,15.946,15.814,22.505,29.091,22.577c23.013,0.12,39.919-16.612,40.035-38.741c0.128-23.898-29.054-29.953-28.941-51.491
		c0.056-10.918,8.042-14.414,13.059-14.388c5.31,0.027,7.361,2.691,7.346,5.642c-0.019,3.839-2.691,6.48-2.717,12.084
		c-0.053,9.443,6.71,13.902,14.662,16.894c2.401-7.361,7.451-14.418,7.497-22.678c0.057-10.918-9.043-20.112-27.631-20.21
		c-17.112-0.09-33.694,10.741-33.799,30.804c-0.124,24.195,26.701,28.466,26.581,51.777c-0.068,12.686-8.072,20.315-16.04,20.274
		c-8.261-0.042-13.251-5.378-13.21-13.345c0.023-3.835,1.216-6.191,1.81-7.072c6.801-3.21,9.48-7.327,9.51-12.935
		c0.019-3.835-2.029-7.681-3.786-9.755c-12.686-0.068-22.773,9.913-24.014,22.001l-15.091,7.888
		c5.717-20.917,11.746-45.375,19.856-73.07c3.605-12.374-7.591-14.794-16.442-14.839l-54.765,90.002l-2.058-0.896
		c12.314-41.243,23.081-69.22,23.126-78.072c0.049-9.439-9.672-11.851-20.59-12.205c-4.825,20.04-15.562,41.819-21.568,62.145
		c-19.02,25.866-38.552,37.273-50.061,37.213c-5.31-0.03-8.234-5.062-8.189-13.616c0.053-10.624,1.581-20.353,4.283-29.486
		c2.333,5.619,7.914,10.075,16.175,10.12c15.637,0.079,32.557-18.715,32.678-42.32c0.072-13.277-7.835-24.53-29.671-24.647
		c-20.947-0.109-40.295,31.658-47.231,60.538c-8.938,16.476-17.266,28.824-21.395,28.802c-6.198-0.03-7.553-22.757-8.057-39.283
		c7.098-2.917,28.109-14.606,28.203-32.9c0.071-13.277-9.642-18.347-18.494-18.392c-19.178-0.102-34.051,23.427-44.819,51.107
		l-2.066-0.309c4.847-23.871,9.676-44.502,14.485-61.295c38.955-1.863,58.258-25.365,58.355-43.953
		c0.109-20.36-15.189-29.291-32.008-29.381c-15.344-0.079-29.58,14.011-44.585,62.616c-37.145-6.097-68.889-29.867-79.957-57.659
		c-7.975,2.021-13.914,9.073-13.966,18.81c-0.169,32.456,47.856,46.279,90.917,49.162c-1.799,5.89-3.605,12.374-5.118,19.445
		c-20.371,58.909-49.158,90.623-61.551,90.559c-10.327-0.056-11.46-9.209-11.411-18.061c0.166-31.865,20.127-68.641,37.239-68.554
		c1.182,0.008,2.062,0.896,2.055,2.077c-0.026,5.017-16.33,19.389-19.938,32.354c-2.706,9.427,3.169,15.061,13.473,18.953
		c12.224-23.54,20.571-40.314,20.612-47.69c0.038-7.376-9.043-19.818-24.978-19.901c-8.261-0.045-28.101,13.131-41.194,34.601
		c-6.529,7.049-12.167,12.92-17.793,16.725c0.613-4.422,0.933-8.848,0.956-13.274c0.124-23.307-13.082-37.54-31.376-37.634
		c-18.29-0.098-28.406,15.487-28.5,33.78c-0.011,1.773-0.019,3.248,0.267,5.017c-13.319,7.899-25.196,22.588-25.317,45.308
		c-0.132,25.08,18.426,31.078,33.476,31.157c26.257,0.139,42.621-25.742,48.669-53.444c3.846-1.754,7.399-4.388,10.662-7.324
		C554.91,488.932,553.691,496.301,553.654,503.677"/>
</g>
</svg>
