<?xml version="1.0" encoding="utf-8"?>
<!-- Generator: Adobe Illustrator 18.1.1, SVG Export Plug-In . SVG Version: 6.00 Build 0)  -->
<!DOCTYPE svg PUBLIC "-//W3C//DTD SVG 1.1//EN" "http://www.w3.org/Graphics/SVG/1.1/DTD/svg11.dtd">
<svg version="1.1" id="Layer_1" xmlns="http://www.w3.org/2000/svg" xmlns:xlink="http://www.w3.org/1999/xlink" x="0px" y="0px"
	 width="1000px" height="1000px" viewBox="0 0 1000 1000" enable-background="new 0 0 1000 1000" xml:space="preserve">
<path fill="#FFFFFF" d="M65.8,437.9l29.4-9L132,256.4l-24.3,6l-50.9,69.5l-9.6-3l22.2-85.7h190.8l-8.1,86.3l-9.3,2.1l-25.2-69.2
	l-21-6l-36.8,172.5l25.8,9l-2.4,11.4H63.4L65.8,437.9z M219.2,473.5c0-14.4,11.1-22.5,22.8-22.5c11.4,0,20.4,7.8,20.4,18.6
	c0,10.2-4.5,16.5-14.1,19.2v0.6c1.5,0.3,4.2,0.3,6,0.3c6.3,0,12.6-1.8,19.8-4.5c3-13.2,6.3-37.7,6.3-69.5c0-46.1-3.3-70.7-6-81.5
	L244.7,363l-7.2-6.6c35.9-50,48.8-59.6,65.6-59.6c16.8,0,28.5,12.3,28.5,62.3c0,32.6-2.4,60.2-7.2,86.6
	C349.8,414.5,369,372,369,336.3l-0.6-0.3c-14.1,3.3-23.1-8.1-23.1-19.5c0-11.1,9-19.8,22.5-19.8c12.9,0,27.3,9.6,27.3,35
	c0,55.4-56,146.5-113.5,169.2c-8.7,3.3-18.9,5.7-27.9,5.7C238.4,506.8,219.2,497.8,219.2,473.5z M372.9,483.7h21.9l37.7-141.1
	c-14.4,10.5-25.2,20.4-25.2,20.4l-7.2-6.6c14.1-17.7,25.8-32.1,39.8-41.9l12-44.6h48.8l-7.5,27.3c2.7-0.3,5.7-0.3,8.7-0.3
	c38.9,0,62,23.4,62,55.1c0,54.8-47.6,99.7-111.7,98.2l-9,33.5h26.1l-4.2,19.5h-96.5L372.9,483.7z M508.5,343.5
	c0-17.4-7.5-23.7-21.3-24.6L457,432.2c22.8-3.6,35-14.1,46.1-55.7C506.7,362.4,508.5,351.9,508.5,343.5z M568.7,404.9
	c0-52.7,39.5-108.1,93.8-108.1c30.9,0,46.7,12.6,46.7,29.7c0,23.7-24.3,39.2-79.4,52.4c-3.3,14.1-4.8,24.3-4.8,31.2
	c0,11.7,4.2,14.7,11.7,14.7c10.5,0,22.8-9.9,41.9-31.5l8.7,5.4c-18.3,34.1-42.5,53-73.4,53C587,451.7,568.7,433.1,568.7,404.9z
	 M633.1,366.6c24.3-11.4,32.9-22.2,32.9-45.2c0-3.9-1.8-6.9-5.7-6.9c-7.8,0-16.2,9-27,50.6C633.1,365.7,633.1,366,633.1,366.6z
	 M709.2,403.7c0-73.1,67.4-153.4,162-153.4c63.2,0,108.7,37.1,108.7,93.8c0,69.5-46.4,110.2-93.5,110.2c-27.3,0-36.2-9.3-39.8-27.6
	l-0.3-1.5l20.1-34.1l-0.6-0.6c-21.6,31.5-46.7,61.1-68.9,61.1c-14.4,0-27.3-12-27.3-32.6c0-53,38.6-113.2,78.5-113.2
	c14.1,0,22.2,5.4,26.7,10.8l2.4-9h47.9L891,414.5c-1.2,3.6-1.8,7.2-1.8,10.2c0,6.3,2.7,10.5,9.9,10.5c27.9,0,46.7-37.7,46.7-90.5
	c0-54.8-27.3-77-75.5-77c-72.8,0-122.8,60.2-122.8,131.5c0,63.8,28.2,86,82.7,86c27.3,0,55.4-6,75.8-12.3l4.8,10.8
	c-22.8,12.3-51.5,20.7-87.5,20.7C750.9,504.4,709.2,460.3,709.2,403.7z M854.5,392.1l17.1-62.9c-3-1.8-6.6-3.3-9.9-3.3
	c-12.6,0-25.5,14.4-36.5,69.2c-0.6,3.6-0.9,6.3-0.9,8.7c0,6.9,2.4,9.3,6.3,9.3C837.4,413,845.8,404.6,854.5,392.1z M20,590
	c0-69.5,54.2-115.6,113.2-115.6c21.3,0,34.7,5.7,45.5,15.9l10.2-13.5h11.4l3.3,81.5l-9.9,2.1c-29.4-56-37.7-65-52.1-65
	c-22.5,0-36.2,18.3-48.8,77.6c-4.5,21.3-6.6,37.7-6.6,50.6c0,32,13.2,41,34.4,41c23.7,0,44.3-11.7,62.9-33.8l12.6,8.7
	c-21.3,31.8-47.6,45.8-83,45.8C51.5,685.3,20,641.9,20,590z M205.4,626.6c0-54.8,46.1-96.1,92-96.1c35,0,59,27.6,59,57.5
	c0,54.8-46.4,97.3-92.3,97.3C229.1,685.3,205.4,656.5,205.4,626.6z M296.2,605.6c6.6-23.7,9.6-37.7,9.6-46.1c0-8.4-3-10.5-9.3-10.5
	c-12.6,0-16.8,8.4-30.9,61.1c-6.3,24.3-9.6,38.6-9.6,46.7c0,7.8,3,9.9,9,9.9C277.6,666.7,281.8,658.9,296.2,605.6z M361.5,626.6
	c0-54.8,46.1-96.1,92-96.1c35,0,59,27.6,59,57.5c0,54.8-46.4,97.3-92.3,97.3C385.1,685.3,361.5,656.5,361.5,626.6z M452.2,605.6
	c6.6-23.7,9.6-37.7,9.6-46.1c0-8.4-3-10.5-9.3-10.5c-12.6,0-16.8,8.4-30.9,61.1c-6.3,24.3-9.6,38.6-9.6,46.7c0,7.8,3,9.9,9,9.9
	C433.7,666.7,437.8,658.9,452.2,605.6z M488.8,717.3h21.9l37.7-141.1c-14.4,10.5-25.2,20.4-25.2,20.4L516,590
	c14.1-17.7,25.8-32.1,39.8-41.9l12-44.6h48.8l-7.5,27.3c2.7-0.3,5.7-0.3,8.7-0.3c38.9,0,62,23.4,62,55.1
	c0,54.8-47.6,99.7-111.7,98.2l-9,33.5h26.1l-4.2,19.5h-96.4L488.8,717.3z M624.5,577.2c0-17.4-7.5-23.7-21.3-24.6l-30.3,113.2
	c22.8-3.6,35-14.1,46.1-55.7C622.7,596,624.5,585.6,624.5,577.2z M684.7,638.6c0-52.7,39.5-108.1,93.8-108.1
	c30.9,0,46.7,12.6,46.7,29.7c0,23.7-24.3,39.2-79.4,52.4c-3.3,14.1-4.8,24.3-4.8,31.2c0,11.7,4.2,14.7,11.7,14.7
	c10.5,0,22.8-9.9,41.9-31.5l8.7,5.4c-18.3,34.1-42.5,53-73.4,53C702.9,685.3,684.7,666.7,684.7,638.6z M749.1,600.2
	C773.4,588.8,782,578,782,555c0-3.9-1.8-6.9-5.7-6.9c-7.8,0-16.2,9-27,50.6C749.1,599.3,749.1,599.6,749.1,600.2z M852.4,571.5
	l-24.9,25.2l-7.2-6.6c38.6-51.2,50.9-59.6,63.5-59.6c10.5,0,17.4,4.5,16.2,22.2l-0.6,8.1l-23.7,64.1l1.2,0.6c27-59.3,42.5-95,71-95
	c16.5,0,26.4,11.7,26.4,26.7c0,15.3-11.7,27-24,27c-16.2,0-20.1-10.2-20.7-17.1H929c-11.4,7.2-26.4,28.2-37.7,49.4l-18,66.5h-51.2
	L852.4,571.5z"/>
</svg>
