<?xml version="1.0" encoding="utf-8"?>
<!-- Generator: Adobe Illustrator 19.2.0, SVG Export Plug-In . SVG Version: 6.00 Build 0)  -->
<!DOCTYPE svg PUBLIC "-//W3C//DTD SVG 1.1//EN" "http://www.w3.org/Graphics/SVG/1.1/DTD/svg11.dtd">
<svg version="1.1" id="Calque_1" xmlns="http://www.w3.org/2000/svg" xmlns:xlink="http://www.w3.org/1999/xlink" x="0px" y="0px"
	 width="1000px" height="1000px" viewBox="0 0 1000 1000" style="enable-background:new 0 0 1000 1000;" xml:space="preserve">
<style type="text/css">
	.st0{fill:#FFFFFF;}
</style>
<path class="st0" d="M466.6,651L310.7,256.3c-21.1-53.1-42.9-70.8-68.1-80.3v-7.5h258.6v7.5c-44.8,10.8-57,25.1-19.6,123.1
	l77.6,202.1l64.7-164.7c38.1-96.6,13.6-149-47.6-160.6v-7.5h181v7.5c-46.3,10.9-70.8,52.4-106.2,142.2L520.4,651H466.6z
	 M181.6,706.3h30.7l24.6,77.3l23.9-77.3h30.3l-39,123.7h-30.5L181.6,706.3z M329.7,706.3V830h-29.8V706.3H329.7z M341.9,706.3h29.7
	v95.4h40.3V830h-70V706.3z M423.2,706.3h29.7v95.4h40.3V830h-70V706.3z M543.2,706.3h28.5L614.1,830h-30l-5.9-18.1h-41.6l-5.9,18.1
	h-29.8L543.2,706.3z M545.6,785h23.7l-11.9-36.1L545.6,785z M609.8,768.2c0-35.9,26.4-63.6,63.7-63.6c25.9,0,45.6,12.9,56.3,30.8
	l-26.1,14.4c-5.8-11-16.3-17.3-30-17.3c-19.2,0-34.4,15.2-34.4,35.6c0,21,14.4,35.4,34.9,35.4c14.2,0,24.2-7.1,28.5-19.3h-34.4
	v-27.5h66.4v14.1c0,32.7-24.2,60.8-60,60.8C634.4,831.7,609.8,802.4,609.8,768.2z M745,706.3h73.4v27.5h-43.9v20.3h43.9v27.5h-43.9
	v21h43.9v27.5H745V706.3z"/>
</svg>
