<?xml version="1.0" encoding="utf-8"?>
<!-- Generator: Adobe Illustrator 19.2.1, SVG Export Plug-In . SVG Version: 6.00 Build 0)  -->
<svg version="1.1" id="Layer_1" xmlns="http://www.w3.org/2000/svg" xmlns:xlink="http://www.w3.org/1999/xlink" x="0px" y="0px"
	 width="1000px" height="1000px" viewBox="0 0 1000 1000" style="enable-background:new 0 0 1000 1000;" xml:space="preserve">
<style type="text/css">
	.st0{fill:#FFFFFF;}
</style>
<g>
	<g>
		<path class="st0" d="M574.5,445.652C574.5,445.652,574,445.652,574.5,445.652c-4.4,0-8.5-2.6-9.8-6.4l-74-153.7
			c-2.6-5.4-0.5-12.4,5.4-14.7c5.4-2.6,12.4-0.5,14.7,5.4l64.2,133.3l82.5-160.4c2.8-5.4,9.3-8,15.2-4.9c5.4,2.8,8,9.3,4.9,15.2
			l-93.3,179.7C582.5,443.352,578.4,445.652,574.5,445.652z"/>
		<path class="st0" d="M420.8,445.652C420.3,445.652,420.3,445.652,420.8,445.652c-4.4,0-8.5-2.6-9.8-6.4l-87.4-180.2
			c-2.6-5.4-0.5-12.4,5.4-14.7c5.4-2.6,12.4-0.5,14.7,5.4l77.6,160.4l37.1-71.7c2.8-5.4,9.3-8,15.2-4.9c5.4,2.8,8,9.3,4.9,15.2
			l-46.9,91.5C428.8,443.352,424.9,445.652,420.8,445.652z"/>
		<path class="st0" d="M584.3,235.252H415.9c-6.4,0-11.3-4.9-11.3-11.3c0-6.4,4.9-11.3,11.3-11.3h168.4c6.4,0,11.3,4.9,11.3,11.3
			C595.6,230.352,590.7,235.252,584.3,235.252z"/>
	</g>
	<g>
		<path class="st0" d="M735.9,461.652c-2.1,0-3.4-0.5-5.4-1.5c-5.4-2.8-7.5-9.8-4.4-15.2c42-76.6,42-171.5,0-247.8
			c-2.8-5.4-1-12.4,4.4-15.2s12.4-1,15.2,4.4c45.9,83,45.9,186.2,0,269.7C743.4,459.052,739.8,461.652,735.9,461.652z"/>
		<path class="st0" d="M370.5,96.552c-3.9,0-8-2.1-9.8-5.9c-2.8-5.4-1-12.4,4.4-15.2c83.5-45.9,183.3-46.4,267.1-1.5
			c5.4,2.8,7.5,9.8,4.4,15.2c-2.8,5.4-9.8,7.5-15.2,4.4c-77.1-41.5-168.9-41-245.5,1.5C374.4,96.052,372.6,96.552,370.5,96.552z"/>
		<path class="st0" d="M264.3,461.652c-3.9,0-8-2.1-9.8-5.9c-45.9-83-45.9-186.7,0-269.7c2.8-5.4,9.8-7.5,15.2-4.4
			c5.4,2.8,7.5,9.8,4.4,15.2c-42,76.6-42,171.5,0,247.8c2.8,5.4,1,12.4-4.4,15.2C268.2,461.152,266.4,461.652,264.3,461.652z"/>
		<path class="st0" d="M500,600.852c-46.4,0-93.3-11.3-134.8-34c-5.4-2.8-7.5-9.8-4.4-15.2c2.8-5.4,9.8-7.5,15.2-4.4
			c77.6,42.5,172.7,42,249.8-1c5.4-2.8,12.4-1,15.2,4.4c2.8,5.4,1,12.4-4.4,15.2C594.6,589.052,547.4,600.852,500,600.852z"/>
	</g>
</g>
<g>
	<path class="st0" d="M92.9,706.252l3,67.8l29.5-52c1.6-2.7,2.1-4.7,2.1-6.1c0-3-3-4.3-9.5-4.7l1.3-5.3h29.8l-1.3,4.7
		c-5.7,0.7-10.3,3.8-13.7,9.6l-43.6,75.9h-4.3l-5-72.2l-43,72.2h-4.3l-4.7-77.8c-0.3-3.4-1.6-5-3.7-5.8c-1.3-0.6-3.7-1.3-5.5-1.6
		l1.3-5.3h34.5l-1.3,5.3c-10.4,0.6-12.7,1.6-12.7,7.7v2.1l1.6,52.8l39.9-67.8h9.5v0.5H92.9z"/>
	<path class="st0" d="M152.2,796.552c-13.2,0-19.4-9-19.4-22.1c0-20.2,14.4-42.7,35.9-42.7c12.7,0,19.9,8.3,19.9,21.8
		C188.5,772.152,173.7,796.552,152.2,796.552z M176.1,751.952c0-7.7-2.1-14.1-9.8-14.1c-13.8,0-21.2,20.5-21.2,36.9
		c0,8.3,1.8,15.4,9.1,15.4C167.2,790.152,176.1,768.052,176.1,751.952z"/>
	<path class="st0" d="M210,739.452c-2.1,0-5.8,1.6-9.1,3.7v-4.7c8-5.3,13.5-7.1,17.2-7.1c3.7,0,5.3,2.1,5.3,5c0,1.3-0.3,2.7-0.6,4.3
		l-4,14.4h0.3c12.3-19.7,17.2-23.6,23.9-23.6c3.7,0,6.1,1.3,6.1,5.3c0,3.4-2.1,6.7-7.4,6.7c-10.4,0.6-14.1,5.3-25.2,22.5l-7.4,28.5
		h-10.5l12.7-51C212.1,740.552,211.4,739.452,210,739.452z"/>
	<path class="st0" d="M246.5,794.352l21.2-84.5c0.6-3,0-4.3-1.8-4.3c-2.1,0-5.8,1.8-9,3.7v-4.7c6.7-5,12.7-7.1,16.8-7.1
		c5.3,0,6.4,3.4,5.3,8.3l-12.8,51.6h0.3c11.1-19.1,19.1-26.1,27.1-26.1c5.5,0,10.4,2.7,10.4,10.4c0,8.3-5.8,15.4-18.8,24.5
		l15.1,25.8l-1.3,3.7h-9l-14.8-26.6v-1.3c11.7-9.8,16.8-18.1,16.8-23.1c0-2.4-1.3-3.7-3.7-3.7c-5,0-14.1,10.4-25.2,29.8l-6.1,23.1
		h-10.7v0.5H246.5z"/>
	<path class="st0" d="M308,788.552c0-3.4,2.1-5.5,5.5-5.5c5,0,7.4,5.8,15.7,5.8c3,0,6.1-1.3,6.1-5.8c0-4-2.1-7.1-4.3-10.1l-9-12.7
		c-2.4-3.7-3.4-7.4-3.4-10.1c0-9.1,11.1-18.8,23.6-18.8c7.7,0,13.5,3,13.5,8c0,3-2.1,5.3-5.8,5.3c-4.7,0-7.7-5.8-15.1-5.8
		c-5,0-7.1,3-7.1,7.1c0,1.6,0.3,3.7,2.4,6.7l9.1,12.8c1.3,1.8,5.5,6.7,5.5,12.3c0,7.4-8,18.1-23.1,18.1
		C314.4,795.952,308,793.852,308,788.552z"/>
	<path class="st0" d="M445.3,712.652l-17.2,69.5c-1,3.7-0.6,5.8,1.8,6.4c1.6,0.6,3.7,0.3,7.4,0.6l-1.6,5.3h-33.8l1.6-5.3
		c2.4,0,5.8-0.3,7.7-0.6c2.4-0.6,4.3-2.7,5.3-6.4l17.2-69.4h-7.1c-11.1,0-16.4,2.7-22.5,15.1h-4.7l5.3-21.2h72.5l-5.3,21.2h-4.7
		c-0.3-12.3-3.7-15.1-15.1-15.1h-6.8V712.652z"/>
	<path class="st0" d="M518.1,780.552c-0.6,3.4-1,5.3,0.6,5.3c1.6,0,4.3-1.8,9.5-6.4l1.6,4c-8.3,9.8-14.8,13.5-18.4,13.2
		c-3.4,0-5.3-2.7-5.3-6.4c0-1.3,0.3-2.7,0.6-4.3l7.7-30.5c1-3.7,1.6-6.7,1.6-8.7c0-2.4-1.3-3.7-3.7-3.7c-5,0-14.4,9.8-25.5,29.2
		l-5.8,22.5h-10.4l20.8-84.5c0.6-3,0.3-4.3-1.6-4.3c-2.1,0-5.8,1.6-9.1,3.7v-4.5c8-5.3,13.5-7.1,17.2-7.1s5.3,2.1,5.3,5
		c0,1.3-0.3,2.7-0.6,4.3l-12.8,51.6h0.3c11.4-19.9,19.7-27.3,27.6-27.3c5.5,0,9.1,3,9.1,10.7c0,2.7-0.3,5.8-1.6,9.8L518.1,780.552z"
		/>
	<path class="st0" d="M587.2,785.452c1.8,0,6.1-3.4,9.8-6.4l2.1,3.7c-8.3,9.8-15.7,13.5-19.4,13.5c-3.4,0-5.3-2.7-5.3-6.4
		c0-1.3,0-2.7,0.6-4.3l5-15.7h-0.2c-9.1,15.1-18.8,26.1-27.9,26.1c-6.7,0-12.7-5.3-12.7-17.2c0-20.2,16.8-47.3,40.9-47.3
		c3.7,0,6.7,1,9.5,2.1l8-2.1h1.8l-12.7,50.7C585.9,784.552,586.2,785.452,587.2,785.452z M581.9,757.752l3.7-15.7
		c-3-2.1-6.7-4-10.4-4c-16.8,0-23.9,25.8-23.9,38.7c0,6.1,1.6,9.1,4.7,9.1C562.5,786.452,573.6,771.052,581.9,757.752z"/>
	<path class="st0" d="M614.4,733.252h12.3l3-12.3l10.1-6.7h1.8l-4.7,18.8h17.5l-1.6,6.4h-17.5l-8.7,34.5c-0.6,3-1.3,5.8-1.3,7.7
		c0,3.4,1.3,5,4,5c3,0,7.4-1.8,14.1-5.3l2.1,3.7c-7.7,6.7-14.8,10.7-21.5,10.7s-10.4-3.4-10.4-10.1c0-2.1,0.3-4.3,1-6.7l9.8-39.3
		h-12.3L614.4,733.252z"/>
	<path class="st0" d="M768.9,706.252l3,67.8l29.5-52c1.6-2.7,2.1-4.7,2.1-6.1c0-3-3-4.3-9.5-4.7l1.3-5.3h29.8l-1.3,4.7
		c-5.8,0.6-10.4,3.7-13.8,9.5l-43.9,75.9h-4.3l-5-72.2l-42.7,72.2h-4.3l-4.7-77.8c-0.3-3.4-1.6-5-3.7-5.8c-1.3-0.6-3.7-1.3-5.5-1.6
		l1.3-5.3h34.5l-1.3,5.3c-10.4,0.6-12.7,1.6-12.7,7.7v2.1l1.6,52.8l39.9-67.8h9.5v0.6H768.9z"/>
	<path class="st0" d="M828.2,796.552c-13.2,0-19.4-9-19.4-22.1c0-20.2,14.4-42.7,35.9-42.7c12.7,0,19.9,8.3,19.9,21.8
		C864.5,772.152,849.7,796.552,828.2,796.552z M852.1,751.952c0-7.7-2.1-14.1-9.8-14.1c-13.8,0-21.2,20.5-21.2,36.9
		c0,8.3,1.8,15.4,9.1,15.4C843.3,790.152,852.1,768.052,852.1,751.952z"/>
	<path class="st0" d="M886,739.452c-2.1,0-5.8,1.6-9.1,3.7v-4.7c8-5.3,13.5-7.1,17.2-7.1s5.3,2.1,5.3,5c0,1.3-0.3,2.7-0.6,4.3
		l-4,14.4h0.3c12.3-19.7,17.2-23.6,23.9-23.6c3.7,0,6.1,1.3,6.1,5.3c0,3.4-2.1,6.7-7.4,6.7c-10.4,0.6-14.1,5.3-25.2,22.5l-7.4,28.5
		h-10.4l12.7-51C888,740.552,887.6,739.452,886,739.452z"/>
	<path class="st0" d="M922.5,794.352l21.2-84.5c0.6-3,0-4.3-1.8-4.3c-2.1,0-5.8,1.8-9,3.7v-4.7c6.7-5,12.7-7.1,16.8-7.1
		c5.3,0,6.4,3.4,5.3,8.3l-12.8,51.6h0.3c11.1-19.1,19.1-26.1,27.1-26.1c5.5,0,10.4,2.7,10.4,10.4c0,8.3-5.8,15.4-18.8,24.5
		l15.1,25.8l-1.3,3.7h-9.1l-14.8-26.8v-1.3c11.7-9.8,16.8-18.1,16.8-23.1c0-2.4-1.3-3.7-3.7-3.7c-5,0-14.1,10.4-25.2,29.8l-6.1,23.1
		h-10.4v0.5l0,0V794.352z"/>
</g>
<g>
	<path class="st0" d="M257.5,924.952c1.3,0.3,2.7,0.6,5.5,0.6v4.7h-29.8v-4.7c1.8,0,4.3-0.3,5.5-0.6c2.4-0.6,3.4-2.7,3.4-6.4v-39
		c0-4-0.6-5.3-4.7-5.3c-1.6,0-4.7,0.3-5.5,0.3v-4.7c3.7-1.3,11.1-3,15.4-3c5,0,6.4,2.4,6.4,7.7v1.6c6.1-5.5,13.2-9.1,21.5-9.1
		c7.1,0,12.3,2.7,15.1,9.5c6.4-5.8,13.5-9.5,21.8-9.5c10.4,0,16.5,5.5,16.5,20.8v30.5c0,3.7,1,5.5,3.4,6.4c1.3,0.3,2.7,0.6,5.5,0.6
		v4.7h-29.8v-4.7c1.8,0,4.3-0.3,5.5-0.6c2.4-0.6,3.4-2.7,3.4-6.4v-27.1c0-9.5-2.4-14.1-12.7-14.1c-4.7,0-8.3,1-13.2,2.4
		c0.6,2.4,0.6,5.3,0.6,8.3v30.5c0,3.7,1,5.5,3.4,6.4c1.3,0.3,2.7,0.6,5.5,0.6v4.7h-29.8v-4.7c1.8,0,4.3-0.3,5.5-0.6
		c2.4-0.6,3.4-2.7,3.4-6.4v-27.1c0-9.5-2.4-14.1-12.7-14.1c-5,0-8.3,1-13.8,2.7v38.7C253.9,922.152,255.1,923.952,257.5,924.952z"/>
	<path class="st0" d="M401.1,926.052c0.6,0,1.3,0,2.1,0v3.7c-3,1.3-5.5,2.1-9.8,2.1c-9.5,0-12.7-4-12.7-9.8
		c-4,5.8-11.4,9.8-18.4,9.8c-8.7,0-15.7-5.5-15.7-15.1c0-8.7,5.5-14.4,18.4-17.8l15.7-3.7v-3c0-11.1-3-14.8-13.2-14.8
		c-5.5,0-13.5,1.3-19.4,2.4v-5.8c7.4-3.7,17.5-6.1,25.5-6.1c11.4,0,18.4,5.5,18.4,20.8v29.8
		C392.4,924.652,395.5,926.052,401.1,926.052z M380.7,918.952v-18.4l-8.7,2.1c-9.5,2.4-13.8,4.7-13.8,10.1s3,9.1,10.4,9.1
		C373,922.152,377.7,920.952,380.7,918.952z"/>
	<path class="st0" d="M427.1,905.552c-1.6,2.1-2.4,4-2.4,5.8c0,2.7,2.1,5,7.1,5h9.8c15.7,0,26.1,4.7,26.1,15.7
		c0,12.7-13.5,27.3-35.3,27.3c-16.4,0-24.5-8.7-24.5-17.8c0-8,6.1-12.3,13.8-15.7c-5.3-2.1-6.7-5.8-6.7-9.1c0-4.7,4-8.7,8.3-11.7
		c-7.1-2.7-11.7-8.3-11.7-16.4c0-12,10.4-20.8,24.5-20.8c7.1,0,14.1,2.4,18.8,6.7c5.8-2.7,5.8-9.8,11.4-9.8c3,0,5.5,1.8,5.5,5
		c0,5.5-9,7.4-14.4,7.7c1.8,2.7,3,5.8,3,9.8c0,12.7-12,19.9-23.9,19.9C433,906.852,429.9,906.452,427.1,905.552z M425.6,926.352
		c-5,3.7-6.4,8-6.4,12.3c0,8,5.5,13.5,17.2,13.5c11.1,0,19.9-5.3,19.9-14.8c0-6.4-4-10.4-15.4-10.4h-10.1
		C428.7,926.652,426.7,926.352,425.6,926.352z M435.1,873.252c-6.7,0-11.4,5.5-11.4,13.5c0,8.3,5.3,13.5,12.7,13.5
		c7.1,0,11.4-5,11.4-12.8C447.4,878.252,441.2,873.252,435.1,873.252z"/>
	<path class="st0" d="M532.7,926.052c0.6,0,1.3,0,2.1,0v3.7c-3,1.3-5.5,2.1-9.8,2.1c-9.5,0-12.7-4-12.7-9.8
		c-4,5.8-11.4,9.8-18.4,9.8c-8.7,0-15.7-5.5-15.7-15.1c0-8.7,5.5-14.4,18.4-17.8l15.7-3.7v-3c0-11.1-3-14.8-13.2-14.8
		c-5.5,0-13.5,1.3-19.4,2.4v-5.8c7.4-3.7,17.5-6.1,25.5-6.1c11.4,0,18.4,5.5,18.4,20.8v29.8
		C523.9,924.652,527.3,926.052,532.7,926.052z M512.2,918.952v-18.4l-8.7,2.1c-9.5,2.4-13.8,4.7-13.8,10.1s3,9.1,10.4,9.1
		C504.5,922.152,509.2,920.952,512.2,918.952z"/>
	<path class="st0" d="M544.1,868.952h44.3l2.1,3.7l-33.5,51.3h15.7c7.1,0,14.1-5.8,15.7-14.1l3.7,0.6l-2.7,19.9h-46l-1.8-3.4
		l33.5-51.6h-15.4c-9,0-11.1,5.5-13.8,12.7l-4.3-0.6L544.1,868.952z"/>
	<path class="st0" d="M622.4,918.552c0,3.7,1,5.5,3.4,6.4c1.3,0.3,2.7,0.6,5.5,0.6v4.7h-29.8v-4.7c1.8,0,4.3-0.3,5.5-0.6
		c2.4-0.6,3.4-2.7,3.4-6.4v-39c0-4-0.6-5.3-4.7-5.3c-1.6,0-4.7,0.3-5.5,0.3v-4.7c3.7-1.3,11.1-3,15.4-3c5,0,6.4,2.4,6.4,7.7v43.9
		L622.4,918.552L622.4,918.552z M616.3,833.352c4.3,0,8.3,2.7,8.3,8.3c0,5.5-4,8.3-8.3,8.3s-8.3-2.7-8.3-8.3
		S612,833.352,616.3,833.352z"/>
	<path class="st0" d="M663.9,924.952c1.3,0.3,2.7,0.6,5.5,0.6v4.7h-29.8v-4.7c1.8,0,4.3-0.3,5.5-0.6c2.4-0.6,3.4-2.7,3.4-6.4v-39
		c0-4-0.6-5.3-4.7-5.3c-1.6,0-4.7,0.3-5.5,0.3v-4.7c3.7-1.3,11.1-3,15.4-3c5,0,6.4,2.4,6.4,7.7v1.6c6.1-5.5,13.2-9.1,21.5-9.1
		c10.4,0,16.5,5.5,16.5,20.8v30.5c0,3.7,1,5.5,3.4,6.4c1.3,0.3,2.7,0.6,5.5,0.6v4.7h-29.9v-4.7c1.8,0,4.3-0.3,5.5-0.6
		c2.4-0.6,3.4-2.7,3.4-6.4v-27.1c0-9.5-2.4-14.1-12.7-14.1c-5,0-8.3,1-13.8,2.7v38.7C660.6,922.152,661.5,923.952,663.9,924.952z"/>
	<path class="st0" d="M743.5,932.252c-17.8,0-27.1-12-27.1-29.8c0-21.5,12.8-35,31-35c11.7,0,19.7,7.4,20.8,20.2c0,1.8,0.3,4,0,6.1
		l-2.7,5.5h-38.4c0.3,14.8,6.7,23.1,20.8,23.1c4.7,0,10.7-1,17.5-3l0.3,6.1C759.2,930.352,749.9,932.252,743.5,932.252z
		 M727.4,892.352h29.2c0-0.6,0-1.6,0-2.4c0-9.1-4.7-15.4-13.5-15.4C733.7,874.552,728.7,881.652,727.4,892.352z"/>
</g>
</svg>
