<?xml version="1.0" encoding="utf-8"?>
<!-- Generator: Adobe Illustrator 21.0.0, SVG Export Plug-In . SVG Version: 6.00 Build 0)  -->
<svg version="1.1" id="Layer_1" xmlns="http://www.w3.org/2000/svg" xmlns:xlink="http://www.w3.org/1999/xlink" x="0px" y="0px"
	 width="1000px" height="1000px" viewBox="0 0 1000 1000" style="enable-background:new 0 0 1000 1000;" xml:space="preserve">
<style type="text/css">
	.st0{fill:#FFFFFF;}
</style>
<path class="st0" d="M125.926,642.12H30.929c-6.305,0-10.929-4.622-10.929-10.508v-35.731c0-5.463,4.624-10.085,10.929-10.085h8.827
	l70.618-89.118l-70.197-92.473h-7.567c-6.305,0-10.929-4.624-10.929-10.087V358.39c0-5.886,4.624-10.51,10.929-10.51h126.102
	c6.305,0,10.508,4.624,10.508,10.51v33.206c0,5.884-4.203,10.508-10.508,10.508h-13.03l34.887,51.281l34.889-51.281h-12.191
	c-5.884,0-10.508-4.624-10.508-10.508V358.39c0-5.886,4.624-10.51,10.508-10.51h94.577c6.305,0,10.929,4.624,10.929,10.51v35.729
	c0,5.463-4.624,10.087-10.929,10.087h-9.248l-68.514,87.431l71.457,94.16h7.986c6.305,0,10.929,4.622,10.929,10.085v35.731
	c0,5.886-4.624,10.508-10.929,10.508H173.004c-6.305,0-10.51-4.622-10.51-10.508v-33.206c0-5.886,4.205-10.508,10.51-10.508h13.03
	l-36.149-53.803l-37.41,53.803h13.451c5.884,0,10.508,4.622,10.508,10.508v33.206C136.434,637.498,131.81,642.12,125.926,642.12z
	 M527.33,642.12H407.111c-6.305,0-10.929-4.203-10.929-10.508v-35.731c0-5.882,4.624-10.085,10.929-10.085h15.132v-55.905
	l-76.081-125.686h-8.406c-6.305,0-10.929-4.624-10.929-10.087V358.39c0-5.886,4.624-10.51,10.929-10.51h122.739
	c6.307,0,10.51,4.624,10.51,10.51v33.206c0,5.884-4.203,10.508-10.51,10.508h-13.03l36.149,66.834l36.151-66.834h-13.453
	c-5.886,0-10.508-4.624-10.508-10.508V358.39c0-5.886,4.622-10.51,10.508-10.51h89.113c6.305,0,10.927,4.624,10.927,10.51v35.729
	c0,5.463-4.622,10.087-10.927,10.087h-7.988l-75.242,123.161v58.429h15.134c6.305,0,10.931,4.203,10.931,10.085v35.731
	C538.26,637.917,533.634,642.12,527.33,642.12z M841.727,642.12H650.895c-18.495,0-28.162-8.406-28.162-28.162v-25.223
	c0-14.711,2.52-22.276,11.768-32.784L767.75,400.423h-79.445v34.467c0,12.191-7.146,19.337-18.495,19.337h-26.483
	c-11.349,0-18.491-7.146-18.491-19.337v-65.992c0-14.713,7.142-21.018,20.593-21.018h187.893c18.495,0,28.162,8.408,28.162,28.164
	v25.219c0,14.713-2.52,22.28-11.768,32.788L716.467,589.577h82.388v-37.41c0-12.191,7.565-19.756,18.495-19.756h26.479
	c11.349,0,18.495,7.565,18.495,19.756v68.937C862.325,635.815,855.178,642.12,841.727,642.12z M895.092,584.532
	c0-18.073,7.988-27.32,29.426-27.32h26.06c21.438,0,29.422,9.248,29.422,27.32V614.8c0,18.073-7.984,27.32-29.422,27.32h-26.06
	c-21.438,0-29.426-9.248-29.426-27.32V584.532z"/>
</svg>
